<svg xmlns="http://www.w3.org/2000/svg" viewBox="0 0 960 420" role="img" aria-label="meteor-72 unique card art">
  <defs>
    <linearGradient id="sky-meteor-72" x1="0" y1="0" x2="1" y2="1"><stop offset="0" stop-color="#071126"/><stop offset="0.52" stop-color="#4d2381"/><stop offset="1" stop-color="#090812"/></linearGradient>
    <linearGradient id="tower-meteor-72" x1="0" y1="0" x2="1" y2="1"><stop offset="0" stop-color="#101827"/><stop offset="0.5" stop-color="#4d2381"/><stop offset="1" stop-color="#03060c"/></linearGradient>
    <radialGradient id="orb-meteor-72" cx="50%" cy="50%" r="55%"><stop offset="0" stop-color="#d9dfff"/><stop offset="0.42" stop-color="#ffe45e" stop-opacity="0.62"/><stop offset="1" stop-color="#ffe45e" stop-opacity="0"/></radialGradient>
    <filter id="glow-meteor-72" x="-20%" y="-20%" width="140%" height="140%"><feGaussianBlur stdDeviation="5" result="b"/><feMerge><feMergeNode in="b"/><feMergeNode in="SourceGraphic"/></feMerge></filter>
  </defs>
  <rect width="960" height="420" fill="url(#sky-meteor-72)"/>
  <circle cx="735" cy="49" r="38" fill="url(#orb-meteor-72)" filter="url(#glow-meteor-72)"/>
  <circle cx="193" cy="53" r="1.4" fill="#ffffff" opacity="0.72"/><circle cx="276" cy="65" r="1.5" fill="#ffffff" opacity="0.72"/><circle cx="359" cy="86" r="1.6" fill="#ffffff" opacity="0.72"/><circle cx="442" cy="28" r="1.6" fill="#ffffff" opacity="0.72"/><circle cx="525" cy="179" r="1.7" fill="#ffffff" opacity="0.72"/><circle cx="608" cy="20" r="1.8" fill="#ffffff" opacity="0.72"/><circle cx="691" cy="38" r="1.9" fill="#ffffff" opacity="0.72"/><circle cx="774" cy="62" r="2.0" fill="#ffffff" opacity="0.72"/><circle cx="857" cy="88" r="2.0" fill="#ffffff" opacity="0.72"/><circle cx="28" cy="116" r="2.1" fill="#ffffff" opacity="0.72"/><circle cx="111" cy="61" r="2.2" fill="#ffffff" opacity="0.72"/><circle cx="194" cy="131" r="0.8" fill="#ffffff" opacity="0.72"/><circle cx="277" cy="98" r="0.9" fill="#ffffff" opacity="0.72"/><circle cx="360" cy="96" r="1.0" fill="#ffffff" opacity="0.72"/><circle cx="443" cy="26" r="1.1" fill="#ffffff" opacity="0.72"/><circle cx="526" cy="172" r="1.1" fill="#ffffff" opacity="0.72"/><circle cx="609" cy="185" r="1.2" fill="#ffffff" opacity="0.72"/><circle cx="692" cy="31" r="1.3" fill="#ffffff" opacity="0.72"/><circle cx="775" cy="52" r="1.4" fill="#ffffff" opacity="0.72"/><circle cx="858" cy="160" r="1.5" fill="#ffffff" opacity="0.72"/><circle cx="29" cy="145" r="1.6" fill="#ffffff" opacity="0.72"/><circle cx="112" cy="152" r="1.6" fill="#ffffff" opacity="0.72"/><circle cx="195" cy="170" r="1.7" fill="#ffffff" opacity="0.72"/><circle cx="278" cy="28" r="1.8" fill="#ffffff" opacity="0.72"/><circle cx="361" cy="54" r="1.9" fill="#ffffff" opacity="0.72"/><circle cx="444" cy="82" r="2.0" fill="#ffffff" opacity="0.72"/><circle cx="527" cy="27" r="2.0" fill="#ffffff" opacity="0.72"/><circle cx="610" cy="97" r="2.1" fill="#ffffff" opacity="0.72"/><circle cx="693" cy="64" r="2.2" fill="#ffffff" opacity="0.72"/><circle cx="776" cy="62" r="0.8" fill="#ffffff" opacity="0.72"/><circle cx="859" cy="158" r="0.9" fill="#ffffff" opacity="0.72"/><circle cx="30" cy="138" r="1.0" fill="#ffffff" opacity="0.72"/><circle cx="113" cy="151" r="1.1" fill="#ffffff" opacity="0.72"/><circle cx="196" cy="163" r="1.1" fill="#ffffff" opacity="0.72"/>
  <path d="M515 38 C645 92, 795 122, 915 208" fill="none" stroke="#fff7b0" stroke-width="14" opacity="0.5"/><circle cx="920" cy="210" r="18" fill="#fff3a0" opacity="0.9"/>
  <polyline points="0,260 0,248 140,241 280,238 420,271 560,288 700,296 840,265 980,285 960,250 960,420 0,420" fill="#050b14" opacity="0.42"/>
  <polyline points="0,220 0,180 120,219 240,199 360,189 480,184 600,221 720,200 840,229 960,243 960,210 960,420 0,420" fill="#0a1422" opacity="0.48"/>
  <g opacity="0.9"><rect x="417" y="78" width="50" height="133" rx="8.333333333333334" fill="url(#tower-meteor-72)"/><rect x="435" y="88" width="9" height="111" rx="3" fill="#ffe45e" opacity="0.42"/><polygon points="409,78 442,46 475,78" fill="#fff7c4" opacity="0.82"/></g><g opacity="0.9"><rect x="566" y="76" width="36" height="159" rx="6" fill="url(#tower-meteor-72)"/><rect x="578.96" y="86" width="6.4799999999999995" height="137" rx="3" fill="#ffe45e" opacity="0.42"/><ellipse cx="584" cy="76" rx="25.919999999999998" ry="7" fill="#fff7c4" opacity="0.74"/></g><g opacity="0.9"><rect x="715" y="39" width="45" height="172" rx="7.5" fill="url(#tower-meteor-72)"/><rect x="731.2" y="49" width="8.1" height="150" rx="3" fill="#ffe45e" opacity="0.42"/><rect x="710" y="30" width="55" height="9" rx="4" fill="#fff7c4" opacity="0.66"/></g><g opacity="0.9"><rect x="74" y="56" width="33" height="179" rx="5.5" fill="url(#tower-meteor-72)"/><rect x="85.88" y="66" width="5.9399999999999995" height="157" rx="3" fill="#ffe45e" opacity="0.42"/><polygon points="66,56 90.5,24 115,56" fill="#fff7c4" opacity="0.82"/></g><g opacity="0.9"><rect x="223" y="83" width="43" height="128" rx="7.166666666666667" fill="url(#tower-meteor-72)"/><rect x="238.48" y="93" width="7.739999999999999" height="106" rx="3" fill="#ffe45e" opacity="0.42"/><ellipse cx="244.5" cy="83" rx="30.959999999999997" ry="7" fill="#fff7c4" opacity="0.74"/></g><g opacity="0.9"><rect x="372" y="78" width="48" height="157" rx="8" fill="url(#tower-meteor-72)"/><rect x="389.28" y="88" width="8.64" height="135" rx="3" fill="#ffe45e" opacity="0.42"/><rect x="367" y="69" width="58" height="9" rx="4" fill="#fff7c4" opacity="0.66"/></g>
  <path d="M0 330 L90 298 L164 326 L258 286 L354 326 L478 292 L612 328 L740 276 L842 322 L960 294 L960 420 L0 420 Z" fill="#1c1230" opacity="0.82"/><path d="M80 320 H884" stroke="#ffe45e" stroke-width="4" opacity="0.38"/>
  <path d="M0 382 H960" stroke="#ffe45e" stroke-width="2" opacity="0.42"/>
  <path d="M101 392 C267 350, 573 410, 870 372" fill="none" stroke="#fff7c4" stroke-width="4" opacity="0.34"/>
  <text x="28" y="40" fill="#fff7c4" font-family="monospace" font-size="18" letter-spacing="5" opacity="0.5">72 STARFALL</text>
</svg>