<svg xmlns="http://www.w3.org/2000/svg" viewBox="0 0 960 420" role="img" aria-label="meteor-79 unique card art">
  <defs>
    <linearGradient id="sky-meteor-79" x1="0" y1="0" x2="1" y2="1"><stop offset="0" stop-color="#162b45"/><stop offset="0.52" stop-color="#4d2381"/><stop offset="1" stop-color="#090812"/></linearGradient>
    <linearGradient id="tower-meteor-79" x1="0" y1="0" x2="1" y2="1"><stop offset="0" stop-color="#101827"/><stop offset="0.5" stop-color="#4d2381"/><stop offset="1" stop-color="#03060c"/></linearGradient>
    <radialGradient id="orb-meteor-79" cx="50%" cy="50%" r="55%"><stop offset="0" stop-color="#fff0a8"/><stop offset="0.42" stop-color="#ffe45e" stop-opacity="0.62"/><stop offset="1" stop-color="#ffe45e" stop-opacity="0"/></radialGradient>
    <filter id="glow-meteor-79" x="-20%" y="-20%" width="140%" height="140%"><feGaussianBlur stdDeviation="5" result="b"/><feMerge><feMergeNode in="b"/><feMergeNode in="SourceGraphic"/></feMerge></filter>
  </defs>
  <rect width="960" height="420" fill="url(#sky-meteor-79)"/>
  <circle cx="667" cy="53" r="54" fill="url(#orb-meteor-79)" filter="url(#glow-meteor-79)"/>
  <circle cx="704" cy="48" r="1.0" fill="#ffffff" opacity="0.22"/><circle cx="787" cy="63" r="1.1" fill="#ffffff" opacity="0.22"/><circle cx="870" cy="168" r="1.1" fill="#ffffff" opacity="0.22"/><circle cx="41" cy="152" r="1.2" fill="#ffffff" opacity="0.22"/><circle cx="124" cy="75" r="1.3" fill="#ffffff" opacity="0.22"/><circle cx="207" cy="51" r="1.4" fill="#ffffff" opacity="0.22"/><circle cx="290" cy="54" r="1.5" fill="#ffffff" opacity="0.22"/><circle cx="373" cy="70" r="1.6" fill="#ffffff" opacity="0.22"/><circle cx="456" cy="92" r="1.6" fill="#ffffff" opacity="0.22"/><circle cx="539" cy="118" r="1.7" fill="#ffffff" opacity="0.22"/><circle cx="622" cy="145" r="1.8" fill="#ffffff" opacity="0.22"/><circle cx="705" cy="90" r="1.9" fill="#ffffff" opacity="0.22"/>
  <path d="M447 38 C577 92, 727 122, 847 208" fill="none" stroke="#fff7b0" stroke-width="14" opacity="0.5"/><circle cx="852" cy="210" r="18" fill="#fff3a0" opacity="0.9"/>
  <polyline points="0,260 0,251 140,243 280,274 420,289 560,262 700,248 840,276 980,255 960,250 960,420 0,420" fill="#050b14" opacity="0.42"/>
  <polyline points="0,220 0,188 120,223 240,201 360,190 480,224 600,241 720,210 840,195 960,187 960,210 960,420 0,420" fill="#0a1422" opacity="0.48"/>
  <g opacity="0.9"><rect x="782" y="71" width="34" height="171" rx="5.666666666666667" fill="url(#tower-meteor-79)"/><rect x="794.24" y="81" width="6.12" height="149" rx="3" fill="#ffe45e" opacity="0.42"/><ellipse cx="799" cy="71" rx="24.48" ry="7" fill="#fff7c4" opacity="0.74"/></g><g opacity="0.9"><rect x="141" y="88" width="28" height="178" rx="4.666666666666667" fill="url(#tower-meteor-79)"/><rect x="151.08" y="98" width="5.04" height="156" rx="3" fill="#ffe45e" opacity="0.42"/><rect x="136" y="79" width="38" height="9" rx="4" fill="#fff7c4" opacity="0.66"/></g><g opacity="0.9"><rect x="290" y="114" width="41" height="128" rx="6.833333333333333" fill="url(#tower-meteor-79)"/><rect x="304.76" y="124" width="7.38" height="106" rx="3" fill="#ffe45e" opacity="0.42"/><polygon points="282,114 310.5,82 339,114" fill="#fff7c4" opacity="0.82"/></g><g opacity="0.9"><rect x="439" y="163" width="31" height="103" rx="5.166666666666667" fill="url(#tower-meteor-79)"/><rect x="450.16" y="173" width="5.58" height="81" rx="3" fill="#ffe45e" opacity="0.42"/><ellipse cx="454.5" cy="163" rx="22.32" ry="7" fill="#fff7c4" opacity="0.74"/></g><g opacity="0.9"><rect x="588" y="98" width="42" height="144" rx="7" fill="url(#tower-meteor-79)"/><rect x="603.12" y="108" width="7.56" height="122" rx="3" fill="#ffe45e" opacity="0.42"/><rect x="583" y="89" width="52" height="9" rx="4" fill="#fff7c4" opacity="0.66"/></g>
  <path d="M0 366 C140 312, 244 418, 390 366 S672 336, 960 386 L960 420 L0 420 Z" fill="#104c64" opacity="0.82"/><path d="M0 384 C144 344, 250 440, 392 388 S690 364, 960 412" fill="none" stroke="#ffe45e" stroke-width="10" opacity="0.36"/>
  <path d="M0 382 H960" stroke="#ffe45e" stroke-width="2" opacity="0.42"/>
  <path d="M96 392 C273 350, 629 410, 869 372" fill="none" stroke="#fff7c4" stroke-width="4" opacity="0.34"/>
  <text x="28" y="40" fill="#fff7c4" font-family="monospace" font-size="18" letter-spacing="5" opacity="0.5">79 STARFALL</text>
</svg>