<svg xmlns="http://www.w3.org/2000/svg" viewBox="0 0 960 420" role="img" aria-label="meteor-75 unique card art">
  <defs>
    <linearGradient id="sky-meteor-75" x1="0" y1="0" x2="1" y2="1"><stop offset="0" stop-color="#162b45"/><stop offset="0.52" stop-color="#4d2381"/><stop offset="1" stop-color="#090812"/></linearGradient>
    <linearGradient id="tower-meteor-75" x1="0" y1="0" x2="1" y2="1"><stop offset="0" stop-color="#101827"/><stop offset="0.5" stop-color="#4d2381"/><stop offset="1" stop-color="#03060c"/></linearGradient>
    <radialGradient id="orb-meteor-75" cx="50%" cy="50%" r="55%"><stop offset="0" stop-color="#fff0a8"/><stop offset="0.42" stop-color="#ffe45e" stop-opacity="0.62"/><stop offset="1" stop-color="#ffe45e" stop-opacity="0"/></radialGradient>
    <filter id="glow-meteor-75" x="-20%" y="-20%" width="140%" height="140%"><feGaussianBlur stdDeviation="5" result="b"/><feMerge><feMergeNode in="b"/><feMergeNode in="SourceGraphic"/></feMerge></filter>
  </defs>
  <rect width="960" height="420" fill="url(#sky-meteor-75)"/>
  <circle cx="577" cy="144" r="54" fill="url(#orb-meteor-75)" filter="url(#glow-meteor-75)"/>
  <circle cx="660" cy="52" r="1.3" fill="#ffffff" opacity="0.22"/><circle cx="743" cy="65" r="1.4" fill="#ffffff" opacity="0.22"/><circle cx="826" cy="169" r="1.5" fill="#ffffff" opacity="0.22"/><circle cx="909" cy="152" r="1.6" fill="#ffffff" opacity="0.22"/><circle cx="80" cy="158" r="1.6" fill="#ffffff" opacity="0.22"/><circle cx="163" cy="93" r="1.7" fill="#ffffff" opacity="0.22"/><circle cx="246" cy="75" r="1.8" fill="#ffffff" opacity="0.22"/><circle cx="329" cy="163" r="1.9" fill="#ffffff" opacity="0.22"/><circle cx="412" cy="56" r="2.0" fill="#ffffff" opacity="0.22"/><circle cx="495" cy="183" r="2.0" fill="#ffffff" opacity="0.22"/><circle cx="578" cy="178" r="2.1" fill="#ffffff" opacity="0.22"/><circle cx="661" cy="24" r="2.2" fill="#ffffff" opacity="0.22"/>
  <path d="M357 38 C487 92, 637 122, 757 208" fill="none" stroke="#fff7b0" stroke-width="14" opacity="0.5"/><circle cx="762" cy="210" r="18" fill="#fff3a0" opacity="0.9"/>
  <polyline points="0,260 0,249 140,242 280,273 420,289 560,297 700,301 840,268 980,251 960,250 960,420 0,420" fill="#050b14" opacity="0.42"/>
  <polyline points="0,220 0,213 120,235 240,246 360,252 480,255 600,256 720,218 840,238 960,248 960,210 960,420 0,420" fill="#0a1422" opacity="0.48"/>
  <g opacity="0.9"><rect x="806" y="76" width="28" height="162" rx="4.666666666666667" fill="url(#tower-meteor-75)"/><rect x="816.08" y="86" width="5.04" height="140" rx="3" fill="#ffe45e" opacity="0.42"/><rect x="801" y="67" width="38" height="9" rx="4" fill="#fff7c4" opacity="0.66"/></g><g opacity="0.9"><rect x="165" y="142" width="41" height="120" rx="6.833333333333333" fill="url(#tower-meteor-75)"/><rect x="179.76" y="152" width="7.38" height="98" rx="3" fill="#ffe45e" opacity="0.42"/><polygon points="157,142 185.5,110 214,142" fill="#fff7c4" opacity="0.82"/></g><g opacity="0.9"><rect x="314" y="139" width="31" height="99" rx="5.166666666666667" fill="url(#tower-meteor-75)"/><rect x="325.16" y="149" width="5.58" height="77" rx="3" fill="#ffe45e" opacity="0.42"/><ellipse cx="329.5" cy="139" rx="22.32" ry="7" fill="#fff7c4" opacity="0.74"/></g><g opacity="0.9"><rect x="463" y="120" width="26" height="142" rx="4.333333333333333" fill="url(#tower-meteor-75)"/><rect x="472.36" y="130" width="4.68" height="120" rx="3" fill="#ffe45e" opacity="0.42"/><rect x="458" y="111" width="36" height="9" rx="4" fill="#fff7c4" opacity="0.66"/></g><g opacity="0.9"><rect x="612" y="128" width="24" height="110" rx="4" fill="url(#tower-meteor-75)"/><rect x="620.64" y="138" width="4.32" height="88" rx="3" fill="#ffe45e" opacity="0.42"/><polygon points="604,128 624,96 644,128" fill="#fff7c4" opacity="0.82"/></g>
  <path d="M0 376 C140 322, 244 428, 390 376 S672 346, 960 396 L960 420 L0 420 Z" fill="#104c64" opacity="0.82"/><path d="M0 394 C144 354, 250 450, 392 398 S690 374, 960 422" fill="none" stroke="#ffe45e" stroke-width="10" opacity="0.36"/>
  <path d="M0 382 H960" stroke="#ffe45e" stroke-width="2" opacity="0.42"/>
  <path d="M100 392 C268 350, 608 410, 837 372" fill="none" stroke="#fff7c4" stroke-width="4" opacity="0.34"/>
  <text x="28" y="40" fill="#fff7c4" font-family="monospace" font-size="18" letter-spacing="5" opacity="0.5">75 STARFALL</text>
</svg>