<svg xmlns="http://www.w3.org/2000/svg" viewBox="0 0 960 420" role="img" aria-label="meteor-82 unique card art">
  <defs>
    <linearGradient id="sky-meteor-82" x1="0" y1="0" x2="1" y2="1"><stop offset="0" stop-color="#071126"/><stop offset="0.52" stop-color="#4d2381"/><stop offset="1" stop-color="#090812"/></linearGradient>
    <linearGradient id="tower-meteor-82" x1="0" y1="0" x2="1" y2="1"><stop offset="0" stop-color="#101827"/><stop offset="0.5" stop-color="#4d2381"/><stop offset="1" stop-color="#03060c"/></linearGradient>
    <radialGradient id="orb-meteor-82" cx="50%" cy="50%" r="55%"><stop offset="0" stop-color="#d9dfff"/><stop offset="0.42" stop-color="#ffe45e" stop-opacity="0.62"/><stop offset="1" stop-color="#ffe45e" stop-opacity="0"/></radialGradient>
    <filter id="glow-meteor-82" x="-20%" y="-20%" width="140%" height="140%"><feGaussianBlur stdDeviation="5" result="b"/><feMerge><feMergeNode in="b"/><feMergeNode in="SourceGraphic"/></feMerge></filter>
  </defs>
  <rect width="960" height="420" fill="url(#sky-meteor-82)"/>
  <circle cx="383" cy="136" r="38" fill="url(#orb-meteor-82)" filter="url(#glow-meteor-82)"/>
  <circle cx="306" cy="148" r="0.8" fill="#ffffff" opacity="0.72"/><circle cx="389" cy="30" r="0.9" fill="#ffffff" opacity="0.72"/><circle cx="472" cy="68" r="1.0" fill="#ffffff" opacity="0.72"/><circle cx="555" cy="102" r="1.1" fill="#ffffff" opacity="0.72"/><circle cx="638" cy="133" r="1.1" fill="#ffffff" opacity="0.72"/><circle cx="721" cy="80" r="1.2" fill="#ffffff" opacity="0.72"/><circle cx="804" cy="68" r="1.3" fill="#ffffff" opacity="0.72"/><circle cx="887" cy="77" r="1.4" fill="#ffffff" opacity="0.72"/><circle cx="58" cy="96" r="1.5" fill="#ffffff" opacity="0.72"/><circle cx="141" cy="37" r="1.6" fill="#ffffff" opacity="0.72"/><circle cx="224" cy="22" r="1.6" fill="#ffffff" opacity="0.72"/><circle cx="307" cy="29" r="1.7" fill="#ffffff" opacity="0.72"/><circle cx="390" cy="130" r="1.8" fill="#ffffff" opacity="0.72"/><circle cx="473" cy="29" r="1.9" fill="#ffffff" opacity="0.72"/><circle cx="556" cy="76" r="2.0" fill="#ffffff" opacity="0.72"/><circle cx="639" cy="114" r="2.0" fill="#ffffff" opacity="0.72"/><circle cx="722" cy="114" r="2.1" fill="#ffffff" opacity="0.72"/><circle cx="805" cy="162" r="2.2" fill="#ffffff" opacity="0.72"/><circle cx="888" cy="34" r="0.8" fill="#ffffff" opacity="0.72"/><circle cx="59" cy="68" r="0.9" fill="#ffffff" opacity="0.72"/><circle cx="142" cy="99" r="1.0" fill="#ffffff" opacity="0.72"/><circle cx="225" cy="46" r="1.1" fill="#ffffff" opacity="0.72"/><circle cx="308" cy="34" r="1.1" fill="#ffffff" opacity="0.72"/><circle cx="391" cy="43" r="1.2" fill="#ffffff" opacity="0.72"/><circle cx="474" cy="62" r="1.3" fill="#ffffff" opacity="0.72"/><circle cx="557" cy="169" r="1.4" fill="#ffffff" opacity="0.72"/><circle cx="640" cy="154" r="1.5" fill="#ffffff" opacity="0.72"/><circle cx="723" cy="161" r="1.6" fill="#ffffff" opacity="0.72"/><circle cx="806" cy="96" r="1.6" fill="#ffffff" opacity="0.72"/><circle cx="889" cy="161" r="1.7" fill="#ffffff" opacity="0.72"/><circle cx="60" cy="42" r="1.8" fill="#ffffff" opacity="0.72"/><circle cx="143" cy="80" r="1.9" fill="#ffffff" opacity="0.72"/><circle cx="226" cy="80" r="2.0" fill="#ffffff" opacity="0.72"/><circle cx="309" cy="128" r="2.0" fill="#ffffff" opacity="0.72"/>
  <path d="M163 38 C293 92, 443 122, 563 208" fill="none" stroke="#fff7b0" stroke-width="14" opacity="0.5"/><circle cx="568" cy="210" r="18" fill="#fff3a0" opacity="0.9"/>
  <polyline points="0,260 0,280 140,257 280,281 420,293 560,299 700,267 840,251 980,243 960,250 960,420 0,420" fill="#050b14" opacity="0.42"/>
  <polyline points="0,220 0,208 120,233 240,245 360,251 480,254 600,256 720,218 840,238 960,248 960,210 960,420 0,420" fill="#0a1422" opacity="0.48"/>
  <g opacity="0.9"><rect x="312" y="47" width="51" height="173" rx="8.5" fill="url(#tower-meteor-82)"/><rect x="330.36" y="57" width="9.18" height="151" rx="3" fill="#ffe45e" opacity="0.42"/><rect x="307" y="38" width="61" height="9" rx="4" fill="#fff7c4" opacity="0.66"/></g><g opacity="0.9"><rect x="461" y="65" width="36" height="179" rx="6" fill="url(#tower-meteor-82)"/><rect x="473.96" y="75" width="6.4799999999999995" height="157" rx="3" fill="#ffe45e" opacity="0.42"/><polygon points="453,65 479,33 505,65" fill="#fff7c4" opacity="0.82"/></g><g opacity="0.9"><rect x="610" y="38" width="29" height="182" rx="4.833333333333333" fill="url(#tower-meteor-82)"/><rect x="620.44" y="48" width="5.22" height="160" rx="3" fill="#ffe45e" opacity="0.42"/><ellipse cx="624.5" cy="38" rx="20.88" ry="7" fill="#fff7c4" opacity="0.74"/></g><g opacity="0.9"><rect x="759" y="114" width="25" height="130" rx="4.166666666666667" fill="url(#tower-meteor-82)"/><rect x="768" y="124" width="4.5" height="108" rx="3" fill="#ffe45e" opacity="0.42"/><rect x="754" y="105" width="35" height="9" rx="4" fill="#fff7c4" opacity="0.66"/></g><g opacity="0.9"><rect x="118" y="62" width="23" height="158" rx="4" fill="url(#tower-meteor-82)"/><rect x="126.28" y="72" width="4.14" height="136" rx="3" fill="#ffe45e" opacity="0.42"/><polygon points="110,62 129.5,30 149,62" fill="#fff7c4" opacity="0.82"/></g><g opacity="0.9"><rect x="267" y="126" width="22" height="118" rx="4" fill="url(#tower-meteor-82)"/><rect x="274.92" y="136" width="4" height="96" rx="3" fill="#ffe45e" opacity="0.42"/><ellipse cx="278" cy="126" rx="15.84" ry="7" fill="#fff7c4" opacity="0.74"/></g><g opacity="0.9"><rect x="416" y="122" width="22" height="98" rx="4" fill="url(#tower-meteor-82)"/><rect x="423.92" y="132" width="4" height="76" rx="3" fill="#ffe45e" opacity="0.42"/><rect x="411" y="113" width="32" height="9" rx="4" fill="#fff7c4" opacity="0.66"/></g>
  <path d="M0 326 C146 256, 290 380, 430 306 S706 250, 960 310 L960 420 L0 420 Z" fill="#6c4b24" opacity="0.86"/><path d="M0 355 C160 318, 300 392, 474 346 S776 318, 960 362" fill="none" stroke="#ffe45e" stroke-width="8" opacity="0.32"/>
  <path d="M0 382 H960" stroke="#ffe45e" stroke-width="2" opacity="0.42"/>
  <path d="M166 392 C331 350, 536 410, 874 372" fill="none" stroke="#fff7c4" stroke-width="4" opacity="0.34"/>
  <text x="28" y="40" fill="#fff7c4" font-family="monospace" font-size="18" letter-spacing="5" opacity="0.5">82 STARFALL</text>
</svg>