<svg xmlns="http://www.w3.org/2000/svg" viewBox="0 0 960 420" role="img" aria-label="meteor-78 unique card art">
  <defs>
    <linearGradient id="sky-meteor-78" x1="0" y1="0" x2="1" y2="1"><stop offset="0" stop-color="#071126"/><stop offset="0.52" stop-color="#4d2381"/><stop offset="1" stop-color="#090812"/></linearGradient>
    <linearGradient id="tower-meteor-78" x1="0" y1="0" x2="1" y2="1"><stop offset="0" stop-color="#101827"/><stop offset="0.5" stop-color="#4d2381"/><stop offset="1" stop-color="#03060c"/></linearGradient>
    <radialGradient id="orb-meteor-78" cx="50%" cy="50%" r="55%"><stop offset="0" stop-color="#d9dfff"/><stop offset="0.42" stop-color="#ffe45e" stop-opacity="0.62"/><stop offset="1" stop-color="#ffe45e" stop-opacity="0"/></radialGradient>
    <filter id="glow-meteor-78" x="-20%" y="-20%" width="140%" height="140%"><feGaussianBlur stdDeviation="5" result="b"/><feMerge><feMergeNode in="b"/><feMergeNode in="SourceGraphic"/></feMerge></filter>
  </defs>
  <rect width="960" height="420" fill="url(#sky-meteor-78)"/>
  <circle cx="509" cy="148" r="38" fill="url(#orb-meteor-78)" filter="url(#glow-meteor-78)"/>
  <circle cx="259" cy="47" r="0.9" fill="#ffffff" opacity="0.72"/><circle cx="342" cy="62" r="1.0" fill="#ffffff" opacity="0.72"/><circle cx="425" cy="84" r="1.1" fill="#ffffff" opacity="0.72"/><circle cx="508" cy="110" r="1.1" fill="#ffffff" opacity="0.72"/><circle cx="591" cy="54" r="1.2" fill="#ffffff" opacity="0.72"/><circle cx="674" cy="124" r="1.3" fill="#ffffff" opacity="0.72"/><circle cx="757" cy="90" r="1.4" fill="#ffffff" opacity="0.72"/><circle cx="840" cy="171" r="1.5" fill="#ffffff" opacity="0.72"/><circle cx="923" cy="60" r="1.6" fill="#ffffff" opacity="0.72"/><circle cx="94" cy="185" r="1.6" fill="#ffffff" opacity="0.72"/><circle cx="177" cy="96" r="1.7" fill="#ffffff" opacity="0.72"/><circle cx="260" cy="149" r="1.8" fill="#ffffff" opacity="0.72"/><circle cx="343" cy="107" r="1.9" fill="#ffffff" opacity="0.72"/><circle cx="426" cy="100" r="2.0" fill="#ffffff" opacity="0.72"/><circle cx="509" cy="28" r="2.0" fill="#ffffff" opacity="0.72"/><circle cx="592" cy="90" r="2.1" fill="#ffffff" opacity="0.72"/><circle cx="675" cy="179" r="2.2" fill="#ffffff" opacity="0.72"/><circle cx="758" cy="28" r="0.8" fill="#ffffff" opacity="0.72"/><circle cx="841" cy="50" r="0.9" fill="#ffffff" opacity="0.72"/><circle cx="924" cy="76" r="1.0" fill="#ffffff" opacity="0.72"/><circle cx="95" cy="20" r="1.1" fill="#ffffff" opacity="0.72"/><circle cx="178" cy="90" r="1.1" fill="#ffffff" opacity="0.72"/><circle cx="261" cy="56" r="1.2" fill="#ffffff" opacity="0.72"/><circle cx="344" cy="137" r="1.3" fill="#ffffff" opacity="0.72"/><circle cx="427" cy="26" r="1.4" fill="#ffffff" opacity="0.72"/><circle cx="510" cy="151" r="1.5" fill="#ffffff" opacity="0.72"/><circle cx="593" cy="62" r="1.6" fill="#ffffff" opacity="0.72"/><circle cx="676" cy="115" r="1.6" fill="#ffffff" opacity="0.72"/><circle cx="759" cy="73" r="1.7" fill="#ffffff" opacity="0.72"/><circle cx="842" cy="66" r="1.8" fill="#ffffff" opacity="0.72"/><circle cx="925" cy="160" r="1.9" fill="#ffffff" opacity="0.72"/><circle cx="96" cy="56" r="2.0" fill="#ffffff" opacity="0.72"/><circle cx="179" cy="145" r="2.0" fill="#ffffff" opacity="0.72"/><circle cx="262" cy="160" r="2.1" fill="#ffffff" opacity="0.72"/>
  <path d="M289 38 C419 92, 569 122, 689 208" fill="none" stroke="#fff7b0" stroke-width="14" opacity="0.5"/><circle cx="694" cy="210" r="18" fill="#fff3a0" opacity="0.9"/>
  <polyline points="0,260 0,252 140,243 280,239 420,237 560,271 700,253 840,279 980,292 960,250 960,420 0,420" fill="#050b14" opacity="0.42"/>
  <polyline points="0,220 0,220 120,239 240,248 360,253 480,216 600,198 720,228 840,204 960,192 960,210 960,420 0,420" fill="#0a1422" opacity="0.48"/>
  <g opacity="0.9"><rect x="381" y="125" width="43" height="92" rx="7.166666666666667" fill="url(#tower-meteor-78)"/><rect x="396.48" y="135" width="7.739999999999999" height="70" rx="3" fill="#ffe45e" opacity="0.42"/><polygon points="373,125 402.5,93 432,125" fill="#fff7c4" opacity="0.82"/></g><g opacity="0.9"><rect x="530" y="102" width="32" height="139" rx="5.333333333333333" fill="url(#tower-meteor-78)"/><rect x="541.52" y="112" width="5.76" height="117" rx="3" fill="#ffe45e" opacity="0.42"/><ellipse cx="546" cy="102" rx="23.04" ry="7" fill="#fff7c4" opacity="0.74"/></g><g opacity="0.9"><rect x="679" y="55" width="27" height="162" rx="4.5" fill="url(#tower-meteor-78)"/><rect x="688.72" y="65" width="4.859999999999999" height="140" rx="3" fill="#ffe45e" opacity="0.42"/><rect x="674" y="46" width="37" height="9" rx="4" fill="#fff7c4" opacity="0.66"/></g><g opacity="0.9"><rect x="828" y="67" width="24" height="174" rx="4" fill="url(#tower-meteor-78)"/><rect x="836.64" y="77" width="4.32" height="152" rx="3" fill="#ffe45e" opacity="0.42"/><polygon points="820,67 840,35 860,67" fill="#fff7c4" opacity="0.82"/></g>
  <path d="M0 326 C146 256, 290 380, 430 306 S706 250, 960 310 L960 420 L0 420 Z" fill="#6c4b24" opacity="0.86"/><path d="M0 355 C160 318, 300 392, 474 346 S776 318, 960 362" fill="none" stroke="#ffe45e" stroke-width="8" opacity="0.32"/>
  <path d="M0 382 H960" stroke="#ffe45e" stroke-width="2" opacity="0.42"/>
  <path d="M95 392 C274 350, 544 410, 836 372" fill="none" stroke="#fff7c4" stroke-width="4" opacity="0.34"/>
  <text x="28" y="40" fill="#fff7c4" font-family="monospace" font-size="18" letter-spacing="5" opacity="0.5">78 STARFALL</text>
</svg>