<svg xmlns="http://www.w3.org/2000/svg" viewBox="0 0 960 420" role="img" aria-label="meteor-83 unique card art">
  <defs>
    <linearGradient id="sky-meteor-83" x1="0" y1="0" x2="1" y2="1"><stop offset="0" stop-color="#162b45"/><stop offset="0.52" stop-color="#4d2381"/><stop offset="1" stop-color="#090812"/></linearGradient>
    <linearGradient id="tower-meteor-83" x1="0" y1="0" x2="1" y2="1"><stop offset="0" stop-color="#101827"/><stop offset="0.5" stop-color="#4d2381"/><stop offset="1" stop-color="#03060c"/></linearGradient>
    <radialGradient id="orb-meteor-83" cx="50%" cy="50%" r="55%"><stop offset="0" stop-color="#fff0a8"/><stop offset="0.42" stop-color="#ffe45e" stop-opacity="0.62"/><stop offset="1" stop-color="#ffe45e" stop-opacity="0"/></radialGradient>
    <filter id="glow-meteor-83" x="-20%" y="-20%" width="140%" height="140%"><feGaussianBlur stdDeviation="5" result="b"/><feMerge><feMergeNode in="b"/><feMergeNode in="SourceGraphic"/></feMerge></filter>
  </defs>
  <rect width="960" height="420" fill="url(#sky-meteor-83)"/>
  <circle cx="225" cy="113" r="54" fill="url(#orb-meteor-83)" filter="url(#glow-meteor-83)"/>
  <circle cx="773" cy="147" r="2.2" fill="#ffffff" opacity="0.22"/><circle cx="856" cy="29" r="0.8" fill="#ffffff" opacity="0.22"/><circle cx="27" cy="151" r="0.9" fill="#ffffff" opacity="0.22"/><circle cx="110" cy="60" r="1.0" fill="#ffffff" opacity="0.22"/><circle cx="193" cy="112" r="1.1" fill="#ffffff" opacity="0.22"/><circle cx="276" cy="153" r="1.1" fill="#ffffff" opacity="0.22"/><circle cx="359" cy="105" r="1.2" fill="#ffffff" opacity="0.22"/><circle cx="442" cy="178" r="1.3" fill="#ffffff" opacity="0.22"/><circle cx="525" cy="63" r="1.4" fill="#ffffff" opacity="0.22"/><circle cx="608" cy="103" r="1.5" fill="#ffffff" opacity="0.22"/><circle cx="691" cy="138" r="1.6" fill="#ffffff" opacity="0.22"/><circle cx="774" cy="87" r="1.6" fill="#ffffff" opacity="0.22"/>
  <path d="M30 38 C135 92, 285 122, 405 208" fill="none" stroke="#fff7b0" stroke-width="14" opacity="0.5"/><circle cx="410" cy="210" r="18" fill="#fff3a0" opacity="0.9"/>
  <polyline points="0,260 0,281 140,258 280,246 420,240 560,237 700,271 840,253 980,279 960,250 960,420 0,420" fill="#050b14" opacity="0.42"/>
  <polyline points="0,220 0,241 120,249 240,214 360,236 480,247 600,213 720,235 840,246 960,252 960,210 960,420 0,420" fill="#0a1422" opacity="0.48"/>
  <g opacity="0.9"><rect x="701" y="153" width="28" height="94" rx="4.666666666666667" fill="url(#tower-meteor-83)"/><rect x="711.08" y="163" width="5.04" height="72" rx="3" fill="#ffe45e" opacity="0.42"/><ellipse cx="715" cy="153" rx="20.16" ry="7" fill="#fff7c4" opacity="0.74"/></g><g opacity="0.9"><rect x="60" y="131" width="41" height="140" rx="6.833333333333333" fill="url(#tower-meteor-83)"/><rect x="74.76" y="141" width="7.38" height="118" rx="3" fill="#ffe45e" opacity="0.42"/><rect x="55" y="122" width="51" height="9" rx="4" fill="#fff7c4" opacity="0.66"/></g><g opacity="0.9"><rect x="209" y="138" width="47" height="109" rx="7.833333333333333" fill="url(#tower-meteor-83)"/><rect x="225.92" y="148" width="8.459999999999999" height="87" rx="3" fill="#ffe45e" opacity="0.42"/><polygon points="201,138 232.5,106 264,138" fill="#fff7c4" opacity="0.82"/></g><g opacity="0.9"><rect x="358" y="178" width="50" height="93" rx="8.333333333333334" fill="url(#tower-meteor-83)"/><rect x="376" y="188" width="9" height="71" rx="3" fill="#ffe45e" opacity="0.42"/><ellipse cx="383" cy="178" rx="36" ry="7" fill="#fff7c4" opacity="0.74"/></g><g opacity="0.9"><rect x="507" y="108" width="36" height="139" rx="6" fill="url(#tower-meteor-83)"/><rect x="519.96" y="118" width="6.4799999999999995" height="117" rx="3" fill="#ffe45e" opacity="0.42"/><rect x="502" y="99" width="46" height="9" rx="4" fill="#fff7c4" opacity="0.66"/></g>
  <path d="M0 360 C140 306, 244 412, 390 360 S672 330, 960 380 L960 420 L0 420 Z" fill="#104c64" opacity="0.82"/><path d="M0 378 C144 338, 250 434, 392 382 S690 358, 960 406" fill="none" stroke="#ffe45e" stroke-width="10" opacity="0.36"/>
  <path d="M0 382 H960" stroke="#ffe45e" stroke-width="2" opacity="0.42"/>
  <path d="M165 392 C332 350, 571 410, 842 372" fill="none" stroke="#fff7c4" stroke-width="4" opacity="0.34"/>
  <text x="28" y="40" fill="#fff7c4" font-family="monospace" font-size="18" letter-spacing="5" opacity="0.5">83 STARFALL</text>
</svg>