<svg xmlns="http://www.w3.org/2000/svg" viewBox="0 0 960 420" role="img" aria-label="meteor-73 unique card art">
  <defs>
    <linearGradient id="sky-meteor-73" x1="0" y1="0" x2="1" y2="1"><stop offset="0" stop-color="#162b45"/><stop offset="0.52" stop-color="#4d2381"/><stop offset="1" stop-color="#090812"/></linearGradient>
    <linearGradient id="tower-meteor-73" x1="0" y1="0" x2="1" y2="1"><stop offset="0" stop-color="#101827"/><stop offset="0.5" stop-color="#4d2381"/><stop offset="1" stop-color="#03060c"/></linearGradient>
    <radialGradient id="orb-meteor-73" cx="50%" cy="50%" r="55%"><stop offset="0" stop-color="#fff0a8"/><stop offset="0.42" stop-color="#ffe45e" stop-opacity="0.62"/><stop offset="1" stop-color="#ffe45e" stop-opacity="0"/></radialGradient>
    <filter id="glow-meteor-73" x="-20%" y="-20%" width="140%" height="140%"><feGaussianBlur stdDeviation="5" result="b"/><feMerge><feMergeNode in="b"/><feMergeNode in="SourceGraphic"/></feMerge></filter>
  </defs>
  <rect width="960" height="420" fill="url(#sky-meteor-73)"/>
  <circle cx="172" cy="72" r="54" fill="url(#orb-meteor-73)" filter="url(#glow-meteor-73)"/>
  <circle cx="638" cy="54" r="1.5" fill="#ffffff" opacity="0.22"/><circle cx="721" cy="66" r="1.6" fill="#ffffff" opacity="0.22"/><circle cx="804" cy="169" r="1.6" fill="#ffffff" opacity="0.22"/><circle cx="887" cy="69" r="1.7" fill="#ffffff" opacity="0.22"/><circle cx="58" cy="34" r="1.8" fill="#ffffff" opacity="0.22"/><circle cx="141" cy="114" r="1.9" fill="#ffffff" opacity="0.22"/><circle cx="224" cy="168" r="2.0" fill="#ffffff" opacity="0.22"/><circle cx="307" cy="127" r="2.0" fill="#ffffff" opacity="0.22"/><circle cx="390" cy="121" r="2.1" fill="#ffffff" opacity="0.22"/><circle cx="473" cy="49" r="2.2" fill="#ffffff" opacity="0.22"/><circle cx="556" cy="111" r="0.8" fill="#ffffff" opacity="0.22"/><circle cx="639" cy="73" r="0.9" fill="#ffffff" opacity="0.22"/>
  <path d="M30 38 C82 92, 232 122, 352 208" fill="none" stroke="#fff7b0" stroke-width="14" opacity="0.5"/><circle cx="357" cy="210" r="18" fill="#fff3a0" opacity="0.9"/>
  <polyline points="0,260 0,248 140,241 280,273 420,254 560,279 700,292 840,263 980,249 960,250 960,420 0,420" fill="#050b14" opacity="0.42"/>
  <polyline points="0,220 0,225 120,202 240,230 360,205 480,192 600,186 720,183 840,220 960,239 960,210 960,420 0,420" fill="#0a1422" opacity="0.48"/>
  <g opacity="0.9"><rect x="818" y="132" width="41" height="104" rx="6.833333333333333" fill="url(#tower-meteor-73)"/><rect x="832.76" y="142" width="7.38" height="82" rx="3" fill="#ffe45e" opacity="0.42"/><ellipse cx="838.5" cy="132" rx="29.52" ry="7" fill="#fff7c4" opacity="0.74"/></g><g opacity="0.9"><rect x="177" y="169" width="31" height="91" rx="5.166666666666667" fill="url(#tower-meteor-73)"/><rect x="188.16" y="179" width="5.58" height="69" rx="3" fill="#ffe45e" opacity="0.42"/><rect x="172" y="160" width="41" height="9" rx="4" fill="#fff7c4" opacity="0.66"/></g><g opacity="0.9"><rect x="326" y="98" width="26" height="138" rx="4.333333333333333" fill="url(#tower-meteor-73)"/><rect x="335.36" y="108" width="4.68" height="116" rx="3" fill="#ffe45e" opacity="0.42"/><polygon points="318,98 339,66 360,98" fill="#fff7c4" opacity="0.82"/></g><g opacity="0.9"><rect x="475" y="152" width="40" height="108" rx="6.666666666666667" fill="url(#tower-meteor-73)"/><rect x="489.4" y="162" width="7.199999999999999" height="86" rx="3" fill="#ffe45e" opacity="0.42"/><ellipse cx="495" cy="152" rx="28.799999999999997" ry="7" fill="#fff7c4" opacity="0.74"/></g><g opacity="0.9"><rect x="624" y="89" width="31" height="147" rx="5.166666666666667" fill="url(#tower-meteor-73)"/><rect x="635.16" y="99" width="5.58" height="125" rx="3" fill="#ffe45e" opacity="0.42"/><rect x="619" y="80" width="41" height="9" rx="4" fill="#fff7c4" opacity="0.66"/></g><g opacity="0.9"><rect x="773" y="148" width="42" height="112" rx="7" fill="url(#tower-meteor-73)"/><rect x="788.12" y="158" width="7.56" height="90" rx="3" fill="#ffe45e" opacity="0.42"/><polygon points="765,148 794,116 823,148" fill="#fff7c4" opacity="0.82"/></g><g opacity="0.9"><rect x="132" y="141" width="32" height="95" rx="5.333333333333333" fill="url(#tower-meteor-73)"/><rect x="143.52" y="151" width="5.76" height="73" rx="3" fill="#ffe45e" opacity="0.42"/><ellipse cx="148" cy="141" rx="23.04" ry="7" fill="#fff7c4" opacity="0.74"/></g>
  <path d="M0 330 C105 275, 162 316, 260 274 S430 332, 552 282 S760 310, 960 256 L960 420 L0 420 Z" fill="#173d23" opacity="0.84"/><g opacity="0.68"><circle cx="382" cy="346" r="26" fill="#ffe45e"/><circle cx="449" cy="353" r="13" fill="#b7ff91"/><circle cx="516" cy="315" r="24" fill="#b7ff91"/><circle cx="583" cy="296" r="35" fill="#ffe45e"/><circle cx="650" cy="328" r="22" fill="#b7ff91"/><circle cx="717" cy="303" r="33" fill="#b7ff91"/><circle cx="784" cy="290" r="20" fill="#ffe45e"/><circle cx="851" cy="284" r="31" fill="#b7ff91"/><circle cx="918" cy="281" r="18" fill="#b7ff91"/><circle cx="105" cy="320" r="29" fill="#ffe45e"/><circle cx="172" cy="299" r="16" fill="#b7ff91"/><circle cx="239" cy="288" r="27" fill="#b7ff91"/><circle cx="306" cy="346" r="14" fill="#ffe45e"/><circle cx="373" cy="353" r="25" fill="#b7ff91"/></g>
  <path d="M0 382 H960" stroke="#ffe45e" stroke-width="2" opacity="0.42"/>
  <path d="M102 392 C266 350, 538 410, 742 372" fill="none" stroke="#fff7c4" stroke-width="4" opacity="0.34"/>
  <text x="28" y="40" fill="#fff7c4" font-family="monospace" font-size="18" letter-spacing="5" opacity="0.5">73 STARFALL</text>
</svg>