<svg xmlns="http://www.w3.org/2000/svg" viewBox="0 0 960 420" role="img" aria-label="meteor-70 unique card art">
  <defs>
    <linearGradient id="sky-meteor-70" x1="0" y1="0" x2="1" y2="1"><stop offset="0" stop-color="#071126"/><stop offset="0.52" stop-color="#4d2381"/><stop offset="1" stop-color="#090812"/></linearGradient>
    <linearGradient id="tower-meteor-70" x1="0" y1="0" x2="1" y2="1"><stop offset="0" stop-color="#101827"/><stop offset="0.5" stop-color="#4d2381"/><stop offset="1" stop-color="#03060c"/></linearGradient>
    <radialGradient id="orb-meteor-70" cx="50%" cy="50%" r="55%"><stop offset="0" stop-color="#d9dfff"/><stop offset="0.42" stop-color="#ffe45e" stop-opacity="0.62"/><stop offset="1" stop-color="#ffe45e" stop-opacity="0"/></radialGradient>
    <filter id="glow-meteor-70" x="-20%" y="-20%" width="140%" height="140%"><feGaussianBlur stdDeviation="5" result="b"/><feMerge><feMergeNode in="b"/><feMergeNode in="SourceGraphic"/></feMerge></filter>
  </defs>
  <rect width="960" height="420" fill="url(#sky-meteor-70)"/>
  <circle cx="330" cy="95" r="38" fill="url(#orb-meteor-70)" filter="url(#glow-meteor-70)"/>
  <circle cx="171" cy="55" r="1.6" fill="#ffffff" opacity="0.72"/><circle cx="254" cy="66" r="1.6" fill="#ffffff" opacity="0.72"/><circle cx="337" cy="86" r="1.7" fill="#ffffff" opacity="0.72"/><circle cx="420" cy="111" r="1.8" fill="#ffffff" opacity="0.72"/><circle cx="503" cy="55" r="1.9" fill="#ffffff" opacity="0.72"/><circle cx="586" cy="41" r="2.0" fill="#ffffff" opacity="0.72"/><circle cx="669" cy="132" r="2.0" fill="#ffffff" opacity="0.72"/><circle cx="752" cy="26" r="2.1" fill="#ffffff" opacity="0.72"/><circle cx="835" cy="153" r="2.2" fill="#ffffff" opacity="0.72"/><circle cx="918" cy="148" r="0.8" fill="#ffffff" opacity="0.72"/><circle cx="89" cy="160" r="0.9" fill="#ffffff" opacity="0.72"/><circle cx="172" cy="181" r="1.0" fill="#ffffff" opacity="0.72"/><circle cx="255" cy="40" r="1.1" fill="#ffffff" opacity="0.72"/><circle cx="338" cy="150" r="1.1" fill="#ffffff" opacity="0.72"/><circle cx="421" cy="136" r="1.2" fill="#ffffff" opacity="0.72"/><circle cx="504" cy="144" r="1.3" fill="#ffffff" opacity="0.72"/><circle cx="587" cy="21" r="1.4" fill="#ffffff" opacity="0.72"/><circle cx="670" cy="32" r="1.5" fill="#ffffff" opacity="0.72"/><circle cx="753" cy="52" r="1.6" fill="#ffffff" opacity="0.72"/><circle cx="836" cy="77" r="1.6" fill="#ffffff" opacity="0.72"/><circle cx="919" cy="21" r="1.7" fill="#ffffff" opacity="0.72"/><circle cx="90" cy="173" r="1.8" fill="#ffffff" opacity="0.72"/><circle cx="173" cy="98" r="1.9" fill="#ffffff" opacity="0.72"/><circle cx="256" cy="158" r="2.0" fill="#ffffff" opacity="0.72"/><circle cx="339" cy="119" r="2.0" fill="#ffffff" opacity="0.72"/><circle cx="422" cy="114" r="2.1" fill="#ffffff" opacity="0.72"/><circle cx="505" cy="126" r="2.2" fill="#ffffff" opacity="0.72"/><circle cx="588" cy="147" r="0.8" fill="#ffffff" opacity="0.72"/><circle cx="671" cy="172" r="0.9" fill="#ffffff" opacity="0.72"/><circle cx="754" cy="116" r="1.0" fill="#ffffff" opacity="0.72"/><circle cx="837" cy="102" r="1.1" fill="#ffffff" opacity="0.72"/><circle cx="920" cy="110" r="1.1" fill="#ffffff" opacity="0.72"/><circle cx="91" cy="153" r="1.2" fill="#ffffff" opacity="0.72"/><circle cx="174" cy="164" r="1.3" fill="#ffffff" opacity="0.72"/>
  <path d="M110 38 C240 92, 390 122, 510 208" fill="none" stroke="#fff7b0" stroke-width="14" opacity="0.5"/><circle cx="515" cy="210" r="18" fill="#fff3a0" opacity="0.9"/>
  <polyline points="0,260 0,247 140,241 280,238 420,236 560,270 700,287 840,261 980,283 960,250 960,420 0,420" fill="#050b14" opacity="0.42"/>
  <polyline points="0,220 0,192 120,186 240,183 360,220 480,200 600,229 720,243 840,211 960,234 960,210 960,420 0,420" fill="#0a1422" opacity="0.48"/>
  <g opacity="0.9"><rect x="429" y="78" width="31" height="183" rx="5.166666666666667" fill="url(#tower-meteor-70)"/><rect x="440.16" y="88" width="5.58" height="161" rx="3" fill="#ffe45e" opacity="0.42"/><rect x="424" y="69" width="41" height="9" rx="4" fill="#fff7c4" opacity="0.66"/></g><g opacity="0.9"><rect x="578" y="155" width="26" height="130" rx="4.333333333333333" fill="url(#tower-meteor-70)"/><rect x="587.36" y="165" width="4.68" height="108" rx="3" fill="#ffe45e" opacity="0.42"/><polygon points="570,155 591,123 612,155" fill="#fff7c4" opacity="0.82"/></g><g opacity="0.9"><rect x="727" y="157" width="40" height="104" rx="6.666666666666667" fill="url(#tower-meteor-70)"/><rect x="741.4" y="167" width="7.199999999999999" height="82" rx="3" fill="#ffe45e" opacity="0.42"/><ellipse cx="747" cy="157" rx="28.799999999999997" ry="7" fill="#fff7c4" opacity="0.74"/></g>
  <path d="M0 326 C146 256, 290 380, 430 306 S706 250, 960 310 L960 420 L0 420 Z" fill="#6c4b24" opacity="0.86"/><path d="M0 355 C160 318, 300 392, 474 346 S776 318, 960 362" fill="none" stroke="#ffe45e" stroke-width="8" opacity="0.32"/>
  <path d="M0 382 H960" stroke="#ffe45e" stroke-width="2" opacity="0.42"/>
  <path d="M103 392 C265 350, 623 410, 774 372" fill="none" stroke="#fff7c4" stroke-width="4" opacity="0.34"/>
  <text x="28" y="40" fill="#fff7c4" font-family="monospace" font-size="18" letter-spacing="5" opacity="0.5">70 STARFALL</text>
</svg>