<svg xmlns="http://www.w3.org/2000/svg" viewBox="0 0 960 420" role="img" aria-label="meteor-71 unique card art">
  <defs>
    <linearGradient id="sky-meteor-71" x1="0" y1="0" x2="1" y2="1"><stop offset="0" stop-color="#162b45"/><stop offset="0.52" stop-color="#4d2381"/><stop offset="1" stop-color="#090812"/></linearGradient>
    <linearGradient id="tower-meteor-71" x1="0" y1="0" x2="1" y2="1"><stop offset="0" stop-color="#101827"/><stop offset="0.5" stop-color="#4d2381"/><stop offset="1" stop-color="#03060c"/></linearGradient>
    <radialGradient id="orb-meteor-71" cx="50%" cy="50%" r="55%"><stop offset="0" stop-color="#fff0a8"/><stop offset="0.42" stop-color="#ffe45e" stop-opacity="0.62"/><stop offset="1" stop-color="#ffe45e" stop-opacity="0"/></radialGradient>
    <filter id="glow-meteor-71" x="-20%" y="-20%" width="140%" height="140%"><feGaussianBlur stdDeviation="5" result="b"/><feMerge><feMergeNode in="b"/><feMergeNode in="SourceGraphic"/></feMerge></filter>
  </defs>
  <rect width="960" height="420" fill="url(#sky-meteor-71)"/>
  <circle cx="488" cy="118" r="54" fill="url(#orb-meteor-71)" filter="url(#glow-meteor-71)"/>
  <circle cx="616" cy="56" r="1.6" fill="#ffffff" opacity="0.22"/><circle cx="699" cy="67" r="1.7" fill="#ffffff" opacity="0.22"/><circle cx="782" cy="170" r="1.8" fill="#ffffff" opacity="0.22"/><circle cx="865" cy="153" r="1.9" fill="#ffffff" opacity="0.22"/><circle cx="36" cy="76" r="2.0" fill="#ffffff" opacity="0.22"/><circle cx="119" cy="135" r="2.0" fill="#ffffff" opacity="0.22"/><circle cx="202" cy="96" r="2.1" fill="#ffffff" opacity="0.22"/><circle cx="285" cy="91" r="2.2" fill="#ffffff" opacity="0.22"/><circle cx="368" cy="20" r="0.8" fill="#ffffff" opacity="0.22"/><circle cx="451" cy="82" r="0.9" fill="#ffffff" opacity="0.22"/><circle cx="534" cy="44" r="1.0" fill="#ffffff" opacity="0.22"/><circle cx="617" cy="123" r="1.1" fill="#ffffff" opacity="0.22"/>
  <path d="M268 38 C398 92, 548 122, 668 208" fill="none" stroke="#fff7b0" stroke-width="14" opacity="0.5"/><circle cx="673" cy="210" r="18" fill="#fff3a0" opacity="0.9"/>
  <polyline points="0,260 0,247 140,241 280,273 420,289 560,262 700,283 840,259 980,247 960,250 960,420 0,420" fill="#050b14" opacity="0.42"/>
  <polyline points="0,220 0,238 120,248 240,214 360,236 480,208 600,194 720,226 840,203 960,230 960,210 960,420 0,420" fill="#0a1422" opacity="0.48"/>
  <g opacity="0.9"><rect x="830" y="80" width="22" height="154" rx="4" fill="url(#tower-meteor-71)"/><rect x="837.92" y="90" width="4" height="132" rx="3" fill="#ffe45e" opacity="0.42"/><polygon points="822,80 841,48 860,80" fill="#fff7c4" opacity="0.82"/></g><g opacity="0.9"><rect x="189" y="88" width="22" height="170" rx="4" fill="url(#tower-meteor-71)"/><rect x="196.92" y="98" width="4" height="148" rx="3" fill="#ffe45e" opacity="0.42"/><ellipse cx="200" cy="88" rx="15.84" ry="7" fill="#fff7c4" opacity="0.74"/></g><g opacity="0.9"><rect x="338" y="56" width="22" height="178" rx="4" fill="url(#tower-meteor-71)"/><rect x="345.92" y="66" width="4" height="156" rx="3" fill="#ffe45e" opacity="0.42"/><rect x="333" y="47" width="32" height="9" rx="4" fill="#fff7c4" opacity="0.66"/></g><g opacity="0.9"><rect x="487" y="76" width="22" height="182" rx="4" fill="url(#tower-meteor-71)"/><rect x="494.92" y="86" width="4" height="160" rx="3" fill="#ffe45e" opacity="0.42"/><polygon points="479,76 498,44 517,76" fill="#fff7c4" opacity="0.82"/></g><g opacity="0.9"><rect x="636" y="50" width="38" height="184" rx="6.333333333333333" fill="url(#tower-meteor-71)"/><rect x="649.68" y="60" width="6.84" height="162" rx="3" fill="#ffe45e" opacity="0.42"/><ellipse cx="655" cy="50" rx="27.36" ry="7" fill="#fff7c4" opacity="0.74"/></g>
  <path d="M0 334 C140 280, 244 386, 390 334 S672 304, 960 354 L960 420 L0 420 Z" fill="#104c64" opacity="0.82"/><path d="M0 352 C144 312, 250 408, 392 356 S690 332, 960 380" fill="none" stroke="#ffe45e" stroke-width="10" opacity="0.36"/>
  <path d="M0 382 H960" stroke="#ffe45e" stroke-width="2" opacity="0.42"/>
  <path d="M104 392 C264 350, 588 410, 806 372" fill="none" stroke="#fff7c4" stroke-width="4" opacity="0.34"/>
  <text x="28" y="40" fill="#fff7c4" font-family="monospace" font-size="18" letter-spacing="5" opacity="0.5">71 STARFALL</text>
</svg>