<svg xmlns="http://www.w3.org/2000/svg" viewBox="0 0 960 420" role="img" aria-label="meteor-77 unique card art">
  <defs>
    <linearGradient id="sky-meteor-77" x1="0" y1="0" x2="1" y2="1"><stop offset="0" stop-color="#162b45"/><stop offset="0.52" stop-color="#4d2381"/><stop offset="1" stop-color="#090812"/></linearGradient>
    <linearGradient id="tower-meteor-77" x1="0" y1="0" x2="1" y2="1"><stop offset="0" stop-color="#101827"/><stop offset="0.5" stop-color="#4d2381"/><stop offset="1" stop-color="#03060c"/></linearGradient>
    <radialGradient id="orb-meteor-77" cx="50%" cy="50%" r="55%"><stop offset="0" stop-color="#fff0a8"/><stop offset="0.42" stop-color="#ffe45e" stop-opacity="0.62"/><stop offset="1" stop-color="#ffe45e" stop-opacity="0"/></radialGradient>
    <filter id="glow-meteor-77" x="-20%" y="-20%" width="140%" height="140%"><feGaussianBlur stdDeviation="5" result="b"/><feMerge><feMergeNode in="b"/><feMergeNode in="SourceGraphic"/></feMerge></filter>
  </defs>
  <rect width="960" height="420" fill="url(#sky-meteor-77)"/>
  <circle cx="262" cy="98" r="54" fill="url(#orb-meteor-77)" filter="url(#glow-meteor-77)"/>
  <circle cx="682" cy="50" r="1.1" fill="#ffffff" opacity="0.22"/><circle cx="765" cy="64" r="1.2" fill="#ffffff" opacity="0.22"/><circle cx="848" cy="168" r="1.3" fill="#ffffff" opacity="0.22"/><circle cx="931" cy="69" r="1.4" fill="#ffffff" opacity="0.22"/><circle cx="102" cy="117" r="1.5" fill="#ffffff" opacity="0.22"/><circle cx="185" cy="72" r="1.6" fill="#ffffff" opacity="0.22"/><circle cx="268" cy="147" r="1.6" fill="#ffffff" opacity="0.22"/><circle cx="351" cy="33" r="1.7" fill="#ffffff" opacity="0.22"/><circle cx="434" cy="157" r="1.8" fill="#ffffff" opacity="0.22"/><circle cx="517" cy="150" r="1.9" fill="#ffffff" opacity="0.22"/><circle cx="600" cy="78" r="2.0" fill="#ffffff" opacity="0.22"/><circle cx="683" cy="140" r="2.0" fill="#ffffff" opacity="0.22"/>
  <path d="M42 38 C172 92, 322 122, 442 208" fill="none" stroke="#fff7b0" stroke-width="14" opacity="0.5"/><circle cx="447" cy="210" r="18" fill="#fff3a0" opacity="0.9"/>
  <polyline points="0,260 0,250 140,242 280,273 420,254 560,244 700,239 840,272 980,253 960,250 960,420 0,420" fill="#050b14" opacity="0.42"/>
  <polyline points="0,220 0,200 120,190 240,185 360,221 480,239 600,248 720,253 840,255 960,256 960,210 960,420 0,420" fill="#0a1422" opacity="0.48"/>
  <g opacity="0.9"><rect x="794" y="127" width="47" height="113" rx="7.833333333333333" fill="url(#tower-meteor-77)"/><rect x="810.92" y="137" width="8.459999999999999" height="91" rx="3" fill="#ffe45e" opacity="0.42"/><polygon points="786,127 817.5,95 849,127" fill="#fff7c4" opacity="0.82"/></g><g opacity="0.9"><rect x="153" y="115" width="50" height="149" rx="8.333333333333334" fill="url(#tower-meteor-77)"/><rect x="171" y="125" width="9" height="127" rx="3" fill="#ffe45e" opacity="0.42"/><ellipse cx="178" cy="115" rx="36" ry="7" fill="#fff7c4" opacity="0.74"/></g><g opacity="0.9"><rect x="302" y="73" width="36" height="167" rx="6" fill="url(#tower-meteor-77)"/><rect x="314.96" y="83" width="6.4799999999999995" height="145" rx="3" fill="#ffe45e" opacity="0.42"/><rect x="297" y="64" width="46" height="9" rx="4" fill="#fff7c4" opacity="0.66"/></g><g opacity="0.9"><rect x="451" y="88" width="45" height="176" rx="7.5" fill="url(#tower-meteor-77)"/><rect x="467.2" y="98" width="8.1" height="154" rx="3" fill="#ffe45e" opacity="0.42"/><polygon points="443,88 473.5,56 504,88" fill="#fff7c4" opacity="0.82"/></g><g opacity="0.9"><rect x="600" y="59" width="49" height="181" rx="8.166666666666666" fill="url(#tower-meteor-77)"/><rect x="617.64" y="69" width="8.82" height="159" rx="3" fill="#ffe45e" opacity="0.42"/><ellipse cx="624.5" cy="59" rx="35.28" ry="7" fill="#fff7c4" opacity="0.74"/></g><g opacity="0.9"><rect x="749" y="81" width="35" height="183" rx="5.833333333333333" fill="url(#tower-meteor-77)"/><rect x="761.6" y="91" width="6.3" height="161" rx="3" fill="#ffe45e" opacity="0.42"/><rect x="744" y="72" width="45" height="9" rx="4" fill="#fff7c4" opacity="0.66"/></g><g opacity="0.9"><rect x="108" y="56" width="44" height="184" rx="7.333333333333333" fill="url(#tower-meteor-77)"/><rect x="123.84" y="66" width="7.92" height="162" rx="3" fill="#ffe45e" opacity="0.42"/><polygon points="100,56 130,24 160,56" fill="#fff7c4" opacity="0.82"/></g>
  <path d="M0 330 C105 275, 162 316, 260 274 S430 332, 552 282 S760 310, 960 256 L960 420 L0 420 Z" fill="#173d23" opacity="0.84"/><g opacity="0.68"><circle cx="298" cy="300" r="22" fill="#ffe45e"/><circle cx="365" cy="289" r="33" fill="#b7ff91"/><circle cx="432" cy="324" r="20" fill="#b7ff91"/><circle cx="499" cy="342" r="31" fill="#ffe45e"/><circle cx="566" cy="351" r="18" fill="#b7ff91"/><circle cx="633" cy="355" r="29" fill="#b7ff91"/><circle cx="700" cy="357" r="16" fill="#ffe45e"/><circle cx="767" cy="358" r="27" fill="#b7ff91"/><circle cx="834" cy="359" r="14" fill="#b7ff91"/><circle cx="901" cy="359" r="25" fill="#ffe45e"/><circle cx="88" cy="318" r="12" fill="#b7ff91"/><circle cx="155" cy="339" r="23" fill="#b7ff91"/><circle cx="222" cy="300" r="34" fill="#ffe45e"/><circle cx="289" cy="289" r="21" fill="#b7ff91"/></g>
  <path d="M0 382 H960" stroke="#ffe45e" stroke-width="2" opacity="0.42"/>
  <path d="M98 392 C271 350, 558 410, 773 372" fill="none" stroke="#fff7c4" stroke-width="4" opacity="0.34"/>
  <text x="28" y="40" fill="#fff7c4" font-family="monospace" font-size="18" letter-spacing="5" opacity="0.5">77 STARFALL</text>
</svg>