<svg xmlns="http://www.w3.org/2000/svg" viewBox="0 0 960 420" role="img" aria-label="meteor-76 unique card art">
  <defs>
    <linearGradient id="sky-meteor-76" x1="0" y1="0" x2="1" y2="1"><stop offset="0" stop-color="#071126"/><stop offset="0.52" stop-color="#4d2381"/><stop offset="1" stop-color="#090812"/></linearGradient>
    <linearGradient id="tower-meteor-76" x1="0" y1="0" x2="1" y2="1"><stop offset="0" stop-color="#101827"/><stop offset="0.5" stop-color="#4d2381"/><stop offset="1" stop-color="#03060c"/></linearGradient>
    <radialGradient id="orb-meteor-76" cx="50%" cy="50%" r="55%"><stop offset="0" stop-color="#d9dfff"/><stop offset="0.42" stop-color="#ffe45e" stop-opacity="0.62"/><stop offset="1" stop-color="#ffe45e" stop-opacity="0"/></radialGradient>
    <filter id="glow-meteor-76" x="-20%" y="-20%" width="140%" height="140%"><feGaussianBlur stdDeviation="5" result="b"/><feMerge><feMergeNode in="b"/><feMergeNode in="SourceGraphic"/></feMerge></filter>
  </defs>
  <rect width="960" height="420" fill="url(#sky-meteor-76)"/>
  <circle cx="824" cy="76" r="38" fill="url(#orb-meteor-76)" filter="url(#glow-meteor-76)"/>
  <circle cx="237" cy="49" r="1.1" fill="#ffffff" opacity="0.72"/><circle cx="320" cy="63" r="1.1" fill="#ffffff" opacity="0.72"/><circle cx="403" cy="85" r="1.2" fill="#ffffff" opacity="0.72"/><circle cx="486" cy="27" r="1.3" fill="#ffffff" opacity="0.72"/><circle cx="569" cy="96" r="1.4" fill="#ffffff" opacity="0.72"/><circle cx="652" cy="145" r="1.5" fill="#ffffff" opacity="0.72"/><circle cx="735" cy="184" r="1.6" fill="#ffffff" opacity="0.72"/><circle cx="818" cy="135" r="1.6" fill="#ffffff" opacity="0.72"/><circle cx="901" cy="125" r="1.7" fill="#ffffff" opacity="0.72"/><circle cx="72" cy="51" r="1.8" fill="#ffffff" opacity="0.72"/><circle cx="155" cy="29" r="1.9" fill="#ffffff" opacity="0.72"/><circle cx="238" cy="32" r="2.0" fill="#ffffff" opacity="0.72"/><circle cx="321" cy="48" r="2.0" fill="#ffffff" opacity="0.72"/><circle cx="404" cy="154" r="2.1" fill="#ffffff" opacity="0.72"/><circle cx="487" cy="138" r="2.2" fill="#ffffff" opacity="0.72"/><circle cx="570" cy="62" r="0.8" fill="#ffffff" opacity="0.72"/><circle cx="653" cy="181" r="0.9" fill="#ffffff" opacity="0.72"/><circle cx="736" cy="29" r="1.0" fill="#ffffff" opacity="0.72"/><circle cx="819" cy="51" r="1.1" fill="#ffffff" opacity="0.72"/><circle cx="902" cy="159" r="1.1" fill="#ffffff" opacity="0.72"/><circle cx="73" cy="62" r="1.2" fill="#ffffff" opacity="0.72"/><circle cx="156" cy="111" r="1.3" fill="#ffffff" opacity="0.72"/><circle cx="239" cy="150" r="1.4" fill="#ffffff" opacity="0.72"/><circle cx="322" cy="101" r="1.5" fill="#ffffff" opacity="0.72"/><circle cx="405" cy="91" r="1.6" fill="#ffffff" opacity="0.72"/><circle cx="488" cy="183" r="1.6" fill="#ffffff" opacity="0.72"/><circle cx="571" cy="161" r="1.7" fill="#ffffff" opacity="0.72"/><circle cx="654" cy="164" r="1.8" fill="#ffffff" opacity="0.72"/><circle cx="737" cy="180" r="1.9" fill="#ffffff" opacity="0.72"/><circle cx="820" cy="120" r="2.0" fill="#ffffff" opacity="0.72"/><circle cx="903" cy="104" r="2.0" fill="#ffffff" opacity="0.72"/><circle cx="74" cy="28" r="2.1" fill="#ffffff" opacity="0.72"/><circle cx="157" cy="147" r="2.2" fill="#ffffff" opacity="0.72"/><circle cx="240" cy="161" r="0.8" fill="#ffffff" opacity="0.72"/>
  <path d="M604 38 C734 92, 884 122, 1004 208" fill="none" stroke="#fff7b0" stroke-width="14" opacity="0.5"/><circle cx="1009" cy="210" r="18" fill="#fff3a0" opacity="0.9"/>
  <polyline points="0,260 0,251 140,243 280,239 420,272 560,253 700,244 840,274 980,289 960,250 960,420 0,420" fill="#050b14" opacity="0.42"/>
  <polyline points="0,220 0,233 120,206 240,232 360,206 480,232 600,206 720,193 840,186 960,183 960,210 960,420 0,420" fill="#0a1422" opacity="0.48"/>
  <g opacity="0.9"><rect x="393" y="73" width="24" height="142" rx="4" fill="url(#tower-meteor-76)"/><rect x="401.64" y="83" width="4.32" height="120" rx="3" fill="#ffe45e" opacity="0.42"/><rect x="388" y="64" width="34" height="9" rx="4" fill="#fff7c4" opacity="0.66"/></g><g opacity="0.9"><rect x="542" y="129" width="23" height="110" rx="4" fill="url(#tower-meteor-76)"/><rect x="550.28" y="139" width="4.14" height="88" rx="3" fill="#ffe45e" opacity="0.42"/><polygon points="534,129 553.5,97 573,129" fill="#fff7c4" opacity="0.82"/></g><g opacity="0.9"><rect x="691" y="121" width="22" height="94" rx="4" fill="url(#tower-meteor-76)"/><rect x="698.92" y="131" width="4" height="72" rx="3" fill="#ffe45e" opacity="0.42"/><ellipse cx="702" cy="121" rx="15.84" ry="7" fill="#fff7c4" opacity="0.74"/></g><g opacity="0.9"><rect x="840" y="99" width="38" height="140" rx="6.333333333333333" fill="url(#tower-meteor-76)"/><rect x="853.68" y="109" width="6.84" height="118" rx="3" fill="#ffe45e" opacity="0.42"/><rect x="835" y="90" width="48" height="9" rx="4" fill="#fff7c4" opacity="0.66"/></g><g opacity="0.9"><rect x="199" y="52" width="30" height="163" rx="5" fill="url(#tower-meteor-76)"/><rect x="209.8" y="62" width="5.3999999999999995" height="141" rx="3" fill="#ffe45e" opacity="0.42"/><polygon points="191,52 214,20 237,52" fill="#fff7c4" opacity="0.82"/></g><g opacity="0.9"><rect x="348" y="119" width="42" height="120" rx="7" fill="url(#tower-meteor-76)"/><rect x="363.12" y="129" width="7.56" height="98" rx="3" fill="#ffe45e" opacity="0.42"/><ellipse cx="369" cy="119" rx="30.24" ry="7" fill="#fff7c4" opacity="0.74"/></g>
  <path d="M0 330 L90 298 L164 326 L258 286 L354 326 L478 292 L612 328 L740 276 L842 322 L960 294 L960 420 L0 420 Z" fill="#1c1230" opacity="0.82"/><path d="M80 320 H884" stroke="#ffe45e" stroke-width="4" opacity="0.38"/>
  <path d="M0 382 H960" stroke="#ffe45e" stroke-width="2" opacity="0.42"/>
  <path d="M97 392 C272 350, 594 410, 741 372" fill="none" stroke="#fff7c4" stroke-width="4" opacity="0.34"/>
  <text x="28" y="40" fill="#fff7c4" font-family="monospace" font-size="18" letter-spacing="5" opacity="0.5">76 STARFALL</text>
</svg>