<svg xmlns="http://www.w3.org/2000/svg" viewBox="0 0 960 420" role="img" aria-label="meteor-69 unique card art">
  <defs>
    <linearGradient id="sky-meteor-69" x1="0" y1="0" x2="1" y2="1"><stop offset="0" stop-color="#162b45"/><stop offset="0.52" stop-color="#4d2381"/><stop offset="1" stop-color="#090812"/></linearGradient>
    <linearGradient id="tower-meteor-69" x1="0" y1="0" x2="1" y2="1"><stop offset="0" stop-color="#101827"/><stop offset="0.5" stop-color="#4d2381"/><stop offset="1" stop-color="#03060c"/></linearGradient>
    <radialGradient id="orb-meteor-69" cx="50%" cy="50%" r="55%"><stop offset="0" stop-color="#fff0a8"/><stop offset="0.42" stop-color="#ffe45e" stop-opacity="0.62"/><stop offset="1" stop-color="#ffe45e" stop-opacity="0"/></radialGradient>
    <filter id="glow-meteor-69" x="-20%" y="-20%" width="140%" height="140%"><feGaussianBlur stdDeviation="5" result="b"/><feMerge><feMergeNode in="b"/><feMergeNode in="SourceGraphic"/></feMerge></filter>
  </defs>
  <rect width="960" height="420" fill="url(#sky-meteor-69)"/>
  <circle cx="548" cy="163" r="54" fill="url(#orb-meteor-69)" filter="url(#glow-meteor-69)"/>
  <circle cx="573" cy="183" r="1.6" fill="#ffffff" opacity="0.22"/><circle cx="656" cy="47" r="1.6" fill="#ffffff" opacity="0.22"/><circle cx="739" cy="77" r="1.7" fill="#ffffff" opacity="0.22"/><circle cx="822" cy="23" r="1.8" fill="#ffffff" opacity="0.22"/><circle cx="905" cy="94" r="1.9" fill="#ffffff" opacity="0.22"/><circle cx="76" cy="144" r="2.0" fill="#ffffff" opacity="0.22"/><circle cx="159" cy="183" r="2.0" fill="#ffffff" opacity="0.22"/><circle cx="242" cy="134" r="2.1" fill="#ffffff" opacity="0.22"/><circle cx="325" cy="124" r="2.2" fill="#ffffff" opacity="0.22"/><circle cx="408" cy="134" r="0.8" fill="#ffffff" opacity="0.22"/><circle cx="491" cy="70" r="0.9" fill="#ffffff" opacity="0.22"/><circle cx="574" cy="53" r="1.0" fill="#ffffff" opacity="0.22"/>
  <path d="M328 38 C458 92, 608 122, 728 208" fill="none" stroke="#fff7b0" stroke-width="14" opacity="0.5"/><circle cx="733" cy="210" r="18" fill="#fff3a0" opacity="0.9"/>
  <polyline points="0,260 0,282 140,258 280,246 420,275 560,290 700,297 840,301 980,303 960,250 960,420 0,420" fill="#050b14" opacity="0.42"/>
  <polyline points="0,220 0,233 120,206 240,232 360,245 480,251 600,215 720,236 840,247 960,252 960,210 960,420 0,420" fill="#0a1422" opacity="0.48"/>
  <g opacity="0.9"><rect x="555" y="31" width="40" height="184" rx="6.666666666666667" fill="url(#tower-meteor-69)"/><rect x="569.4" y="41" width="7.199999999999999" height="162" rx="3" fill="#ffe45e" opacity="0.42"/><rect x="550" y="22" width="50" height="9" rx="4" fill="#fff7c4" opacity="0.66"/></g><g opacity="0.9"><rect x="704" y="54" width="47" height="185" rx="7.833333333333333" fill="url(#tower-meteor-69)"/><rect x="720.92" y="64" width="8.459999999999999" height="163" rx="3" fill="#ffe45e" opacity="0.42"/><polygon points="696,54 727.5,22 759,54" fill="#fff7c4" opacity="0.82"/></g><g opacity="0.9"><rect x="63" y="30" width="50" height="185" rx="8.333333333333334" fill="url(#tower-meteor-69)"/><rect x="81" y="40" width="9" height="163" rx="3" fill="#ffe45e" opacity="0.42"/><ellipse cx="88" cy="30" rx="36" ry="7" fill="#fff7c4" opacity="0.74"/></g>
  <path d="M0 330 C105 275, 162 316, 260 274 S430 332, 552 282 S760 310, 960 256 L960 420 L0 420 Z" fill="#173d23" opacity="0.84"/><g opacity="0.68"><circle cx="749" cy="357" r="33" fill="#ffe45e"/><circle cx="816" cy="358" r="20" fill="#b7ff91"/><circle cx="883" cy="359" r="31" fill="#b7ff91"/><circle cx="70" cy="318" r="18" fill="#ffe45e"/><circle cx="137" cy="298" r="29" fill="#b7ff91"/><circle cx="204" cy="329" r="16" fill="#b7ff91"/><circle cx="271" cy="303" r="27" fill="#ffe45e"/><circle cx="338" cy="331" r="14" fill="#b7ff91"/><circle cx="405" cy="304" r="25" fill="#b7ff91"/><circle cx="472" cy="291" r="12" fill="#ffe45e"/><circle cx="539" cy="284" r="23" fill="#b7ff91"/><circle cx="606" cy="322" r="34" fill="#b7ff91"/><circle cx="673" cy="357" r="21" fill="#ffe45e"/><circle cx="740" cy="358" r="32" fill="#b7ff91"/></g>
  <path d="M0 382 H960" stroke="#ffe45e" stroke-width="2" opacity="0.42"/>
  <path d="M49 392 C334 350, 621 410, 874 372" fill="none" stroke="#fff7c4" stroke-width="4" opacity="0.34"/>
  <text x="28" y="40" fill="#fff7c4" font-family="monospace" font-size="18" letter-spacing="5" opacity="0.5">69 STARFALL</text>
</svg>