<svg xmlns="http://www.w3.org/2000/svg" viewBox="0 0 960 420" role="img" aria-label="meteor-80 unique card art">
  <defs>
    <linearGradient id="sky-meteor-80" x1="0" y1="0" x2="1" y2="1"><stop offset="0" stop-color="#071126"/><stop offset="0.52" stop-color="#4d2381"/><stop offset="1" stop-color="#090812"/></linearGradient>
    <linearGradient id="tower-meteor-80" x1="0" y1="0" x2="1" y2="1"><stop offset="0" stop-color="#101827"/><stop offset="0.5" stop-color="#4d2381"/><stop offset="1" stop-color="#03060c"/></linearGradient>
    <radialGradient id="orb-meteor-80" cx="50%" cy="50%" r="55%"><stop offset="0" stop-color="#d9dfff"/><stop offset="0.42" stop-color="#ffe45e" stop-opacity="0.62"/><stop offset="1" stop-color="#ffe45e" stop-opacity="0"/></radialGradient>
    <filter id="glow-meteor-80" x="-20%" y="-20%" width="140%" height="140%"><feGaussianBlur stdDeviation="5" result="b"/><feMerge><feMergeNode in="b"/><feMergeNode in="SourceGraphic"/></feMerge></filter>
  </defs>
  <rect width="960" height="420" fill="url(#sky-meteor-80)"/>
  <circle cx="698" cy="64" r="38" fill="url(#orb-meteor-80)" filter="url(#glow-meteor-80)"/>
  <circle cx="284" cy="150" r="1.0" fill="#ffffff" opacity="0.72"/><circle cx="367" cy="31" r="1.1" fill="#ffffff" opacity="0.72"/><circle cx="450" cy="69" r="1.1" fill="#ffffff" opacity="0.72"/><circle cx="533" cy="185" r="1.2" fill="#ffffff" opacity="0.72"/><circle cx="616" cy="175" r="1.3" fill="#ffffff" opacity="0.72"/><circle cx="699" cy="101" r="1.4" fill="#ffffff" opacity="0.72"/><circle cx="782" cy="162" r="1.5" fill="#ffffff" opacity="0.72"/><circle cx="865" cy="41" r="1.6" fill="#ffffff" opacity="0.72"/><circle cx="36" cy="161" r="1.6" fill="#ffffff" opacity="0.72"/><circle cx="119" cy="69" r="1.7" fill="#ffffff" opacity="0.72"/><circle cx="202" cy="121" r="1.8" fill="#ffffff" opacity="0.72"/><circle cx="285" cy="78" r="1.9" fill="#ffffff" opacity="0.72"/><circle cx="368" cy="71" r="2.0" fill="#ffffff" opacity="0.72"/><circle cx="451" cy="82" r="2.0" fill="#ffffff" opacity="0.72"/><circle cx="534" cy="185" r="2.1" fill="#ffffff" opacity="0.72"/><circle cx="617" cy="85" r="2.2" fill="#ffffff" opacity="0.72"/><circle cx="700" cy="116" r="0.8" fill="#ffffff" opacity="0.72"/><circle cx="783" cy="163" r="0.9" fill="#ffffff" opacity="0.72"/><circle cx="866" cy="35" r="1.0" fill="#ffffff" opacity="0.72"/><circle cx="37" cy="151" r="1.1" fill="#ffffff" opacity="0.72"/><circle cx="120" cy="141" r="1.1" fill="#ffffff" opacity="0.72"/><circle cx="203" cy="67" r="1.2" fill="#ffffff" opacity="0.72"/><circle cx="286" cy="128" r="1.3" fill="#ffffff" opacity="0.72"/><circle cx="369" cy="173" r="1.4" fill="#ffffff" opacity="0.72"/><circle cx="452" cy="127" r="1.5" fill="#ffffff" opacity="0.72"/><circle cx="535" cy="35" r="1.6" fill="#ffffff" opacity="0.72"/><circle cx="618" cy="87" r="1.6" fill="#ffffff" opacity="0.72"/><circle cx="701" cy="44" r="1.7" fill="#ffffff" opacity="0.72"/><circle cx="784" cy="37" r="1.8" fill="#ffffff" opacity="0.72"/><circle cx="867" cy="48" r="1.9" fill="#ffffff" opacity="0.72"/><circle cx="38" cy="151" r="2.0" fill="#ffffff" opacity="0.72"/><circle cx="121" cy="51" r="2.0" fill="#ffffff" opacity="0.72"/><circle cx="204" cy="82" r="2.1" fill="#ffffff" opacity="0.72"/><circle cx="287" cy="129" r="2.2" fill="#ffffff" opacity="0.72"/>
  <path d="M478 38 C608 92, 758 122, 878 208" fill="none" stroke="#fff7b0" stroke-width="14" opacity="0.5"/><circle cx="883" cy="210" r="18" fill="#fff3a0" opacity="0.9"/>
  <polyline points="0,260 0,279 140,257 280,281 420,258 560,281 700,258 840,246 980,240 960,250 960,420 0,420" fill="#050b14" opacity="0.42"/>
  <polyline points="0,220 0,221 120,200 240,229 360,204 480,192 600,186 720,183 840,220 960,239 960,210 960,420 0,420" fill="#0a1422" opacity="0.48"/>
  <g opacity="0.9"><rect x="324" y="103" width="32" height="115" rx="5.333333333333333" fill="url(#tower-meteor-80)"/><rect x="335.52" y="113" width="5.76" height="93" rx="3" fill="#ffe45e" opacity="0.42"/><ellipse cx="340" cy="103" rx="23.04" ry="7" fill="#fff7c4" opacity="0.74"/></g><g opacity="0.9"><rect x="473" y="92" width="27" height="150" rx="4.5" fill="url(#tower-meteor-80)"/><rect x="482.72" y="102" width="4.859999999999999" height="128" rx="3" fill="#ffe45e" opacity="0.42"/><rect x="468" y="83" width="37" height="9" rx="4" fill="#fff7c4" opacity="0.66"/></g><g opacity="0.9"><rect x="622" y="104" width="24" height="114" rx="4" fill="url(#tower-meteor-80)"/><rect x="630.64" y="114" width="4.32" height="92" rx="3" fill="#ffe45e" opacity="0.42"/><polygon points="614,104 634,72 654,104" fill="#fff7c4" opacity="0.82"/></g><g opacity="0.9"><rect x="771" y="146" width="39" height="96" rx="6.5" fill="url(#tower-meteor-80)"/><rect x="785.04" y="156" width="7.02" height="74" rx="3" fill="#ffe45e" opacity="0.42"/><ellipse cx="790.5" cy="146" rx="28.08" ry="7" fill="#fff7c4" opacity="0.74"/></g>
  <path d="M0 330 L90 298 L164 326 L258 286 L354 326 L478 292 L612 328 L740 276 L842 322 L960 294 L960 420 L0 420 Z" fill="#1c1230" opacity="0.82"/><path d="M80 320 H884" stroke="#ffe45e" stroke-width="4" opacity="0.38"/>
  <path d="M0 382 H960" stroke="#ffe45e" stroke-width="2" opacity="0.42"/>
  <path d="M168 392 C329 350, 586 410, 779 372" fill="none" stroke="#fff7c4" stroke-width="4" opacity="0.34"/>
  <text x="28" y="40" fill="#fff7c4" font-family="monospace" font-size="18" letter-spacing="5" opacity="0.5">80 STARFALL</text>
</svg>