<svg xmlns="http://www.w3.org/2000/svg" viewBox="0 0 960 420" role="img" aria-label="meteor-74 unique card art">
  <defs>
    <linearGradient id="sky-meteor-74" x1="0" y1="0" x2="1" y2="1"><stop offset="0" stop-color="#071126"/><stop offset="0.52" stop-color="#4d2381"/><stop offset="1" stop-color="#090812"/></linearGradient>
    <linearGradient id="tower-meteor-74" x1="0" y1="0" x2="1" y2="1"><stop offset="0" stop-color="#101827"/><stop offset="0.5" stop-color="#4d2381"/><stop offset="1" stop-color="#03060c"/></linearGradient>
    <radialGradient id="orb-meteor-74" cx="50%" cy="50%" r="55%"><stop offset="0" stop-color="#d9dfff"/><stop offset="0.42" stop-color="#ffe45e" stop-opacity="0.62"/><stop offset="1" stop-color="#ffe45e" stop-opacity="0"/></radialGradient>
    <filter id="glow-meteor-74" x="-20%" y="-20%" width="140%" height="140%"><feGaussianBlur stdDeviation="5" result="b"/><feMerge><feMergeNode in="b"/><feMergeNode in="SourceGraphic"/></feMerge></filter>
  </defs>
  <rect width="960" height="420" fill="url(#sky-meteor-74)"/>
  <circle cx="419" cy="121" r="38" fill="url(#orb-meteor-74)" filter="url(#glow-meteor-74)"/>
  <circle cx="215" cy="51" r="1.2" fill="#ffffff" opacity="0.72"/><circle cx="298" cy="64" r="1.3" fill="#ffffff" opacity="0.72"/><circle cx="381" cy="85" r="1.4" fill="#ffffff" opacity="0.72"/><circle cx="464" cy="110" r="1.5" fill="#ffffff" opacity="0.72"/><circle cx="547" cy="137" r="1.6" fill="#ffffff" opacity="0.72"/><circle cx="630" cy="165" r="1.6" fill="#ffffff" opacity="0.72"/><circle cx="713" cy="111" r="1.7" fill="#ffffff" opacity="0.72"/><circle cx="796" cy="98" r="1.8" fill="#ffffff" opacity="0.72"/><circle cx="879" cy="23" r="1.9" fill="#ffffff" opacity="0.72"/><circle cx="50" cy="83" r="2.0" fill="#ffffff" opacity="0.72"/><circle cx="133" cy="128" r="2.0" fill="#ffffff" opacity="0.72"/><circle cx="216" cy="82" r="2.1" fill="#ffffff" opacity="0.72"/><circle cx="299" cy="156" r="2.2" fill="#ffffff" opacity="0.72"/><circle cx="382" cy="42" r="0.8" fill="#ffffff" opacity="0.72"/><circle cx="465" cy="82" r="0.9" fill="#ffffff" opacity="0.72"/><circle cx="548" cy="34" r="1.0" fill="#ffffff" opacity="0.72"/><circle cx="631" cy="183" r="1.1" fill="#ffffff" opacity="0.72"/><circle cx="714" cy="30" r="1.1" fill="#ffffff" opacity="0.72"/><circle cx="797" cy="51" r="1.2" fill="#ffffff" opacity="0.72"/><circle cx="880" cy="76" r="1.3" fill="#ffffff" opacity="0.72"/><circle cx="51" cy="103" r="1.4" fill="#ffffff" opacity="0.72"/><circle cx="134" cy="131" r="1.5" fill="#ffffff" opacity="0.72"/><circle cx="217" cy="77" r="1.6" fill="#ffffff" opacity="0.72"/><circle cx="300" cy="64" r="1.6" fill="#ffffff" opacity="0.72"/><circle cx="383" cy="155" r="1.7" fill="#ffffff" opacity="0.72"/><circle cx="466" cy="49" r="1.8" fill="#ffffff" opacity="0.72"/><circle cx="549" cy="94" r="1.9" fill="#ffffff" opacity="0.72"/><circle cx="632" cy="48" r="2.0" fill="#ffffff" opacity="0.72"/><circle cx="715" cy="122" r="2.0" fill="#ffffff" opacity="0.72"/><circle cx="798" cy="174" r="2.1" fill="#ffffff" opacity="0.72"/><circle cx="881" cy="48" r="2.2" fill="#ffffff" opacity="0.72"/><circle cx="52" cy="166" r="0.8" fill="#ffffff" opacity="0.72"/><circle cx="135" cy="149" r="0.9" fill="#ffffff" opacity="0.72"/><circle cx="218" cy="162" r="1.0" fill="#ffffff" opacity="0.72"/>
  <path d="M199 38 C329 92, 479 122, 599 208" fill="none" stroke="#fff7b0" stroke-width="14" opacity="0.5"/><circle cx="604" cy="210" r="18" fill="#fff3a0" opacity="0.9"/>
  <polyline points="0,260 0,249 140,242 280,238 420,236 560,235 700,235 840,270 980,287 960,250 960,420 0,420" fill="#050b14" opacity="0.42"/>
  <polyline points="0,220 0,245 120,251 240,215 360,236 480,247 600,213 720,235 840,246 960,252 960,210 960,420 0,420" fill="#0a1422" opacity="0.48"/>
  <g opacity="0.9"><rect x="405" y="130" width="37" height="83" rx="6.166666666666667" fill="url(#tower-meteor-74)"/><rect x="418.32" y="140" width="6.66" height="61" rx="3" fill="#ffe45e" opacity="0.42"/><ellipse cx="423.5" cy="130" rx="26.64" ry="7" fill="#fff7c4" opacity="0.74"/></g><g opacity="0.9"><rect x="554" y="157" width="45" height="80" rx="7.5" fill="url(#tower-meteor-74)"/><rect x="570.2" y="167" width="8.1" height="58" rx="3" fill="#ffe45e" opacity="0.42"/><rect x="549" y="148" width="55" height="9" rx="4" fill="#fff7c4" opacity="0.66"/></g><g opacity="0.9"><rect x="703" y="80" width="49" height="133" rx="8.166666666666666" fill="url(#tower-meteor-74)"/><rect x="720.64" y="90" width="8.82" height="111" rx="3" fill="#ffe45e" opacity="0.42"/><polygon points="695,80 727.5,48 760,80" fill="#fff7c4" opacity="0.82"/></g>
  <path d="M0 326 C146 256, 290 380, 430 306 S706 250, 960 310 L960 420 L0 420 Z" fill="#6c4b24" opacity="0.86"/><path d="M0 355 C160 318, 300 392, 474 346 S776 318, 960 362" fill="none" stroke="#ffe45e" stroke-width="8" opacity="0.32"/>
  <path d="M0 382 H960" stroke="#ffe45e" stroke-width="2" opacity="0.42"/>
  <path d="M99 392 C269 350, 523 410, 805 372" fill="none" stroke="#fff7c4" stroke-width="4" opacity="0.34"/>
  <text x="28" y="40" fill="#fff7c4" font-family="monospace" font-size="18" letter-spacing="5" opacity="0.5">74 STARFALL</text>
</svg>