<svg xmlns="http://www.w3.org/2000/svg" viewBox="0 0 960 420" role="img" aria-label="meteor-81 unique card art">
  <defs>
    <linearGradient id="sky-meteor-81" x1="0" y1="0" x2="1" y2="1"><stop offset="0" stop-color="#162b45"/><stop offset="0.52" stop-color="#4d2381"/><stop offset="1" stop-color="#090812"/></linearGradient>
    <linearGradient id="tower-meteor-81" x1="0" y1="0" x2="1" y2="1"><stop offset="0" stop-color="#101827"/><stop offset="0.5" stop-color="#4d2381"/><stop offset="1" stop-color="#03060c"/></linearGradient>
    <radialGradient id="orb-meteor-81" cx="50%" cy="50%" r="55%"><stop offset="0" stop-color="#fff0a8"/><stop offset="0.42" stop-color="#ffe45e" stop-opacity="0.62"/><stop offset="1" stop-color="#ffe45e" stop-opacity="0"/></radialGradient>
    <filter id="glow-meteor-81" x="-20%" y="-20%" width="140%" height="140%"><feGaussianBlur stdDeviation="5" result="b"/><feMerge><feMergeNode in="b"/><feMergeNode in="SourceGraphic"/></feMerge></filter>
  </defs>
  <rect width="960" height="420" fill="url(#sky-meteor-81)"/>
  <circle cx="540" cy="159" r="54" fill="url(#orb-meteor-81)" filter="url(#glow-meteor-81)"/>
  <circle cx="751" cy="149" r="0.9" fill="#ffffff" opacity="0.22"/><circle cx="834" cy="30" r="1.0" fill="#ffffff" opacity="0.22"/><circle cx="917" cy="151" r="1.1" fill="#ffffff" opacity="0.22"/><circle cx="88" cy="143" r="1.1" fill="#ffffff" opacity="0.22"/><circle cx="171" cy="154" r="1.2" fill="#ffffff" opacity="0.22"/><circle cx="254" cy="174" r="1.3" fill="#ffffff" opacity="0.22"/><circle cx="337" cy="32" r="1.4" fill="#ffffff" opacity="0.22"/><circle cx="420" cy="142" r="1.5" fill="#ffffff" opacity="0.22"/><circle cx="503" cy="128" r="1.6" fill="#ffffff" opacity="0.22"/><circle cx="586" cy="136" r="1.6" fill="#ffffff" opacity="0.22"/><circle cx="669" cy="71" r="1.7" fill="#ffffff" opacity="0.22"/><circle cx="752" cy="136" r="1.8" fill="#ffffff" opacity="0.22"/>
  <path d="M320 38 C450 92, 600 122, 720 208" fill="none" stroke="#fff7b0" stroke-width="14" opacity="0.5"/><circle cx="725" cy="210" r="18" fill="#fff3a0" opacity="0.9"/>
  <polyline points="0,260 0,280 140,257 280,246 420,275 560,290 700,262 840,248 980,276 960,250 960,420 0,420" fill="#050b14" opacity="0.42"/>
  <polyline points="0,220 0,253 120,216 240,198 360,189 480,184 600,221 720,200 840,229 960,243 960,210 960,420 0,420" fill="#0a1422" opacity="0.48"/>
  <g opacity="0.9"><rect x="713" y="101" width="41" height="144" rx="6.833333333333333" fill="url(#tower-meteor-81)"/><rect x="727.76" y="111" width="7.38" height="122" rx="3" fill="#ffe45e" opacity="0.42"/><polygon points="705,101 733.5,69 762,101" fill="#fff7c4" opacity="0.82"/></g><g opacity="0.9"><rect x="72" y="158" width="31" height="111" rx="5.166666666666667" fill="url(#tower-meteor-81)"/><rect x="83.16" y="168" width="5.58" height="89" rx="3" fill="#ffe45e" opacity="0.42"/><ellipse cx="87.5" cy="158" rx="22.32" ry="7" fill="#fff7c4" opacity="0.74"/></g><g opacity="0.9"><rect x="221" y="97" width="42" height="148" rx="7" fill="url(#tower-meteor-81)"/><rect x="236.12" y="107" width="7.56" height="126" rx="3" fill="#ffe45e" opacity="0.42"/><rect x="216" y="88" width="52" height="9" rx="4" fill="#fff7c4" opacity="0.66"/></g>
  <path d="M0 330 C105 275, 162 316, 260 274 S430 332, 552 282 S760 310, 960 256 L960 420 L0 420 Z" fill="#173d23" opacity="0.84"/><g opacity="0.68"><circle cx="527" cy="295" r="19" fill="#ffe45e"/><circle cx="594" cy="327" r="30" fill="#b7ff91"/><circle cx="661" cy="343" r="17" fill="#b7ff91"/><circle cx="728" cy="310" r="28" fill="#ffe45e"/><circle cx="795" cy="294" r="15" fill="#b7ff91"/><circle cx="862" cy="327" r="26" fill="#b7ff91"/><circle cx="49" cy="302" r="13" fill="#ffe45e"/><circle cx="116" cy="331" r="24" fill="#b7ff91"/><circle cx="183" cy="304" r="35" fill="#b7ff91"/><circle cx="250" cy="291" r="22" fill="#ffe45e"/><circle cx="317" cy="325" r="33" fill="#b7ff91"/><circle cx="384" cy="301" r="20" fill="#b7ff91"/><circle cx="451" cy="295" r="31" fill="#ffe45e"/><circle cx="518" cy="327" r="18" fill="#b7ff91"/></g>
  <path d="M0 382 H960" stroke="#ffe45e" stroke-width="2" opacity="0.42"/>
  <path d="M167 392 C330 350, 621 410, 747 372" fill="none" stroke="#fff7c4" stroke-width="4" opacity="0.34"/>
  <text x="28" y="40" fill="#fff7c4" font-family="monospace" font-size="18" letter-spacing="5" opacity="0.5">81 STARFALL</text>
</svg>