<svg xmlns="http://www.w3.org/2000/svg" viewBox="0 0 960 420" role="img" aria-label="region-59 unique card art">
  <defs>
    <linearGradient id="sky-region-59" x1="0" y1="0" x2="1" y2="1"><stop offset="0" stop-color="#162b45"/><stop offset="0.52" stop-color="#69511c"/><stop offset="1" stop-color="#090812"/></linearGradient>
    <linearGradient id="tower-region-59" x1="0" y1="0" x2="1" y2="1"><stop offset="0" stop-color="#101827"/><stop offset="0.5" stop-color="#69511c"/><stop offset="1" stop-color="#03060c"/></linearGradient>
    <radialGradient id="orb-region-59" cx="50%" cy="50%" r="55%"><stop offset="0" stop-color="#fff0a8"/><stop offset="0.42" stop-color="#ffd85f" stop-opacity="0.62"/><stop offset="1" stop-color="#ffd85f" stop-opacity="0"/></radialGradient>
    <filter id="glow-region-59" x="-20%" y="-20%" width="140%" height="140%"><feGaussianBlur stdDeviation="5" result="b"/><feMerge><feMergeNode in="b"/><feMergeNode in="SourceGraphic"/></feMerge></filter>
  </defs>
  <rect width="960" height="420" fill="url(#sky-region-59)"/>
  <circle cx="258" cy="149" r="54" fill="url(#orb-region-59)" filter="url(#glow-region-59)"/>
  <circle cx="26" cy="174" r="1.5" fill="#ffffff" opacity="0.22"/><circle cx="109" cy="126" r="1.6" fill="#ffffff" opacity="0.22"/><circle cx="192" cy="116" r="1.6" fill="#ffffff" opacity="0.22"/><circle cx="275" cy="43" r="1.7" fill="#ffffff" opacity="0.22"/><circle cx="358" cy="21" r="1.8" fill="#ffffff" opacity="0.22"/><circle cx="441" cy="107" r="1.9" fill="#ffffff" opacity="0.22"/><circle cx="524" cy="165" r="2.0" fill="#ffffff" opacity="0.22"/><circle cx="607" cy="42" r="2.0" fill="#ffffff" opacity="0.22"/><circle cx="690" cy="78" r="2.1" fill="#ffffff" opacity="0.22"/><circle cx="773" cy="111" r="2.2" fill="#ffffff" opacity="0.22"/><circle cx="856" cy="59" r="0.8" fill="#ffffff" opacity="0.22"/><circle cx="27" cy="130" r="0.9" fill="#ffffff" opacity="0.22"/>
  
  <polyline points="0,260 0,279 140,292 280,298 420,301 560,303 700,304 840,304 980,269 960,250 960,420 0,420" fill="#050b14" opacity="0.42"/>
  <polyline points="0,220 0,186 120,222 240,201 360,190 480,185 600,221 720,200 840,190 960,185 960,210 960,420 0,420" fill="#0a1422" opacity="0.48"/>
  <g opacity="0.9"><rect x="392" y="125" width="31" height="111" rx="5.166666666666667" fill="url(#tower-region-59)"/><rect x="403.16" y="135" width="5.58" height="89" rx="3" fill="#ffd85f" opacity="0.42"/><ellipse cx="407.5" cy="125" rx="22.32" ry="7" fill="#fff1ba" opacity="0.74"/></g><g opacity="0.9"><rect x="541" y="112" width="42" height="148" rx="7" fill="url(#tower-region-59)"/><rect x="556.12" y="122" width="7.56" height="126" rx="3" fill="#ffd85f" opacity="0.42"/><rect x="536" y="103" width="52" height="9" rx="4" fill="#fff1ba" opacity="0.66"/></g><g opacity="0.9"><rect x="690" y="123" width="48" height="113" rx="8" fill="url(#tower-region-59)"/><rect x="707.28" y="133" width="8.64" height="91" rx="3" fill="#ffd85f" opacity="0.42"/><polygon points="682,123 714,91 746,123" fill="#fff1ba" opacity="0.82"/></g><g opacity="0.9"><rect x="839" y="165" width="35" height="95" rx="5.833333333333333" fill="url(#tower-region-59)"/><rect x="851.6" y="175" width="6.3" height="73" rx="3" fill="#ffd85f" opacity="0.42"/><ellipse cx="856.5" cy="165" rx="25.2" ry="7" fill="#fff1ba" opacity="0.74"/></g><g opacity="0.9"><rect x="198" y="150" width="28" height="86" rx="4.666666666666667" fill="url(#tower-region-59)"/><rect x="208.08" y="160" width="5.04" height="64" rx="3" fill="#ffd85f" opacity="0.42"/><rect x="193" y="141" width="38" height="9" rx="4" fill="#fff1ba" opacity="0.66"/></g><g opacity="0.9"><rect x="347" y="124" width="41" height="136" rx="6.833333333333333" fill="url(#tower-region-59)"/><rect x="361.76" y="134" width="7.38" height="114" rx="3" fill="#ffd85f" opacity="0.42"/><polygon points="339,124 367.5,92 396,124" fill="#fff1ba" opacity="0.82"/></g>
  <path d="M0 326 C146 256, 290 380, 430 306 S706 250, 960 310 L960 420 L0 420 Z" fill="#6c4b24" opacity="0.86"/><path d="M0 355 C160 318, 300 392, 474 346 S776 318, 960 362" fill="none" stroke="#ffd85f" stroke-width="8" opacity="0.32"/>
  <path d="M0 382 H960" stroke="#ffd85f" stroke-width="2" opacity="0.42"/>
  <path d="M66 392 C329 350, 633 410, 861 372" fill="none" stroke="#fff1ba" stroke-width="4" opacity="0.34"/>
  <text x="28" y="40" fill="#fff1ba" font-family="monospace" font-size="18" letter-spacing="5" opacity="0.5">59 STONE WASTE</text>
</svg>