<svg xmlns="http://www.w3.org/2000/svg" viewBox="0 0 960 420" role="img" aria-label="region-58 unique card art">
  <defs>
    <linearGradient id="sky-region-58" x1="0" y1="0" x2="1" y2="1"><stop offset="0" stop-color="#162b45"/><stop offset="0.52" stop-color="#1e5a28"/><stop offset="1" stop-color="#090812"/></linearGradient>
    <linearGradient id="tower-region-58" x1="0" y1="0" x2="1" y2="1"><stop offset="0" stop-color="#101827"/><stop offset="0.5" stop-color="#1e5a28"/><stop offset="1" stop-color="#03060c"/></linearGradient>
    <radialGradient id="orb-region-58" cx="50%" cy="50%" r="55%"><stop offset="0" stop-color="#fff0a8"/><stop offset="0.42" stop-color="#8dff72" stop-opacity="0.62"/><stop offset="1" stop-color="#8dff72" stop-opacity="0"/></radialGradient>
    <filter id="glow-region-58" x="-20%" y="-20%" width="140%" height="140%"><feGaussianBlur stdDeviation="5" result="b"/><feMerge><feMergeNode in="b"/><feMergeNode in="SourceGraphic"/></feMerge></filter>
  </defs>
  <rect width="960" height="420" fill="url(#sky-region-58)"/>
  <circle cx="820" cy="126" r="54" fill="url(#orb-region-58)" filter="url(#glow-region-58)"/>
  <circle cx="493" cy="173" r="1.4" fill="#ffffff" opacity="0.22"/><circle cx="576" cy="125" r="1.5" fill="#ffffff" opacity="0.22"/><circle cx="659" cy="33" r="1.6" fill="#ffffff" opacity="0.22"/><circle cx="742" cy="167" r="1.6" fill="#ffffff" opacity="0.22"/><circle cx="825" cy="166" r="1.7" fill="#ffffff" opacity="0.22"/><circle cx="908" cy="180" r="1.8" fill="#ffffff" opacity="0.22"/><circle cx="79" cy="35" r="1.9" fill="#ffffff" opacity="0.22"/><circle cx="162" cy="143" r="2.0" fill="#ffffff" opacity="0.22"/><circle cx="245" cy="46" r="2.0" fill="#ffffff" opacity="0.22"/><circle cx="328" cy="178" r="2.1" fill="#ffffff" opacity="0.22"/><circle cx="411" cy="175" r="2.2" fill="#ffffff" opacity="0.22"/><circle cx="494" cy="22" r="0.8" fill="#ffffff" opacity="0.22"/>
  
  <polyline points="0,260 0,280 140,292 280,263 420,249 560,242 700,238 840,236 980,235 960,250 960,420 0,420" fill="#050b14" opacity="0.42"/>
  <polyline points="0,220 0,219 120,238 240,248 360,253 480,255 600,256 720,218 840,199 960,189 960,210 960,420 0,420" fill="#0a1422" opacity="0.48"/>
  <g opacity="0.9"><rect x="781" y="71" width="40" height="140" rx="6.666666666666667" fill="url(#tower-region-58)"/><rect x="795.4" y="81" width="7.199999999999999" height="118" rx="3" fill="#8dff72" opacity="0.42"/><polygon points="773,71 801,39 829,71" fill="#e8ffe3" opacity="0.82"/></g><g opacity="0.9"><rect x="140" y="126" width="47" height="109" rx="7.833333333333333" fill="url(#tower-region-58)"/><rect x="156.92" y="136" width="8.459999999999999" height="87" rx="3" fill="#8dff72" opacity="0.42"/><ellipse cx="163.5" cy="126" rx="33.839999999999996" ry="7" fill="#e8ffe3" opacity="0.74"/></g><g opacity="0.9"><rect x="289" y="64" width="34" height="147" rx="5.666666666666667" fill="url(#tower-region-58)"/><rect x="301.24" y="74" width="6.12" height="125" rx="3" fill="#8dff72" opacity="0.42"/><rect x="284" y="55" width="44" height="9" rx="4" fill="#e8ffe3" opacity="0.66"/></g><g opacity="0.9"><rect x="438" y="69" width="28" height="166" rx="4.666666666666667" fill="url(#tower-region-58)"/><rect x="448.08" y="79" width="5.04" height="144" rx="3" fill="#8dff72" opacity="0.42"/><polygon points="430,69 452,37 474,69" fill="#e8ffe3" opacity="0.82"/></g><g opacity="0.9"><rect x="587" y="35" width="41" height="176" rx="6.833333333333333" fill="url(#tower-region-58)"/><rect x="601.76" y="45" width="7.38" height="154" rx="3" fill="#8dff72" opacity="0.42"/><ellipse cx="607.5" cy="35" rx="29.52" ry="7" fill="#e8ffe3" opacity="0.74"/></g>
  <path d="M0 330 C105 275, 162 316, 260 274 S430 332, 552 282 S760 310, 960 256 L960 420 L0 420 Z" fill="#173d23" opacity="0.84"/><g opacity="0.68"><circle cx="845" cy="279" r="25" fill="#8dff72"/><circle cx="912" cy="278" r="12" fill="#b7ff91"/><circle cx="99" cy="319" r="23" fill="#b7ff91"/><circle cx="166" cy="298" r="34" fill="#8dff72"/><circle cx="233" cy="288" r="21" fill="#b7ff91"/><circle cx="300" cy="283" r="32" fill="#b7ff91"/><circle cx="367" cy="321" r="19" fill="#8dff72"/><circle cx="434" cy="340" r="30" fill="#b7ff91"/><circle cx="501" cy="350" r="17" fill="#b7ff91"/><circle cx="568" cy="355" r="28" fill="#8dff72"/><circle cx="635" cy="357" r="15" fill="#b7ff91"/><circle cx="702" cy="317" r="26" fill="#b7ff91"/><circle cx="769" cy="279" r="13" fill="#8dff72"/><circle cx="836" cy="278" r="24" fill="#b7ff91"/></g>
  <path d="M0 382 H960" stroke="#8dff72" stroke-width="2" opacity="0.42"/>
  <path d="M65 392 C330 350, 548 410, 829 372" fill="none" stroke="#e8ffe3" stroke-width="4" opacity="0.34"/>
  <text x="28" y="40" fill="#e8ffe3" font-family="monospace" font-size="18" letter-spacing="5" opacity="0.5">58 MYCEL FOREST</text>
</svg>