<svg xmlns="http://www.w3.org/2000/svg" viewBox="0 0 960 420" role="img" aria-label="region-65 unique card art">
  <defs>
    <linearGradient id="sky-region-65" x1="0" y1="0" x2="1" y2="1"><stop offset="0" stop-color="#162b45"/><stop offset="0.52" stop-color="#5b164e"/><stop offset="1" stop-color="#090812"/></linearGradient>
    <linearGradient id="tower-region-65" x1="0" y1="0" x2="1" y2="1"><stop offset="0" stop-color="#101827"/><stop offset="0.5" stop-color="#5b164e"/><stop offset="1" stop-color="#03060c"/></linearGradient>
    <radialGradient id="orb-region-65" cx="50%" cy="50%" r="55%"><stop offset="0" stop-color="#fff0a8"/><stop offset="0.42" stop-color="#ff74ee" stop-opacity="0.62"/><stop offset="1" stop-color="#ff74ee" stop-opacity="0"/></radialGradient>
    <filter id="glow-region-65" x="-20%" y="-20%" width="140%" height="140%"><feGaussianBlur stdDeviation="5" result="b"/><feMerge><feMergeNode in="b"/><feMergeNode in="SourceGraphic"/></feMerge></filter>
  </defs>
  <rect width="960" height="420" fill="url(#sky-region-65)"/>
  <circle cx="376" cy="157" r="54" fill="url(#orb-region-65)" filter="url(#glow-region-65)"/>
  <circle cx="157" cy="39" r="0.9" fill="#ffffff" opacity="0.22"/><circle cx="240" cy="141" r="1.0" fill="#ffffff" opacity="0.22"/><circle cx="323" cy="41" r="1.1" fill="#ffffff" opacity="0.22"/><circle cx="406" cy="171" r="1.1" fill="#ffffff" opacity="0.22"/><circle cx="489" cy="168" r="1.2" fill="#ffffff" opacity="0.22"/><circle cx="572" cy="181" r="1.3" fill="#ffffff" opacity="0.22"/><circle cx="655" cy="36" r="1.4" fill="#ffffff" opacity="0.22"/><circle cx="738" cy="144" r="1.5" fill="#ffffff" opacity="0.22"/><circle cx="821" cy="46" r="1.6" fill="#ffffff" opacity="0.22"/><circle cx="904" cy="95" r="1.6" fill="#ffffff" opacity="0.22"/><circle cx="75" cy="134" r="1.7" fill="#ffffff" opacity="0.22"/><circle cx="158" cy="168" r="1.8" fill="#ffffff" opacity="0.22"/>
  
  <polyline points="0,260 0,249 140,277 280,256 420,245 560,275 700,255 840,280 980,292 960,250 960,420 0,420" fill="#050b14" opacity="0.42"/>
  <polyline points="0,220 0,219 120,238 240,248 360,214 480,236 600,247 720,252 840,216 960,198 960,210 960,420 0,420" fill="#0a1422" opacity="0.48"/>
  <g opacity="0.9"><rect x="619" y="113" width="24" height="98" rx="4" fill="url(#tower-region-65)"/><rect x="627.64" y="123" width="4.32" height="76" rx="3" fill="#ff74ee" opacity="0.42"/><polygon points="611,113 631,81 651,113" fill="#ffe2fb" opacity="0.82"/></g><g opacity="0.9"><rect x="768" y="93" width="23" height="142" rx="4" fill="url(#tower-region-65)"/><rect x="776.28" y="103" width="4.14" height="120" rx="3" fill="#ff74ee" opacity="0.42"/><ellipse cx="779.5" cy="93" rx="16.56" ry="7" fill="#ffe2fb" opacity="0.74"/></g><g opacity="0.9"><rect x="127" y="47" width="38" height="164" rx="6.333333333333333" fill="url(#tower-region-65)"/><rect x="140.68" y="57" width="6.84" height="142" rx="3" fill="#ff74ee" opacity="0.42"/><rect x="122" y="38" width="48" height="9" rx="4" fill="#ffe2fb" opacity="0.66"/></g>
  <path d="M0 330 L90 298 L164 326 L258 286 L354 326 L478 292 L612 328 L740 276 L842 322 L960 294 L960 420 L0 420 Z" fill="#1c1230" opacity="0.82"/><path d="M80 320 H884" stroke="#ff74ee" stroke-width="4" opacity="0.38"/>
  <path d="M0 382 H960" stroke="#ff74ee" stroke-width="2" opacity="0.42"/>
  <path d="M113 392 C268 350, 521 410, 855 372" fill="none" stroke="#ffe2fb" stroke-width="4" opacity="0.34"/>
  <text x="28" y="40" fill="#ffe2fb" font-family="monospace" font-size="18" letter-spacing="5" opacity="0.5">65 DROWNED CITY</text>
</svg>