<svg xmlns="http://www.w3.org/2000/svg" viewBox="0 0 960 420" role="img" aria-label="region-47 unique card art">
  <defs>
    <linearGradient id="sky-region-47" x1="0" y1="0" x2="1" y2="1"><stop offset="0" stop-color="#162b45"/><stop offset="0.52" stop-color="#69511c"/><stop offset="1" stop-color="#090812"/></linearGradient>
    <linearGradient id="tower-region-47" x1="0" y1="0" x2="1" y2="1"><stop offset="0" stop-color="#101827"/><stop offset="0.5" stop-color="#69511c"/><stop offset="1" stop-color="#03060c"/></linearGradient>
    <radialGradient id="orb-region-47" cx="50%" cy="50%" r="55%"><stop offset="0" stop-color="#fff0a8"/><stop offset="0.42" stop-color="#ffd85f" stop-opacity="0.62"/><stop offset="1" stop-color="#ffd85f" stop-opacity="0"/></radialGradient>
    <filter id="glow-region-47" x="-20%" y="-20%" width="140%" height="140%"><feGaussianBlur stdDeviation="5" result="b"/><feMerge><feMergeNode in="b"/><feMergeNode in="SourceGraphic"/></feMerge></filter>
  </defs>
  <rect width="960" height="420" fill="url(#sky-region-47)"/>
  <circle cx="276" cy="134" r="54" fill="url(#orb-region-47)" filter="url(#glow-region-47)"/>
  <circle cx="697" cy="153" r="1.4" fill="#ffffff" opacity="0.22"/><circle cx="780" cy="115" r="1.5" fill="#ffffff" opacity="0.22"/><circle cx="863" cy="28" r="1.6" fill="#ffffff" opacity="0.22"/><circle cx="34" cy="165" r="1.6" fill="#ffffff" opacity="0.22"/><circle cx="117" cy="82" r="1.7" fill="#ffffff" opacity="0.22"/><circle cx="200" cy="138" r="1.8" fill="#ffffff" opacity="0.22"/><circle cx="283" cy="97" r="1.9" fill="#ffffff" opacity="0.22"/><circle cx="366" cy="91" r="2.0" fill="#ffffff" opacity="0.22"/><circle cx="449" cy="103" r="2.0" fill="#ffffff" opacity="0.22"/><circle cx="532" cy="123" r="2.1" fill="#ffffff" opacity="0.22"/><circle cx="615" cy="148" r="2.2" fill="#ffffff" opacity="0.22"/><circle cx="698" cy="175" r="0.8" fill="#ffffff" opacity="0.22"/>
  
  <polyline points="0,260 0,304 140,304 280,269 420,252 560,243 700,239 840,237 980,236 960,250 960,420 0,420" fill="#050b14" opacity="0.42"/>
  <polyline points="0,220 0,216 120,198 240,228 360,243 480,211 600,234 720,207 840,232 960,206 960,210 960,420 0,420" fill="#0a1422" opacity="0.48"/>
  <g opacity="0.9"><rect x="225" y="95" width="38" height="156" rx="6.333333333333333" fill="url(#tower-region-47)"/><rect x="238.68" y="105" width="6.84" height="134" rx="3" fill="#ffd85f" opacity="0.42"/><polygon points="217,95 244,63 271,95" fill="#fff1ba" opacity="0.82"/></g><g opacity="0.9"><rect x="374" y="158" width="46" height="117" rx="7.666666666666667" fill="url(#tower-region-47)"/><rect x="390.56" y="168" width="8.28" height="95" rx="3" fill="#ffd85f" opacity="0.42"/><ellipse cx="397" cy="158" rx="33.12" ry="7" fill="#fff1ba" opacity="0.74"/></g><g opacity="0.9"><rect x="523" y="100" width="34" height="151" rx="5.666666666666667" fill="url(#tower-region-47)"/><rect x="535.24" y="110" width="6.12" height="129" rx="3" fill="#ffd85f" opacity="0.42"/><rect x="518" y="91" width="44" height="9" rx="4" fill="#fff1ba" opacity="0.66"/></g><g opacity="0.9"><rect x="672" y="107" width="44" height="168" rx="7.333333333333333" fill="url(#tower-region-47)"/><rect x="687.84" y="117" width="7.92" height="146" rx="3" fill="#ffd85f" opacity="0.42"/><polygon points="664,107 694,75 724,107" fill="#fff1ba" opacity="0.82"/></g><g opacity="0.9"><rect x="821" y="128" width="33" height="123" rx="5.5" fill="url(#tower-region-47)"/><rect x="832.88" y="138" width="5.9399999999999995" height="101" rx="3" fill="#ffd85f" opacity="0.42"/><ellipse cx="837.5" cy="128" rx="23.759999999999998" ry="7" fill="#fff1ba" opacity="0.74"/></g><g opacity="0.9"><rect x="180" y="121" width="27" height="154" rx="4.5" fill="url(#tower-region-47)"/><rect x="189.72" y="131" width="4.859999999999999" height="132" rx="3" fill="#ffd85f" opacity="0.42"/><rect x="175" y="112" width="37" height="9" rx="4" fill="#fff1ba" opacity="0.66"/></g>
  <path d="M0 326 C146 256, 290 380, 430 306 S706 250, 960 310 L960 420 L0 420 Z" fill="#6c4b24" opacity="0.86"/><path d="M0 355 C160 318, 300 392, 474 346 S776 318, 960 362" fill="none" stroke="#ffd85f" stroke-width="8" opacity="0.32"/>
  <path d="M0 382 H960" stroke="#ffd85f" stroke-width="2" opacity="0.42"/>
  <path d="M209 392 C378 350, 634 410, 868 372" fill="none" stroke="#fff1ba" stroke-width="4" opacity="0.34"/>
  <text x="28" y="40" fill="#fff1ba" font-family="monospace" font-size="18" letter-spacing="5" opacity="0.5">47 STONE WASTE</text>
</svg>