<svg xmlns="http://www.w3.org/2000/svg" viewBox="0 0 960 420" role="img" aria-label="region-54 unique card art">
  <defs>
    <linearGradient id="sky-region-54" x1="0" y1="0" x2="1" y2="1"><stop offset="0" stop-color="#071126"/><stop offset="0.52" stop-color="#1e5a28"/><stop offset="1" stop-color="#090812"/></linearGradient>
    <linearGradient id="tower-region-54" x1="0" y1="0" x2="1" y2="1"><stop offset="0" stop-color="#101827"/><stop offset="0.5" stop-color="#1e5a28"/><stop offset="1" stop-color="#03060c"/></linearGradient>
    <radialGradient id="orb-region-54" cx="50%" cy="50%" r="55%"><stop offset="0" stop-color="#d9dfff"/><stop offset="0.42" stop-color="#8dff72" stop-opacity="0.62"/><stop offset="1" stop-color="#8dff72" stop-opacity="0"/></radialGradient>
    <filter id="glow-region-54" x="-20%" y="-20%" width="140%" height="140%"><feGaussianBlur stdDeviation="5" result="b"/><feMerge><feMergeNode in="b"/><feMergeNode in="SourceGraphic"/></feMerge></filter>
  </defs>
  <rect width="960" height="420" fill="url(#sky-region-54)"/>
  <circle cx="190" cy="153" r="38" fill="url(#orb-region-54)" filter="url(#glow-region-54)"/>
  <circle cx="537" cy="169" r="1.1" fill="#ffffff" opacity="0.72"/><circle cx="620" cy="123" r="1.1" fill="#ffffff" opacity="0.72"/><circle cx="703" cy="32" r="1.2" fill="#ffffff" opacity="0.72"/><circle cx="786" cy="167" r="1.3" fill="#ffffff" opacity="0.72"/><circle cx="869" cy="83" r="1.4" fill="#ffffff" opacity="0.72"/><circle cx="40" cy="138" r="1.5" fill="#ffffff" opacity="0.72"/><circle cx="123" cy="180" r="1.6" fill="#ffffff" opacity="0.72"/><circle cx="206" cy="50" r="1.6" fill="#ffffff" opacity="0.72"/><circle cx="289" cy="82" r="1.7" fill="#ffffff" opacity="0.72"/><circle cx="372" cy="113" r="1.8" fill="#ffffff" opacity="0.72"/><circle cx="455" cy="143" r="1.9" fill="#ffffff" opacity="0.72"/><circle cx="538" cy="89" r="2.0" fill="#ffffff" opacity="0.72"/><circle cx="621" cy="77" r="2.0" fill="#ffffff" opacity="0.72"/><circle cx="704" cy="168" r="2.1" fill="#ffffff" opacity="0.72"/><circle cx="787" cy="145" r="2.2" fill="#ffffff" opacity="0.72"/><circle cx="870" cy="148" r="0.8" fill="#ffffff" opacity="0.72"/><circle cx="41" cy="135" r="0.9" fill="#ffffff" opacity="0.72"/><circle cx="124" cy="89" r="1.0" fill="#ffffff" opacity="0.72"/><circle cx="207" cy="164" r="1.1" fill="#ffffff" opacity="0.72"/><circle cx="290" cy="133" r="1.1" fill="#ffffff" opacity="0.72"/><circle cx="373" cy="49" r="1.2" fill="#ffffff" opacity="0.72"/><circle cx="456" cy="104" r="1.3" fill="#ffffff" opacity="0.72"/><circle cx="539" cy="146" r="1.4" fill="#ffffff" opacity="0.72"/><circle cx="622" cy="182" r="1.5" fill="#ffffff" opacity="0.72"/><circle cx="705" cy="48" r="1.6" fill="#ffffff" opacity="0.72"/><circle cx="788" cy="79" r="1.6" fill="#ffffff" opacity="0.72"/><circle cx="871" cy="109" r="1.7" fill="#ffffff" opacity="0.72"/><circle cx="42" cy="55" r="1.8" fill="#ffffff" opacity="0.72"/><circle cx="125" cy="43" r="1.9" fill="#ffffff" opacity="0.72"/><circle cx="208" cy="134" r="2.0" fill="#ffffff" opacity="0.72"/><circle cx="291" cy="111" r="2.0" fill="#ffffff" opacity="0.72"/><circle cx="374" cy="114" r="2.1" fill="#ffffff" opacity="0.72"/><circle cx="457" cy="101" r="2.2" fill="#ffffff" opacity="0.72"/><circle cx="540" cy="55" r="0.8" fill="#ffffff" opacity="0.72"/>
  
  <polyline points="0,260 0,282 140,293 280,264 420,249 560,277 700,256 840,245 980,240 960,250 960,420 0,420" fill="#050b14" opacity="0.42"/>
  <polyline points="0,220 0,194 120,226 240,203 360,191 480,224 600,241 720,210 840,234 960,207 960,210 960,420 0,420" fill="#0a1422" opacity="0.48"/>
  <g opacity="0.9"><rect x="757" y="66" width="46" height="149" rx="7.666666666666667" fill="url(#tower-region-54)"/><rect x="773.56" y="76" width="8.28" height="127" rx="3" fill="#8dff72" opacity="0.42"/><rect x="752" y="57" width="56" height="9" rx="4" fill="#e8ffe3" opacity="0.66"/></g><g opacity="0.9"><rect x="116" y="72" width="34" height="167" rx="5.666666666666667" fill="url(#tower-region-54)"/><rect x="128.24" y="82" width="6.12" height="145" rx="3" fill="#8dff72" opacity="0.42"/><polygon points="108,72 133,40 158,72" fill="#e8ffe3" opacity="0.82"/></g><g opacity="0.9"><rect x="265" y="39" width="44" height="176" rx="7.333333333333333" fill="url(#tower-region-54)"/><rect x="280.84" y="49" width="7.92" height="154" rx="3" fill="#8dff72" opacity="0.42"/><ellipse cx="287" cy="39" rx="31.68" ry="7" fill="#e8ffe3" opacity="0.74"/></g><g opacity="0.9"><rect x="414" y="112" width="33" height="127" rx="5.5" fill="url(#tower-region-54)"/><rect x="425.88" y="122" width="5.9399999999999995" height="105" rx="3" fill="#8dff72" opacity="0.42"/><rect x="409" y="103" width="43" height="9" rx="4" fill="#e8ffe3" opacity="0.66"/></g><g opacity="0.9"><rect x="563" y="113" width="27" height="102" rx="4.5" fill="url(#tower-region-54)"/><rect x="572.72" y="123" width="4.859999999999999" height="80" rx="3" fill="#8dff72" opacity="0.42"/><polygon points="555,113 576.5,81 598,113" fill="#e8ffe3" opacity="0.82"/></g>
  <path d="M0 330 C105 275, 162 316, 260 274 S430 332, 552 282 S760 310, 960 256 L960 420 L0 420 Z" fill="#173d23" opacity="0.84"/><g opacity="0.68"><circle cx="761" cy="315" r="21" fill="#8dff72"/><circle cx="828" cy="296" r="32" fill="#b7ff91"/><circle cx="895" cy="328" r="19" fill="#b7ff91"/><circle cx="82" cy="344" r="30" fill="#8dff72"/><circle cx="149" cy="311" r="17" fill="#b7ff91"/><circle cx="216" cy="335" r="28" fill="#b7ff91"/><circle cx="283" cy="306" r="15" fill="#8dff72"/><circle cx="350" cy="333" r="26" fill="#b7ff91"/><circle cx="417" cy="346" r="13" fill="#b7ff91"/><circle cx="484" cy="312" r="24" fill="#8dff72"/><circle cx="551" cy="295" r="35" fill="#b7ff91"/><circle cx="618" cy="286" r="22" fill="#b7ff91"/><circle cx="685" cy="315" r="33" fill="#8dff72"/><circle cx="752" cy="296" r="20" fill="#b7ff91"/></g>
  <path d="M0 382 H960" stroke="#8dff72" stroke-width="2" opacity="0.42"/>
  <path d="M61 392 C335 350, 569 410, 860 372" fill="none" stroke="#e8ffe3" stroke-width="4" opacity="0.34"/>
  <text x="28" y="40" fill="#e8ffe3" font-family="monospace" font-size="18" letter-spacing="5" opacity="0.5">54 MYCEL FOREST</text>
</svg>