<svg xmlns="http://www.w3.org/2000/svg" viewBox="0 0 960 420" role="img" aria-label="region-61 unique card art">
  <defs>
    <linearGradient id="sky-region-61" x1="0" y1="0" x2="1" y2="1"><stop offset="0" stop-color="#162b45"/><stop offset="0.52" stop-color="#5b164e"/><stop offset="1" stop-color="#090812"/></linearGradient>
    <linearGradient id="tower-region-61" x1="0" y1="0" x2="1" y2="1"><stop offset="0" stop-color="#101827"/><stop offset="0.5" stop-color="#5b164e"/><stop offset="1" stop-color="#03060c"/></linearGradient>
    <radialGradient id="orb-region-61" cx="50%" cy="50%" r="55%"><stop offset="0" stop-color="#fff0a8"/><stop offset="0.42" stop-color="#ff74ee" stop-opacity="0.62"/><stop offset="1" stop-color="#ff74ee" stop-opacity="0"/></radialGradient>
    <filter id="glow-region-61" x="-20%" y="-20%" width="140%" height="140%"><feGaussianBlur stdDeviation="5" result="b"/><feMerge><feMergeNode in="b"/><feMergeNode in="SourceGraphic"/></feMerge></filter>
  </defs>
  <rect width="960" height="420" fill="url(#sky-region-61)"/>
  <circle cx="287" cy="130" r="54" fill="url(#orb-region-61)" filter="url(#glow-region-61)"/>
  <circle cx="113" cy="43" r="1.2" fill="#ffffff" opacity="0.22"/><circle cx="196" cy="143" r="1.3" fill="#ffffff" opacity="0.22"/><circle cx="279" cy="42" r="1.4" fill="#ffffff" opacity="0.22"/><circle cx="362" cy="172" r="1.5" fill="#ffffff" opacity="0.22"/><circle cx="445" cy="85" r="1.6" fill="#ffffff" opacity="0.22"/><circle cx="528" cy="56" r="1.6" fill="#ffffff" opacity="0.22"/><circle cx="611" cy="56" r="1.7" fill="#ffffff" opacity="0.22"/><circle cx="694" cy="71" r="1.8" fill="#ffffff" opacity="0.22"/><circle cx="777" cy="176" r="1.9" fill="#ffffff" opacity="0.22"/><circle cx="860" cy="160" r="2.0" fill="#ffffff" opacity="0.22"/><circle cx="31" cy="166" r="2.0" fill="#ffffff" opacity="0.22"/><circle cx="114" cy="101" r="2.1" fill="#ffffff" opacity="0.22"/>
  
  <polyline points="0,260 0,246 140,275 280,255 420,245 560,240 700,237 840,271 980,288 960,250 960,420 0,420" fill="#050b14" opacity="0.42"/>
  <polyline points="0,220 0,244 120,251 240,215 360,197 480,188 600,184 720,182 840,181 960,180 960,210 960,420 0,420" fill="#0a1422" opacity="0.48"/>
  <g opacity="0.9"><rect x="643" y="170" width="50" height="89" rx="8.333333333333334" fill="url(#tower-region-61)"/><rect x="661" y="180" width="9" height="67" rx="3" fill="#ff74ee" opacity="0.42"/><ellipse cx="668" cy="170" rx="36" ry="7" fill="#ffe2fb" opacity="0.74"/></g><g opacity="0.9"><rect x="792" y="200" width="36" height="83" rx="6" fill="url(#tower-region-61)"/><rect x="804.96" y="210" width="6.4799999999999995" height="61" rx="3" fill="#ff74ee" opacity="0.42"/><rect x="787" y="191" width="46" height="9" rx="4" fill="#ffe2fb" opacity="0.66"/></g><g opacity="0.9"><rect x="151" y="125" width="29" height="134" rx="4.833333333333333" fill="url(#tower-region-61)"/><rect x="161.44" y="135" width="5.22" height="112" rx="3" fill="#ff74ee" opacity="0.42"/><polygon points="143,125 165.5,93 188,125" fill="#ffe2fb" opacity="0.82"/></g>
  <path d="M0 330 L90 298 L164 326 L258 286 L354 326 L478 292 L612 328 L740 276 L842 322 L960 294 L960 420 L0 420 Z" fill="#1c1230" opacity="0.82"/><path d="M80 320 H884" stroke="#ff74ee" stroke-width="4" opacity="0.38"/>
  <path d="M0 382 H960" stroke="#ff74ee" stroke-width="2" opacity="0.42"/>
  <path d="M117 392 C263 350, 620 410, 824 372" fill="none" stroke="#ffe2fb" stroke-width="4" opacity="0.34"/>
  <text x="28" y="40" fill="#ffe2fb" font-family="monospace" font-size="18" letter-spacing="5" opacity="0.5">61 DROWNED CITY</text>
</svg>