<svg xmlns="http://www.w3.org/2000/svg" viewBox="0 0 960 420" role="img" aria-label="region-68 unique card art">
  <defs>
    <linearGradient id="sky-region-68" x1="0" y1="0" x2="1" y2="1"><stop offset="0" stop-color="#162b45"/><stop offset="0.52" stop-color="#09566b"/><stop offset="1" stop-color="#090812"/></linearGradient>
    <linearGradient id="tower-region-68" x1="0" y1="0" x2="1" y2="1"><stop offset="0" stop-color="#101827"/><stop offset="0.5" stop-color="#09566b"/><stop offset="1" stop-color="#03060c"/></linearGradient>
    <radialGradient id="orb-region-68" cx="50%" cy="50%" r="55%"><stop offset="0" stop-color="#fff0a8"/><stop offset="0.42" stop-color="#36f3ff" stop-opacity="0.62"/><stop offset="1" stop-color="#36f3ff" stop-opacity="0"/></radialGradient>
    <filter id="glow-region-68" x="-20%" y="-20%" width="140%" height="140%"><feGaussianBlur stdDeviation="5" result="b"/><feMerge><feMergeNode in="b"/><feMergeNode in="SourceGraphic"/></feMerge></filter>
  </defs>
  <rect width="960" height="420" fill="url(#sky-region-68)"/>
  <circle cx="623" cy="88" r="54" fill="url(#orb-region-68)" filter="url(#glow-region-68)"/>
  <circle cx="646" cy="36" r="2.1" fill="#ffffff" opacity="0.22"/><circle cx="729" cy="140" r="2.2" fill="#ffffff" opacity="0.22"/><circle cx="812" cy="123" r="0.8" fill="#ffffff" opacity="0.22"/><circle cx="895" cy="46" r="0.9" fill="#ffffff" opacity="0.22"/><circle cx="66" cy="105" r="1.0" fill="#ffffff" opacity="0.22"/><circle cx="149" cy="66" r="1.1" fill="#ffffff" opacity="0.22"/><circle cx="232" cy="144" r="1.1" fill="#ffffff" opacity="0.22"/><circle cx="315" cy="115" r="1.2" fill="#ffffff" opacity="0.22"/><circle cx="398" cy="115" r="1.3" fill="#ffffff" opacity="0.22"/><circle cx="481" cy="129" r="1.4" fill="#ffffff" opacity="0.22"/><circle cx="564" cy="151" r="1.5" fill="#ffffff" opacity="0.22"/><circle cx="647" cy="176" r="1.6" fill="#ffffff" opacity="0.22"/>
  
  <polyline points="0,260 0,250 140,277 280,291 420,298 560,301 700,268 840,286 980,260 960,250 960,420 0,420" fill="#050b14" opacity="0.42"/>
  <polyline points="0,220 0,239 120,209 240,233 360,245 480,212 600,196 720,227 840,242 960,211 960,210 960,420 0,420" fill="#0a1422" opacity="0.48"/>
  <g opacity="0.9"><rect x="206" y="55" width="53" height="185" rx="8.833333333333334" fill="url(#tower-region-68)"/><rect x="225.07999999999998" y="65" width="9.54" height="163" rx="3" fill="#36f3ff" opacity="0.42"/><polygon points="198,55 232.5,23 267,55" fill="#c8fbff" opacity="0.82"/></g><g opacity="0.9"><rect x="355" y="133" width="37" height="131" rx="6.166666666666667" fill="url(#tower-region-68)"/><rect x="368.32" y="143" width="6.66" height="109" rx="3" fill="#36f3ff" opacity="0.42"/><ellipse cx="373.5" cy="133" rx="26.64" ry="7" fill="#c8fbff" opacity="0.74"/></g><g opacity="0.9"><rect x="504" y="82" width="29" height="158" rx="4.833333333333333" fill="url(#tower-region-68)"/><rect x="514.44" y="92" width="5.22" height="136" rx="3" fill="#36f3ff" opacity="0.42"/><rect x="499" y="73" width="39" height="9" rx="4" fill="#c8fbff" opacity="0.66"/></g><g opacity="0.9"><rect x="653" y="92" width="41" height="172" rx="6.833333333333333" fill="url(#tower-region-68)"/><rect x="667.76" y="102" width="7.38" height="150" rx="3" fill="#36f3ff" opacity="0.42"/><polygon points="645,92 673.5,60 702,92" fill="#c8fbff" opacity="0.82"/></g>
  <path d="M0 343 C140 289, 244 395, 390 343 S672 313, 960 363 L960 420 L0 420 Z" fill="#104c64" opacity="0.82"/><path d="M0 361 C144 321, 250 417, 392 365 S690 341, 960 389" fill="none" stroke="#36f3ff" stroke-width="10" opacity="0.36"/>
  <path d="M0 382 H960" stroke="#36f3ff" stroke-width="2" opacity="0.42"/>
  <path d="M110 392 C271 350, 626 410, 759 372" fill="none" stroke="#c8fbff" stroke-width="4" opacity="0.34"/>
  <text x="28" y="40" fill="#c8fbff" font-family="monospace" font-size="18" letter-spacing="5" opacity="0.5">68 NEON CANAL</text>
</svg>