<svg xmlns="http://www.w3.org/2000/svg" viewBox="0 0 960 420" role="img" aria-label="region-15 unique card art">
  <defs>
    <linearGradient id="sky-region-15" x1="0" y1="0" x2="1" y2="1"><stop offset="0" stop-color="#071126"/><stop offset="0.52" stop-color="#69511c"/><stop offset="1" stop-color="#090812"/></linearGradient>
    <linearGradient id="tower-region-15" x1="0" y1="0" x2="1" y2="1"><stop offset="0" stop-color="#101827"/><stop offset="0.5" stop-color="#69511c"/><stop offset="1" stop-color="#03060c"/></linearGradient>
    <radialGradient id="orb-region-15" cx="50%" cy="50%" r="55%"><stop offset="0" stop-color="#d9dfff"/><stop offset="0.42" stop-color="#ffd85f" stop-opacity="0.62"/><stop offset="1" stop-color="#ffd85f" stop-opacity="0"/></radialGradient>
    <filter id="glow-region-15" x="-20%" y="-20%" width="140%" height="140%"><feGaussianBlur stdDeviation="5" result="b"/><feMerge><feMergeNode in="b"/><feMergeNode in="SourceGraphic"/></feMerge></filter>
  </defs>
  <rect width="960" height="420" fill="url(#sky-region-15)"/>
  <circle cx="650" cy="120" r="38" fill="url(#orb-region-15)" filter="url(#glow-region-15)"/>
  <circle cx="138" cy="66" r="1.8" fill="#ffffff" opacity="0.72"/><circle cx="221" cy="72" r="1.9" fill="#ffffff" opacity="0.72"/><circle cx="304" cy="172" r="2.0" fill="#ffffff" opacity="0.72"/><circle cx="387" cy="71" r="2.0" fill="#ffffff" opacity="0.72"/><circle cx="470" cy="35" r="2.1" fill="#ffffff" opacity="0.72"/><circle cx="553" cy="31" r="2.2" fill="#ffffff" opacity="0.72"/><circle cx="636" cy="44" r="0.8" fill="#ffffff" opacity="0.72"/><circle cx="719" cy="65" r="0.9" fill="#ffffff" opacity="0.72"/><circle cx="802" cy="90" r="1.0" fill="#ffffff" opacity="0.72"/><circle cx="885" cy="34" r="1.1" fill="#ffffff" opacity="0.72"/><circle cx="56" cy="103" r="1.1" fill="#ffffff" opacity="0.72"/><circle cx="139" cy="69" r="1.2" fill="#ffffff" opacity="0.72"/><circle cx="222" cy="67" r="1.3" fill="#ffffff" opacity="0.72"/><circle cx="305" cy="163" r="1.4" fill="#ffffff" opacity="0.72"/><circle cx="388" cy="60" r="1.5" fill="#ffffff" opacity="0.72"/><circle cx="471" cy="23" r="1.6" fill="#ffffff" opacity="0.72"/><circle cx="554" cy="32" r="1.6" fill="#ffffff" opacity="0.72"/><circle cx="637" cy="38" r="1.7" fill="#ffffff" opacity="0.72"/><circle cx="720" cy="138" r="1.8" fill="#ffffff" opacity="0.72"/><circle cx="803" cy="37" r="1.9" fill="#ffffff" opacity="0.72"/><circle cx="886" cy="167" r="2.0" fill="#ffffff" opacity="0.72"/><circle cx="57" cy="163" r="2.0" fill="#ffffff" opacity="0.72"/><circle cx="140" cy="176" r="2.1" fill="#ffffff" opacity="0.72"/><circle cx="223" cy="31" r="2.2" fill="#ffffff" opacity="0.72"/><circle cx="306" cy="56" r="0.8" fill="#ffffff" opacity="0.72"/><circle cx="389" cy="166" r="0.9" fill="#ffffff" opacity="0.72"/><circle cx="472" cy="69" r="1.0" fill="#ffffff" opacity="0.72"/><circle cx="555" cy="35" r="1.1" fill="#ffffff" opacity="0.72"/><circle cx="638" cy="33" r="1.1" fill="#ffffff" opacity="0.72"/><circle cx="721" cy="129" r="1.2" fill="#ffffff" opacity="0.72"/><circle cx="804" cy="26" r="1.3" fill="#ffffff" opacity="0.72"/><circle cx="887" cy="155" r="1.4" fill="#ffffff" opacity="0.72"/><circle cx="58" cy="164" r="1.5" fill="#ffffff" opacity="0.72"/><circle cx="141" cy="170" r="1.6" fill="#ffffff" opacity="0.72"/>
  
  <polyline points="0,260 0,297 140,301 280,303 420,269 560,252 700,278 840,291 980,298 960,250 960,420 0,420" fill="#050b14" opacity="0.42"/>
  <polyline points="0,220 0,202 120,230 240,205 360,192 480,186 600,222 720,240 840,249 960,253 960,210 960,420 0,420" fill="#0a1422" opacity="0.48"/>
  <g opacity="0.9"><rect x="188" y="121" width="31" height="127" rx="5.166666666666667" fill="url(#tower-region-15)"/><rect x="199.16" y="131" width="5.58" height="105" rx="3" fill="#ffd85f" opacity="0.42"/><rect x="183" y="112" width="41" height="9" rx="4" fill="#fff1ba" opacity="0.66"/></g><g opacity="0.9"><rect x="337" y="170" width="26" height="102" rx="4.333333333333333" fill="url(#tower-region-15)"/><rect x="346.36" y="180" width="4.68" height="80" rx="3" fill="#ffd85f" opacity="0.42"/><polygon points="329,170 350,138 371,170" fill="#fff1ba" opacity="0.82"/></g><g opacity="0.9"><rect x="486" y="158" width="24" height="90" rx="4" fill="url(#tower-region-15)"/><rect x="494.64" y="168" width="4.32" height="68" rx="3" fill="#ffd85f" opacity="0.42"/><ellipse cx="498" cy="158" rx="17.28" ry="7" fill="#fff1ba" opacity="0.74"/></g><g opacity="0.9"><rect x="635" y="134" width="23" height="138" rx="4" fill="url(#tower-region-15)"/><rect x="643.28" y="144" width="4.14" height="116" rx="3" fill="#ffd85f" opacity="0.42"/><rect x="630" y="125" width="33" height="9" rx="4" fill="#fff1ba" opacity="0.66"/></g><g opacity="0.9"><rect x="784" y="140" width="38" height="108" rx="6.333333333333333" fill="url(#tower-region-15)"/><rect x="797.68" y="150" width="6.84" height="86" rx="3" fill="#ffd85f" opacity="0.42"/><polygon points="776,140 803,108 830,140" fill="#fff1ba" opacity="0.82"/></g>
  <path d="M0 326 C146 256, 290 380, 430 306 S706 250, 960 310 L960 420 L0 420 Z" fill="#6c4b24" opacity="0.86"/><path d="M0 355 C160 318, 300 392, 474 346 S776 318, 960 362" fill="none" stroke="#ffd85f" stroke-width="8" opacity="0.32"/>
  <path d="M0 382 H960" stroke="#ffd85f" stroke-width="2" opacity="0.42"/>
  <path d="M142 392 C365 350, 628 410, 824 372" fill="none" stroke="#fff1ba" stroke-width="4" opacity="0.34"/>
  <text x="28" y="40" fill="#fff1ba" font-family="monospace" font-size="18" letter-spacing="5" opacity="0.5">15 STONE WASTE</text>
</svg>