<svg xmlns="http://www.w3.org/2000/svg" viewBox="0 0 960 420" role="img" aria-label="region-29 unique card art">
  <defs>
    <linearGradient id="sky-region-29" x1="0" y1="0" x2="1" y2="1"><stop offset="0" stop-color="#162b45"/><stop offset="0.52" stop-color="#5b164e"/><stop offset="1" stop-color="#090812"/></linearGradient>
    <linearGradient id="tower-region-29" x1="0" y1="0" x2="1" y2="1"><stop offset="0" stop-color="#101827"/><stop offset="0.5" stop-color="#5b164e"/><stop offset="1" stop-color="#03060c"/></linearGradient>
    <radialGradient id="orb-region-29" cx="50%" cy="50%" r="55%"><stop offset="0" stop-color="#fff0a8"/><stop offset="0.42" stop-color="#ff74ee" stop-opacity="0.62"/><stop offset="1" stop-color="#ff74ee" stop-opacity="0"/></radialGradient>
    <filter id="glow-region-29" x="-20%" y="-20%" width="140%" height="140%"><feGaussianBlur stdDeviation="5" result="b"/><feMerge><feMergeNode in="b"/><feMergeNode in="SourceGraphic"/></feMerge></filter>
  </defs>
  <rect width="960" height="420" fill="url(#sky-region-29)"/>
  <circle cx="585" cy="51" r="54" fill="url(#orb-region-29)" filter="url(#glow-region-29)"/>
  <circle cx="533" cy="73" r="2.2" fill="#ffffff" opacity="0.22"/><circle cx="616" cy="75" r="0.8" fill="#ffffff" opacity="0.22"/><circle cx="699" cy="91" r="0.9" fill="#ffffff" opacity="0.22"/><circle cx="782" cy="30" r="1.0" fill="#ffffff" opacity="0.22"/><circle cx="865" cy="180" r="1.1" fill="#ffffff" opacity="0.22"/><circle cx="36" cy="21" r="1.1" fill="#ffffff" opacity="0.22"/><circle cx="119" cy="122" r="1.2" fill="#ffffff" opacity="0.22"/><circle cx="202" cy="104" r="1.3" fill="#ffffff" opacity="0.22"/><circle cx="285" cy="109" r="1.4" fill="#ffffff" opacity="0.22"/><circle cx="368" cy="126" r="1.5" fill="#ffffff" opacity="0.22"/><circle cx="451" cy="149" r="1.6" fill="#ffffff" opacity="0.22"/><circle cx="534" cy="175" r="1.6" fill="#ffffff" opacity="0.22"/>
  
  <polyline points="0,260 0,281 140,293 280,264 420,284 560,294 700,264 840,249 980,277 960,250 960,420 0,420" fill="#050b14" opacity="0.42"/>
  <polyline points="0,220 0,241 120,249 240,214 360,236 480,208 600,233 720,245 840,251 960,215 960,210 960,420 0,420" fill="#0a1422" opacity="0.48"/>
  <g opacity="0.9"><rect x="271" y="81" width="28" height="166" rx="4.666666666666667" fill="url(#tower-region-29)"/><rect x="281.08" y="91" width="5.04" height="144" rx="3" fill="#ff74ee" opacity="0.42"/><ellipse cx="285" cy="81" rx="20.16" ry="7" fill="#ffe2fb" opacity="0.74"/></g><g opacity="0.9"><rect x="420" y="149" width="25" height="122" rx="4.166666666666667" fill="url(#tower-region-29)"/><rect x="429" y="159" width="4.5" height="100" rx="3" fill="#ff74ee" opacity="0.42"/><rect x="415" y="140" width="35" height="9" rx="4" fill="#ffe2fb" opacity="0.66"/></g><g opacity="0.9"><rect x="569" y="147" width="39" height="100" rx="6.5" fill="url(#tower-region-29)"/><rect x="583.04" y="157" width="7.02" height="78" rx="3" fill="#ff74ee" opacity="0.42"/><polygon points="561,147 588.5,115 616,147" fill="#ffe2fb" opacity="0.82"/></g><g opacity="0.9"><rect x="718" y="182" width="46" height="89" rx="7.666666666666667" fill="url(#tower-region-29)"/><rect x="734.56" y="192" width="8.28" height="67" rx="3" fill="#ff74ee" opacity="0.42"/><ellipse cx="741" cy="182" rx="33.12" ry="7" fill="#ffe2fb" opacity="0.74"/></g><g opacity="0.9"><rect x="77" y="110" width="50" height="137" rx="8.333333333333334" fill="url(#tower-region-29)"/><rect x="95" y="120" width="9" height="115" rx="3" fill="#ff74ee" opacity="0.42"/><rect x="72" y="101" width="60" height="9" rx="4" fill="#ffe2fb" opacity="0.66"/></g><g opacity="0.9"><rect x="226" y="110" width="52" height="161" rx="8.666666666666666" fill="url(#tower-region-29)"/><rect x="244.72" y="120" width="9.36" height="139" rx="3" fill="#ff74ee" opacity="0.42"/><polygon points="218,110 252,78 286,110" fill="#ffe2fb" opacity="0.82"/></g><g opacity="0.9"><rect x="375" y="128" width="37" height="119" rx="6.166666666666667" fill="url(#tower-region-29)"/><rect x="388.32" y="138" width="6.66" height="97" rx="3" fill="#ff74ee" opacity="0.42"/><ellipse cx="393.5" cy="128" rx="26.64" ry="7" fill="#ffe2fb" opacity="0.74"/></g>
  <path d="M0 330 L90 298 L164 326 L258 286 L354 326 L478 292 L612 328 L740 276 L842 322 L960 294 L960 420 L0 420 Z" fill="#1c1230" opacity="0.82"/><path d="M80 320 H884" stroke="#ff74ee" stroke-width="4" opacity="0.38"/>
  <path d="M0 382 H960" stroke="#ff74ee" stroke-width="2" opacity="0.42"/>
  <path d="M165 392 C332 350, 639 410, 846 372" fill="none" stroke="#ffe2fb" stroke-width="4" opacity="0.34"/>
  <text x="28" y="40" fill="#ffe2fb" font-family="monospace" font-size="18" letter-spacing="5" opacity="0.5">29 DROWNED CITY</text>
</svg>