<svg xmlns="http://www.w3.org/2000/svg" viewBox="0 0 960 420" role="img" aria-label="region-63 unique card art">
  <defs>
    <linearGradient id="sky-region-63" x1="0" y1="0" x2="1" y2="1"><stop offset="0" stop-color="#071126"/><stop offset="0.52" stop-color="#69511c"/><stop offset="1" stop-color="#090812"/></linearGradient>
    <linearGradient id="tower-region-63" x1="0" y1="0" x2="1" y2="1"><stop offset="0" stop-color="#101827"/><stop offset="0.5" stop-color="#69511c"/><stop offset="1" stop-color="#03060c"/></linearGradient>
    <radialGradient id="orb-region-63" cx="50%" cy="50%" r="55%"><stop offset="0" stop-color="#d9dfff"/><stop offset="0.42" stop-color="#ffd85f" stop-opacity="0.62"/><stop offset="1" stop-color="#ffd85f" stop-opacity="0"/></radialGradient>
    <filter id="glow-region-63" x="-20%" y="-20%" width="140%" height="140%"><feGaussianBlur stdDeviation="5" result="b"/><feMerge><feMergeNode in="b"/><feMergeNode in="SourceGraphic"/></feMerge></filter>
  </defs>
  <rect width="960" height="420" fill="url(#sky-region-63)"/>
  <circle cx="602" cy="58" r="38" fill="url(#orb-region-63)" filter="url(#glow-region-63)"/>
  <circle cx="91" cy="45" r="1.4" fill="#ffffff" opacity="0.72"/><circle cx="174" cy="144" r="1.5" fill="#ffffff" opacity="0.72"/><circle cx="257" cy="42" r="1.6" fill="#ffffff" opacity="0.72"/><circle cx="340" cy="89" r="1.6" fill="#ffffff" opacity="0.72"/><circle cx="423" cy="127" r="1.7" fill="#ffffff" opacity="0.72"/><circle cx="506" cy="77" r="1.8" fill="#ffffff" opacity="0.72"/><circle cx="589" cy="150" r="1.9" fill="#ffffff" opacity="0.72"/><circle cx="672" cy="35" r="2.0" fill="#ffffff" opacity="0.72"/><circle cx="755" cy="75" r="2.0" fill="#ffffff" opacity="0.72"/><circle cx="838" cy="26" r="2.1" fill="#ffffff" opacity="0.72"/><circle cx="921" cy="99" r="2.2" fill="#ffffff" opacity="0.72"/><circle cx="92" cy="150" r="0.8" fill="#ffffff" opacity="0.72"/><circle cx="175" cy="24" r="0.9" fill="#ffffff" opacity="0.72"/><circle cx="258" cy="59" r="1.0" fill="#ffffff" opacity="0.72"/><circle cx="341" cy="174" r="1.1" fill="#ffffff" opacity="0.72"/><circle cx="424" cy="163" r="1.1" fill="#ffffff" opacity="0.72"/><circle cx="507" cy="177" r="1.2" fill="#ffffff" opacity="0.72"/><circle cx="590" cy="110" r="1.3" fill="#ffffff" opacity="0.72"/><circle cx="673" cy="174" r="1.4" fill="#ffffff" opacity="0.72"/><circle cx="756" cy="55" r="1.5" fill="#ffffff" opacity="0.72"/><circle cx="839" cy="93" r="1.6" fill="#ffffff" opacity="0.72"/><circle cx="922" cy="43" r="1.6" fill="#ffffff" opacity="0.72"/><circle cx="93" cy="116" r="1.7" fill="#ffffff" opacity="0.72"/><circle cx="176" cy="167" r="1.8" fill="#ffffff" opacity="0.72"/><circle cx="259" cy="41" r="1.9" fill="#ffffff" opacity="0.72"/><circle cx="342" cy="158" r="2.0" fill="#ffffff" opacity="0.72"/><circle cx="425" cy="65" r="2.0" fill="#ffffff" opacity="0.72"/><circle cx="508" cy="116" r="2.1" fill="#ffffff" opacity="0.72"/><circle cx="591" cy="156" r="2.2" fill="#ffffff" opacity="0.72"/><circle cx="674" cy="25" r="0.8" fill="#ffffff" opacity="0.72"/><circle cx="757" cy="140" r="0.9" fill="#ffffff" opacity="0.72"/><circle cx="840" cy="129" r="1.0" fill="#ffffff" opacity="0.72"/><circle cx="923" cy="143" r="1.1" fill="#ffffff" opacity="0.72"/><circle cx="94" cy="76" r="1.1" fill="#ffffff" opacity="0.72"/>
  
  <polyline points="0,260 0,245 140,275 280,255 420,280 560,292 700,298 840,266 980,285 960,250 960,420 0,420" fill="#050b14" opacity="0.42"/>
  <polyline points="0,220 0,256 120,218 240,199 360,228 480,204 600,192 720,225 840,241 960,249 960,210 960,420 0,420" fill="#0a1422" opacity="0.48"/>
  <g opacity="0.9"><rect x="655" y="118" width="31" height="139" rx="5.166666666666667" fill="url(#tower-region-63)"/><rect x="666.16" y="128" width="5.58" height="117" rx="3" fill="#ffd85f" opacity="0.42"/><polygon points="647,118 670.5,86 694,118" fill="#fff1ba" opacity="0.82"/></g><g opacity="0.9"><rect x="804" y="119" width="26" height="162" rx="4.333333333333333" fill="url(#tower-region-63)"/><rect x="813.36" y="129" width="4.68" height="140" rx="3" fill="#ffd85f" opacity="0.42"/><ellipse cx="817" cy="119" rx="18.72" ry="7" fill="#fff1ba" opacity="0.74"/></g><g opacity="0.9"><rect x="163" y="83" width="24" height="174" rx="4" fill="url(#tower-region-63)"/><rect x="171.64" y="93" width="4.32" height="152" rx="3" fill="#ffd85f" opacity="0.42"/><rect x="158" y="74" width="34" height="9" rx="4" fill="#fff1ba" opacity="0.66"/></g><g opacity="0.9"><rect x="312" y="101" width="39" height="180" rx="6.5" fill="url(#tower-region-63)"/><rect x="326.04" y="111" width="7.02" height="158" rx="3" fill="#ffd85f" opacity="0.42"/><polygon points="304,101 331.5,69 359,101" fill="#fff1ba" opacity="0.82"/></g><g opacity="0.9"><rect x="461" y="128" width="46" height="129" rx="7.666666666666667" fill="url(#tower-region-63)"/><rect x="477.56" y="138" width="8.28" height="107" rx="3" fill="#ffd85f" opacity="0.42"/><ellipse cx="484" cy="128" rx="33.12" ry="7" fill="#fff1ba" opacity="0.74"/></g>
  <path d="M0 326 C146 256, 290 380, 430 306 S706 250, 960 310 L960 420 L0 420 Z" fill="#6c4b24" opacity="0.86"/><path d="M0 355 C160 318, 300 392, 474 346 S776 318, 960 362" fill="none" stroke="#ffd85f" stroke-width="8" opacity="0.32"/>
  <path d="M0 382 H960" stroke="#ffd85f" stroke-width="2" opacity="0.42"/>
  <path d="M119 392 C261 350, 550 410, 889 372" fill="none" stroke="#fff1ba" stroke-width="4" opacity="0.34"/>
  <text x="28" y="40" fill="#fff1ba" font-family="monospace" font-size="18" letter-spacing="5" opacity="0.5">63 STONE WASTE</text>
</svg>