<svg xmlns="http://www.w3.org/2000/svg" viewBox="0 0 960 420" role="img" aria-label="region-56 unique card art">
  <defs>
    <linearGradient id="sky-region-56" x1="0" y1="0" x2="1" y2="1"><stop offset="0" stop-color="#162b45"/><stop offset="0.52" stop-color="#09566b"/><stop offset="1" stop-color="#090812"/></linearGradient>
    <linearGradient id="tower-region-56" x1="0" y1="0" x2="1" y2="1"><stop offset="0" stop-color="#101827"/><stop offset="0.5" stop-color="#09566b"/><stop offset="1" stop-color="#03060c"/></linearGradient>
    <radialGradient id="orb-region-56" cx="50%" cy="50%" r="55%"><stop offset="0" stop-color="#fff0a8"/><stop offset="0.42" stop-color="#36f3ff" stop-opacity="0.62"/><stop offset="1" stop-color="#36f3ff" stop-opacity="0"/></radialGradient>
    <filter id="glow-region-56" x="-20%" y="-20%" width="140%" height="140%"><feGaussianBlur stdDeviation="5" result="b"/><feMerge><feMergeNode in="b"/><feMergeNode in="SourceGraphic"/></feMerge></filter>
  </defs>
  <rect width="960" height="420" fill="url(#sky-region-56)"/>
  <circle cx="505" cy="81" r="54" fill="url(#orb-region-56)" filter="url(#glow-region-56)"/>
  <circle cx="515" cy="171" r="1.2" fill="#ffffff" opacity="0.22"/><circle cx="598" cy="124" r="1.3" fill="#ffffff" opacity="0.22"/><circle cx="681" cy="32" r="1.4" fill="#ffffff" opacity="0.22"/><circle cx="764" cy="84" r="1.5" fill="#ffffff" opacity="0.22"/><circle cx="847" cy="124" r="1.6" fill="#ffffff" opacity="0.22"/><circle cx="930" cy="159" r="1.6" fill="#ffffff" opacity="0.22"/><circle cx="101" cy="108" r="1.7" fill="#ffffff" opacity="0.22"/><circle cx="184" cy="180" r="1.8" fill="#ffffff" opacity="0.22"/><circle cx="267" cy="147" r="1.9" fill="#ffffff" opacity="0.22"/><circle cx="350" cy="145" r="2.0" fill="#ffffff" opacity="0.22"/><circle cx="433" cy="76" r="2.0" fill="#ffffff" opacity="0.22"/><circle cx="516" cy="139" r="2.1" fill="#ffffff" opacity="0.22"/>
  
  <polyline points="0,260 0,281 140,293 280,264 420,284 560,259 700,247 840,241 980,238 960,250 960,420 0,420" fill="#050b14" opacity="0.42"/>
  <polyline points="0,220 0,206 120,193 240,186 360,222 480,240 600,249 720,253 840,216 960,198 960,210 960,420 0,420" fill="#0a1422" opacity="0.48"/>
  <g opacity="0.9"><rect x="769" y="123" width="27" height="90" rx="4.5" fill="url(#tower-region-56)"/><rect x="778.72" y="133" width="4.859999999999999" height="68" rx="3" fill="#36f3ff" opacity="0.42"/><ellipse cx="782.5" cy="123" rx="19.439999999999998" ry="7" fill="#c8fbff" opacity="0.74"/></g><g opacity="0.9"><rect x="128" y="99" width="24" height="138" rx="4" fill="url(#tower-region-56)"/><rect x="136.64" y="109" width="4.32" height="116" rx="3" fill="#36f3ff" opacity="0.42"/><rect x="123" y="90" width="34" height="9" rx="4" fill="#c8fbff" opacity="0.66"/></g><g opacity="0.9"><rect x="277" y="105" width="39" height="108" rx="6.5" fill="url(#tower-region-56)"/><rect x="291.04" y="115" width="7.02" height="86" rx="3" fill="#36f3ff" opacity="0.42"/><polygon points="269,105 296.5,73 324,105" fill="#c8fbff" opacity="0.82"/></g><g opacity="0.9"><rect x="426" y="144" width="46" height="93" rx="7.666666666666667" fill="url(#tower-region-56)"/><rect x="442.56" y="154" width="8.28" height="71" rx="3" fill="#36f3ff" opacity="0.42"/><ellipse cx="449" cy="144" rx="33.12" ry="7" fill="#c8fbff" opacity="0.74"/></g><g opacity="0.9"><rect x="575" y="74" width="34" height="139" rx="5.666666666666667" fill="url(#tower-region-56)"/><rect x="587.24" y="84" width="6.12" height="117" rx="3" fill="#36f3ff" opacity="0.42"/><rect x="570" y="65" width="44" height="9" rx="4" fill="#c8fbff" opacity="0.66"/></g><g opacity="0.9"><rect x="724" y="75" width="28" height="162" rx="4.666666666666667" fill="url(#tower-region-56)"/><rect x="734.08" y="85" width="5.04" height="140" rx="3" fill="#36f3ff" opacity="0.42"/><polygon points="716,75 738,43 760,75" fill="#c8fbff" opacity="0.82"/></g><g opacity="0.9"><rect x="83" y="39" width="25" height="174" rx="4.166666666666667" fill="url(#tower-region-56)"/><rect x="92" y="49" width="4.5" height="152" rx="3" fill="#36f3ff" opacity="0.42"/><ellipse cx="95.5" cy="39" rx="18" ry="7" fill="#c8fbff" opacity="0.74"/></g>
  <path d="M0 346 C140 292, 244 398, 390 346 S672 316, 960 366 L960 420 L0 420 Z" fill="#104c64" opacity="0.82"/><path d="M0 364 C144 324, 250 420, 392 368 S690 344, 960 392" fill="none" stroke="#36f3ff" stroke-width="10" opacity="0.36"/>
  <path d="M0 382 H960" stroke="#36f3ff" stroke-width="2" opacity="0.42"/>
  <path d="M63 392 C332 350, 619 410, 764 372" fill="none" stroke="#c8fbff" stroke-width="4" opacity="0.34"/>
  <text x="28" y="40" fill="#c8fbff" font-family="monospace" font-size="18" letter-spacing="5" opacity="0.5">56 NEON CANAL</text>
</svg>