<svg xmlns="http://www.w3.org/2000/svg" viewBox="0 0 960 420" role="img" aria-label="region-35 unique card art">
  <defs>
    <linearGradient id="sky-region-35" x1="0" y1="0" x2="1" y2="1"><stop offset="0" stop-color="#162b45"/><stop offset="0.52" stop-color="#69511c"/><stop offset="1" stop-color="#090812"/></linearGradient>
    <linearGradient id="tower-region-35" x1="0" y1="0" x2="1" y2="1"><stop offset="0" stop-color="#101827"/><stop offset="0.5" stop-color="#69511c"/><stop offset="1" stop-color="#03060c"/></linearGradient>
    <radialGradient id="orb-region-35" cx="50%" cy="50%" r="55%"><stop offset="0" stop-color="#fff0a8"/><stop offset="0.42" stop-color="#ffd85f" stop-opacity="0.62"/><stop offset="1" stop-color="#ffd85f" stop-opacity="0"/></radialGradient>
    <filter id="glow-region-35" x="-20%" y="-20%" width="140%" height="140%"><feGaussianBlur stdDeviation="5" result="b"/><feMerge><feMergeNode in="b"/><feMergeNode in="SourceGraphic"/></feMerge></filter>
  </defs>
  <rect width="960" height="420" fill="url(#sky-region-35)"/>
  <circle cx="252" cy="138" r="54" fill="url(#orb-region-35)" filter="url(#glow-region-35)"/>
  <circle cx="796" cy="92" r="2.1" fill="#ffffff" opacity="0.22"/><circle cx="879" cy="85" r="2.2" fill="#ffffff" opacity="0.22"/><circle cx="50" cy="179" r="0.8" fill="#ffffff" opacity="0.22"/><circle cx="133" cy="157" r="0.9" fill="#ffffff" opacity="0.22"/><circle cx="216" cy="78" r="1.0" fill="#ffffff" opacity="0.22"/><circle cx="299" cy="136" r="1.1" fill="#ffffff" opacity="0.22"/><circle cx="382" cy="96" r="1.1" fill="#ffffff" opacity="0.22"/><circle cx="465" cy="91" r="1.2" fill="#ffffff" opacity="0.22"/><circle cx="548" cy="20" r="1.3" fill="#ffffff" opacity="0.22"/><circle cx="631" cy="82" r="1.4" fill="#ffffff" opacity="0.22"/><circle cx="714" cy="127" r="1.5" fill="#ffffff" opacity="0.22"/><circle cx="797" cy="81" r="1.6" fill="#ffffff" opacity="0.22"/>
  
  <polyline points="0,260 0,258 140,281 280,293 420,299 560,302 700,268 840,251 980,243 960,250 960,420 0,420" fill="#050b14" opacity="0.42"/>
  <polyline points="0,220 0,199 120,228 240,204 360,231 480,244 600,212 720,196 840,227 960,203 960,210 960,420 0,420" fill="#0a1422" opacity="0.48"/>
  <g opacity="0.9"><rect x="426" y="54" width="40" height="180" rx="6.666666666666667" fill="url(#tower-region-35)"/><rect x="440.4" y="64" width="7.199999999999999" height="158" rx="3" fill="#ffd85f" opacity="0.42"/><polygon points="418,54 446,22 474,54" fill="#fff1ba" opacity="0.82"/></g><g opacity="0.9"><rect x="575" y="75" width="31" height="183" rx="5.166666666666667" fill="url(#tower-region-35)"/><rect x="586.16" y="85" width="5.58" height="161" rx="3" fill="#ffd85f" opacity="0.42"/><ellipse cx="590.5" cy="75" rx="22.32" ry="7" fill="#fff1ba" opacity="0.74"/></g><g opacity="0.9"><rect x="724" y="104" width="26" height="130" rx="4.333333333333333" fill="url(#tower-region-35)"/><rect x="733.36" y="114" width="4.68" height="108" rx="3" fill="#ffd85f" opacity="0.42"/><rect x="719" y="95" width="36" height="9" rx="4" fill="#fff1ba" opacity="0.66"/></g><g opacity="0.9"><rect x="83" y="100" width="24" height="158" rx="4" fill="url(#tower-region-35)"/><rect x="91.64" y="110" width="4.32" height="136" rx="3" fill="#ffd85f" opacity="0.42"/><polygon points="75,100 95,68 115,100" fill="#fff1ba" opacity="0.82"/></g><g opacity="0.9"><rect x="232" y="62" width="39" height="172" rx="6.5" fill="url(#tower-region-35)"/><rect x="246.04" y="72" width="7.02" height="150" rx="3" fill="#ffd85f" opacity="0.42"/><ellipse cx="251.5" cy="62" rx="28.08" ry="7" fill="#fff1ba" opacity="0.74"/></g>
  <path d="M0 326 C146 256, 290 380, 430 306 S706 250, 960 310 L960 420 L0 420 Z" fill="#6c4b24" opacity="0.86"/><path d="M0 355 C160 318, 300 392, 474 346 S776 318, 960 362" fill="none" stroke="#ffd85f" stroke-width="8" opacity="0.32"/>
  <path d="M0 382 H960" stroke="#ffd85f" stroke-width="2" opacity="0.42"/>
  <path d="M200 392 C286 350, 588 410, 774 372" fill="none" stroke="#fff1ba" stroke-width="4" opacity="0.34"/>
  <text x="28" y="40" fill="#fff1ba" font-family="monospace" font-size="18" letter-spacing="5" opacity="0.5">35 STONE WASTE</text>
</svg>