<svg xmlns="http://www.w3.org/2000/svg" viewBox="0 0 960 420" role="img" aria-label="region-13 unique card art">
  <defs>
    <linearGradient id="sky-region-13" x1="0" y1="0" x2="1" y2="1"><stop offset="0" stop-color="#162b45"/><stop offset="0.52" stop-color="#5b164e"/><stop offset="1" stop-color="#090812"/></linearGradient>
    <linearGradient id="tower-region-13" x1="0" y1="0" x2="1" y2="1"><stop offset="0" stop-color="#101827"/><stop offset="0.5" stop-color="#5b164e"/><stop offset="1" stop-color="#03060c"/></linearGradient>
    <radialGradient id="orb-region-13" cx="50%" cy="50%" r="55%"><stop offset="0" stop-color="#fff0a8"/><stop offset="0.42" stop-color="#ff74ee" stop-opacity="0.62"/><stop offset="1" stop-color="#ff74ee" stop-opacity="0"/></radialGradient>
    <filter id="glow-region-13" x="-20%" y="-20%" width="140%" height="140%"><feGaussianBlur stdDeviation="5" result="b"/><feMerge><feMergeNode in="b"/><feMergeNode in="SourceGraphic"/></feMerge></filter>
  </defs>
  <rect width="960" height="420" fill="url(#sky-region-13)"/>
  <circle cx="156" cy="139" r="54" fill="url(#orb-region-13)" filter="url(#glow-region-13)"/>
  <circle cx="72" cy="72" r="0.8" fill="#ffffff" opacity="0.22"/><circle cx="155" cy="75" r="0.9" fill="#ffffff" opacity="0.22"/><circle cx="238" cy="174" r="1.0" fill="#ffffff" opacity="0.22"/><circle cx="321" cy="155" r="1.1" fill="#ffffff" opacity="0.22"/><circle cx="404" cy="160" r="1.1" fill="#ffffff" opacity="0.22"/><circle cx="487" cy="94" r="1.2" fill="#ffffff" opacity="0.22"/><circle cx="570" cy="158" r="1.3" fill="#ffffff" opacity="0.22"/><circle cx="653" cy="122" r="1.4" fill="#ffffff" opacity="0.22"/><circle cx="736" cy="118" r="1.5" fill="#ffffff" opacity="0.22"/><circle cx="819" cy="131" r="1.6" fill="#ffffff" opacity="0.22"/><circle cx="902" cy="69" r="1.6" fill="#ffffff" opacity="0.22"/><circle cx="73" cy="52" r="1.7" fill="#ffffff" opacity="0.22"/>
  
  <polyline points="0,260 0,294 140,299 280,302 420,303 560,269 700,252 840,278 980,291 960,250 960,420 0,420" fill="#050b14" opacity="0.42"/>
  <polyline points="0,220 0,240 120,210 240,234 360,207 480,232 600,245 720,212 840,196 960,227 960,210 960,420 0,420" fill="#0a1422" opacity="0.48"/>
  <g opacity="0.9"><rect x="224" y="74" width="38" height="168" rx="6.333333333333333" fill="url(#tower-region-13)"/><rect x="237.68" y="84" width="6.84" height="146" rx="3" fill="#ff74ee" opacity="0.42"/><rect x="219" y="65" width="48" height="9" rx="4" fill="#ffe2fb" opacity="0.66"/></g><g opacity="0.9"><rect x="373" y="143" width="30" height="123" rx="5" fill="url(#tower-region-13)"/><rect x="383.8" y="153" width="5.3999999999999995" height="101" rx="3" fill="#ff74ee" opacity="0.42"/><polygon points="365,143 388,111 411,143" fill="#ffe2fb" opacity="0.82"/></g><g opacity="0.9"><rect x="522" y="142" width="42" height="100" rx="7" fill="url(#tower-region-13)"/><rect x="537.12" y="152" width="7.56" height="78" rx="3" fill="#ff74ee" opacity="0.42"/><ellipse cx="543" cy="142" rx="30.24" ry="7" fill="#ffe2fb" opacity="0.74"/></g><g opacity="0.9"><rect x="671" y="123" width="32" height="143" rx="5.333333333333333" fill="url(#tower-region-13)"/><rect x="682.52" y="133" width="5.76" height="121" rx="3" fill="#ff74ee" opacity="0.42"/><rect x="666" y="114" width="42" height="9" rx="4" fill="#ffe2fb" opacity="0.66"/></g><g opacity="0.9"><rect x="820" y="132" width="27" height="110" rx="4.5" fill="url(#tower-region-13)"/><rect x="829.72" y="142" width="4.859999999999999" height="88" rx="3" fill="#ff74ee" opacity="0.42"/><polygon points="812,132 833.5,100 855,132" fill="#ffe2fb" opacity="0.82"/></g><g opacity="0.9"><rect x="179" y="118" width="40" height="148" rx="6.666666666666667" fill="url(#tower-region-13)"/><rect x="193.4" y="128" width="7.199999999999999" height="126" rx="3" fill="#ff74ee" opacity="0.42"/><ellipse cx="199" cy="118" rx="28.799999999999997" ry="7" fill="#ffe2fb" opacity="0.74"/></g><g opacity="0.9"><rect x="328" y="129" width="47" height="113" rx="7.833333333333333" fill="url(#tower-region-13)"/><rect x="344.92" y="139" width="8.459999999999999" height="91" rx="3" fill="#ff74ee" opacity="0.42"/><rect x="323" y="120" width="57" height="9" rx="4" fill="#ffe2fb" opacity="0.66"/></g>
  <path d="M0 330 L90 298 L164 326 L258 286 L354 326 L478 292 L612 328 L740 276 L842 322 L960 294 L960 420 L0 420 Z" fill="#1c1230" opacity="0.82"/><path d="M80 320 H884" stroke="#ff74ee" stroke-width="4" opacity="0.38"/>
  <path d="M0 382 H960" stroke="#ff74ee" stroke-width="2" opacity="0.42"/>
  <path d="M148 392 C358 350, 537 410, 857 372" fill="none" stroke="#ffe2fb" stroke-width="4" opacity="0.34"/>
  <text x="28" y="40" fill="#ffe2fb" font-family="monospace" font-size="18" letter-spacing="5" opacity="0.5">13 DROWNED CITY</text>
</svg>