<svg xmlns="http://www.w3.org/2000/svg" viewBox="0 0 960 420" role="img" aria-label="region-46 unique card art">
  <defs>
    <linearGradient id="sky-region-46" x1="0" y1="0" x2="1" y2="1"><stop offset="0" stop-color="#162b45"/><stop offset="0.52" stop-color="#1e5a28"/><stop offset="1" stop-color="#090812"/></linearGradient>
    <linearGradient id="tower-region-46" x1="0" y1="0" x2="1" y2="1"><stop offset="0" stop-color="#101827"/><stop offset="0.5" stop-color="#1e5a28"/><stop offset="1" stop-color="#03060c"/></linearGradient>
    <radialGradient id="orb-region-46" cx="50%" cy="50%" r="55%"><stop offset="0" stop-color="#fff0a8"/><stop offset="0.42" stop-color="#8dff72" stop-opacity="0.62"/><stop offset="1" stop-color="#8dff72" stop-opacity="0"/></radialGradient>
    <filter id="glow-region-46" x="-20%" y="-20%" width="140%" height="140%"><feGaussianBlur stdDeviation="5" result="b"/><feMerge><feMergeNode in="b"/><feMergeNode in="SourceGraphic"/></feMerge></filter>
  </defs>
  <rect width="960" height="420" fill="url(#sky-region-46)"/>
  <circle cx="433" cy="157" r="54" fill="url(#orb-region-46)" filter="url(#glow-region-46)"/>
  <circle cx="230" cy="154" r="1.5" fill="#ffffff" opacity="0.22"/><circle cx="313" cy="116" r="1.6" fill="#ffffff" opacity="0.22"/><circle cx="396" cy="111" r="1.6" fill="#ffffff" opacity="0.22"/><circle cx="479" cy="40" r="1.7" fill="#ffffff" opacity="0.22"/><circle cx="562" cy="102" r="1.8" fill="#ffffff" opacity="0.22"/><circle cx="645" cy="65" r="1.9" fill="#ffffff" opacity="0.22"/><circle cx="728" cy="61" r="2.0" fill="#ffffff" opacity="0.22"/><circle cx="811" cy="156" r="2.0" fill="#ffffff" opacity="0.22"/><circle cx="894" cy="135" r="2.1" fill="#ffffff" opacity="0.22"/><circle cx="65" cy="56" r="2.2" fill="#ffffff" opacity="0.22"/><circle cx="148" cy="31" r="0.8" fill="#ffffff" opacity="0.22"/><circle cx="231" cy="116" r="0.9" fill="#ffffff" opacity="0.22"/>
  
  <polyline points="0,260 0,303 140,304 280,304 420,304 560,304 700,304 840,304 980,269 960,250 960,420 0,420" fill="#050b14" opacity="0.42"/>
  <polyline points="0,220 0,183 120,181 240,180 360,180 480,219 600,199 720,189 840,223 960,201 960,210 960,420 0,420" fill="#0a1422" opacity="0.48"/>
  <g opacity="0.9"><rect x="626" y="98" width="29" height="126" rx="4.833333333333333" fill="url(#tower-region-46)"/><rect x="636.44" y="108" width="5.22" height="104" rx="3" fill="#8dff72" opacity="0.42"/><ellipse cx="640.5" cy="98" rx="20.88" ry="7" fill="#e8ffe3" opacity="0.74"/></g><g opacity="0.9"><rect x="775" y="92" width="41" height="156" rx="6.833333333333333" fill="url(#tower-region-46)"/><rect x="789.76" y="102" width="7.38" height="134" rx="3" fill="#8dff72" opacity="0.42"/><rect x="770" y="83" width="51" height="9" rx="4" fill="#e8ffe3" opacity="0.66"/></g><g opacity="0.9"><rect x="134" y="107" width="47" height="117" rx="7.833333333333333" fill="url(#tower-region-46)"/><rect x="150.92" y="117" width="8.459999999999999" height="95" rx="3" fill="#8dff72" opacity="0.42"/><polygon points="126,107 157.5,75 189,107" fill="#e8ffe3" opacity="0.82"/></g><g opacity="0.9"><rect x="283" y="151" width="50" height="97" rx="8.333333333333334" fill="url(#tower-region-46)"/><rect x="301" y="161" width="9" height="75" rx="3" fill="#8dff72" opacity="0.42"/><ellipse cx="308" cy="151" rx="36" ry="7" fill="#e8ffe3" opacity="0.74"/></g><g opacity="0.9"><rect x="432" y="83" width="52" height="141" rx="8.666666666666666" fill="url(#tower-region-46)"/><rect x="450.72" y="93" width="9.36" height="119" rx="3" fill="#8dff72" opacity="0.42"/><rect x="427" y="74" width="62" height="9" rx="4" fill="#e8ffe3" opacity="0.66"/></g><g opacity="0.9"><rect x="581" y="139" width="53" height="109" rx="8.833333333333334" fill="url(#tower-region-46)"/><rect x="600.08" y="149" width="9.54" height="87" rx="3" fill="#8dff72" opacity="0.42"/><polygon points="573,139 607.5,107 642,139" fill="#e8ffe3" opacity="0.82"/></g><g opacity="0.9"><rect x="730" y="131" width="53" height="93" rx="8.833333333333334" fill="url(#tower-region-46)"/><rect x="749.08" y="141" width="9.54" height="71" rx="3" fill="#8dff72" opacity="0.42"/><ellipse cx="756.5" cy="131" rx="38.16" ry="7" fill="#e8ffe3" opacity="0.74"/></g>
  <path d="M0 330 C105 275, 162 316, 260 274 S430 332, 552 282 S760 310, 960 256 L960 420 L0 420 Z" fill="#173d23" opacity="0.84"/><g opacity="0.68"><circle cx="710" cy="292" r="26" fill="#8dff72"/><circle cx="777" cy="285" r="13" fill="#b7ff91"/><circle cx="844" cy="281" r="24" fill="#b7ff91"/><circle cx="911" cy="279" r="35" fill="#8dff72"/><circle cx="98" cy="278" r="22" fill="#b7ff91"/><circle cx="165" cy="278" r="33" fill="#b7ff91"/><circle cx="232" cy="319" r="20" fill="#8dff72"/><circle cx="299" cy="339" r="31" fill="#b7ff91"/><circle cx="366" cy="349" r="18" fill="#b7ff91"/><circle cx="433" cy="313" r="29" fill="#8dff72"/><circle cx="500" cy="295" r="16" fill="#b7ff91"/><circle cx="567" cy="327" r="27" fill="#b7ff91"/><circle cx="634" cy="292" r="14" fill="#8dff72"/><circle cx="701" cy="285" r="25" fill="#b7ff91"/></g>
  <path d="M0 382 H960" stroke="#8dff72" stroke-width="2" opacity="0.42"/>
  <path d="M210 392 C376 350, 599 410, 741 372" fill="none" stroke="#e8ffe3" stroke-width="4" opacity="0.34"/>
  <text x="28" y="40" fill="#e8ffe3" font-family="monospace" font-size="18" letter-spacing="5" opacity="0.5">46 MYCEL FOREST</text>
</svg>