<svg xmlns="http://www.w3.org/2000/svg" viewBox="0 0 960 420" role="img" aria-label="region-66 unique card art">
  <defs>
    <linearGradient id="sky-region-66" x1="0" y1="0" x2="1" y2="1"><stop offset="0" stop-color="#071126"/><stop offset="0.52" stop-color="#1e5a28"/><stop offset="1" stop-color="#090812"/></linearGradient>
    <linearGradient id="tower-region-66" x1="0" y1="0" x2="1" y2="1"><stop offset="0" stop-color="#101827"/><stop offset="0.5" stop-color="#1e5a28"/><stop offset="1" stop-color="#03060c"/></linearGradient>
    <radialGradient id="orb-region-66" cx="50%" cy="50%" r="55%"><stop offset="0" stop-color="#d9dfff"/><stop offset="0.42" stop-color="#8dff72" stop-opacity="0.62"/><stop offset="1" stop-color="#8dff72" stop-opacity="0"/></radialGradient>
    <filter id="glow-region-66" x="-20%" y="-20%" width="140%" height="140%"><feGaussianBlur stdDeviation="5" result="b"/><feMerge><feMergeNode in="b"/><feMergeNode in="SourceGraphic"/></feMerge></filter>
  </defs>
  <rect width="960" height="420" fill="url(#sky-region-66)"/>
  <circle cx="129" cy="107" r="38" fill="url(#orb-region-66)" filter="url(#glow-region-66)"/>
  <circle cx="580" cy="42" r="1.1" fill="#ffffff" opacity="0.72"/><circle cx="663" cy="143" r="1.2" fill="#ffffff" opacity="0.72"/><circle cx="746" cy="125" r="1.3" fill="#ffffff" opacity="0.72"/><circle cx="829" cy="130" r="1.4" fill="#ffffff" opacity="0.72"/><circle cx="912" cy="64" r="1.5" fill="#ffffff" opacity="0.72"/><circle cx="83" cy="129" r="1.6" fill="#ffffff" opacity="0.72"/><circle cx="166" cy="93" r="1.6" fill="#ffffff" opacity="0.72"/><circle cx="249" cy="172" r="1.7" fill="#ffffff" opacity="0.72"/><circle cx="332" cy="143" r="1.8" fill="#ffffff" opacity="0.72"/><circle cx="415" cy="60" r="1.9" fill="#ffffff" opacity="0.72"/><circle cx="498" cy="116" r="2.0" fill="#ffffff" opacity="0.72"/><circle cx="581" cy="159" r="2.0" fill="#ffffff" opacity="0.72"/><circle cx="664" cy="29" r="2.1" fill="#ffffff" opacity="0.72"/><circle cx="747" cy="61" r="2.2" fill="#ffffff" opacity="0.72"/><circle cx="830" cy="92" r="0.8" fill="#ffffff" opacity="0.72"/><circle cx="913" cy="39" r="0.9" fill="#ffffff" opacity="0.72"/><circle cx="84" cy="174" r="1.0" fill="#ffffff" opacity="0.72"/><circle cx="167" cy="109" r="1.1" fill="#ffffff" opacity="0.72"/><circle cx="250" cy="91" r="1.1" fill="#ffffff" opacity="0.72"/><circle cx="333" cy="96" r="1.2" fill="#ffffff" opacity="0.72"/><circle cx="416" cy="30" r="1.3" fill="#ffffff" opacity="0.72"/><circle cx="499" cy="95" r="1.4" fill="#ffffff" opacity="0.72"/><circle cx="582" cy="59" r="1.5" fill="#ffffff" opacity="0.72"/><circle cx="665" cy="138" r="1.6" fill="#ffffff" opacity="0.72"/><circle cx="748" cy="109" r="1.6" fill="#ffffff" opacity="0.72"/><circle cx="831" cy="26" r="1.7" fill="#ffffff" opacity="0.72"/><circle cx="914" cy="82" r="1.8" fill="#ffffff" opacity="0.72"/><circle cx="85" cy="125" r="1.9" fill="#ffffff" opacity="0.72"/><circle cx="168" cy="161" r="2.0" fill="#ffffff" opacity="0.72"/><circle cx="251" cy="27" r="2.0" fill="#ffffff" opacity="0.72"/><circle cx="334" cy="58" r="2.1" fill="#ffffff" opacity="0.72"/><circle cx="417" cy="171" r="2.2" fill="#ffffff" opacity="0.72"/><circle cx="500" cy="140" r="0.8" fill="#ffffff" opacity="0.72"/><circle cx="583" cy="75" r="0.9" fill="#ffffff" opacity="0.72"/>
  
  <polyline points="0,260 0,247 140,276 280,290 420,262 560,248 700,241 840,273 980,254 960,250 960,420 0,420" fill="#050b14" opacity="0.42"/>
  <polyline points="0,220 0,199 120,189 240,184 360,182 480,181 600,219 720,199 840,189 960,184 960,210 960,420 0,420" fill="#0a1422" opacity="0.48"/>
  <g opacity="0.9"><rect x="242" y="116" width="28" height="118" rx="4.666666666666667" fill="url(#tower-region-66)"/><rect x="252.08" y="126" width="5.04" height="96" rx="3" fill="#8dff72" opacity="0.42"/><polygon points="234,116 256,84 278,116" fill="#e8ffe3" opacity="0.82"/></g><g opacity="0.9"><rect x="391" y="106" width="41" height="152" rx="6.833333333333333" fill="url(#tower-region-66)"/><rect x="405.76" y="116" width="7.38" height="130" rx="3" fill="#8dff72" opacity="0.42"/><ellipse cx="411.5" cy="106" rx="29.52" ry="7" fill="#e8ffe3" opacity="0.74"/></g><g opacity="0.9"><rect x="540" y="65" width="47" height="169" rx="7.833333333333333" fill="url(#tower-region-66)"/><rect x="556.92" y="75" width="8.459999999999999" height="147" rx="3" fill="#8dff72" opacity="0.42"/><rect x="535" y="56" width="57" height="9" rx="4" fill="#e8ffe3" opacity="0.66"/></g><g opacity="0.9"><rect x="689" y="81" width="50" height="177" rx="8.333333333333334" fill="url(#tower-region-66)"/><rect x="707" y="91" width="9" height="155" rx="3" fill="#8dff72" opacity="0.42"/><polygon points="681,81 714,49 747,81" fill="#e8ffe3" opacity="0.82"/></g><g opacity="0.9"><rect x="838" y="53" width="52" height="181" rx="8.666666666666666" fill="url(#tower-region-66)"/><rect x="856.72" y="63" width="9.36" height="159" rx="3" fill="#8dff72" opacity="0.42"/><ellipse cx="864" cy="53" rx="37.44" ry="7" fill="#e8ffe3" opacity="0.74"/></g><g opacity="0.9"><rect x="197" y="75" width="37" height="183" rx="6.166666666666667" fill="url(#tower-region-66)"/><rect x="210.32" y="85" width="6.66" height="161" rx="3" fill="#8dff72" opacity="0.42"/><rect x="192" y="66" width="47" height="9" rx="4" fill="#e8ffe3" opacity="0.66"/></g>
  <path d="M0 330 C105 275, 162 316, 260 274 S430 332, 552 282 S760 310, 960 256 L960 420 L0 420 Z" fill="#173d23" opacity="0.84"/><g opacity="0.68"><circle cx="436" cy="286" r="16" fill="#8dff72"/><circle cx="503" cy="282" r="27" fill="#b7ff91"/><circle cx="570" cy="321" r="14" fill="#b7ff91"/><circle cx="637" cy="299" r="25" fill="#8dff72"/><circle cx="704" cy="288" r="12" fill="#b7ff91"/><circle cx="771" cy="324" r="23" fill="#b7ff91"/><circle cx="838" cy="301" r="34" fill="#8dff72"/><circle cx="905" cy="289" r="21" fill="#b7ff91"/><circle cx="92" cy="283" r="32" fill="#b7ff91"/><circle cx="159" cy="321" r="19" fill="#8dff72"/><circle cx="226" cy="340" r="30" fill="#b7ff91"/><circle cx="293" cy="350" r="17" fill="#b7ff91"/><circle cx="360" cy="286" r="28" fill="#8dff72"/><circle cx="427" cy="282" r="15" fill="#b7ff91"/></g>
  <path d="M0 382 H960" stroke="#8dff72" stroke-width="2" opacity="0.42"/>
  <path d="M116 392 C264 350, 535 410, 792 372" fill="none" stroke="#e8ffe3" stroke-width="4" opacity="0.34"/>
  <text x="28" y="40" fill="#e8ffe3" font-family="monospace" font-size="18" letter-spacing="5" opacity="0.5">66 MYCEL FOREST</text>
</svg>