<svg xmlns="http://www.w3.org/2000/svg" viewBox="0 0 960 420" role="img" aria-label="region-1 unique card art">
  <defs>
    <linearGradient id="sky-region-1" x1="0" y1="0" x2="1" y2="1"><stop offset="0" stop-color="#162b45"/><stop offset="0.52" stop-color="#5b164e"/><stop offset="1" stop-color="#090812"/></linearGradient>
    <linearGradient id="tower-region-1" x1="0" y1="0" x2="1" y2="1"><stop offset="0" stop-color="#101827"/><stop offset="0.5" stop-color="#5b164e"/><stop offset="1" stop-color="#03060c"/></linearGradient>
    <radialGradient id="orb-region-1" cx="50%" cy="50%" r="55%"><stop offset="0" stop-color="#fff0a8"/><stop offset="0.42" stop-color="#ff74ee" stop-opacity="0.62"/><stop offset="1" stop-color="#ff74ee" stop-opacity="0"/></radialGradient>
    <filter id="glow-region-1" x="-20%" y="-20%" width="140%" height="140%"><feGaussianBlur stdDeviation="5" result="b"/><feMerge><feMergeNode in="b"/><feMergeNode in="SourceGraphic"/></feMerge></filter>
  </defs>
  <rect width="960" height="420" fill="url(#sky-region-1)"/>
  <circle cx="610" cy="57" r="54" fill="url(#orb-region-1)" filter="url(#glow-region-1)"/>
  <circle cx="875" cy="165" r="2.2" fill="#ffffff" opacity="0.22"/><circle cx="46" cy="38" r="0.8" fill="#ffffff" opacity="0.22"/><circle cx="129" cy="72" r="0.9" fill="#ffffff" opacity="0.22"/><circle cx="212" cy="21" r="1.0" fill="#ffffff" opacity="0.22"/><circle cx="295" cy="93" r="1.1" fill="#ffffff" opacity="0.22"/><circle cx="378" cy="143" r="1.1" fill="#ffffff" opacity="0.22"/><circle cx="461" cy="183" r="1.2" fill="#ffffff" opacity="0.22"/><circle cx="544" cy="134" r="1.3" fill="#ffffff" opacity="0.22"/><circle cx="627" cy="124" r="1.4" fill="#ffffff" opacity="0.22"/><circle cx="710" cy="51" r="1.5" fill="#ffffff" opacity="0.22"/><circle cx="793" cy="29" r="1.6" fill="#ffffff" opacity="0.22"/><circle cx="876" cy="115" r="1.6" fill="#ffffff" opacity="0.22"/>
  
  <polyline points="0,260 0,247 140,276 280,290 420,297 560,301 700,268 840,251 980,243 960,250 960,420 0,420" fill="#050b14" opacity="0.42"/>
  <polyline points="0,220 0,224 120,202 240,191 360,224 480,241 600,249 720,214 840,236 960,247 960,210 960,420 0,420" fill="#0a1422" opacity="0.48"/>
  <g opacity="0.9"><rect x="399" y="126" width="31" height="107" rx="5.166666666666667" fill="url(#tower-region-1)"/><rect x="410.16" y="136" width="5.58" height="85" rx="3" fill="#ff74ee" opacity="0.42"/><ellipse cx="414.5" cy="126" rx="22.32" ry="7" fill="#ffe2fb" opacity="0.74"/></g><g opacity="0.9"><rect x="548" y="165" width="42" height="92" rx="7" fill="url(#tower-region-1)"/><rect x="563.12" y="175" width="7.56" height="70" rx="3" fill="#ff74ee" opacity="0.42"/><rect x="543" y="156" width="52" height="9" rx="4" fill="#ffe2fb" opacity="0.66"/></g><g opacity="0.9"><rect x="697" y="148" width="48" height="85" rx="8" fill="url(#tower-region-1)"/><rect x="714.28" y="158" width="8.64" height="63" rx="3" fill="#ff74ee" opacity="0.42"/><polygon points="689,148 721,116 753,148" fill="#ffe2fb" opacity="0.82"/></g><g opacity="0.9"><rect x="56" y="122" width="35" height="135" rx="5.833333333333333" fill="url(#tower-region-1)"/><rect x="68.6" y="132" width="6.3" height="113" rx="3" fill="#ff74ee" opacity="0.42"/><ellipse cx="73.5" cy="122" rx="25.2" ry="7" fill="#ffe2fb" opacity="0.74"/></g>
  <path d="M0 330 L90 298 L164 326 L258 286 L354 326 L478 292 L612 328 L740 276 L842 322 L960 294 L960 420 L0 420 Z" fill="#1c1230" opacity="0.82"/><path d="M80 320 H884" stroke="#ff74ee" stroke-width="4" opacity="0.38"/>
  <path d="M0 382 H960" stroke="#ff74ee" stroke-width="2" opacity="0.42"/>
  <path d="M183 392 C265 350, 625 410, 854 372" fill="none" stroke="#ffe2fb" stroke-width="4" opacity="0.34"/>
  <text x="28" y="40" fill="#ffe2fb" font-family="monospace" font-size="18" letter-spacing="5" opacity="0.5">01 DROWNED CITY</text>
</svg>