<svg xmlns="http://www.w3.org/2000/svg" viewBox="0 0 960 420" role="img" aria-label="region-17 unique card art">
  <defs>
    <linearGradient id="sky-region-17" x1="0" y1="0" x2="1" y2="1"><stop offset="0" stop-color="#162b45"/><stop offset="0.52" stop-color="#5b164e"/><stop offset="1" stop-color="#090812"/></linearGradient>
    <linearGradient id="tower-region-17" x1="0" y1="0" x2="1" y2="1"><stop offset="0" stop-color="#101827"/><stop offset="0.5" stop-color="#5b164e"/><stop offset="1" stop-color="#03060c"/></linearGradient>
    <radialGradient id="orb-region-17" cx="50%" cy="50%" r="55%"><stop offset="0" stop-color="#fff0a8"/><stop offset="0.42" stop-color="#ff74ee" stop-opacity="0.62"/><stop offset="1" stop-color="#ff74ee" stop-opacity="0"/></radialGradient>
    <filter id="glow-region-17" x="-20%" y="-20%" width="140%" height="140%"><feGaussianBlur stdDeviation="5" result="b"/><feMerge><feMergeNode in="b"/><feMergeNode in="SourceGraphic"/></feMerge></filter>
  </defs>
  <rect width="960" height="420" fill="url(#sky-region-17)"/>
  <circle cx="245" cy="165" r="54" fill="url(#orb-region-17)" filter="url(#glow-region-17)"/>
  <circle cx="116" cy="68" r="2.0" fill="#ffffff" opacity="0.22"/><circle cx="199" cy="73" r="2.0" fill="#ffffff" opacity="0.22"/><circle cx="282" cy="173" r="2.1" fill="#ffffff" opacity="0.22"/><circle cx="365" cy="154" r="2.2" fill="#ffffff" opacity="0.22"/><circle cx="448" cy="76" r="0.8" fill="#ffffff" opacity="0.22"/><circle cx="531" cy="52" r="0.9" fill="#ffffff" opacity="0.22"/><circle cx="614" cy="137" r="1.0" fill="#ffffff" opacity="0.22"/><circle cx="697" cy="28" r="1.1" fill="#ffffff" opacity="0.22"/><circle cx="780" cy="154" r="1.1" fill="#ffffff" opacity="0.22"/><circle cx="863" cy="66" r="1.2" fill="#ffffff" opacity="0.22"/><circle cx="34" cy="36" r="1.3" fill="#ffffff" opacity="0.22"/><circle cx="117" cy="119" r="1.4" fill="#ffffff" opacity="0.22"/>
  
  <polyline points="0,260 0,296 140,300 280,302 420,303 560,304 700,269 840,287 980,296 960,250 960,420 0,420" fill="#050b14" opacity="0.42"/>
  <polyline points="0,220 0,215 120,197 240,188 360,223 480,201 600,229 720,204 840,231 960,244 960,210 960,420 0,420" fill="#0a1422" opacity="0.48"/>
  <g opacity="0.9"><rect x="200" y="70" width="44" height="176" rx="7.333333333333333" fill="url(#tower-region-17)"/><rect x="215.84" y="80" width="7.92" height="154" rx="3" fill="#ff74ee" opacity="0.42"/><ellipse cx="222" cy="70" rx="31.68" ry="7" fill="#ffe2fb" opacity="0.74"/></g><g opacity="0.9"><rect x="349" y="89" width="49" height="181" rx="8.166666666666666" fill="url(#tower-region-17)"/><rect x="366.64" y="99" width="8.82" height="159" rx="3" fill="#ff74ee" opacity="0.42"/><rect x="344" y="80" width="59" height="9" rx="4" fill="#ffe2fb" opacity="0.66"/></g><g opacity="0.9"><rect x="498" y="117" width="51" height="129" rx="8.5" fill="url(#tower-region-17)"/><rect x="516.36" y="127" width="9.18" height="107" rx="3" fill="#ff74ee" opacity="0.42"/><polygon points="490,117 523.5,85 557,117" fill="#ffe2fb" opacity="0.82"/></g><g opacity="0.9"><rect x="647" y="167" width="36" height="103" rx="6" fill="url(#tower-region-17)"/><rect x="659.96" y="177" width="6.4799999999999995" height="81" rx="3" fill="#ff74ee" opacity="0.42"/><ellipse cx="665" cy="167" rx="25.919999999999998" ry="7" fill="#ffe2fb" opacity="0.74"/></g><g opacity="0.9"><rect x="796" y="102" width="45" height="144" rx="7.5" fill="url(#tower-region-17)"/><rect x="812.2" y="112" width="8.1" height="122" rx="3" fill="#ff74ee" opacity="0.42"/><rect x="791" y="93" width="55" height="9" rx="4" fill="#ffe2fb" opacity="0.66"/></g><g opacity="0.9"><rect x="155" y="159" width="33" height="111" rx="5.5" fill="url(#tower-region-17)"/><rect x="166.88" y="169" width="5.9399999999999995" height="89" rx="3" fill="#ff74ee" opacity="0.42"/><polygon points="147,159 171.5,127 196,159" fill="#ffe2fb" opacity="0.82"/></g><g opacity="0.9"><rect x="304" y="152" width="27" height="94" rx="4.5" fill="url(#tower-region-17)"/><rect x="313.72" y="162" width="4.859999999999999" height="72" rx="3" fill="#ff74ee" opacity="0.42"/><ellipse cx="317.5" cy="152" rx="19.439999999999998" ry="7" fill="#ffe2fb" opacity="0.74"/></g>
  <path d="M0 330 L90 298 L164 326 L258 286 L354 326 L478 292 L612 328 L740 276 L842 322 L960 294 L960 420 L0 420 Z" fill="#1c1230" opacity="0.82"/><path d="M80 320 H884" stroke="#ff74ee" stroke-width="4" opacity="0.38"/>
  <path d="M0 382 H960" stroke="#ff74ee" stroke-width="2" opacity="0.42"/>
  <path d="M144 392 C362 350, 557 410, 888 372" fill="none" stroke="#ffe2fb" stroke-width="4" opacity="0.34"/>
  <text x="28" y="40" fill="#ffe2fb" font-family="monospace" font-size="18" letter-spacing="5" opacity="0.5">17 DROWNED CITY</text>
</svg>