<svg xmlns="http://www.w3.org/2000/svg" viewBox="0 0 960 420" role="img" aria-label="region-25 unique card art">
  <defs>
    <linearGradient id="sky-region-25" x1="0" y1="0" x2="1" y2="1"><stop offset="0" stop-color="#162b45"/><stop offset="0.52" stop-color="#5b164e"/><stop offset="1" stop-color="#090812"/></linearGradient>
    <linearGradient id="tower-region-25" x1="0" y1="0" x2="1" y2="1"><stop offset="0" stop-color="#101827"/><stop offset="0.5" stop-color="#5b164e"/><stop offset="1" stop-color="#03060c"/></linearGradient>
    <radialGradient id="orb-region-25" cx="50%" cy="50%" r="55%"><stop offset="0" stop-color="#fff0a8"/><stop offset="0.42" stop-color="#ff74ee" stop-opacity="0.62"/><stop offset="1" stop-color="#ff74ee" stop-opacity="0"/></radialGradient>
    <filter id="glow-region-25" x="-20%" y="-20%" width="140%" height="140%"><feGaussianBlur stdDeviation="5" result="b"/><feMerge><feMergeNode in="b"/><feMergeNode in="SourceGraphic"/></feMerge></filter>
  </defs>
  <rect width="960" height="420" fill="url(#sky-region-25)"/>
  <circle cx="317" cy="89" r="54" fill="url(#orb-region-25)" filter="url(#glow-region-25)"/>
  <circle cx="401" cy="85" r="1.7" fill="#ffffff" opacity="0.22"/><circle cx="484" cy="81" r="1.8" fill="#ffffff" opacity="0.22"/><circle cx="567" cy="94" r="1.9" fill="#ffffff" opacity="0.22"/><circle cx="650" cy="32" r="2.0" fill="#ffffff" opacity="0.22"/><circle cx="733" cy="98" r="2.0" fill="#ffffff" opacity="0.22"/><circle cx="816" cy="146" r="2.1" fill="#ffffff" opacity="0.22"/><circle cx="899" cy="184" r="2.2" fill="#ffffff" opacity="0.22"/><circle cx="70" cy="52" r="0.8" fill="#ffffff" opacity="0.22"/><circle cx="153" cy="166" r="0.9" fill="#ffffff" opacity="0.22"/><circle cx="236" cy="155" r="1.0" fill="#ffffff" opacity="0.22"/><circle cx="319" cy="81" r="1.1" fill="#ffffff" opacity="0.22"/><circle cx="402" cy="141" r="1.1" fill="#ffffff" opacity="0.22"/>
  
  <polyline points="0,260 0,274 140,289 280,262 420,283 560,259 700,282 840,293 980,264 960,250 960,420 0,420" fill="#050b14" opacity="0.42"/>
  <polyline points="0,220 0,238 120,209 240,194 360,187 480,222 600,201 720,190 840,224 960,241 960,210 960,420 0,420" fill="#0a1422" opacity="0.48"/>
  <g opacity="0.9"><rect x="343" y="95" width="42" height="140" rx="7" fill="url(#tower-region-25)"/><rect x="358.12" y="105" width="7.56" height="118" rx="3" fill="#ff74ee" opacity="0.42"/><ellipse cx="364" cy="95" rx="30.24" ry="7" fill="#ffe2fb" opacity="0.74"/></g><g opacity="0.9"><rect x="492" y="96" width="32" height="163" rx="5.333333333333333" fill="url(#tower-region-25)"/><rect x="503.52" y="106" width="5.76" height="141" rx="3" fill="#ff74ee" opacity="0.42"/><rect x="487" y="87" width="42" height="9" rx="4" fill="#ffe2fb" opacity="0.66"/></g><g opacity="0.9"><rect x="641" y="115" width="43" height="120" rx="7.166666666666667" fill="url(#tower-region-25)"/><rect x="656.48" y="125" width="7.739999999999999" height="98" rx="3" fill="#ff74ee" opacity="0.42"/><polygon points="633,115 662.5,83 692,115" fill="#ffe2fb" opacity="0.82"/></g><g opacity="0.9"><rect x="790" y="160" width="32" height="99" rx="5.333333333333333" fill="url(#tower-region-25)"/><rect x="801.52" y="170" width="5.76" height="77" rx="3" fill="#ff74ee" opacity="0.42"/><ellipse cx="806" cy="160" rx="23.04" ry="7" fill="#ffe2fb" opacity="0.74"/></g><g opacity="0.9"><rect x="149" y="93" width="27" height="142" rx="4.5" fill="url(#tower-region-25)"/><rect x="158.72" y="103" width="4.859999999999999" height="120" rx="3" fill="#ff74ee" opacity="0.42"/><rect x="144" y="84" width="37" height="9" rx="4" fill="#ffe2fb" opacity="0.66"/></g><g opacity="0.9"><rect x="298" y="95" width="40" height="164" rx="6.666666666666667" fill="url(#tower-region-25)"/><rect x="312.4" y="105" width="7.199999999999999" height="142" rx="3" fill="#ff74ee" opacity="0.42"/><polygon points="290,95 318,63 346,95" fill="#ffe2fb" opacity="0.82"/></g><g opacity="0.9"><rect x="447" y="60" width="31" height="175" rx="5.166666666666667" fill="url(#tower-region-25)"/><rect x="458.16" y="70" width="5.58" height="153" rx="3" fill="#ff74ee" opacity="0.42"/><ellipse cx="462.5" cy="60" rx="22.32" ry="7" fill="#ffe2fb" opacity="0.74"/></g>
  <path d="M0 330 L90 298 L164 326 L258 286 L354 326 L478 292 L612 328 L740 276 L842 322 L960 294 L960 420 L0 420 Z" fill="#1c1230" opacity="0.82"/><path d="M80 320 H884" stroke="#ff74ee" stroke-width="4" opacity="0.38"/>
  <path d="M0 382 H960" stroke="#ff74ee" stroke-width="2" opacity="0.42"/>
  <path d="M177 392 C318 350, 577 410, 752 372" fill="none" stroke="#ffe2fb" stroke-width="4" opacity="0.34"/>
  <text x="28" y="40" fill="#ffe2fb" font-family="monospace" font-size="18" letter-spacing="5" opacity="0.5">25 DROWNED CITY</text>
</svg>