<svg xmlns="http://www.w3.org/2000/svg" viewBox="0 0 960 420" role="img" aria-label="region-16 unique card art">
  <defs>
    <linearGradient id="sky-region-16" x1="0" y1="0" x2="1" y2="1"><stop offset="0" stop-color="#162b45"/><stop offset="0.52" stop-color="#09566b"/><stop offset="1" stop-color="#090812"/></linearGradient>
    <linearGradient id="tower-region-16" x1="0" y1="0" x2="1" y2="1"><stop offset="0" stop-color="#101827"/><stop offset="0.5" stop-color="#09566b"/><stop offset="1" stop-color="#03060c"/></linearGradient>
    <radialGradient id="orb-region-16" cx="50%" cy="50%" r="55%"><stop offset="0" stop-color="#fff0a8"/><stop offset="0.42" stop-color="#36f3ff" stop-opacity="0.62"/><stop offset="1" stop-color="#36f3ff" stop-opacity="0"/></radialGradient>
    <filter id="glow-region-16" x="-20%" y="-20%" width="140%" height="140%"><feGaussianBlur stdDeviation="5" result="b"/><feMerge><feMergeNode in="b"/><feMergeNode in="SourceGraphic"/></feMerge></filter>
  </defs>
  <rect width="960" height="420" fill="url(#sky-region-16)"/>
  <circle cx="807" cy="142" r="54" fill="url(#orb-region-16)" filter="url(#glow-region-16)"/>
  <circle cx="583" cy="67" r="1.9" fill="#ffffff" opacity="0.22"/><circle cx="666" cy="72" r="2.0" fill="#ffffff" opacity="0.22"/><circle cx="749" cy="89" r="2.0" fill="#ffffff" opacity="0.22"/><circle cx="832" cy="112" r="2.1" fill="#ffffff" opacity="0.22"/><circle cx="915" cy="55" r="2.2" fill="#ffffff" opacity="0.22"/><circle cx="86" cy="124" r="0.8" fill="#ffffff" opacity="0.22"/><circle cx="169" cy="173" r="0.9" fill="#ffffff" opacity="0.22"/><circle cx="252" cy="129" r="1.0" fill="#ffffff" opacity="0.22"/><circle cx="335" cy="122" r="1.1" fill="#ffffff" opacity="0.22"/><circle cx="418" cy="133" r="1.1" fill="#ffffff" opacity="0.22"/><circle cx="501" cy="153" r="1.2" fill="#ffffff" opacity="0.22"/><circle cx="584" cy="177" r="1.3" fill="#ffffff" opacity="0.22"/>
  
  <polyline points="0,260 0,296 140,300 280,267 420,251 560,243 700,274 840,289 980,262 960,250 960,420 0,420" fill="#050b14" opacity="0.42"/>
  <polyline points="0,220 0,247 120,213 240,235 360,207 480,193 600,186 720,222 840,240 960,249 960,210 960,420 0,420" fill="#0a1422" opacity="0.48"/>
  <g opacity="0.9"><rect x="589" y="124" width="53" height="97" rx="8.833333333333334" fill="url(#tower-region-16)"/><rect x="608.08" y="134" width="9.54" height="75" rx="3" fill="#36f3ff" opacity="0.42"/><polygon points="581,124 615.5,92 650,124" fill="#c8fbff" opacity="0.82"/></g><g opacity="0.9"><rect x="738" y="104" width="53" height="141" rx="8.833333333333334" fill="url(#tower-region-16)"/><rect x="757.08" y="114" width="9.54" height="119" rx="3" fill="#36f3ff" opacity="0.42"/><ellipse cx="764.5" cy="104" rx="38.16" ry="7" fill="#c8fbff" opacity="0.74"/></g><g opacity="0.9"><rect x="97" y="58" width="37" height="163" rx="6.166666666666667" fill="url(#tower-region-16)"/><rect x="110.32" y="68" width="6.66" height="141" rx="3" fill="#36f3ff" opacity="0.42"/><rect x="92" y="49" width="47" height="9" rx="4" fill="#c8fbff" opacity="0.66"/></g><g opacity="0.9"><rect x="246" y="71" width="29" height="174" rx="4.833333333333333" fill="url(#tower-region-16)"/><rect x="256.44" y="81" width="5.22" height="152" rx="3" fill="#36f3ff" opacity="0.42"/><polygon points="238,71 260.5,39 283,71" fill="#c8fbff" opacity="0.82"/></g><g opacity="0.9"><rect x="395" y="95" width="25" height="126" rx="4.166666666666667" fill="url(#tower-region-16)"/><rect x="404" y="105" width="4.5" height="104" rx="3" fill="#36f3ff" opacity="0.42"/><ellipse cx="407.5" cy="95" rx="18" ry="7" fill="#c8fbff" opacity="0.74"/></g><g opacity="0.9"><rect x="544" y="89" width="39" height="156" rx="6.5" fill="url(#tower-region-16)"/><rect x="558.04" y="99" width="7.02" height="134" rx="3" fill="#36f3ff" opacity="0.42"/><rect x="539" y="80" width="49" height="9" rx="4" fill="#c8fbff" opacity="0.66"/></g>
  <path d="M0 357 C140 303, 244 409, 390 357 S672 327, 960 377 L960 420 L0 420 Z" fill="#104c64" opacity="0.82"/><path d="M0 375 C144 335, 250 431, 392 379 S690 355, 960 403" fill="none" stroke="#36f3ff" stroke-width="10" opacity="0.36"/>
  <path d="M0 382 H960" stroke="#36f3ff" stroke-width="2" opacity="0.42"/>
  <path d="M143 392 C363 350, 592 410, 856 372" fill="none" stroke="#c8fbff" stroke-width="4" opacity="0.34"/>
  <text x="28" y="40" fill="#c8fbff" font-family="monospace" font-size="18" letter-spacing="5" opacity="0.5">16 NEON CANAL</text>
</svg>