<svg xmlns="http://www.w3.org/2000/svg" viewBox="0 0 960 420" role="img" aria-label="region-12 unique card art">
  <defs>
    <linearGradient id="sky-region-12" x1="0" y1="0" x2="1" y2="1"><stop offset="0" stop-color="#071126"/><stop offset="0.52" stop-color="#09566b"/><stop offset="1" stop-color="#090812"/></linearGradient>
    <linearGradient id="tower-region-12" x1="0" y1="0" x2="1" y2="1"><stop offset="0" stop-color="#101827"/><stop offset="0.5" stop-color="#09566b"/><stop offset="1" stop-color="#03060c"/></linearGradient>
    <radialGradient id="orb-region-12" cx="50%" cy="50%" r="55%"><stop offset="0" stop-color="#d9dfff"/><stop offset="0.42" stop-color="#36f3ff" stop-opacity="0.62"/><stop offset="1" stop-color="#36f3ff" stop-opacity="0"/></radialGradient>
    <filter id="glow-region-12" x="-20%" y="-20%" width="140%" height="140%"><feGaussianBlur stdDeviation="5" result="b"/><feMerge><feMergeNode in="b"/><feMergeNode in="SourceGraphic"/></feMerge></filter>
  </defs>
  <rect width="960" height="420" fill="url(#sky-region-12)"/>
  <circle cx="718" cy="116" r="38" fill="url(#orb-region-12)" filter="url(#glow-region-12)"/>
  <circle cx="539" cy="71" r="2.2" fill="#ffffff" opacity="0.72"/><circle cx="622" cy="74" r="0.8" fill="#ffffff" opacity="0.72"/><circle cx="705" cy="90" r="0.9" fill="#ffffff" opacity="0.72"/><circle cx="788" cy="113" r="1.0" fill="#ffffff" opacity="0.72"/><circle cx="871" cy="139" r="1.1" fill="#ffffff" opacity="0.72"/><circle cx="42" cy="166" r="1.1" fill="#ffffff" opacity="0.72"/><circle cx="125" cy="28" r="1.2" fill="#ffffff" opacity="0.72"/><circle cx="208" cy="57" r="1.3" fill="#ffffff" opacity="0.72"/><circle cx="291" cy="86" r="1.4" fill="#ffffff" opacity="0.72"/><circle cx="374" cy="32" r="1.5" fill="#ffffff" opacity="0.72"/><circle cx="457" cy="185" r="1.6" fill="#ffffff" opacity="0.72"/><circle cx="540" cy="110" r="1.6" fill="#ffffff" opacity="0.72"/><circle cx="623" cy="170" r="1.7" fill="#ffffff" opacity="0.72"/><circle cx="706" cy="49" r="1.8" fill="#ffffff" opacity="0.72"/><circle cx="789" cy="86" r="1.9" fill="#ffffff" opacity="0.72"/><circle cx="872" cy="119" r="2.0" fill="#ffffff" opacity="0.72"/><circle cx="43" cy="37" r="2.0" fill="#ffffff" opacity="0.72"/><circle cx="126" cy="40" r="2.1" fill="#ffffff" opacity="0.72"/><circle cx="209" cy="56" r="2.2" fill="#ffffff" opacity="0.72"/><circle cx="292" cy="79" r="0.8" fill="#ffffff" opacity="0.72"/><circle cx="375" cy="105" r="0.9" fill="#ffffff" opacity="0.72"/><circle cx="458" cy="132" r="1.0" fill="#ffffff" opacity="0.72"/><circle cx="541" cy="160" r="1.1" fill="#ffffff" opacity="0.72"/><circle cx="624" cy="23" r="1.1" fill="#ffffff" opacity="0.72"/><circle cx="707" cy="52" r="1.2" fill="#ffffff" opacity="0.72"/><circle cx="790" cy="164" r="1.3" fill="#ffffff" opacity="0.72"/><circle cx="873" cy="151" r="1.4" fill="#ffffff" opacity="0.72"/><circle cx="44" cy="76" r="1.5" fill="#ffffff" opacity="0.72"/><circle cx="127" cy="136" r="1.6" fill="#ffffff" opacity="0.72"/><circle cx="210" cy="181" r="1.6" fill="#ffffff" opacity="0.72"/><circle cx="293" cy="52" r="1.7" fill="#ffffff" opacity="0.72"/><circle cx="376" cy="85" r="1.8" fill="#ffffff" opacity="0.72"/><circle cx="459" cy="169" r="1.9" fill="#ffffff" opacity="0.72"/><circle cx="542" cy="172" r="2.0" fill="#ffffff" opacity="0.72"/>
  
  <polyline points="0,260 0,294 140,299 280,267 420,251 560,278 700,256 840,280 980,257 960,250 960,420 0,420" fill="#050b14" opacity="0.42"/>
  <polyline points="0,220 0,194 120,226 240,203 360,191 480,224 600,202 720,230 840,205 960,231 960,210 960,420 0,420" fill="#0a1422" opacity="0.48"/>
  <g opacity="0.9"><rect x="613" y="128" width="47" height="89" rx="7.833333333333333" fill="url(#tower-region-12)"/><rect x="629.92" y="138" width="8.459999999999999" height="67" rx="3" fill="#36f3ff" opacity="0.42"/><ellipse cx="636.5" cy="128" rx="33.839999999999996" ry="7" fill="#c8fbff" opacity="0.74"/></g><g opacity="0.9"><rect x="762" y="158" width="34" height="83" rx="5.666666666666667" fill="url(#tower-region-12)"/><rect x="774.24" y="168" width="6.12" height="61" rx="3" fill="#36f3ff" opacity="0.42"/><rect x="757" y="149" width="44" height="9" rx="4" fill="#c8fbff" opacity="0.66"/></g><g opacity="0.9"><rect x="121" y="83" width="28" height="134" rx="4.666666666666667" fill="url(#tower-region-12)"/><rect x="131.08" y="93" width="5.04" height="112" rx="3" fill="#36f3ff" opacity="0.42"/><polygon points="113,83 135,51 157,83" fill="#c8fbff" opacity="0.82"/></g><g opacity="0.9"><rect x="270" y="135" width="25" height="106" rx="4.166666666666667" fill="url(#tower-region-12)"/><rect x="279" y="145" width="4.5" height="84" rx="3" fill="#36f3ff" opacity="0.42"/><ellipse cx="282.5" cy="135" rx="18" ry="7" fill="#c8fbff" opacity="0.74"/></g><g opacity="0.9"><rect x="419" y="125" width="39" height="92" rx="6.5" fill="url(#tower-region-12)"/><rect x="433.04" y="135" width="7.02" height="70" rx="3" fill="#36f3ff" opacity="0.42"/><rect x="414" y="116" width="49" height="9" rx="4" fill="#c8fbff" opacity="0.66"/></g><g opacity="0.9"><rect x="568" y="156" width="46" height="85" rx="7.666666666666667" fill="url(#tower-region-12)"/><rect x="584.56" y="166" width="8.28" height="63" rx="3" fill="#36f3ff" opacity="0.42"/><polygon points="560,156 591,124 622,156" fill="#c8fbff" opacity="0.82"/></g>
  <path d="M0 367 C140 313, 244 419, 390 367 S672 337, 960 387 L960 420 L0 420 Z" fill="#104c64" opacity="0.82"/><path d="M0 385 C144 345, 250 441, 392 389 S690 365, 960 413" fill="none" stroke="#36f3ff" stroke-width="10" opacity="0.36"/>
  <path d="M0 382 H960" stroke="#36f3ff" stroke-width="2" opacity="0.42"/>
  <path d="M147 392 C359 350, 572 410, 825 372" fill="none" stroke="#c8fbff" stroke-width="4" opacity="0.34"/>
  <text x="28" y="40" fill="#c8fbff" font-family="monospace" font-size="18" letter-spacing="5" opacity="0.5">12 NEON CANAL</text>
</svg>