<svg xmlns="http://www.w3.org/2000/svg" viewBox="0 0 960 420" role="img" aria-label="region-10 unique card art">
  <defs>
    <linearGradient id="sky-region-10" x1="0" y1="0" x2="1" y2="1"><stop offset="0" stop-color="#162b45"/><stop offset="0.52" stop-color="#1e5a28"/><stop offset="1" stop-color="#090812"/></linearGradient>
    <linearGradient id="tower-region-10" x1="0" y1="0" x2="1" y2="1"><stop offset="0" stop-color="#101827"/><stop offset="0.5" stop-color="#1e5a28"/><stop offset="1" stop-color="#03060c"/></linearGradient>
    <radialGradient id="orb-region-10" cx="50%" cy="50%" r="55%"><stop offset="0" stop-color="#fff0a8"/><stop offset="0.42" stop-color="#8dff72" stop-opacity="0.62"/><stop offset="1" stop-color="#8dff72" stop-opacity="0"/></radialGradient>
    <filter id="glow-region-10" x="-20%" y="-20%" width="140%" height="140%"><feGaussianBlur stdDeviation="5" result="b"/><feMerge><feMergeNode in="b"/><feMergeNode in="SourceGraphic"/></feMerge></filter>
  </defs>
  <rect width="960" height="420" fill="url(#sky-region-10)"/>
  <circle cx="403" cy="70" r="54" fill="url(#orb-region-10)" filter="url(#glow-region-10)"/>
  <circle cx="561" cy="69" r="2.0" fill="#ffffff" opacity="0.22"/><circle cx="644" cy="73" r="2.1" fill="#ffffff" opacity="0.22"/><circle cx="727" cy="90" r="2.2" fill="#ffffff" opacity="0.22"/><circle cx="810" cy="30" r="0.8" fill="#ffffff" opacity="0.22"/><circle cx="893" cy="97" r="0.9" fill="#ffffff" opacity="0.22"/><circle cx="64" cy="145" r="1.0" fill="#ffffff" opacity="0.22"/><circle cx="147" cy="101" r="1.1" fill="#ffffff" opacity="0.22"/><circle cx="230" cy="93" r="1.1" fill="#ffffff" opacity="0.22"/><circle cx="313" cy="21" r="1.2" fill="#ffffff" opacity="0.22"/><circle cx="396" cy="165" r="1.3" fill="#ffffff" opacity="0.22"/><circle cx="479" cy="86" r="1.4" fill="#ffffff" opacity="0.22"/><circle cx="562" cy="61" r="1.5" fill="#ffffff" opacity="0.22"/>
  
  <polyline points="0,260 0,295 140,300 280,267 420,286 560,295 700,265 840,285 980,260 960,250 960,420 0,420" fill="#050b14" opacity="0.42"/>
  <polyline points="0,220 0,182 120,181 240,219 360,238 480,209 600,194 720,187 840,222 960,240 960,210 960,420 0,420" fill="#0a1422" opacity="0.48"/>
  <g opacity="0.9"><rect x="601" y="72" width="34" height="147" rx="5.666666666666667" fill="url(#tower-region-10)"/><rect x="613.24" y="82" width="6.12" height="125" rx="3" fill="#8dff72" opacity="0.42"/><rect x="596" y="63" width="44" height="9" rx="4" fill="#e8ffe3" opacity="0.66"/></g><g opacity="0.9"><rect x="750" y="131" width="44" height="112" rx="7.333333333333333" fill="url(#tower-region-10)"/><rect x="765.84" y="141" width="7.92" height="90" rx="3" fill="#8dff72" opacity="0.42"/><polygon points="742,131 772,99 802,131" fill="#e8ffe3" opacity="0.82"/></g><g opacity="0.9"><rect x="109" y="124" width="33" height="95" rx="5.5" fill="url(#tower-region-10)"/><rect x="120.88" y="134" width="5.9399999999999995" height="73" rx="3" fill="#8dff72" opacity="0.42"/><ellipse cx="125.5" cy="124" rx="23.759999999999998" ry="7" fill="#e8ffe3" opacity="0.74"/></g>
  <path d="M0 330 C105 275, 162 316, 260 274 S430 332, 552 282 S760 310, 960 256 L960 420 L0 420 Z" fill="#173d23" opacity="0.84"/><g opacity="0.68"><circle cx="385" cy="343" r="21" fill="#8dff72"/><circle cx="452" cy="310" r="32" fill="#b7ff91"/><circle cx="519" cy="294" r="19" fill="#b7ff91"/><circle cx="586" cy="327" r="30" fill="#8dff72"/><circle cx="653" cy="343" r="17" fill="#b7ff91"/><circle cx="720" cy="310" r="28" fill="#b7ff91"/><circle cx="787" cy="335" r="15" fill="#8dff72"/><circle cx="854" cy="306" r="26" fill="#b7ff91"/><circle cx="41" cy="333" r="13" fill="#b7ff91"/><circle cx="108" cy="346" r="24" fill="#8dff72"/><circle cx="175" cy="312" r="35" fill="#b7ff91"/><circle cx="242" cy="336" r="22" fill="#b7ff91"/><circle cx="309" cy="343" r="33" fill="#8dff72"/><circle cx="376" cy="310" r="20" fill="#b7ff91"/></g>
  <path d="M0 382 H960" stroke="#8dff72" stroke-width="2" opacity="0.42"/>
  <path d="M145 392 C361 350, 522 410, 760 372" fill="none" stroke="#e8ffe3" stroke-width="4" opacity="0.34"/>
  <text x="28" y="40" fill="#e8ffe3" font-family="monospace" font-size="18" letter-spacing="5" opacity="0.5">10 MYCEL FOREST</text>
</svg>