<svg xmlns="http://www.w3.org/2000/svg" viewBox="0 0 960 420" role="img" aria-label="region-28 unique card art">
  <defs>
    <linearGradient id="sky-region-28" x1="0" y1="0" x2="1" y2="1"><stop offset="0" stop-color="#162b45"/><stop offset="0.52" stop-color="#09566b"/><stop offset="1" stop-color="#090812"/></linearGradient>
    <linearGradient id="tower-region-28" x1="0" y1="0" x2="1" y2="1"><stop offset="0" stop-color="#101827"/><stop offset="0.5" stop-color="#09566b"/><stop offset="1" stop-color="#03060c"/></linearGradient>
    <radialGradient id="orb-region-28" cx="50%" cy="50%" r="55%"><stop offset="0" stop-color="#fff0a8"/><stop offset="0.42" stop-color="#36f3ff" stop-opacity="0.62"/><stop offset="1" stop-color="#36f3ff" stop-opacity="0"/></radialGradient>
    <filter id="glow-region-28" x="-20%" y="-20%" width="140%" height="140%"><feGaussianBlur stdDeviation="5" result="b"/><feMerge><feMergeNode in="b"/><feMergeNode in="SourceGraphic"/></feMerge></filter>
  </defs>
  <rect width="960" height="420" fill="url(#sky-region-28)"/>
  <circle cx="743" cy="73" r="54" fill="url(#orb-region-28)" filter="url(#glow-region-28)"/>
  <circle cx="66" cy="74" r="0.8" fill="#ffffff" opacity="0.22"/><circle cx="149" cy="76" r="0.9" fill="#ffffff" opacity="0.22"/><circle cx="232" cy="174" r="1.0" fill="#ffffff" opacity="0.22"/><circle cx="315" cy="72" r="1.1" fill="#ffffff" opacity="0.22"/><circle cx="398" cy="35" r="1.1" fill="#ffffff" opacity="0.22"/><circle cx="481" cy="114" r="1.2" fill="#ffffff" opacity="0.22"/><circle cx="564" cy="85" r="1.3" fill="#ffffff" opacity="0.22"/><circle cx="647" cy="168" r="1.4" fill="#ffffff" opacity="0.22"/><circle cx="730" cy="141" r="1.5" fill="#ffffff" opacity="0.22"/><circle cx="813" cy="59" r="1.6" fill="#ffffff" opacity="0.22"/><circle cx="896" cy="33" r="1.6" fill="#ffffff" opacity="0.22"/><circle cx="67" cy="117" r="1.7" fill="#ffffff" opacity="0.22"/>
  
  <polyline points="0,260 0,280 140,292 280,298 420,266 560,285 700,260 840,247 980,241 960,250 960,420 0,420" fill="#050b14" opacity="0.42"/>
  <polyline points="0,220 0,208 120,233 240,245 360,251 480,215 600,197 720,227 840,242 960,211 960,210 960,420 0,420" fill="#0a1422" opacity="0.48"/>
  <g opacity="0.9"><rect x="672" y="83" width="51" height="137" rx="8.5" fill="url(#tower-region-28)"/><rect x="690.36" y="93" width="9.18" height="115" rx="3" fill="#36f3ff" opacity="0.42"/><rect x="667" y="74" width="61" height="9" rx="4" fill="#c8fbff" opacity="0.66"/></g><g opacity="0.9"><rect x="821" y="83" width="52" height="161" rx="8.666666666666666" fill="url(#tower-region-28)"/><rect x="839.72" y="93" width="9.36" height="139" rx="3" fill="#36f3ff" opacity="0.42"/><polygon points="813,83 847,51 881,83" fill="#c8fbff" opacity="0.82"/></g><g opacity="0.9"><rect x="180" y="47" width="53" height="173" rx="8.833333333333334" fill="url(#tower-region-28)"/><rect x="199.07999999999998" y="57" width="9.54" height="151" rx="3" fill="#36f3ff" opacity="0.42"/><ellipse cx="206.5" cy="47" rx="38.16" ry="7" fill="#c8fbff" opacity="0.74"/></g>
  <path d="M0 349 C140 295, 244 401, 390 349 S672 319, 960 369 L960 420 L0 420 Z" fill="#104c64" opacity="0.82"/><path d="M0 367 C144 327, 250 423, 392 371 S690 347, 960 395" fill="none" stroke="#36f3ff" stroke-width="10" opacity="0.36"/>
  <path d="M0 382 H960" stroke="#36f3ff" stroke-width="2" opacity="0.42"/>
  <path d="M166 392 C331 350, 603 410, 878 372" fill="none" stroke="#c8fbff" stroke-width="4" opacity="0.34"/>
  <text x="28" y="40" fill="#c8fbff" font-family="monospace" font-size="18" letter-spacing="5" opacity="0.5">28 NEON CANAL</text>
</svg>