<svg xmlns="http://www.w3.org/2000/svg" viewBox="0 0 960 420" role="img" aria-label="region-62 unique card art">
  <defs>
    <linearGradient id="sky-region-62" x1="0" y1="0" x2="1" y2="1"><stop offset="0" stop-color="#162b45"/><stop offset="0.52" stop-color="#1e5a28"/><stop offset="1" stop-color="#090812"/></linearGradient>
    <linearGradient id="tower-region-62" x1="0" y1="0" x2="1" y2="1"><stop offset="0" stop-color="#101827"/><stop offset="0.5" stop-color="#1e5a28"/><stop offset="1" stop-color="#03060c"/></linearGradient>
    <radialGradient id="orb-region-62" cx="50%" cy="50%" r="55%"><stop offset="0" stop-color="#fff0a8"/><stop offset="0.42" stop-color="#8dff72" stop-opacity="0.62"/><stop offset="1" stop-color="#8dff72" stop-opacity="0"/></radialGradient>
    <filter id="glow-region-62" x="-20%" y="-20%" width="140%" height="140%"><feGaussianBlur stdDeviation="5" result="b"/><feMerge><feMergeNode in="b"/><feMergeNode in="SourceGraphic"/></feMerge></filter>
  </defs>
  <rect width="960" height="420" fill="url(#sky-region-62)"/>
  <circle cx="760" cy="81" r="54" fill="url(#orb-region-62)" filter="url(#glow-region-62)"/>
  <circle cx="536" cy="46" r="1.5" fill="#ffffff" opacity="0.22"/><circle cx="619" cy="145" r="1.6" fill="#ffffff" opacity="0.22"/><circle cx="702" cy="126" r="1.6" fill="#ffffff" opacity="0.22"/><circle cx="785" cy="131" r="1.7" fill="#ffffff" opacity="0.22"/><circle cx="868" cy="148" r="1.8" fill="#ffffff" opacity="0.22"/><circle cx="39" cy="171" r="1.9" fill="#ffffff" opacity="0.22"/><circle cx="122" cy="114" r="2.0" fill="#ffffff" opacity="0.22"/><circle cx="205" cy="100" r="2.0" fill="#ffffff" opacity="0.22"/><circle cx="288" cy="107" r="2.1" fill="#ffffff" opacity="0.22"/><circle cx="371" cy="125" r="2.2" fill="#ffffff" opacity="0.22"/><circle cx="454" cy="149" r="0.8" fill="#ffffff" opacity="0.22"/><circle cx="537" cy="92" r="0.9" fill="#ffffff" opacity="0.22"/>
  
  <polyline points="0,260 0,245 140,275 280,290 420,262 560,283 700,294 840,264 980,249 960,250 960,420 0,420" fill="#050b14" opacity="0.42"/>
  <polyline points="0,220 0,224 120,202 240,230 360,244 480,212 600,235 720,207 840,232 960,245 960,210 960,420 0,420" fill="#0a1422" opacity="0.48"/>
  <g opacity="0.9"><rect x="266" y="120" width="22" height="110" rx="4" fill="url(#tower-region-62)"/><rect x="273.92" y="130" width="4" height="88" rx="3" fill="#8dff72" opacity="0.42"/><ellipse cx="277" cy="120" rx="15.84" ry="7" fill="#e8ffe3" opacity="0.74"/></g><g opacity="0.9"><rect x="415" y="160" width="22" height="94" rx="4" fill="url(#tower-region-62)"/><rect x="422.92" y="170" width="4" height="72" rx="3" fill="#8dff72" opacity="0.42"/><rect x="410" y="151" width="32" height="9" rx="4" fill="#e8ffe3" opacity="0.66"/></g><g opacity="0.9"><rect x="564" y="90" width="38" height="140" rx="6.333333333333333" fill="url(#tower-region-62)"/><rect x="577.68" y="100" width="6.84" height="118" rx="3" fill="#8dff72" opacity="0.42"/><polygon points="556,90 583,58 610,90" fill="#e8ffe3" opacity="0.82"/></g><g opacity="0.9"><rect x="713" y="145" width="46" height="109" rx="7.666666666666667" fill="url(#tower-region-62)"/><rect x="729.56" y="155" width="8.28" height="87" rx="3" fill="#8dff72" opacity="0.42"/><ellipse cx="736" cy="145" rx="33.12" ry="7" fill="#e8ffe3" opacity="0.74"/></g><g opacity="0.9"><rect x="72" y="83" width="34" height="147" rx="5.666666666666667" fill="url(#tower-region-62)"/><rect x="84.24" y="93" width="6.12" height="125" rx="3" fill="#8dff72" opacity="0.42"/><rect x="67" y="74" width="44" height="9" rx="4" fill="#e8ffe3" opacity="0.66"/></g><g opacity="0.9"><rect x="221" y="142" width="44" height="112" rx="7.333333333333333" fill="url(#tower-region-62)"/><rect x="236.84" y="152" width="7.92" height="90" rx="3" fill="#8dff72" opacity="0.42"/><polygon points="213,142 243,110 273,142" fill="#e8ffe3" opacity="0.82"/></g>
  <path d="M0 330 C105 275, 162 316, 260 274 S430 332, 552 282 S760 310, 960 256 L960 420 L0 420 Z" fill="#173d23" opacity="0.84"/><g opacity="0.68"><circle cx="520" cy="332" r="20" fill="#8dff72"/><circle cx="587" cy="346" r="31" fill="#b7ff91"/><circle cx="654" cy="312" r="18" fill="#b7ff91"/><circle cx="721" cy="336" r="29" fill="#8dff72"/><circle cx="788" cy="348" r="16" fill="#b7ff91"/><circle cx="855" cy="354" r="27" fill="#b7ff91"/><circle cx="42" cy="316" r="14" fill="#8dff72"/><circle cx="109" cy="297" r="25" fill="#b7ff91"/><circle cx="176" cy="287" r="12" fill="#b7ff91"/><circle cx="243" cy="282" r="23" fill="#8dff72"/><circle cx="310" cy="321" r="34" fill="#b7ff91"/><circle cx="377" cy="299" r="21" fill="#b7ff91"/><circle cx="444" cy="332" r="32" fill="#8dff72"/><circle cx="511" cy="346" r="19" fill="#b7ff91"/></g>
  <path d="M0 382 H960" stroke="#8dff72" stroke-width="2" opacity="0.42"/>
  <path d="M120 392 C260 350, 635 410, 761 372" fill="none" stroke="#e8ffe3" stroke-width="4" opacity="0.34"/>
  <text x="28" y="40" fill="#e8ffe3" font-family="monospace" font-size="18" letter-spacing="5" opacity="0.5">62 MYCEL FOREST</text>
</svg>