<svg xmlns="http://www.w3.org/2000/svg" viewBox="0 0 960 420" role="img" aria-label="region-5 unique card art">
  <defs>
    <linearGradient id="sky-region-5" x1="0" y1="0" x2="1" y2="1"><stop offset="0" stop-color="#162b45"/><stop offset="0.52" stop-color="#5b164e"/><stop offset="1" stop-color="#090812"/></linearGradient>
    <linearGradient id="tower-region-5" x1="0" y1="0" x2="1" y2="1"><stop offset="0" stop-color="#101827"/><stop offset="0.5" stop-color="#5b164e"/><stop offset="1" stop-color="#03060c"/></linearGradient>
    <radialGradient id="orb-region-5" cx="50%" cy="50%" r="55%"><stop offset="0" stop-color="#fff0a8"/><stop offset="0.42" stop-color="#ff74ee" stop-opacity="0.62"/><stop offset="1" stop-color="#ff74ee" stop-opacity="0"/></radialGradient>
    <filter id="glow-region-5" x="-20%" y="-20%" width="140%" height="140%"><feGaussianBlur stdDeviation="5" result="b"/><feMerge><feMergeNode in="b"/><feMergeNode in="SourceGraphic"/></feMerge></filter>
  </defs>
  <rect width="960" height="420" fill="url(#sky-region-5)"/>
  <circle cx="699" cy="84" r="54" fill="url(#orb-region-5)" filter="url(#glow-region-5)"/>
  <circle cx="919" cy="161" r="1.9" fill="#ffffff" opacity="0.22"/><circle cx="90" cy="36" r="2.0" fill="#ffffff" opacity="0.22"/><circle cx="173" cy="71" r="2.0" fill="#ffffff" opacity="0.22"/><circle cx="256" cy="20" r="2.1" fill="#ffffff" opacity="0.22"/><circle cx="339" cy="175" r="2.2" fill="#ffffff" opacity="0.22"/><circle cx="422" cy="101" r="0.8" fill="#ffffff" opacity="0.22"/><circle cx="505" cy="162" r="0.9" fill="#ffffff" opacity="0.22"/><circle cx="588" cy="41" r="1.0" fill="#ffffff" opacity="0.22"/><circle cx="671" cy="161" r="1.1" fill="#ffffff" opacity="0.22"/><circle cx="754" cy="152" r="1.1" fill="#ffffff" opacity="0.22"/><circle cx="837" cy="162" r="1.2" fill="#ffffff" opacity="0.22"/><circle cx="920" cy="182" r="1.3" fill="#ffffff" opacity="0.22"/>
  
  <polyline points="0,260 0,249 140,277 280,291 420,298 560,266 700,285 840,260 980,247 960,250 960,420 0,420" fill="#050b14" opacity="0.42"/>
  <polyline points="0,220 0,199 120,189 240,223 360,240 480,210 600,234 720,207 840,193 960,186 960,210 960,420 0,420" fill="#0a1422" opacity="0.48"/>
  <g opacity="0.9"><rect x="375" y="122" width="37" height="115" rx="6.166666666666667" fill="url(#tower-region-5)"/><rect x="388.32" y="132" width="6.66" height="93" rx="3" fill="#ff74ee" opacity="0.42"/><polygon points="367,122 393.5,90 420,122" fill="#ffe2fb" opacity="0.82"/></g><g opacity="0.9"><rect x="524" y="111" width="29" height="150" rx="4.833333333333333" fill="url(#tower-region-5)"/><rect x="534.44" y="121" width="5.22" height="128" rx="3" fill="#ff74ee" opacity="0.42"/><ellipse cx="538.5" cy="111" rx="20.88" ry="7" fill="#ffe2fb" opacity="0.74"/></g><g opacity="0.9"><rect x="673" y="123" width="25" height="114" rx="4.166666666666667" fill="url(#tower-region-5)"/><rect x="682" y="133" width="4.5" height="92" rx="3" fill="#ff74ee" opacity="0.42"/><rect x="668" y="114" width="35" height="9" rx="4" fill="#ffe2fb" opacity="0.66"/></g><g opacity="0.9"><rect x="822" y="165" width="39" height="96" rx="6.5" fill="url(#tower-region-5)"/><rect x="836.04" y="175" width="7.02" height="74" rx="3" fill="#ff74ee" opacity="0.42"/><polygon points="814,165 841.5,133 869,165" fill="#ffe2fb" opacity="0.82"/></g>
  <path d="M0 330 L90 298 L164 326 L258 286 L354 326 L478 292 L612 328 L740 276 L842 322 L960 294 L960 420 L0 420 Z" fill="#1c1230" opacity="0.82"/><path d="M80 320 H884" stroke="#ff74ee" stroke-width="4" opacity="0.38"/>
  <path d="M0 382 H960" stroke="#ff74ee" stroke-width="2" opacity="0.42"/>
  <path d="M179 392 C269 350, 526 410, 885 372" fill="none" stroke="#ffe2fb" stroke-width="4" opacity="0.34"/>
  <text x="28" y="40" fill="#ffe2fb" font-family="monospace" font-size="18" letter-spacing="5" opacity="0.5">05 DROWNED CITY</text>
</svg>