<svg xmlns="http://www.w3.org/2000/svg" viewBox="0 0 960 420" role="img" aria-label="region-64 unique card art">
  <defs>
    <linearGradient id="sky-region-64" x1="0" y1="0" x2="1" y2="1"><stop offset="0" stop-color="#162b45"/><stop offset="0.52" stop-color="#09566b"/><stop offset="1" stop-color="#090812"/></linearGradient>
    <linearGradient id="tower-region-64" x1="0" y1="0" x2="1" y2="1"><stop offset="0" stop-color="#101827"/><stop offset="0.5" stop-color="#09566b"/><stop offset="1" stop-color="#03060c"/></linearGradient>
    <radialGradient id="orb-region-64" cx="50%" cy="50%" r="55%"><stop offset="0" stop-color="#fff0a8"/><stop offset="0.42" stop-color="#36f3ff" stop-opacity="0.62"/><stop offset="1" stop-color="#36f3ff" stop-opacity="0"/></radialGradient>
    <filter id="glow-region-64" x="-20%" y="-20%" width="140%" height="140%"><feGaussianBlur stdDeviation="5" result="b"/><feMerge><feMergeNode in="b"/><feMergeNode in="SourceGraphic"/></feMerge></filter>
  </defs>
  <rect width="960" height="420" fill="url(#sky-region-64)"/>
  <circle cx="534" cy="61" r="54" fill="url(#orb-region-64)" filter="url(#glow-region-64)"/>
  <circle cx="602" cy="40" r="1.0" fill="#ffffff" opacity="0.22"/><circle cx="685" cy="142" r="1.1" fill="#ffffff" opacity="0.22"/><circle cx="768" cy="124" r="1.1" fill="#ffffff" opacity="0.22"/><circle cx="851" cy="47" r="1.2" fill="#ffffff" opacity="0.22"/><circle cx="934" cy="23" r="1.3" fill="#ffffff" opacity="0.22"/><circle cx="105" cy="108" r="1.4" fill="#ffffff" opacity="0.22"/><circle cx="188" cy="165" r="1.5" fill="#ffffff" opacity="0.22"/><circle cx="271" cy="42" r="1.6" fill="#ffffff" opacity="0.22"/><circle cx="354" cy="78" r="1.6" fill="#ffffff" opacity="0.22"/><circle cx="437" cy="28" r="1.7" fill="#ffffff" opacity="0.22"/><circle cx="520" cy="183" r="1.8" fill="#ffffff" opacity="0.22"/><circle cx="603" cy="109" r="1.9" fill="#ffffff" opacity="0.22"/>
  
  <polyline points="0,260 0,248 140,276 280,290 420,297 560,266 700,250 840,277 980,256 960,250 960,420 0,420" fill="#050b14" opacity="0.42"/>
  <polyline points="0,220 0,186 120,222 240,201 360,229 480,243 600,211 720,234 840,207 960,193 960,210 960,420 0,420" fill="#0a1422" opacity="0.48"/>
  <g opacity="0.9"><rect x="230" y="59" width="47" height="177" rx="7.833333333333333" fill="url(#tower-region-64)"/><rect x="246.92" y="69" width="8.459999999999999" height="155" rx="3" fill="#36f3ff" opacity="0.42"/><ellipse cx="253.5" cy="59" rx="33.839999999999996" ry="7" fill="#c8fbff" opacity="0.74"/></g><g opacity="0.9"><rect x="379" y="79" width="50" height="181" rx="8.333333333333334" fill="url(#tower-region-64)"/><rect x="397" y="89" width="9" height="159" rx="3" fill="#36f3ff" opacity="0.42"/><rect x="374" y="70" width="60" height="9" rx="4" fill="#c8fbff" opacity="0.66"/></g><g opacity="0.9"><rect x="528" y="107" width="52" height="129" rx="8.666666666666666" fill="url(#tower-region-64)"/><rect x="546.72" y="117" width="9.36" height="107" rx="3" fill="#36f3ff" opacity="0.42"/><polygon points="520,107 554,75 588,107" fill="#c8fbff" opacity="0.82"/></g><g opacity="0.9"><rect x="677" y="157" width="37" height="103" rx="6.166666666666667" fill="url(#tower-region-64)"/><rect x="690.32" y="167" width="6.66" height="81" rx="3" fill="#36f3ff" opacity="0.42"/><ellipse cx="695.5" cy="157" rx="26.64" ry="7" fill="#c8fbff" opacity="0.74"/></g>
  <path d="M0 353 C140 299, 244 405, 390 353 S672 323, 960 373 L960 420 L0 420 Z" fill="#104c64" opacity="0.82"/><path d="M0 371 C144 331, 250 427, 392 375 S690 351, 960 399" fill="none" stroke="#36f3ff" stroke-width="10" opacity="0.36"/>
  <path d="M0 382 H960" stroke="#36f3ff" stroke-width="2" opacity="0.42"/>
  <path d="M114 392 C267 350, 605 410, 888 372" fill="none" stroke="#c8fbff" stroke-width="4" opacity="0.34"/>
  <text x="28" y="40" fill="#c8fbff" font-family="monospace" font-size="18" letter-spacing="5" opacity="0.5">64 NEON CANAL</text>
</svg>