<svg xmlns="http://www.w3.org/2000/svg" viewBox="0 0 960 420" role="img" aria-label="region-32 unique card art">
  <defs>
    <linearGradient id="sky-region-32" x1="0" y1="0" x2="1" y2="1"><stop offset="0" stop-color="#162b45"/><stop offset="0.52" stop-color="#09566b"/><stop offset="1" stop-color="#090812"/></linearGradient>
    <linearGradient id="tower-region-32" x1="0" y1="0" x2="1" y2="1"><stop offset="0" stop-color="#101827"/><stop offset="0.5" stop-color="#09566b"/><stop offset="1" stop-color="#03060c"/></linearGradient>
    <radialGradient id="orb-region-32" cx="50%" cy="50%" r="55%"><stop offset="0" stop-color="#fff0a8"/><stop offset="0.42" stop-color="#36f3ff" stop-opacity="0.62"/><stop offset="1" stop-color="#36f3ff" stop-opacity="0"/></radialGradient>
    <filter id="glow-region-32" x="-20%" y="-20%" width="140%" height="140%"><feGaussianBlur stdDeviation="5" result="b"/><feMerge><feMergeNode in="b"/><feMergeNode in="SourceGraphic"/></feMerge></filter>
  </defs>
  <rect width="960" height="420" fill="url(#sky-region-32)"/>
  <circle cx="410" cy="161" r="54" fill="url(#orb-region-32)" filter="url(#glow-region-32)"/>
  <circle cx="329" cy="93" r="2.2" fill="#ffffff" opacity="0.22"/><circle cx="412" cy="85" r="0.8" fill="#ffffff" opacity="0.22"/><circle cx="495" cy="96" r="0.9" fill="#ffffff" opacity="0.22"/><circle cx="578" cy="33" r="1.0" fill="#ffffff" opacity="0.22"/><circle cx="661" cy="99" r="1.1" fill="#ffffff" opacity="0.22"/><circle cx="744" cy="63" r="1.1" fill="#ffffff" opacity="0.22"/><circle cx="827" cy="60" r="1.2" fill="#ffffff" opacity="0.22"/><circle cx="910" cy="156" r="1.3" fill="#ffffff" opacity="0.22"/><circle cx="81" cy="52" r="1.4" fill="#ffffff" opacity="0.22"/><circle cx="164" cy="181" r="1.5" fill="#ffffff" opacity="0.22"/><circle cx="247" cy="177" r="1.6" fill="#ffffff" opacity="0.22"/><circle cx="330" cy="23" r="1.6" fill="#ffffff" opacity="0.22"/>
  
  <polyline points="0,260 0,257 140,281 280,258 420,281 560,293 700,264 840,249 980,277 960,250 960,420 0,420" fill="#050b14" opacity="0.42"/>
  <polyline points="0,220 0,244 120,212 240,235 360,246 480,252 600,255 720,256 840,218 960,199 960,210 960,420 0,420" fill="#0a1422" opacity="0.48"/>
  <g opacity="0.9"><rect x="827" y="108" width="30" height="151" rx="5" fill="url(#tower-region-32)"/><rect x="837.8" y="118" width="5.3999999999999995" height="129" rx="3" fill="#36f3ff" opacity="0.42"/><ellipse cx="842" cy="108" rx="21.599999999999998" ry="7" fill="#c8fbff" opacity="0.74"/></g><g opacity="0.9"><rect x="186" y="169" width="26" height="114" rx="4.333333333333333" fill="url(#tower-region-32)"/><rect x="195.36" y="179" width="4.68" height="92" rx="3" fill="#36f3ff" opacity="0.42"/><rect x="181" y="160" width="36" height="9" rx="4" fill="#c8fbff" opacity="0.66"/></g><g opacity="0.9"><rect x="335" y="163" width="40" height="96" rx="6.666666666666667" fill="url(#tower-region-32)"/><rect x="349.4" y="173" width="7.199999999999999" height="74" rx="3" fill="#36f3ff" opacity="0.42"/><polygon points="327,163 355,131 383,163" fill="#c8fbff" opacity="0.82"/></g><g opacity="0.9"><rect x="484" y="196" width="31" height="87" rx="5.166666666666667" fill="url(#tower-region-32)"/><rect x="495.16" y="206" width="5.58" height="65" rx="3" fill="#36f3ff" opacity="0.42"/><ellipse cx="499.5" cy="196" rx="22.32" ry="7" fill="#c8fbff" opacity="0.74"/></g><g opacity="0.9"><rect x="633" y="177" width="26" height="82" rx="4.333333333333333" fill="url(#tower-region-32)"/><rect x="642.36" y="187" width="4.68" height="60" rx="3" fill="#36f3ff" opacity="0.42"/><rect x="628" y="168" width="36" height="9" rx="4" fill="#c8fbff" opacity="0.66"/></g><g opacity="0.9"><rect x="782" y="203" width="40" height="80" rx="6.666666666666667" fill="url(#tower-region-32)"/><rect x="796.4" y="213" width="7.199999999999999" height="58" rx="3" fill="#36f3ff" opacity="0.42"/><polygon points="774,203 802,171 830,203" fill="#c8fbff" opacity="0.82"/></g>
  <path d="M0 370 C140 316, 244 422, 390 370 S672 340, 960 390 L960 420 L0 420 Z" fill="#104c64" opacity="0.82"/><path d="M0 388 C144 348, 250 444, 392 392 S690 368, 960 416" fill="none" stroke="#36f3ff" stroke-width="10" opacity="0.36"/>
  <path d="M0 382 H960" stroke="#36f3ff" stroke-width="2" opacity="0.42"/>
  <path d="M201 392 C285 350, 553 410, 806 372" fill="none" stroke="#c8fbff" stroke-width="4" opacity="0.34"/>
  <text x="28" y="40" fill="#c8fbff" font-family="monospace" font-size="18" letter-spacing="5" opacity="0.5">32 NEON CANAL</text>
</svg>