<svg xmlns="http://www.w3.org/2000/svg" viewBox="0 0 960 420" role="img" aria-label="region-11 unique card art">
  <defs>
    <linearGradient id="sky-region-11" x1="0" y1="0" x2="1" y2="1"><stop offset="0" stop-color="#162b45"/><stop offset="0.52" stop-color="#69511c"/><stop offset="1" stop-color="#090812"/></linearGradient>
    <linearGradient id="tower-region-11" x1="0" y1="0" x2="1" y2="1"><stop offset="0" stop-color="#101827"/><stop offset="0.5" stop-color="#69511c"/><stop offset="1" stop-color="#03060c"/></linearGradient>
    <radialGradient id="orb-region-11" cx="50%" cy="50%" r="55%"><stop offset="0" stop-color="#fff0a8"/><stop offset="0.42" stop-color="#ffd85f" stop-opacity="0.62"/><stop offset="1" stop-color="#ffd85f" stop-opacity="0"/></radialGradient>
    <filter id="glow-region-11" x="-20%" y="-20%" width="140%" height="140%"><feGaussianBlur stdDeviation="5" result="b"/><feMerge><feMergeNode in="b"/><feMergeNode in="SourceGraphic"/></feMerge></filter>
  </defs>
  <rect width="960" height="420" fill="url(#sky-region-11)"/>
  <circle cx="560" cy="93" r="54" fill="url(#orb-region-11)" filter="url(#glow-region-11)"/>
  <circle cx="94" cy="70" r="2.1" fill="#ffffff" opacity="0.22"/><circle cx="177" cy="74" r="2.2" fill="#ffffff" opacity="0.22"/><circle cx="260" cy="173" r="0.8" fill="#ffffff" opacity="0.22"/><circle cx="343" cy="71" r="0.9" fill="#ffffff" opacity="0.22"/><circle cx="426" cy="118" r="1.0" fill="#ffffff" opacity="0.22"/><circle cx="509" cy="73" r="1.1" fill="#ffffff" opacity="0.22"/><circle cx="592" cy="65" r="1.1" fill="#ffffff" opacity="0.22"/><circle cx="675" cy="158" r="1.2" fill="#ffffff" opacity="0.22"/><circle cx="758" cy="53" r="1.3" fill="#ffffff" opacity="0.22"/><circle cx="841" cy="98" r="1.4" fill="#ffffff" opacity="0.22"/><circle cx="924" cy="135" r="1.5" fill="#ffffff" opacity="0.22"/><circle cx="95" cy="168" r="1.6" fill="#ffffff" opacity="0.22"/>
  
  <polyline points="0,260 0,295 140,300 280,302 420,268 560,286 700,260 840,282 980,293 960,250 960,420 0,420" fill="#050b14" opacity="0.42"/>
  <polyline points="0,220 0,227 120,242 240,250 360,254 480,217 600,237 720,247 840,213 960,235 960,210 960,420 0,420" fill="#0a1422" opacity="0.48"/>
  <g opacity="0.9"><rect x="212" y="126" width="25" height="118" rx="4.166666666666667" fill="url(#tower-region-11)"/><rect x="221" y="136" width="4.5" height="96" rx="3" fill="#ffd85f" opacity="0.42"/><polygon points="204,126 224.5,94 245,126" fill="#fff1ba" opacity="0.82"/></g><g opacity="0.9"><rect x="361" y="116" width="39" height="152" rx="6.5" fill="url(#tower-region-11)"/><rect x="375.04" y="126" width="7.02" height="130" rx="3" fill="#ffd85f" opacity="0.42"/><ellipse cx="380.5" cy="116" rx="28.08" ry="7" fill="#fff1ba" opacity="0.74"/></g><g opacity="0.9"><rect x="510" y="75" width="46" height="169" rx="7.666666666666667" fill="url(#tower-region-11)"/><rect x="526.56" y="85" width="8.28" height="147" rx="3" fill="#ffd85f" opacity="0.42"/><rect x="505" y="66" width="56" height="9" rx="4" fill="#fff1ba" opacity="0.66"/></g><g opacity="0.9"><rect x="659" y="91" width="50" height="177" rx="8.333333333333334" fill="url(#tower-region-11)"/><rect x="677" y="101" width="9" height="155" rx="3" fill="#ffd85f" opacity="0.42"/><polygon points="651,91 684,59 717,91" fill="#fff1ba" opacity="0.82"/></g>
  <path d="M0 326 C146 256, 290 380, 430 306 S706 250, 960 310 L960 420 L0 420 Z" fill="#6c4b24" opacity="0.86"/><path d="M0 355 C160 318, 300 392, 474 346 S776 318, 960 362" fill="none" stroke="#ffd85f" stroke-width="8" opacity="0.32"/>
  <path d="M0 382 H960" stroke="#ffd85f" stroke-width="2" opacity="0.42"/>
  <path d="M146 392 C360 350, 607 410, 793 372" fill="none" stroke="#fff1ba" stroke-width="4" opacity="0.34"/>
  <text x="28" y="40" fill="#fff1ba" font-family="monospace" font-size="18" letter-spacing="5" opacity="0.5">11 STONE WASTE</text>
</svg>