<svg xmlns="http://www.w3.org/2000/svg" viewBox="0 0 960 420" role="img" aria-label="region-4 unique card art">
  <defs>
    <linearGradient id="sky-region-4" x1="0" y1="0" x2="1" y2="1"><stop offset="0" stop-color="#162b45"/><stop offset="0.52" stop-color="#09566b"/><stop offset="1" stop-color="#090812"/></linearGradient>
    <linearGradient id="tower-region-4" x1="0" y1="0" x2="1" y2="1"><stop offset="0" stop-color="#101827"/><stop offset="0.5" stop-color="#09566b"/><stop offset="1" stop-color="#03060c"/></linearGradient>
    <radialGradient id="orb-region-4" cx="50%" cy="50%" r="55%"><stop offset="0" stop-color="#fff0a8"/><stop offset="0.42" stop-color="#36f3ff" stop-opacity="0.62"/><stop offset="1" stop-color="#36f3ff" stop-opacity="0"/></radialGradient>
    <filter id="glow-region-4" x="-20%" y="-20%" width="140%" height="140%"><feGaussianBlur stdDeviation="5" result="b"/><feMerge><feMergeNode in="b"/><feMergeNode in="SourceGraphic"/></feMerge></filter>
  </defs>
  <rect width="960" height="420" fill="url(#sky-region-4)"/>
  <circle cx="137" cy="107" r="54" fill="url(#orb-region-4)" filter="url(#glow-region-4)"/>
  <circle cx="452" cy="162" r="2.0" fill="#ffffff" opacity="0.22"/><circle cx="535" cy="37" r="2.0" fill="#ffffff" opacity="0.22"/><circle cx="618" cy="155" r="2.1" fill="#ffffff" opacity="0.22"/><circle cx="701" cy="62" r="2.2" fill="#ffffff" opacity="0.22"/><circle cx="784" cy="30" r="0.8" fill="#ffffff" opacity="0.22"/><circle cx="867" cy="29" r="0.9" fill="#ffffff" opacity="0.22"/><circle cx="38" cy="126" r="1.0" fill="#ffffff" opacity="0.22"/><circle cx="121" cy="106" r="1.1" fill="#ffffff" opacity="0.22"/><circle cx="204" cy="27" r="1.1" fill="#ffffff" opacity="0.22"/><circle cx="287" cy="85" r="1.2" fill="#ffffff" opacity="0.22"/><circle cx="370" cy="46" r="1.3" fill="#ffffff" opacity="0.22"/><circle cx="453" cy="124" r="1.4" fill="#ffffff" opacity="0.22"/>
  
  <polyline points="0,260 0,249 140,277 280,256 420,280 560,257 700,281 840,258 980,281 960,250 960,420 0,420" fill="#050b14" opacity="0.42"/>
  <polyline points="0,220 0,245 120,251 240,254 360,256 480,218 600,199 720,189 840,184 960,182 960,210 960,420 0,420" fill="#0a1422" opacity="0.48"/>
  <g opacity="0.9"><rect x="776" y="124" width="28" height="86" rx="4.666666666666667" fill="url(#tower-region-4)"/><rect x="786.08" y="134" width="5.04" height="64" rx="3" fill="#36f3ff" opacity="0.42"/><ellipse cx="790" cy="124" rx="20.16" ry="7" fill="#c8fbff" opacity="0.74"/></g><g opacity="0.9"><rect x="135" y="152" width="25" height="82" rx="4.166666666666667" fill="url(#tower-region-4)"/><rect x="144" y="162" width="4.5" height="60" rx="3" fill="#36f3ff" opacity="0.42"/><rect x="130" y="143" width="35" height="9" rx="4" fill="#c8fbff" opacity="0.66"/></g><g opacity="0.9"><rect x="284" y="130" width="39" height="80" rx="6.5" fill="url(#tower-region-4)"/><rect x="298.04" y="140" width="7.02" height="58" rx="3" fill="#36f3ff" opacity="0.42"/><polygon points="276,130 303.5,98 331,130" fill="#c8fbff" opacity="0.82"/></g><g opacity="0.9"><rect x="433" y="101" width="46" height="133" rx="7.666666666666667" fill="url(#tower-region-4)"/><rect x="449.56" y="111" width="8.28" height="111" rx="3" fill="#36f3ff" opacity="0.42"/><ellipse cx="456" cy="101" rx="33.12" ry="7" fill="#c8fbff" opacity="0.74"/></g><g opacity="0.9"><rect x="582" y="51" width="34" height="159" rx="5.666666666666667" fill="url(#tower-region-4)"/><rect x="594.24" y="61" width="6.12" height="137" rx="3" fill="#36f3ff" opacity="0.42"/><rect x="577" y="42" width="44" height="9" rx="4" fill="#c8fbff" opacity="0.66"/></g>
  <path d="M0 354 C140 300, 244 406, 390 354 S672 324, 960 374 L960 420 L0 420 Z" fill="#104c64" opacity="0.82"/><path d="M0 372 C144 332, 250 428, 392 376 S690 352, 960 400" fill="none" stroke="#36f3ff" stroke-width="10" opacity="0.36"/>
  <path d="M0 382 H960" stroke="#36f3ff" stroke-width="2" opacity="0.42"/>
  <path d="M180 392 C268 350, 611 410, 757 372" fill="none" stroke="#c8fbff" stroke-width="4" opacity="0.34"/>
  <text x="28" y="40" fill="#c8fbff" font-family="monospace" font-size="18" letter-spacing="5" opacity="0.5">04 NEON CANAL</text>
</svg>