<svg xmlns="http://www.w3.org/2000/svg" viewBox="0 0 960 420" role="img" aria-label="region-38 unique card art">
  <defs>
    <linearGradient id="sky-region-38" x1="0" y1="0" x2="1" y2="1"><stop offset="0" stop-color="#162b45"/><stop offset="0.52" stop-color="#1e5a28"/><stop offset="1" stop-color="#090812"/></linearGradient>
    <linearGradient id="tower-region-38" x1="0" y1="0" x2="1" y2="1"><stop offset="0" stop-color="#101827"/><stop offset="0.5" stop-color="#1e5a28"/><stop offset="1" stop-color="#03060c"/></linearGradient>
    <radialGradient id="orb-region-38" cx="50%" cy="50%" r="55%"><stop offset="0" stop-color="#fff0a8"/><stop offset="0.42" stop-color="#8dff72" stop-opacity="0.62"/><stop offset="1" stop-color="#8dff72" stop-opacity="0"/></radialGradient>
    <filter id="glow-region-38" x="-20%" y="-20%" width="140%" height="140%"><feGaussianBlur stdDeviation="5" result="b"/><feMerge><feMergeNode in="b"/><feMergeNode in="SourceGraphic"/></feMerge></filter>
  </defs>
  <rect width="960" height="420" fill="url(#sky-region-38)"/>
  <circle cx="546" cy="153" r="54" fill="url(#orb-region-38)" filter="url(#glow-region-38)"/>
  <circle cx="219" cy="103" r="1.6" fill="#ffffff" opacity="0.22"/><circle cx="302" cy="90" r="1.6" fill="#ffffff" opacity="0.22"/><circle cx="385" cy="98" r="1.7" fill="#ffffff" opacity="0.22"/><circle cx="468" cy="117" r="1.8" fill="#ffffff" opacity="0.22"/><circle cx="551" cy="141" r="1.9" fill="#ffffff" opacity="0.22"/><circle cx="634" cy="167" r="2.0" fill="#ffffff" opacity="0.22"/><circle cx="717" cy="29" r="2.0" fill="#ffffff" opacity="0.22"/><circle cx="800" cy="140" r="2.1" fill="#ffffff" opacity="0.22"/><circle cx="883" cy="44" r="2.2" fill="#ffffff" opacity="0.22"/><circle cx="54" cy="177" r="0.8" fill="#ffffff" opacity="0.22"/><circle cx="137" cy="175" r="0.9" fill="#ffffff" opacity="0.22"/><circle cx="220" cy="105" r="1.0" fill="#ffffff" opacity="0.22"/>
  
  <polyline points="0,260 0,251 140,278 280,256 420,245 560,275 700,290 840,297 980,266 960,250 960,420 0,420" fill="#050b14" opacity="0.42"/>
  <polyline points="0,220 0,228 120,204 240,231 360,244 480,251 600,215 720,236 840,208 960,233 960,210 960,420 0,420" fill="#0a1422" opacity="0.48"/>
  <g opacity="0.9"><rect x="97" y="66" width="31" height="183" rx="5.166666666666667" fill="url(#tower-region-38)"/><rect x="108.16" y="76" width="5.58" height="161" rx="3" fill="#8dff72" opacity="0.42"/><rect x="92" y="57" width="41" height="9" rx="4" fill="#e8ffe3" opacity="0.66"/></g><g opacity="0.9"><rect x="246" y="89" width="42" height="184" rx="7" fill="url(#tower-region-38)"/><rect x="261.12" y="99" width="7.56" height="162" rx="3" fill="#8dff72" opacity="0.42"/><polygon points="238,89 267,57 296,89" fill="#e8ffe3" opacity="0.82"/></g><g opacity="0.9"><rect x="395" y="64" width="48" height="185" rx="8" fill="url(#tower-region-38)"/><rect x="412.28" y="74" width="8.64" height="163" rx="3" fill="#8dff72" opacity="0.42"/><ellipse cx="419" cy="64" rx="34.56" ry="7" fill="#e8ffe3" opacity="0.74"/></g>
  <path d="M0 330 C105 275, 162 316, 260 274 S430 332, 552 282 S760 310, 960 256 L960 420 L0 420 Z" fill="#173d23" opacity="0.84"/><g opacity="0.68"><circle cx="571" cy="353" r="15" fill="#8dff72"/><circle cx="638" cy="315" r="26" fill="#b7ff91"/><circle cx="705" cy="296" r="13" fill="#b7ff91"/><circle cx="772" cy="328" r="24" fill="#8dff72"/><circle cx="839" cy="303" r="35" fill="#b7ff91"/><circle cx="906" cy="290" r="22" fill="#b7ff91"/><circle cx="93" cy="325" r="33" fill="#8dff72"/><circle cx="160" cy="301" r="20" fill="#b7ff91"/><circle cx="227" cy="330" r="31" fill="#b7ff91"/><circle cx="294" cy="304" r="18" fill="#8dff72"/><circle cx="361" cy="291" r="29" fill="#b7ff91"/><circle cx="428" cy="284" r="16" fill="#b7ff91"/><circle cx="495" cy="353" r="27" fill="#8dff72"/><circle cx="562" cy="315" r="14" fill="#b7ff91"/></g>
  <path d="M0 382 H960" stroke="#8dff72" stroke-width="2" opacity="0.42"/>
  <path d="M211 392 C273 350, 561 410, 808 372" fill="none" stroke="#e8ffe3" stroke-width="4" opacity="0.34"/>
  <text x="28" y="40" fill="#e8ffe3" font-family="monospace" font-size="18" letter-spacing="5" opacity="0.5">38 MYCEL FOREST</text>
</svg>