<svg xmlns="http://www.w3.org/2000/svg" viewBox="0 0 960 420" role="img" aria-label="region-27 unique card art">
  <defs>
    <linearGradient id="sky-region-27" x1="0" y1="0" x2="1" y2="1"><stop offset="0" stop-color="#071126"/><stop offset="0.52" stop-color="#69511c"/><stop offset="1" stop-color="#090812"/></linearGradient>
    <linearGradient id="tower-region-27" x1="0" y1="0" x2="1" y2="1"><stop offset="0" stop-color="#101827"/><stop offset="0.5" stop-color="#69511c"/><stop offset="1" stop-color="#03060c"/></linearGradient>
    <radialGradient id="orb-region-27" cx="50%" cy="50%" r="55%"><stop offset="0" stop-color="#d9dfff"/><stop offset="0.42" stop-color="#ffd85f" stop-opacity="0.62"/><stop offset="1" stop-color="#ffd85f" stop-opacity="0"/></radialGradient>
    <filter id="glow-region-27" x="-20%" y="-20%" width="140%" height="140%"><feGaussianBlur stdDeviation="5" result="b"/><feMerge><feMergeNode in="b"/><feMergeNode in="SourceGraphic"/></feMerge></filter>
  </defs>
  <rect width="960" height="420" fill="url(#sky-region-27)"/>
  <circle cx="632" cy="135" r="38" fill="url(#orb-region-27)" filter="url(#glow-region-27)"/>
  <circle cx="379" cy="87" r="1.9" fill="#ffffff" opacity="0.72"/><circle cx="462" cy="82" r="2.0" fill="#ffffff" opacity="0.72"/><circle cx="545" cy="94" r="2.0" fill="#ffffff" opacity="0.72"/><circle cx="628" cy="115" r="2.1" fill="#ffffff" opacity="0.72"/><circle cx="711" cy="140" r="2.2" fill="#ffffff" opacity="0.72"/><circle cx="794" cy="167" r="0.8" fill="#ffffff" opacity="0.72"/><circle cx="877" cy="112" r="0.9" fill="#ffffff" opacity="0.72"/><circle cx="48" cy="182" r="1.0" fill="#ffffff" opacity="0.72"/><circle cx="131" cy="65" r="1.1" fill="#ffffff" opacity="0.72"/><circle cx="214" cy="21" r="1.1" fill="#ffffff" opacity="0.72"/><circle cx="297" cy="180" r="1.2" fill="#ffffff" opacity="0.72"/><circle cx="380" cy="25" r="1.3" fill="#ffffff" opacity="0.72"/><circle cx="463" cy="45" r="1.4" fill="#ffffff" opacity="0.72"/><circle cx="546" cy="69" r="1.5" fill="#ffffff" opacity="0.72"/><circle cx="629" cy="179" r="1.6" fill="#ffffff" opacity="0.72"/><circle cx="712" cy="165" r="1.6" fill="#ffffff" opacity="0.72"/><circle cx="795" cy="53" r="1.7" fill="#ffffff" opacity="0.72"/><circle cx="878" cy="48" r="1.8" fill="#ffffff" opacity="0.72"/><circle cx="49" cy="60" r="1.9" fill="#ffffff" opacity="0.72"/><circle cx="132" cy="81" r="2.0" fill="#ffffff" opacity="0.72"/><circle cx="215" cy="106" r="2.0" fill="#ffffff" opacity="0.72"/><circle cx="298" cy="133" r="2.1" fill="#ffffff" opacity="0.72"/><circle cx="381" cy="78" r="2.2" fill="#ffffff" opacity="0.72"/><circle cx="464" cy="148" r="0.8" fill="#ffffff" opacity="0.72"/><circle cx="547" cy="31" r="0.9" fill="#ffffff" opacity="0.72"/><circle cx="630" cy="153" r="1.0" fill="#ffffff" opacity="0.72"/><circle cx="713" cy="146" r="1.1" fill="#ffffff" opacity="0.72"/><circle cx="796" cy="157" r="1.1" fill="#ffffff" opacity="0.72"/><circle cx="879" cy="177" r="1.2" fill="#ffffff" opacity="0.72"/><circle cx="50" cy="35" r="1.3" fill="#ffffff" opacity="0.72"/><circle cx="133" cy="145" r="1.4" fill="#ffffff" opacity="0.72"/><circle cx="216" cy="131" r="1.5" fill="#ffffff" opacity="0.72"/><circle cx="299" cy="185" r="1.6" fill="#ffffff" opacity="0.72"/><circle cx="382" cy="180" r="1.6" fill="#ffffff" opacity="0.72"/>
  
  <polyline points="0,260 0,273 140,289 280,262 420,248 560,241 700,273 840,289 980,262 960,250 960,420 0,420" fill="#050b14" opacity="0.42"/>
  <polyline points="0,220 0,250 120,254 240,256 360,218 480,238 600,209 720,233 840,206 960,232 960,210 960,420 0,420" fill="#0a1422" opacity="0.48"/>
  <g opacity="0.9"><rect x="355" y="151" width="23" height="82" rx="4" fill="url(#tower-region-27)"/><rect x="363.28" y="161" width="4.14" height="60" rx="3" fill="#ffd85f" opacity="0.42"/><polygon points="347,151 366.5,119 386,151" fill="#fff1ba" opacity="0.82"/></g><g opacity="0.9"><rect x="504" y="123" width="22" height="134" rx="4" fill="url(#tower-region-27)"/><rect x="511.92" y="133" width="4" height="112" rx="3" fill="#ffd85f" opacity="0.42"/><ellipse cx="515" cy="123" rx="15.84" ry="7" fill="#fff1ba" opacity="0.74"/></g><g opacity="0.9"><rect x="653" y="73" width="38" height="160" rx="6.333333333333333" fill="url(#tower-region-27)"/><rect x="666.68" y="83" width="6.84" height="138" rx="3" fill="#ffd85f" opacity="0.42"/><rect x="648" y="64" width="48" height="9" rx="4" fill="#fff1ba" opacity="0.66"/></g><g opacity="0.9"><rect x="802" y="84" width="46" height="173" rx="7.666666666666667" fill="url(#tower-region-27)"/><rect x="818.56" y="94" width="8.28" height="151" rx="3" fill="#ffd85f" opacity="0.42"/><polygon points="794,84 825,52 856,84" fill="#fff1ba" opacity="0.82"/></g>
  <path d="M0 326 C146 256, 290 380, 430 306 S706 250, 960 310 L960 420 L0 420 Z" fill="#6c4b24" opacity="0.86"/><path d="M0 355 C160 318, 300 392, 474 346 S776 318, 960 362" fill="none" stroke="#ffd85f" stroke-width="8" opacity="0.32"/>
  <path d="M0 382 H960" stroke="#ffd85f" stroke-width="2" opacity="0.42"/>
  <path d="M179 392 C316 350, 627 410, 816 372" fill="none" stroke="#fff1ba" stroke-width="4" opacity="0.34"/>
  <text x="28" y="40" fill="#fff1ba" font-family="monospace" font-size="18" letter-spacing="5" opacity="0.5">27 STONE WASTE</text>
</svg>