<svg xmlns="http://www.w3.org/2000/svg" viewBox="0 0 960 420" role="img" aria-label="region-52 unique card art">
  <defs>
    <linearGradient id="sky-region-52" x1="0" y1="0" x2="1" y2="1"><stop offset="0" stop-color="#162b45"/><stop offset="0.52" stop-color="#09566b"/><stop offset="1" stop-color="#090812"/></linearGradient>
    <linearGradient id="tower-region-52" x1="0" y1="0" x2="1" y2="1"><stop offset="0" stop-color="#101827"/><stop offset="0.5" stop-color="#09566b"/><stop offset="1" stop-color="#03060c"/></linearGradient>
    <radialGradient id="orb-region-52" cx="50%" cy="50%" r="55%"><stop offset="0" stop-color="#fff0a8"/><stop offset="0.42" stop-color="#36f3ff" stop-opacity="0.62"/><stop offset="1" stop-color="#36f3ff" stop-opacity="0"/></radialGradient>
    <filter id="glow-region-52" x="-20%" y="-20%" width="140%" height="140%"><feGaussianBlur stdDeviation="5" result="b"/><feMerge><feMergeNode in="b"/><feMergeNode in="SourceGraphic"/></feMerge></filter>
  </defs>
  <rect width="960" height="420" fill="url(#sky-region-52)"/>
  <circle cx="594" cy="107" r="54" fill="url(#orb-region-52)" filter="url(#glow-region-52)"/>
  <circle cx="559" cy="167" r="0.9" fill="#ffffff" opacity="0.22"/><circle cx="642" cy="122" r="1.0" fill="#ffffff" opacity="0.22"/><circle cx="725" cy="31" r="1.1" fill="#ffffff" opacity="0.22"/><circle cx="808" cy="83" r="1.1" fill="#ffffff" opacity="0.22"/><circle cx="891" cy="41" r="1.2" fill="#ffffff" opacity="0.22"/><circle cx="62" cy="117" r="1.3" fill="#ffffff" opacity="0.22"/><circle cx="145" cy="87" r="1.4" fill="#ffffff" opacity="0.22"/><circle cx="228" cy="86" r="1.5" fill="#ffffff" opacity="0.22"/><circle cx="311" cy="183" r="1.6" fill="#ffffff" opacity="0.22"/><circle cx="394" cy="80" r="1.6" fill="#ffffff" opacity="0.22"/><circle cx="477" cy="43" r="1.7" fill="#ffffff" opacity="0.22"/><circle cx="560" cy="39" r="1.8" fill="#ffffff" opacity="0.22"/>
  
  <polyline points="0,260 0,283 140,294 280,264 420,284 560,294 700,264 840,249 980,242 960,250 960,420 0,420" fill="#050b14" opacity="0.42"/>
  <polyline points="0,220 0,181 120,180 240,219 360,238 480,209 600,233 720,245 840,251 960,215 960,210 960,420 0,420" fill="#0a1422" opacity="0.48"/>
  <g opacity="0.9"><rect x="745" y="118" width="33" height="99" rx="5.5" fill="url(#tower-region-52)"/><rect x="756.88" y="128" width="5.9399999999999995" height="77" rx="3" fill="#36f3ff" opacity="0.42"/><polygon points="737,118 761.5,86 786,118" fill="#c8fbff" opacity="0.82"/></g><g opacity="0.9"><rect x="104" y="153" width="43" height="88" rx="7.166666666666667" fill="url(#tower-region-52)"/><rect x="119.48" y="163" width="7.739999999999999" height="66" rx="3" fill="#36f3ff" opacity="0.42"/><ellipse cx="125.5" cy="153" rx="30.959999999999997" ry="7" fill="#c8fbff" opacity="0.74"/></g><g opacity="0.9"><rect x="253" y="80" width="48" height="137" rx="8" fill="url(#tower-region-52)"/><rect x="270.28" y="90" width="8.64" height="115" rx="3" fill="#36f3ff" opacity="0.42"/><rect x="248" y="71" width="58" height="9" rx="4" fill="#c8fbff" opacity="0.66"/></g><g opacity="0.9"><rect x="402" y="80" width="51" height="161" rx="8.5" fill="url(#tower-region-52)"/><rect x="420.36" y="90" width="9.18" height="139" rx="3" fill="#36f3ff" opacity="0.42"/><polygon points="394,80 427.5,48 461,80" fill="#c8fbff" opacity="0.82"/></g><g opacity="0.9"><rect x="551" y="44" width="52" height="173" rx="8.666666666666666" fill="url(#tower-region-52)"/><rect x="569.72" y="54" width="9.36" height="151" rx="3" fill="#36f3ff" opacity="0.42"/><ellipse cx="577" cy="44" rx="37.44" ry="7" fill="#c8fbff" opacity="0.74"/></g><g opacity="0.9"><rect x="700" y="116" width="53" height="125" rx="8.833333333333334" fill="url(#tower-region-52)"/><rect x="719.08" y="126" width="9.54" height="103" rx="3" fill="#36f3ff" opacity="0.42"/><rect x="695" y="107" width="63" height="9" rx="4" fill="#c8fbff" opacity="0.66"/></g><g opacity="0.9"><rect x="59" y="62" width="37" height="155" rx="6.166666666666667" fill="url(#tower-region-52)"/><rect x="72.32" y="72" width="6.66" height="133" rx="3" fill="#36f3ff" opacity="0.42"/><polygon points="51,62 77.5,30 104,62" fill="#c8fbff" opacity="0.82"/></g>
  <path d="M0 336 C140 282, 244 388, 390 336 S672 306, 960 356 L960 420 L0 420 Z" fill="#104c64" opacity="0.82"/><path d="M0 354 C144 314, 250 410, 392 358 S690 334, 960 382" fill="none" stroke="#36f3ff" stroke-width="10" opacity="0.36"/>
  <path d="M0 382 H960" stroke="#36f3ff" stroke-width="2" opacity="0.42"/>
  <path d="M59 392 C337 350, 639 410, 796 372" fill="none" stroke="#c8fbff" stroke-width="4" opacity="0.34"/>
  <text x="28" y="40" fill="#c8fbff" font-family="monospace" font-size="18" letter-spacing="5" opacity="0.5">52 NEON CANAL</text>
</svg>