<svg xmlns="http://www.w3.org/2000/svg" viewBox="0 0 960 420" role="img" aria-label="region-60 unique card art">
  <defs>
    <linearGradient id="sky-region-60" x1="0" y1="0" x2="1" y2="1"><stop offset="0" stop-color="#071126"/><stop offset="0.52" stop-color="#09566b"/><stop offset="1" stop-color="#090812"/></linearGradient>
    <linearGradient id="tower-region-60" x1="0" y1="0" x2="1" y2="1"><stop offset="0" stop-color="#101827"/><stop offset="0.5" stop-color="#09566b"/><stop offset="1" stop-color="#03060c"/></linearGradient>
    <radialGradient id="orb-region-60" cx="50%" cy="50%" r="55%"><stop offset="0" stop-color="#d9dfff"/><stop offset="0.42" stop-color="#36f3ff" stop-opacity="0.62"/><stop offset="1" stop-color="#36f3ff" stop-opacity="0"/></radialGradient>
    <filter id="glow-region-60" x="-20%" y="-20%" width="140%" height="140%"><feGaussianBlur stdDeviation="5" result="b"/><feMerge><feMergeNode in="b"/><feMergeNode in="SourceGraphic"/></feMerge></filter>
  </defs>
  <rect width="960" height="420" fill="url(#sky-region-60)"/>
  <circle cx="444" cy="153" r="38" fill="url(#orb-region-60)" filter="url(#glow-region-60)"/>
  <circle cx="558" cy="44" r="1.3" fill="#ffffff" opacity="0.72"/><circle cx="641" cy="144" r="1.4" fill="#ffffff" opacity="0.72"/><circle cx="724" cy="125" r="1.5" fill="#ffffff" opacity="0.72"/><circle cx="807" cy="47" r="1.6" fill="#ffffff" opacity="0.72"/><circle cx="890" cy="106" r="1.6" fill="#ffffff" opacity="0.72"/><circle cx="61" cy="150" r="1.7" fill="#ffffff" opacity="0.72"/><circle cx="144" cy="20" r="1.8" fill="#ffffff" opacity="0.72"/><circle cx="227" cy="136" r="1.9" fill="#ffffff" opacity="0.72"/><circle cx="310" cy="42" r="2.0" fill="#ffffff" opacity="0.72"/><circle cx="393" cy="93" r="2.0" fill="#ffffff" opacity="0.72"/><circle cx="476" cy="50" r="2.1" fill="#ffffff" opacity="0.72"/><circle cx="559" cy="43" r="2.2" fill="#ffffff" opacity="0.72"/><circle cx="642" cy="137" r="0.8" fill="#ffffff" opacity="0.72"/><circle cx="725" cy="115" r="0.9" fill="#ffffff" opacity="0.72"/><circle cx="808" cy="36" r="1.0" fill="#ffffff" opacity="0.72"/><circle cx="891" cy="177" r="1.1" fill="#ffffff" opacity="0.72"/><circle cx="62" cy="176" r="1.1" fill="#ffffff" opacity="0.72"/><circle cx="145" cy="110" r="1.2" fill="#ffffff" opacity="0.72"/><circle cx="228" cy="91" r="1.3" fill="#ffffff" opacity="0.72"/><circle cx="311" cy="179" r="1.4" fill="#ffffff" opacity="0.72"/><circle cx="394" cy="72" r="1.5" fill="#ffffff" opacity="0.72"/><circle cx="477" cy="116" r="1.6" fill="#ffffff" opacity="0.72"/><circle cx="560" cy="152" r="1.6" fill="#ffffff" opacity="0.72"/><circle cx="643" cy="102" r="1.7" fill="#ffffff" opacity="0.72"/><circle cx="726" cy="174" r="1.8" fill="#ffffff" opacity="0.72"/><circle cx="809" cy="59" r="1.9" fill="#ffffff" opacity="0.72"/><circle cx="892" cy="182" r="2.0" fill="#ffffff" opacity="0.72"/><circle cx="63" cy="175" r="2.0" fill="#ffffff" opacity="0.72"/><circle cx="146" cy="103" r="2.1" fill="#ffffff" opacity="0.72"/><circle cx="229" cy="81" r="2.2" fill="#ffffff" opacity="0.72"/><circle cx="312" cy="168" r="0.8" fill="#ffffff" opacity="0.72"/><circle cx="395" cy="143" r="0.9" fill="#ffffff" opacity="0.72"/><circle cx="478" cy="142" r="1.0" fill="#ffffff" opacity="0.72"/><circle cx="561" cy="76" r="1.1" fill="#ffffff" opacity="0.72"/>
  
  <polyline points="0,260 0,246 140,275 280,290 420,297 560,301 700,303 840,269 980,252 960,250 960,420 0,420" fill="#050b14" opacity="0.42"/>
  <polyline points="0,220 0,211 120,234 240,246 360,213 480,196 600,227 720,242 840,250 960,254 960,210 960,420 0,420" fill="#0a1422" opacity="0.48"/>
  <g opacity="0.9"><rect x="254" y="64" width="41" height="168" rx="6.833333333333333" fill="url(#tower-region-60)"/><rect x="268.76" y="74" width="7.38" height="146" rx="3" fill="#36f3ff" opacity="0.42"/><rect x="249" y="55" width="51" height="9" rx="4" fill="#c8fbff" opacity="0.66"/></g><g opacity="0.9"><rect x="403" y="133" width="31" height="123" rx="5.166666666666667" fill="url(#tower-region-60)"/><rect x="414.16" y="143" width="5.58" height="101" rx="3" fill="#36f3ff" opacity="0.42"/><polygon points="395,133 418.5,101 442,133" fill="#c8fbff" opacity="0.82"/></g><g opacity="0.9"><rect x="552" y="132" width="42" height="100" rx="7" fill="url(#tower-region-60)"/><rect x="567.12" y="142" width="7.56" height="78" rx="3" fill="#36f3ff" opacity="0.42"/><ellipse cx="573" cy="132" rx="30.24" ry="7" fill="#c8fbff" opacity="0.74"/></g><g opacity="0.9"><rect x="701" y="113" width="32" height="143" rx="5.333333333333333" fill="url(#tower-region-60)"/><rect x="712.52" y="123" width="5.76" height="121" rx="3" fill="#36f3ff" opacity="0.42"/><rect x="696" y="104" width="42" height="9" rx="4" fill="#c8fbff" opacity="0.66"/></g>
  <path d="M0 363 C140 309, 244 415, 390 363 S672 333, 960 383 L960 420 L0 420 Z" fill="#104c64" opacity="0.82"/><path d="M0 381 C144 341, 250 437, 392 385 S690 361, 960 409" fill="none" stroke="#36f3ff" stroke-width="10" opacity="0.36"/>
  <path d="M0 382 H960" stroke="#36f3ff" stroke-width="2" opacity="0.42"/>
  <path d="M118 392 C262 350, 585 410, 856 372" fill="none" stroke="#c8fbff" stroke-width="4" opacity="0.34"/>
  <text x="28" y="40" fill="#c8fbff" font-family="monospace" font-size="18" letter-spacing="5" opacity="0.5">60 NEON CANAL</text>
</svg>