<svg xmlns="http://www.w3.org/2000/svg" viewBox="0 0 960 420" role="img" aria-label="region-40 unique card art">
  <defs>
    <linearGradient id="sky-region-40" x1="0" y1="0" x2="1" y2="1"><stop offset="0" stop-color="#162b45"/><stop offset="0.52" stop-color="#09566b"/><stop offset="1" stop-color="#090812"/></linearGradient>
    <linearGradient id="tower-region-40" x1="0" y1="0" x2="1" y2="1"><stop offset="0" stop-color="#101827"/><stop offset="0.5" stop-color="#09566b"/><stop offset="1" stop-color="#03060c"/></linearGradient>
    <radialGradient id="orb-region-40" cx="50%" cy="50%" r="55%"><stop offset="0" stop-color="#fff0a8"/><stop offset="0.42" stop-color="#36f3ff" stop-opacity="0.62"/><stop offset="1" stop-color="#36f3ff" stop-opacity="0"/></radialGradient>
    <filter id="glow-region-40" x="-20%" y="-20%" width="140%" height="140%"><feGaussianBlur stdDeviation="5" result="b"/><feMerge><feMergeNode in="b"/><feMergeNode in="SourceGraphic"/></feMerge></filter>
  </defs>
  <rect width="960" height="420" fill="url(#sky-region-40)"/>
  <circle cx="838" cy="111" r="54" fill="url(#orb-region-40)" filter="url(#glow-region-40)"/>
  <circle cx="252" cy="152" r="1.3" fill="#ffffff" opacity="0.22"/><circle cx="335" cy="115" r="1.4" fill="#ffffff" opacity="0.22"/><circle cx="418" cy="111" r="1.5" fill="#ffffff" opacity="0.22"/><circle cx="501" cy="123" r="1.6" fill="#ffffff" opacity="0.22"/><circle cx="584" cy="61" r="1.6" fill="#ffffff" opacity="0.22"/><circle cx="667" cy="44" r="1.7" fill="#ffffff" opacity="0.22"/><circle cx="750" cy="133" r="1.8" fill="#ffffff" opacity="0.22"/><circle cx="833" cy="26" r="1.9" fill="#ffffff" opacity="0.22"/><circle cx="916" cy="70" r="2.0" fill="#ffffff" opacity="0.22"/><circle cx="87" cy="24" r="2.0" fill="#ffffff" opacity="0.22"/><circle cx="170" cy="98" r="2.1" fill="#ffffff" opacity="0.22"/><circle cx="253" cy="67" r="2.2" fill="#ffffff" opacity="0.22"/>
  
  <polyline points="0,260 0,304 140,304 280,304 420,269 560,252 700,243 840,239 980,272 960,250 960,420 0,420" fill="#050b14" opacity="0.42"/>
  <polyline points="0,220 0,249 120,214 240,197 360,227 480,203 600,191 720,224 840,241 960,210 960,210 960,420 0,420" fill="#0a1422" opacity="0.48"/>
  <g opacity="0.9"><rect x="614" y="41" width="48" height="185" rx="8" fill="url(#tower-region-40)"/><rect x="631.28" y="51" width="8.64" height="163" rx="3" fill="#36f3ff" opacity="0.42"/><rect x="609" y="32" width="58" height="9" rx="4" fill="#c8fbff" opacity="0.66"/></g><g opacity="0.9"><rect x="763" y="65" width="51" height="185" rx="8.5" fill="url(#tower-region-40)"/><rect x="781.36" y="75" width="9.18" height="163" rx="3" fill="#36f3ff" opacity="0.42"/><polygon points="755,65 788.5,33 822,65" fill="#c8fbff" opacity="0.82"/></g><g opacity="0.9"><rect x="122" y="41" width="52" height="185" rx="8.666666666666666" fill="url(#tower-region-40)"/><rect x="140.72" y="51" width="9.36" height="163" rx="3" fill="#36f3ff" opacity="0.42"/><ellipse cx="148" cy="41" rx="37.44" ry="7" fill="#c8fbff" opacity="0.74"/></g><g opacity="0.9"><rect x="271" y="119" width="37" height="131" rx="6.166666666666667" fill="url(#tower-region-40)"/><rect x="284.32" y="129" width="6.66" height="109" rx="3" fill="#36f3ff" opacity="0.42"/><rect x="266" y="110" width="47" height="9" rx="4" fill="#c8fbff" opacity="0.66"/></g><g opacity="0.9"><rect x="420" y="122" width="45" height="104" rx="7.5" fill="url(#tower-region-40)"/><rect x="436.2" y="132" width="8.1" height="82" rx="3" fill="#36f3ff" opacity="0.42"/><polygon points="412,122 442.5,90 473,122" fill="#c8fbff" opacity="0.82"/></g>
  <path d="M0 377 C140 323, 244 429, 390 377 S672 347, 960 397 L960 420 L0 420 Z" fill="#104c64" opacity="0.82"/><path d="M0 395 C144 355, 250 451, 392 399 S690 375, 960 423" fill="none" stroke="#36f3ff" stroke-width="10" opacity="0.36"/>
  <path d="M0 382 H960" stroke="#36f3ff" stroke-width="2" opacity="0.42"/>
  <path d="M208 392 C379 350, 549 410, 836 372" fill="none" stroke="#c8fbff" stroke-width="4" opacity="0.34"/>
  <text x="28" y="40" fill="#c8fbff" font-family="monospace" font-size="18" letter-spacing="5" opacity="0.5">40 NEON CANAL</text>
</svg>