<svg xmlns="http://www.w3.org/2000/svg" viewBox="0 0 960 420" role="img" aria-label="region-36 unique card art">
  <defs>
    <linearGradient id="sky-region-36" x1="0" y1="0" x2="1" y2="1"><stop offset="0" stop-color="#071126"/><stop offset="0.52" stop-color="#09566b"/><stop offset="1" stop-color="#090812"/></linearGradient>
    <linearGradient id="tower-region-36" x1="0" y1="0" x2="1" y2="1"><stop offset="0" stop-color="#101827"/><stop offset="0.5" stop-color="#09566b"/><stop offset="1" stop-color="#03060c"/></linearGradient>
    <radialGradient id="orb-region-36" cx="50%" cy="50%" r="55%"><stop offset="0" stop-color="#d9dfff"/><stop offset="0.42" stop-color="#36f3ff" stop-opacity="0.62"/><stop offset="1" stop-color="#36f3ff" stop-opacity="0"/></radialGradient>
    <filter id="glow-region-36" x="-20%" y="-20%" width="140%" height="140%"><feGaussianBlur stdDeviation="5" result="b"/><feMerge><feMergeNode in="b"/><feMergeNode in="SourceGraphic"/></feMerge></filter>
  </defs>
  <rect width="960" height="420" fill="url(#sky-region-36)"/>
  <circle cx="499" cy="69" r="38" fill="url(#orb-region-36)" filter="url(#glow-region-36)"/>
  <circle cx="373" cy="89" r="1.9" fill="#ffffff" opacity="0.72"/><circle cx="456" cy="83" r="2.0" fill="#ffffff" opacity="0.72"/><circle cx="539" cy="95" r="2.0" fill="#ffffff" opacity="0.72"/><circle cx="622" cy="32" r="2.1" fill="#ffffff" opacity="0.72"/><circle cx="705" cy="181" r="2.2" fill="#ffffff" opacity="0.72"/><circle cx="788" cy="21" r="0.8" fill="#ffffff" opacity="0.72"/><circle cx="871" cy="39" r="0.9" fill="#ffffff" opacity="0.72"/><circle cx="42" cy="62" r="1.0" fill="#ffffff" opacity="0.72"/><circle cx="125" cy="88" r="1.1" fill="#ffffff" opacity="0.72"/><circle cx="208" cy="116" r="1.1" fill="#ffffff" opacity="0.72"/><circle cx="291" cy="144" r="1.2" fill="#ffffff" opacity="0.72"/><circle cx="374" cy="90" r="1.3" fill="#ffffff" opacity="0.72"/><circle cx="457" cy="160" r="1.4" fill="#ffffff" opacity="0.72"/><circle cx="540" cy="44" r="1.5" fill="#ffffff" opacity="0.72"/><circle cx="623" cy="166" r="1.6" fill="#ffffff" opacity="0.72"/><circle cx="706" cy="76" r="1.6" fill="#ffffff" opacity="0.72"/><circle cx="789" cy="55" r="1.7" fill="#ffffff" opacity="0.72"/><circle cx="872" cy="49" r="1.8" fill="#ffffff" opacity="0.72"/><circle cx="43" cy="61" r="1.9" fill="#ffffff" opacity="0.72"/><circle cx="126" cy="164" r="2.0" fill="#ffffff" opacity="0.72"/><circle cx="209" cy="147" r="2.0" fill="#ffffff" opacity="0.72"/><circle cx="292" cy="153" r="2.1" fill="#ffffff" opacity="0.72"/><circle cx="375" cy="171" r="2.2" fill="#ffffff" opacity="0.72"/><circle cx="458" cy="28" r="0.8" fill="#ffffff" opacity="0.72"/><circle cx="541" cy="54" r="0.9" fill="#ffffff" opacity="0.72"/><circle cx="624" cy="82" r="1.0" fill="#ffffff" opacity="0.72"/><circle cx="707" cy="110" r="1.1" fill="#ffffff" opacity="0.72"/><circle cx="790" cy="56" r="1.1" fill="#ffffff" opacity="0.72"/><circle cx="873" cy="126" r="1.2" fill="#ffffff" opacity="0.72"/><circle cx="44" cy="176" r="1.3" fill="#ffffff" opacity="0.72"/><circle cx="127" cy="132" r="1.4" fill="#ffffff" opacity="0.72"/><circle cx="210" cy="42" r="1.5" fill="#ffffff" opacity="0.72"/><circle cx="293" cy="21" r="1.6" fill="#ffffff" opacity="0.72"/><circle cx="376" cy="181" r="1.6" fill="#ffffff" opacity="0.72"/>
  
  <polyline points="0,260 0,259 140,282 280,258 420,281 560,258 700,281 840,258 980,281 960,250 960,420 0,420" fill="#050b14" opacity="0.42"/>
  <polyline points="0,220 0,219 120,199 240,189 360,184 480,221 600,239 720,248 840,253 960,216 960,210 960,420 0,420" fill="#0a1422" opacity="0.48"/>
  <g opacity="0.9"><rect x="803" y="52" width="36" height="159" rx="6" fill="url(#tower-region-36)"/><rect x="815.96" y="62" width="6.4799999999999995" height="137" rx="3" fill="#36f3ff" opacity="0.42"/><polygon points="795,52 821,20 847,52" fill="#c8fbff" opacity="0.82"/></g><g opacity="0.9"><rect x="162" y="63" width="45" height="172" rx="7.5" fill="url(#tower-region-36)"/><rect x="178.2" y="73" width="8.1" height="150" rx="3" fill="#36f3ff" opacity="0.42"/><ellipse cx="184.5" cy="63" rx="32.4" ry="7" fill="#c8fbff" opacity="0.74"/></g><g opacity="0.9"><rect x="311" y="86" width="49" height="125" rx="8.166666666666666" fill="url(#tower-region-36)"/><rect x="328.64" y="96" width="8.82" height="103" rx="3" fill="#36f3ff" opacity="0.42"/><rect x="306" y="77" width="59" height="9" rx="4" fill="#c8fbff" opacity="0.66"/></g><g opacity="0.9"><rect x="460" y="80" width="35" height="155" rx="5.833333333333333" fill="url(#tower-region-36)"/><rect x="472.6" y="90" width="6.3" height="133" rx="3" fill="#36f3ff" opacity="0.42"/><polygon points="452,80 477.5,48 503,80" fill="#c8fbff" opacity="0.82"/></g><g opacity="0.9"><rect x="609" y="95" width="44" height="116" rx="7.333333333333333" fill="url(#tower-region-36)"/><rect x="624.84" y="105" width="7.92" height="94" rx="3" fill="#36f3ff" opacity="0.42"/><ellipse cx="631" cy="95" rx="31.68" ry="7" fill="#c8fbff" opacity="0.74"/></g><g opacity="0.9"><rect x="758" y="84" width="33" height="151" rx="5.5" fill="url(#tower-region-36)"/><rect x="769.88" y="94" width="5.9399999999999995" height="129" rx="3" fill="#36f3ff" opacity="0.42"/><rect x="753" y="75" width="43" height="9" rx="4" fill="#c8fbff" opacity="0.66"/></g>
  <path d="M0 360 C140 306, 244 412, 390 360 S672 330, 960 380 L960 420 L0 420 Z" fill="#104c64" opacity="0.82"/><path d="M0 378 C144 338, 250 434, 392 382 S690 358, 960 406" fill="none" stroke="#36f3ff" stroke-width="10" opacity="0.36"/>
  <path d="M0 382 H960" stroke="#36f3ff" stroke-width="2" opacity="0.42"/>
  <path d="M197 392 C289 350, 573 410, 837 372" fill="none" stroke="#c8fbff" stroke-width="4" opacity="0.34"/>
  <text x="28" y="40" fill="#c8fbff" font-family="monospace" font-size="18" letter-spacing="5" opacity="0.5">36 NEON CANAL</text>
</svg>