<svg xmlns="http://www.w3.org/2000/svg" viewBox="0 0 960 420" role="img" aria-label="region-18 unique card art">
  <defs>
    <linearGradient id="sky-region-18" x1="0" y1="0" x2="1" y2="1"><stop offset="0" stop-color="#071126"/><stop offset="0.52" stop-color="#1e5a28"/><stop offset="1" stop-color="#090812"/></linearGradient>
    <linearGradient id="tower-region-18" x1="0" y1="0" x2="1" y2="1"><stop offset="0" stop-color="#101827"/><stop offset="0.5" stop-color="#1e5a28"/><stop offset="1" stop-color="#03060c"/></linearGradient>
    <radialGradient id="orb-region-18" cx="50%" cy="50%" r="55%"><stop offset="0" stop-color="#d9dfff"/><stop offset="0.42" stop-color="#8dff72" stop-opacity="0.62"/><stop offset="1" stop-color="#8dff72" stop-opacity="0"/></radialGradient>
    <filter id="glow-region-18" x="-20%" y="-20%" width="140%" height="140%"><feGaussianBlur stdDeviation="5" result="b"/><feMerge><feMergeNode in="b"/><feMergeNode in="SourceGraphic"/></feMerge></filter>
  </defs>
  <rect width="960" height="420" fill="url(#sky-region-18)"/>
  <circle cx="582" cy="123" r="38" fill="url(#orb-region-18)" filter="url(#glow-region-18)"/>
  <circle cx="649" cy="61" r="1.4" fill="#ffffff" opacity="0.72"/><circle cx="732" cy="69" r="1.5" fill="#ffffff" opacity="0.72"/><circle cx="815" cy="88" r="1.6" fill="#ffffff" opacity="0.72"/><circle cx="898" cy="29" r="1.6" fill="#ffffff" opacity="0.72"/><circle cx="69" cy="97" r="1.7" fill="#ffffff" opacity="0.72"/><circle cx="152" cy="62" r="1.8" fill="#ffffff" opacity="0.72"/><circle cx="235" cy="59" r="1.9" fill="#ffffff" opacity="0.72"/><circle cx="318" cy="72" r="2.0" fill="#ffffff" opacity="0.72"/><circle cx="401" cy="93" r="2.0" fill="#ffffff" opacity="0.72"/><circle cx="484" cy="35" r="2.1" fill="#ffffff" opacity="0.72"/><circle cx="567" cy="21" r="2.2" fill="#ffffff" opacity="0.72"/><circle cx="650" cy="28" r="0.8" fill="#ffffff" opacity="0.72"/><circle cx="733" cy="129" r="0.9" fill="#ffffff" opacity="0.72"/><circle cx="816" cy="111" r="1.0" fill="#ffffff" opacity="0.72"/><circle cx="899" cy="34" r="1.1" fill="#ffffff" opacity="0.72"/><circle cx="70" cy="93" r="1.1" fill="#ffffff" opacity="0.72"/><circle cx="153" cy="27" r="1.2" fill="#ffffff" opacity="0.72"/><circle cx="236" cy="35" r="1.3" fill="#ffffff" opacity="0.72"/><circle cx="319" cy="54" r="1.4" fill="#ffffff" opacity="0.72"/><circle cx="402" cy="161" r="1.5" fill="#ffffff" opacity="0.72"/><circle cx="485" cy="63" r="1.6" fill="#ffffff" opacity="0.72"/><circle cx="568" cy="28" r="1.6" fill="#ffffff" opacity="0.72"/><circle cx="651" cy="25" r="1.7" fill="#ffffff" opacity="0.72"/><circle cx="734" cy="38" r="1.8" fill="#ffffff" opacity="0.72"/><circle cx="817" cy="59" r="1.9" fill="#ffffff" opacity="0.72"/><circle cx="900" cy="167" r="2.0" fill="#ffffff" opacity="0.72"/><circle cx="71" cy="153" r="2.0" fill="#ffffff" opacity="0.72"/><circle cx="154" cy="160" r="2.1" fill="#ffffff" opacity="0.72"/><circle cx="237" cy="95" r="2.2" fill="#ffffff" opacity="0.72"/><circle cx="320" cy="77" r="0.8" fill="#ffffff" opacity="0.72"/><circle cx="403" cy="166" r="0.9" fill="#ffffff" opacity="0.72"/><circle cx="486" cy="59" r="1.0" fill="#ffffff" opacity="0.72"/><circle cx="569" cy="159" r="1.1" fill="#ffffff" opacity="0.72"/><circle cx="652" cy="167" r="1.1" fill="#ffffff" opacity="0.72"/>
  
  <polyline points="0,260 0,300 140,302 280,268 420,286 560,295 700,300 840,302 980,268 960,250 960,420 0,420" fill="#050b14" opacity="0.42"/>
  <polyline points="0,220 0,210 120,234 240,207 360,193 480,225 600,241 720,249 840,214 960,197 960,210 960,420 0,420" fill="#0a1422" opacity="0.48"/>
  <g opacity="0.9"><rect x="553" y="62" width="46" height="165" rx="7.666666666666667" fill="url(#tower-region-18)"/><rect x="569.56" y="72" width="8.28" height="143" rx="3" fill="#8dff72" opacity="0.42"/><polygon points="545,62 576,30 607,62" fill="#e8ffe3" opacity="0.82"/></g><g opacity="0.9"><rect x="702" y="130" width="50" height="121" rx="8.333333333333334" fill="url(#tower-region-18)"/><rect x="720" y="140" width="9" height="99" rx="3" fill="#8dff72" opacity="0.42"/><ellipse cx="727" cy="130" rx="36" ry="7" fill="#e8ffe3" opacity="0.74"/></g><g opacity="0.9"><rect x="61" y="74" width="52" height="153" rx="8.666666666666666" fill="url(#tower-region-18)"/><rect x="79.72" y="84" width="9.36" height="131" rx="3" fill="#8dff72" opacity="0.42"/><rect x="56" y="65" width="62" height="9" rx="4" fill="#e8ffe3" opacity="0.66"/></g>
  <path d="M0 330 C105 275, 162 316, 260 274 S430 332, 552 282 S760 310, 960 256 L960 420 L0 420 Z" fill="#173d23" opacity="0.84"/><g opacity="0.68"><circle cx="217" cy="333" r="13" fill="#8dff72"/><circle cx="284" cy="346" r="24" fill="#b7ff91"/><circle cx="351" cy="312" r="35" fill="#b7ff91"/><circle cx="418" cy="336" r="22" fill="#8dff72"/><circle cx="485" cy="307" r="33" fill="#b7ff91"/><circle cx="552" cy="333" r="20" fill="#b7ff91"/><circle cx="619" cy="305" r="31" fill="#8dff72"/><circle cx="686" cy="291" r="18" fill="#b7ff91"/><circle cx="753" cy="325" r="29" fill="#b7ff91"/><circle cx="820" cy="342" r="16" fill="#8dff72"/><circle cx="887" cy="351" r="27" fill="#b7ff91"/><circle cx="74" cy="355" r="14" fill="#b7ff91"/><circle cx="141" cy="333" r="25" fill="#8dff72"/><circle cx="208" cy="346" r="12" fill="#b7ff91"/></g>
  <path d="M0 382 H960" stroke="#8dff72" stroke-width="2" opacity="0.42"/>
  <path d="M137 392 C371 350, 563 410, 823 372" fill="none" stroke="#e8ffe3" stroke-width="4" opacity="0.34"/>
  <text x="28" y="40" fill="#e8ffe3" font-family="monospace" font-size="18" letter-spacing="5" opacity="0.5">18 MYCEL FOREST</text>
</svg>