<svg xmlns="http://www.w3.org/2000/svg" viewBox="0 0 960 420" role="img" aria-label="region-7 unique card art">
  <defs>
    <linearGradient id="sky-region-7" x1="0" y1="0" x2="1" y2="1"><stop offset="0" stop-color="#162b45"/><stop offset="0.52" stop-color="#69511c"/><stop offset="1" stop-color="#090812"/></linearGradient>
    <linearGradient id="tower-region-7" x1="0" y1="0" x2="1" y2="1"><stop offset="0" stop-color="#101827"/><stop offset="0.5" stop-color="#69511c"/><stop offset="1" stop-color="#03060c"/></linearGradient>
    <radialGradient id="orb-region-7" cx="50%" cy="50%" r="55%"><stop offset="0" stop-color="#fff0a8"/><stop offset="0.42" stop-color="#ffd85f" stop-opacity="0.62"/><stop offset="1" stop-color="#ffd85f" stop-opacity="0"/></radialGradient>
    <filter id="glow-region-7" x="-20%" y="-20%" width="140%" height="140%"><feGaussianBlur stdDeviation="5" result="b"/><feMerge><feMergeNode in="b"/><feMergeNode in="SourceGraphic"/></feMerge></filter>
  </defs>
  <rect width="960" height="420" fill="url(#sky-region-7)"/>
  <circle cx="384" cy="156" r="54" fill="url(#orb-region-7)" filter="url(#glow-region-7)"/>
  <circle cx="29" cy="159" r="1.7" fill="#ffffff" opacity="0.22"/><circle cx="112" cy="35" r="1.8" fill="#ffffff" opacity="0.22"/><circle cx="195" cy="71" r="1.9" fill="#ffffff" opacity="0.22"/><circle cx="278" cy="103" r="2.0" fill="#ffffff" opacity="0.22"/><circle cx="361" cy="134" r="2.0" fill="#ffffff" opacity="0.22"/><circle cx="444" cy="81" r="2.1" fill="#ffffff" opacity="0.22"/><circle cx="527" cy="69" r="2.2" fill="#ffffff" opacity="0.22"/><circle cx="610" cy="77" r="0.8" fill="#ffffff" opacity="0.22"/><circle cx="693" cy="96" r="0.9" fill="#ffffff" opacity="0.22"/><circle cx="776" cy="120" r="1.0" fill="#ffffff" opacity="0.22"/><circle cx="859" cy="63" r="1.1" fill="#ffffff" opacity="0.22"/><circle cx="30" cy="132" r="1.1" fill="#ffffff" opacity="0.22"/>
  
  <polyline points="0,260 0,251 140,278 280,291 420,263 560,284 700,294 840,264 980,249 960,250 960,420 0,420" fill="#050b14" opacity="0.42"/>
  <polyline points="0,220 0,187 120,222 240,240 360,210 480,195 600,226 720,242 840,211 960,195 960,210 960,420 0,420" fill="#0a1422" opacity="0.48"/>
  <g opacity="0.9"><rect x="363" y="65" width="24" height="174" rx="4" fill="url(#tower-region-7)"/><rect x="371.64" y="75" width="4.32" height="152" rx="3" fill="#ffd85f" opacity="0.42"/><ellipse cx="375" cy="65" rx="17.28" ry="7" fill="#fff1ba" opacity="0.74"/></g><g opacity="0.9"><rect x="512" y="83" width="39" height="180" rx="6.5" fill="url(#tower-region-7)"/><rect x="526.04" y="93" width="7.02" height="158" rx="3" fill="#ffd85f" opacity="0.42"/><rect x="507" y="74" width="49" height="9" rx="4" fill="#fff1ba" opacity="0.66"/></g><g opacity="0.9"><rect x="661" y="56" width="30" height="183" rx="5" fill="url(#tower-region-7)"/><rect x="671.8" y="66" width="5.3999999999999995" height="161" rx="3" fill="#ffd85f" opacity="0.42"/><polygon points="653,56 676,24 699,56" fill="#fff1ba" opacity="0.82"/></g><g opacity="0.9"><rect x="810" y="133" width="26" height="130" rx="4.333333333333333" fill="url(#tower-region-7)"/><rect x="819.36" y="143" width="4.68" height="108" rx="3" fill="#ffd85f" opacity="0.42"/><ellipse cx="823" cy="133" rx="18.72" ry="7" fill="#fff1ba" opacity="0.74"/></g><g opacity="0.9"><rect x="169" y="135" width="40" height="104" rx="6.666666666666667" fill="url(#tower-region-7)"/><rect x="183.4" y="145" width="7.199999999999999" height="82" rx="3" fill="#ffd85f" opacity="0.42"/><rect x="164" y="126" width="50" height="9" rx="4" fill="#fff1ba" opacity="0.66"/></g><g opacity="0.9"><rect x="318" y="118" width="47" height="145" rx="7.833333333333333" fill="url(#tower-region-7)"/><rect x="334.92" y="128" width="8.459999999999999" height="123" rx="3" fill="#ffd85f" opacity="0.42"/><polygon points="310,118 341.5,86 373,118" fill="#fff1ba" opacity="0.82"/></g><g opacity="0.9"><rect x="467" y="74" width="50" height="165" rx="8.333333333333334" fill="url(#tower-region-7)"/><rect x="485" y="84" width="9" height="143" rx="3" fill="#ffd85f" opacity="0.42"/><ellipse cx="492" cy="74" rx="36" ry="7" fill="#fff1ba" opacity="0.74"/></g>
  <path d="M0 326 C146 256, 290 380, 430 306 S706 250, 960 310 L960 420 L0 420 Z" fill="#6c4b24" opacity="0.86"/><path d="M0 355 C160 318, 300 392, 474 346 S776 318, 960 362" fill="none" stroke="#ffd85f" stroke-width="8" opacity="0.32"/>
  <path d="M0 382 H960" stroke="#ffd85f" stroke-width="2" opacity="0.42"/>
  <path d="M177 392 C272 350, 596 410, 821 372" fill="none" stroke="#fff1ba" stroke-width="4" opacity="0.34"/>
  <text x="28" y="40" fill="#fff1ba" font-family="monospace" font-size="18" letter-spacing="5" opacity="0.5">07 STONE WASTE</text>
</svg>