<svg xmlns="http://www.w3.org/2000/svg" viewBox="0 0 960 420" role="img" aria-label="region-14 unique card art">
  <defs>
    <linearGradient id="sky-region-14" x1="0" y1="0" x2="1" y2="1"><stop offset="0" stop-color="#162b45"/><stop offset="0.52" stop-color="#1e5a28"/><stop offset="1" stop-color="#090812"/></linearGradient>
    <linearGradient id="tower-region-14" x1="0" y1="0" x2="1" y2="1"><stop offset="0" stop-color="#101827"/><stop offset="0.5" stop-color="#1e5a28"/><stop offset="1" stop-color="#03060c"/></linearGradient>
    <radialGradient id="orb-region-14" cx="50%" cy="50%" r="55%"><stop offset="0" stop-color="#fff0a8"/><stop offset="0.42" stop-color="#8dff72" stop-opacity="0.62"/><stop offset="1" stop-color="#8dff72" stop-opacity="0"/></radialGradient>
    <filter id="glow-region-14" x="-20%" y="-20%" width="140%" height="140%"><feGaussianBlur stdDeviation="5" result="b"/><feMerge><feMergeNode in="b"/><feMergeNode in="SourceGraphic"/></feMerge></filter>
  </defs>
  <rect width="960" height="420" fill="url(#sky-region-14)"/>
  <circle cx="492" cy="97" r="54" fill="url(#orb-region-14)" filter="url(#glow-region-14)"/>
  <circle cx="605" cy="65" r="1.7" fill="#ffffff" opacity="0.22"/><circle cx="688" cy="71" r="1.8" fill="#ffffff" opacity="0.22"/><circle cx="771" cy="89" r="1.9" fill="#ffffff" opacity="0.22"/><circle cx="854" cy="29" r="2.0" fill="#ffffff" opacity="0.22"/><circle cx="25" cy="180" r="2.0" fill="#ffffff" opacity="0.22"/><circle cx="108" cy="104" r="2.1" fill="#ffffff" opacity="0.22"/><circle cx="191" cy="80" r="2.2" fill="#ffffff" opacity="0.22"/><circle cx="274" cy="166" r="0.8" fill="#ffffff" opacity="0.22"/><circle cx="357" cy="57" r="0.9" fill="#ffffff" opacity="0.22"/><circle cx="440" cy="100" r="1.0" fill="#ffffff" opacity="0.22"/><circle cx="523" cy="53" r="1.1" fill="#ffffff" opacity="0.22"/><circle cx="606" cy="127" r="1.1" fill="#ffffff" opacity="0.22"/>
  
  <polyline points="0,260 0,298 140,301 280,268 420,286 560,260 700,282 840,293 980,264 960,250 960,420 0,420" fill="#050b14" opacity="0.42"/>
  <polyline points="0,220 0,235 120,246 240,252 360,255 480,256 600,257 720,257 840,257 960,257 960,210 960,420 0,420" fill="#0a1422" opacity="0.48"/>
  <g opacity="0.9"><rect x="577" y="67" width="40" height="156" rx="6.666666666666667" fill="url(#tower-region-14)"/><rect x="591.4" y="77" width="7.199999999999999" height="134" rx="3" fill="#8dff72" opacity="0.42"/><ellipse cx="597" cy="67" rx="28.799999999999997" ry="7" fill="#e8ffe3" opacity="0.74"/></g><g opacity="0.9"><rect x="726" y="76" width="31" height="171" rx="5.166666666666667" fill="url(#tower-region-14)"/><rect x="737.16" y="86" width="5.58" height="149" rx="3" fill="#8dff72" opacity="0.42"/><rect x="721" y="67" width="41" height="9" rx="4" fill="#e8ffe3" opacity="0.66"/></g><g opacity="0.9"><rect x="85" y="99" width="42" height="124" rx="7" fill="url(#tower-region-14)"/><rect x="100.12" y="109" width="7.56" height="102" rx="3" fill="#8dff72" opacity="0.42"/><polygon points="77,99 106,67 135,99" fill="#e8ffe3" opacity="0.82"/></g>
  <path d="M0 330 C105 275, 162 316, 260 274 S430 332, 552 282 S760 310, 960 256 L960 420 L0 420 Z" fill="#173d23" opacity="0.84"/><g opacity="0.68"><circle cx="301" cy="297" r="17" fill="#8dff72"/><circle cx="368" cy="328" r="28" fill="#b7ff91"/><circle cx="435" cy="303" r="15" fill="#b7ff91"/><circle cx="502" cy="290" r="26" fill="#8dff72"/><circle cx="569" cy="284" r="13" fill="#b7ff91"/><circle cx="636" cy="281" r="24" fill="#b7ff91"/><circle cx="703" cy="320" r="35" fill="#8dff72"/><circle cx="770" cy="299" r="22" fill="#b7ff91"/><circle cx="837" cy="329" r="33" fill="#b7ff91"/><circle cx="904" cy="303" r="20" fill="#8dff72"/><circle cx="91" cy="331" r="31" fill="#b7ff91"/><circle cx="158" cy="304" r="18" fill="#b7ff91"/><circle cx="225" cy="297" r="29" fill="#8dff72"/><circle cx="292" cy="328" r="16" fill="#b7ff91"/></g>
  <path d="M0 382 H960" stroke="#8dff72" stroke-width="2" opacity="0.42"/>
  <path d="M141 392 C366 350, 543 410, 792 372" fill="none" stroke="#e8ffe3" stroke-width="4" opacity="0.34"/>
  <text x="28" y="40" fill="#e8ffe3" font-family="monospace" font-size="18" letter-spacing="5" opacity="0.5">14 MYCEL FOREST</text>
</svg>