<svg xmlns="http://www.w3.org/2000/svg" viewBox="0 0 960 420" role="img" aria-label="region-31 unique card art">
  <defs>
    <linearGradient id="sky-region-31" x1="0" y1="0" x2="1" y2="1"><stop offset="0" stop-color="#162b45"/><stop offset="0.52" stop-color="#69511c"/><stop offset="1" stop-color="#090812"/></linearGradient>
    <linearGradient id="tower-region-31" x1="0" y1="0" x2="1" y2="1"><stop offset="0" stop-color="#101827"/><stop offset="0.5" stop-color="#69511c"/><stop offset="1" stop-color="#03060c"/></linearGradient>
    <radialGradient id="orb-region-31" cx="50%" cy="50%" r="55%"><stop offset="0" stop-color="#fff0a8"/><stop offset="0.42" stop-color="#ffd85f" stop-opacity="0.62"/><stop offset="1" stop-color="#ffd85f" stop-opacity="0"/></radialGradient>
    <filter id="glow-region-31" x="-20%" y="-20%" width="140%" height="140%"><feGaussianBlur stdDeviation="5" result="b"/><feMerge><feMergeNode in="b"/><feMergeNode in="SourceGraphic"/></feMerge></filter>
  </defs>
  <rect width="960" height="420" fill="url(#sky-region-31)"/>
  <circle cx="163" cy="111" r="54" fill="url(#orb-region-31)" filter="url(#glow-region-31)"/>
  <circle cx="752" cy="96" r="1.0" fill="#ffffff" opacity="0.22"/><circle cx="835" cy="87" r="1.1" fill="#ffffff" opacity="0.22"/><circle cx="918" cy="180" r="1.1" fill="#ffffff" opacity="0.22"/><circle cx="89" cy="158" r="1.2" fill="#ffffff" opacity="0.22"/><circle cx="172" cy="161" r="1.3" fill="#ffffff" opacity="0.22"/><circle cx="255" cy="177" r="1.4" fill="#ffffff" opacity="0.22"/><circle cx="338" cy="117" r="1.5" fill="#ffffff" opacity="0.22"/><circle cx="421" cy="184" r="1.6" fill="#ffffff" opacity="0.22"/><circle cx="504" cy="149" r="1.6" fill="#ffffff" opacity="0.22"/><circle cx="587" cy="146" r="1.7" fill="#ffffff" opacity="0.22"/><circle cx="670" cy="159" r="1.8" fill="#ffffff" opacity="0.22"/><circle cx="753" cy="180" r="1.9" fill="#ffffff" opacity="0.22"/>
  
  <polyline points="0,260 0,255 140,280 280,292 420,298 560,266 700,250 840,242 980,238 960,250 960,420 0,420" fill="#050b14" opacity="0.42"/>
  <polyline points="0,220 0,224 120,241 240,249 360,214 480,197 600,227 720,203 840,191 960,185 960,210 960,420 0,420" fill="#0a1422" opacity="0.48"/>
  <g opacity="0.9"><rect x="450" y="59" width="34" height="171" rx="5.666666666666667" fill="url(#tower-region-31)"/><rect x="462.24" y="69" width="6.12" height="149" rx="3" fill="#ffd85f" opacity="0.42"/><ellipse cx="467" cy="59" rx="24.48" ry="7" fill="#fff1ba" opacity="0.74"/></g><g opacity="0.9"><rect x="599" y="130" width="44" height="124" rx="7.333333333333333" fill="url(#tower-region-31)"/><rect x="614.84" y="140" width="7.92" height="102" rx="3" fill="#ffd85f" opacity="0.42"/><rect x="594" y="121" width="54" height="9" rx="4" fill="#fff1ba" opacity="0.66"/></g><g opacity="0.9"><rect x="748" y="129" width="49" height="101" rx="8.166666666666666" fill="url(#tower-region-31)"/><rect x="765.64" y="139" width="8.82" height="79" rx="3" fill="#ffd85f" opacity="0.42"/><polygon points="740,129 772.5,97 805,129" fill="#fff1ba" opacity="0.82"/></g><g opacity="0.9"><rect x="107" y="165" width="51" height="89" rx="8.5" fill="url(#tower-region-31)"/><rect x="125.36" y="175" width="9.18" height="67" rx="3" fill="#ffd85f" opacity="0.42"/><ellipse cx="132.5" cy="165" rx="36.72" ry="7" fill="#fff1ba" opacity="0.74"/></g>
  <path d="M0 326 C146 256, 290 380, 430 306 S706 250, 960 310 L960 420 L0 420 Z" fill="#6c4b24" opacity="0.86"/><path d="M0 355 C160 318, 300 392, 474 346 S776 318, 960 362" fill="none" stroke="#ffd85f" stroke-width="8" opacity="0.32"/>
  <path d="M0 382 H960" stroke="#ffd85f" stroke-width="2" opacity="0.42"/>
  <path d="M204 392 C281 350, 567 410, 743 372" fill="none" stroke="#fff1ba" stroke-width="4" opacity="0.34"/>
  <text x="28" y="40" fill="#fff1ba" font-family="monospace" font-size="18" letter-spacing="5" opacity="0.5">31 STONE WASTE</text>
</svg>