<svg xmlns="http://www.w3.org/2000/svg" viewBox="0 0 960 420" role="img" aria-label="region-37 unique card art">
  <defs>
    <linearGradient id="sky-region-37" x1="0" y1="0" x2="1" y2="1"><stop offset="0" stop-color="#162b45"/><stop offset="0.52" stop-color="#5b164e"/><stop offset="1" stop-color="#090812"/></linearGradient>
    <linearGradient id="tower-region-37" x1="0" y1="0" x2="1" y2="1"><stop offset="0" stop-color="#101827"/><stop offset="0.5" stop-color="#5b164e"/><stop offset="1" stop-color="#03060c"/></linearGradient>
    <radialGradient id="orb-region-37" cx="50%" cy="50%" r="55%"><stop offset="0" stop-color="#fff0a8"/><stop offset="0.42" stop-color="#ff74ee" stop-opacity="0.62"/><stop offset="1" stop-color="#ff74ee" stop-opacity="0"/></radialGradient>
    <filter id="glow-region-37" x="-20%" y="-20%" width="140%" height="140%"><feGaussianBlur stdDeviation="5" result="b"/><feMerge><feMergeNode in="b"/><feMergeNode in="SourceGraphic"/></feMerge></filter>
  </defs>
  <rect width="960" height="420" fill="url(#sky-region-37)"/>
  <circle cx="657" cy="92" r="54" fill="url(#orb-region-37)" filter="url(#glow-region-37)"/>
  <circle cx="818" cy="90" r="2.0" fill="#ffffff" opacity="0.22"/><circle cx="901" cy="84" r="2.0" fill="#ffffff" opacity="0.22"/><circle cx="72" cy="178" r="2.1" fill="#ffffff" opacity="0.22"/><circle cx="155" cy="74" r="2.2" fill="#ffffff" opacity="0.22"/><circle cx="238" cy="36" r="0.8" fill="#ffffff" opacity="0.22"/><circle cx="321" cy="115" r="0.9" fill="#ffffff" opacity="0.22"/><circle cx="404" cy="169" r="1.0" fill="#ffffff" opacity="0.22"/><circle cx="487" cy="127" r="1.1" fill="#ffffff" opacity="0.22"/><circle cx="570" cy="121" r="1.1" fill="#ffffff" opacity="0.22"/><circle cx="653" cy="49" r="1.2" fill="#ffffff" opacity="0.22"/><circle cx="736" cy="28" r="1.3" fill="#ffffff" opacity="0.22"/><circle cx="819" cy="32" r="1.4" fill="#ffffff" opacity="0.22"/>
  
  <polyline points="0,260 0,259 140,282 280,293 420,264 560,249 700,277 840,256 980,245 960,250 960,420 0,420" fill="#050b14" opacity="0.42"/>
  <polyline points="0,220 0,186 120,183 240,220 360,200 480,229 600,204 720,231 840,244 960,212 960,210 960,420 0,420" fill="#0a1422" opacity="0.48"/>
  <g opacity="0.9"><rect x="414" y="106" width="27" height="130" rx="4.5" fill="url(#tower-region-37)"/><rect x="423.72" y="116" width="4.859999999999999" height="108" rx="3" fill="#ff74ee" opacity="0.42"/><ellipse cx="427.5" cy="106" rx="19.439999999999998" ry="7" fill="#ffe2fb" opacity="0.74"/></g><g opacity="0.9"><rect x="563" y="156" width="40" height="104" rx="6.666666666666667" fill="url(#tower-region-37)"/><rect x="577.4" y="166" width="7.199999999999999" height="82" rx="3" fill="#ff74ee" opacity="0.42"/><rect x="558" y="147" width="50" height="9" rx="4" fill="#ffe2fb" opacity="0.66"/></g><g opacity="0.9"><rect x="712" y="145" width="31" height="91" rx="5.166666666666667" fill="url(#tower-region-37)"/><rect x="723.16" y="155" width="5.58" height="69" rx="3" fill="#ff74ee" opacity="0.42"/><polygon points="704,145 727.5,113 751,145" fill="#ffe2fb" opacity="0.82"/></g><g opacity="0.9"><rect x="71" y="176" width="42" height="84" rx="7" fill="url(#tower-region-37)"/><rect x="86.12" y="186" width="7.56" height="62" rx="3" fill="#ff74ee" opacity="0.42"/><ellipse cx="92" cy="176" rx="30.24" ry="7" fill="#ffe2fb" opacity="0.74"/></g><g opacity="0.9"><rect x="220" y="101" width="32" height="135" rx="5.333333333333333" fill="url(#tower-region-37)"/><rect x="231.52" y="111" width="5.76" height="113" rx="3" fill="#ff74ee" opacity="0.42"/><rect x="215" y="92" width="42" height="9" rx="4" fill="#ffe2fb" opacity="0.66"/></g><g opacity="0.9"><rect x="369" y="154" width="27" height="106" rx="4.5" fill="url(#tower-region-37)"/><rect x="378.72" y="164" width="4.859999999999999" height="84" rx="3" fill="#ff74ee" opacity="0.42"/><polygon points="361,154 382.5,122 404,154" fill="#ffe2fb" opacity="0.82"/></g><g opacity="0.9"><rect x="518" y="144" width="40" height="92" rx="6.666666666666667" fill="url(#tower-region-37)"/><rect x="532.4" y="154" width="7.199999999999999" height="70" rx="3" fill="#ff74ee" opacity="0.42"/><ellipse cx="538" cy="144" rx="28.799999999999997" ry="7" fill="#ffe2fb" opacity="0.74"/></g>
  <path d="M0 330 L90 298 L164 326 L258 286 L354 326 L478 292 L612 328 L740 276 L842 322 L960 294 L960 420 L0 420 Z" fill="#1c1230" opacity="0.82"/><path d="M80 320 H884" stroke="#ff74ee" stroke-width="4" opacity="0.38"/>
  <path d="M0 382 H960" stroke="#ff74ee" stroke-width="2" opacity="0.42"/>
  <path d="M198 392 C288 350, 538 410, 869 372" fill="none" stroke="#ffe2fb" stroke-width="4" opacity="0.34"/>
  <text x="28" y="40" fill="#ffe2fb" font-family="monospace" font-size="18" letter-spacing="5" opacity="0.5">37 DROWNED CITY</text>
</svg>