<svg xmlns="http://www.w3.org/2000/svg" viewBox="0 0 960 420" role="img" aria-label="region-2 unique card art">
  <defs>
    <linearGradient id="sky-region-2" x1="0" y1="0" x2="1" y2="1"><stop offset="0" stop-color="#162b45"/><stop offset="0.52" stop-color="#1e5a28"/><stop offset="1" stop-color="#090812"/></linearGradient>
    <linearGradient id="tower-region-2" x1="0" y1="0" x2="1" y2="1"><stop offset="0" stop-color="#101827"/><stop offset="0.5" stop-color="#1e5a28"/><stop offset="1" stop-color="#03060c"/></linearGradient>
    <radialGradient id="orb-region-2" cx="50%" cy="50%" r="55%"><stop offset="0" stop-color="#fff0a8"/><stop offset="0.42" stop-color="#8dff72" stop-opacity="0.62"/><stop offset="1" stop-color="#8dff72" stop-opacity="0"/></radialGradient>
    <filter id="glow-region-2" x="-20%" y="-20%" width="140%" height="140%"><feGaussianBlur stdDeviation="5" result="b"/><feMerge><feMergeNode in="b"/><feMergeNode in="SourceGraphic"/></feMerge></filter>
  </defs>
  <rect width="960" height="420" fill="url(#sky-region-2)"/>
  <circle cx="452" cy="152" r="54" fill="url(#orb-region-2)" filter="url(#glow-region-2)"/>
  <circle cx="430" cy="164" r="2.1" fill="#ffffff" opacity="0.22"/><circle cx="513" cy="38" r="2.2" fill="#ffffff" opacity="0.22"/><circle cx="596" cy="155" r="0.8" fill="#ffffff" opacity="0.22"/><circle cx="679" cy="145" r="0.9" fill="#ffffff" opacity="0.22"/><circle cx="762" cy="72" r="1.0" fill="#ffffff" opacity="0.22"/><circle cx="845" cy="50" r="1.1" fill="#ffffff" opacity="0.22"/><circle cx="928" cy="53" r="1.1" fill="#ffffff" opacity="0.22"/><circle cx="99" cy="69" r="1.2" fill="#ffffff" opacity="0.22"/><circle cx="182" cy="92" r="1.3" fill="#ffffff" opacity="0.22"/><circle cx="265" cy="118" r="1.4" fill="#ffffff" opacity="0.22"/><circle cx="348" cy="145" r="1.5" fill="#ffffff" opacity="0.22"/><circle cx="431" cy="173" r="1.6" fill="#ffffff" opacity="0.22"/>
  
  <polyline points="0,260 0,248 140,276 280,255 420,245 560,240 700,272 840,253 980,279 960,250 960,420 0,420" fill="#050b14" opacity="0.42"/>
  <polyline points="0,220 0,257 120,218 240,238 360,209 480,233 600,206 720,232 840,245 960,251 960,210 960,420 0,420" fill="#0a1422" opacity="0.48"/>
  <g opacity="0.9"><rect x="788" y="124" width="41" height="136" rx="6.833333333333333" fill="url(#tower-region-2)"/><rect x="802.76" y="134" width="7.38" height="114" rx="3" fill="#8dff72" opacity="0.42"/><polygon points="780,124 808.5,92 837,124" fill="#e8ffe3" opacity="0.82"/></g><g opacity="0.9"><rect x="147" y="123" width="47" height="161" rx="7.833333333333333" fill="url(#tower-region-2)"/><rect x="163.92" y="133" width="8.459999999999999" height="139" rx="3" fill="#8dff72" opacity="0.42"/><ellipse cx="170.5" cy="123" rx="33.839999999999996" ry="7" fill="#e8ffe3" opacity="0.74"/></g><g opacity="0.9"><rect x="296" y="141" width="34" height="119" rx="5.666666666666667" fill="url(#tower-region-2)"/><rect x="308.24" y="151" width="6.12" height="97" rx="3" fill="#8dff72" opacity="0.42"/><rect x="291" y="132" width="44" height="9" rx="4" fill="#e8ffe3" opacity="0.66"/></g>
  <path d="M0 330 C105 275, 162 316, 260 274 S430 332, 552 282 S760 310, 960 256 L960 420 L0 420 Z" fill="#173d23" opacity="0.84"/><g opacity="0.68"><circle cx="702" cy="336" r="34" fill="#8dff72"/><circle cx="769" cy="307" r="21" fill="#b7ff91"/><circle cx="836" cy="333" r="32" fill="#b7ff91"/><circle cx="903" cy="346" r="19" fill="#8dff72"/><circle cx="90" cy="312" r="30" fill="#b7ff91"/><circle cx="157" cy="295" r="17" fill="#b7ff91"/><circle cx="224" cy="327" r="28" fill="#8dff72"/><circle cx="291" cy="302" r="15" fill="#b7ff91"/><circle cx="358" cy="290" r="26" fill="#b7ff91"/><circle cx="425" cy="325" r="13" fill="#8dff72"/><circle cx="492" cy="301" r="24" fill="#b7ff91"/><circle cx="559" cy="330" r="35" fill="#b7ff91"/><circle cx="626" cy="336" r="22" fill="#8dff72"/><circle cx="693" cy="307" r="33" fill="#b7ff91"/></g>
  <path d="M0 382 H960" stroke="#8dff72" stroke-width="2" opacity="0.42"/>
  <path d="M182 392 C266 350, 540 410, 822 372" fill="none" stroke="#e8ffe3" stroke-width="4" opacity="0.34"/>
  <text x="28" y="40" fill="#e8ffe3" font-family="monospace" font-size="18" letter-spacing="5" opacity="0.5">02 MYCEL FOREST</text>
</svg>