<svg xmlns="http://www.w3.org/2000/svg" viewBox="0 0 960 420" role="img" aria-label="region-55 unique card art">
  <defs>
    <linearGradient id="sky-region-55" x1="0" y1="0" x2="1" y2="1"><stop offset="0" stop-color="#162b45"/><stop offset="0.52" stop-color="#69511c"/><stop offset="1" stop-color="#090812"/></linearGradient>
    <linearGradient id="tower-region-55" x1="0" y1="0" x2="1" y2="1"><stop offset="0" stop-color="#101827"/><stop offset="0.5" stop-color="#69511c"/><stop offset="1" stop-color="#03060c"/></linearGradient>
    <radialGradient id="orb-region-55" cx="50%" cy="50%" r="55%"><stop offset="0" stop-color="#fff0a8"/><stop offset="0.42" stop-color="#ffd85f" stop-opacity="0.62"/><stop offset="1" stop-color="#ffd85f" stop-opacity="0"/></radialGradient>
    <filter id="glow-region-55" x="-20%" y="-20%" width="140%" height="140%"><feGaussianBlur stdDeviation="5" result="b"/><feMerge><feMergeNode in="b"/><feMergeNode in="SourceGraphic"/></feMerge></filter>
  </defs>
  <rect width="960" height="420" fill="url(#sky-region-55)"/>
  <circle cx="347" cy="58" r="54" fill="url(#orb-region-55)" filter="url(#glow-region-55)"/>
  <circle cx="70" cy="170" r="1.1" fill="#ffffff" opacity="0.22"/><circle cx="153" cy="124" r="1.2" fill="#ffffff" opacity="0.22"/><circle cx="236" cy="115" r="1.3" fill="#ffffff" opacity="0.22"/><circle cx="319" cy="42" r="1.4" fill="#ffffff" opacity="0.22"/><circle cx="402" cy="103" r="1.5" fill="#ffffff" opacity="0.22"/><circle cx="485" cy="65" r="1.6" fill="#ffffff" opacity="0.22"/><circle cx="568" cy="144" r="1.6" fill="#ffffff" opacity="0.22"/><circle cx="651" cy="115" r="1.7" fill="#ffffff" opacity="0.22"/><circle cx="734" cy="115" r="1.8" fill="#ffffff" opacity="0.22"/><circle cx="817" cy="46" r="1.9" fill="#ffffff" opacity="0.22"/><circle cx="900" cy="26" r="2.0" fill="#ffffff" opacity="0.22"/><circle cx="71" cy="31" r="2.0" fill="#ffffff" opacity="0.22"/>
  
  <polyline points="0,260 0,281 140,293 280,299 420,302 560,268 700,251 840,243 980,274 960,250 960,420 0,420" fill="#050b14" opacity="0.42"/>
  <polyline points="0,220 0,239 120,209 240,233 360,206 480,232 600,206 720,193 840,225 960,202 960,210 960,420 0,420" fill="#0a1422" opacity="0.48"/>
  <g opacity="0.9"><rect x="368" y="121" width="37" height="119" rx="6.166666666666667" fill="url(#tower-region-55)"/><rect x="381.32" y="131" width="6.66" height="97" rx="3" fill="#ffd85f" opacity="0.42"/><polygon points="360,121 386.5,89 413,121" fill="#fff1ba" opacity="0.82"/></g><g opacity="0.9"><rect x="517" y="166" width="29" height="98" rx="4.833333333333333" fill="url(#tower-region-55)"/><rect x="527.44" y="176" width="5.22" height="76" rx="3" fill="#ffd85f" opacity="0.42"/><ellipse cx="531.5" cy="166" rx="20.88" ry="7" fill="#fff1ba" opacity="0.74"/></g><g opacity="0.9"><rect x="666" y="98" width="25" height="142" rx="4.166666666666667" fill="url(#tower-region-55)"/><rect x="675" y="108" width="4.5" height="120" rx="3" fill="#ffd85f" opacity="0.42"/><rect x="661" y="89" width="35" height="9" rx="4" fill="#fff1ba" opacity="0.66"/></g><g opacity="0.9"><rect x="815" y="100" width="39" height="164" rx="6.5" fill="url(#tower-region-55)"/><rect x="829.04" y="110" width="7.02" height="142" rx="3" fill="#ffd85f" opacity="0.42"/><polygon points="807,100 834.5,68 862,100" fill="#fff1ba" opacity="0.82"/></g><g opacity="0.9"><rect x="174" y="119" width="46" height="121" rx="7.666666666666667" fill="url(#tower-region-55)"/><rect x="190.56" y="129" width="8.28" height="99" rx="3" fill="#ffd85f" opacity="0.42"/><ellipse cx="197" cy="119" rx="33.12" ry="7" fill="#fff1ba" opacity="0.74"/></g><g opacity="0.9"><rect x="323" y="165" width="34" height="99" rx="5.666666666666667" fill="url(#tower-region-55)"/><rect x="335.24" y="175" width="6.12" height="77" rx="3" fill="#ffd85f" opacity="0.42"/><rect x="318" y="156" width="44" height="9" rx="4" fill="#fff1ba" opacity="0.66"/></g>
  <path d="M0 326 C146 256, 290 380, 430 306 S706 250, 960 310 L960 420 L0 420 Z" fill="#6c4b24" opacity="0.86"/><path d="M0 355 C160 318, 300 392, 474 346 S776 318, 960 362" fill="none" stroke="#ffd85f" stroke-width="8" opacity="0.32"/>
  <path d="M0 382 H960" stroke="#ffd85f" stroke-width="2" opacity="0.42"/>
  <path d="M62 392 C333 350, 534 410, 732 372" fill="none" stroke="#fff1ba" stroke-width="4" opacity="0.34"/>
  <text x="28" y="40" fill="#fff1ba" font-family="monospace" font-size="18" letter-spacing="5" opacity="0.5">55 STONE WASTE</text>
</svg>