<svg xmlns="http://www.w3.org/2000/svg" viewBox="0 0 960 420" role="img" aria-label="region-3 unique card art">
  <defs>
    <linearGradient id="sky-region-3" x1="0" y1="0" x2="1" y2="1"><stop offset="0" stop-color="#071126"/><stop offset="0.52" stop-color="#69511c"/><stop offset="1" stop-color="#090812"/></linearGradient>
    <linearGradient id="tower-region-3" x1="0" y1="0" x2="1" y2="1"><stop offset="0" stop-color="#101827"/><stop offset="0.5" stop-color="#69511c"/><stop offset="1" stop-color="#03060c"/></linearGradient>
    <radialGradient id="orb-region-3" cx="50%" cy="50%" r="55%"><stop offset="0" stop-color="#d9dfff"/><stop offset="0.42" stop-color="#ffd85f" stop-opacity="0.62"/><stop offset="1" stop-color="#ffd85f" stop-opacity="0"/></radialGradient>
    <filter id="glow-region-3" x="-20%" y="-20%" width="140%" height="140%"><feGaussianBlur stdDeviation="5" result="b"/><feMerge><feMergeNode in="b"/><feMergeNode in="SourceGraphic"/></feMerge></filter>
  </defs>
  <rect width="960" height="420" fill="url(#sky-region-3)"/>
  <circle cx="295" cy="129" r="38" fill="url(#orb-region-3)" filter="url(#glow-region-3)"/>
  <circle cx="897" cy="163" r="2.0" fill="#ffffff" opacity="0.72"/><circle cx="68" cy="37" r="2.1" fill="#ffffff" opacity="0.72"/><circle cx="151" cy="72" r="2.2" fill="#ffffff" opacity="0.72"/><circle cx="234" cy="104" r="0.8" fill="#ffffff" opacity="0.72"/><circle cx="317" cy="51" r="0.9" fill="#ffffff" opacity="0.72"/><circle cx="400" cy="122" r="1.0" fill="#ffffff" opacity="0.72"/><circle cx="483" cy="89" r="1.1" fill="#ffffff" opacity="0.72"/><circle cx="566" cy="170" r="1.1" fill="#ffffff" opacity="0.72"/><circle cx="649" cy="59" r="1.2" fill="#ffffff" opacity="0.72"/><circle cx="732" cy="184" r="1.3" fill="#ffffff" opacity="0.72"/><circle cx="815" cy="95" r="1.4" fill="#ffffff" opacity="0.72"/><circle cx="898" cy="65" r="1.5" fill="#ffffff" opacity="0.72"/><circle cx="69" cy="148" r="1.6" fill="#ffffff" opacity="0.72"/><circle cx="152" cy="38" r="1.6" fill="#ffffff" opacity="0.72"/><circle cx="235" cy="80" r="1.7" fill="#ffffff" opacity="0.72"/><circle cx="318" cy="33" r="1.8" fill="#ffffff" opacity="0.72"/><circle cx="401" cy="129" r="1.9" fill="#ffffff" opacity="0.72"/><circle cx="484" cy="169" r="2.0" fill="#ffffff" opacity="0.72"/><circle cx="567" cy="38" r="2.0" fill="#ffffff" opacity="0.72"/><circle cx="650" cy="70" r="2.1" fill="#ffffff" opacity="0.72"/><circle cx="733" cy="183" r="2.2" fill="#ffffff" opacity="0.72"/><circle cx="816" cy="88" r="0.8" fill="#ffffff" opacity="0.72"/><circle cx="899" cy="55" r="0.9" fill="#ffffff" opacity="0.72"/><circle cx="70" cy="136" r="1.0" fill="#ffffff" opacity="0.72"/><circle cx="153" cy="25" r="1.1" fill="#ffffff" opacity="0.72"/><circle cx="236" cy="150" r="1.1" fill="#ffffff" opacity="0.72"/><circle cx="319" cy="61" r="1.2" fill="#ffffff" opacity="0.72"/><circle cx="402" cy="31" r="1.3" fill="#ffffff" opacity="0.72"/><circle cx="485" cy="114" r="1.4" fill="#ffffff" opacity="0.72"/><circle cx="568" cy="170" r="1.5" fill="#ffffff" opacity="0.72"/><circle cx="651" cy="46" r="1.6" fill="#ffffff" opacity="0.72"/><circle cx="734" cy="165" r="1.6" fill="#ffffff" opacity="0.72"/><circle cx="817" cy="95" r="1.7" fill="#ffffff" opacity="0.72"/><circle cx="900" cy="135" r="1.8" fill="#ffffff" opacity="0.72"/>
  
  <polyline points="0,260 0,248 140,276 280,290 420,262 560,248 700,276 840,255 980,245 960,250 960,420 0,420" fill="#050b14" opacity="0.42"/>
  <polyline points="0,220 0,212 120,235 240,207 360,193 480,225 600,241 720,249 840,253 960,255 960,210 960,420 0,420" fill="#0a1422" opacity="0.48"/>
  <g opacity="0.9"><rect x="387" y="70" width="50" height="165" rx="8.333333333333334" fill="url(#tower-region-3)"/><rect x="405" y="80" width="9" height="143" rx="3" fill="#ffd85f" opacity="0.42"/><rect x="382" y="61" width="60" height="9" rx="4" fill="#fff1ba" opacity="0.66"/></g><g opacity="0.9"><rect x="536" y="138" width="52" height="121" rx="8.666666666666666" fill="url(#tower-region-3)"/><rect x="554.72" y="148" width="9.36" height="99" rx="3" fill="#ffd85f" opacity="0.42"/><polygon points="528,138 562,106 596,138" fill="#fff1ba" opacity="0.82"/></g><g opacity="0.9"><rect x="685" y="82" width="53" height="153" rx="8.833333333333334" fill="url(#tower-region-3)"/><rect x="704.08" y="92" width="9.54" height="131" rx="3" fill="#ffd85f" opacity="0.42"/><ellipse cx="711.5" cy="82" rx="38.16" ry="7" fill="#fff1ba" opacity="0.74"/></g><g opacity="0.9"><rect x="834" y="90" width="53" height="169" rx="8.833333333333334" fill="url(#tower-region-3)"/><rect x="853.08" y="100" width="9.54" height="147" rx="3" fill="#ffd85f" opacity="0.42"/><rect x="829" y="81" width="63" height="9" rx="4" fill="#fff1ba" opacity="0.66"/></g><g opacity="0.9"><rect x="193" y="58" width="53" height="177" rx="8.833333333333334" fill="url(#tower-region-3)"/><rect x="212.07999999999998" y="68" width="9.54" height="155" rx="3" fill="#ffd85f" opacity="0.42"/><polygon points="185,58 219.5,26 254,58" fill="#fff1ba" opacity="0.82"/></g><g opacity="0.9"><rect x="342" y="78" width="53" height="181" rx="8.833333333333334" fill="url(#tower-region-3)"/><rect x="361.08" y="88" width="9.54" height="159" rx="3" fill="#ffd85f" opacity="0.42"/><ellipse cx="368.5" cy="78" rx="38.16" ry="7" fill="#fff1ba" opacity="0.74"/></g>
  <path d="M0 326 C146 256, 290 380, 430 306 S706 250, 960 310 L960 420 L0 420 Z" fill="#6c4b24" opacity="0.86"/><path d="M0 355 C160 318, 300 392, 474 346 S776 318, 960 362" fill="none" stroke="#ffd85f" stroke-width="8" opacity="0.32"/>
  <path d="M0 382 H960" stroke="#ffd85f" stroke-width="2" opacity="0.42"/>
  <path d="M181 392 C267 350, 575 410, 790 372" fill="none" stroke="#fff1ba" stroke-width="4" opacity="0.34"/>
  <text x="28" y="40" fill="#fff1ba" font-family="monospace" font-size="18" letter-spacing="5" opacity="0.5">03 STONE WASTE</text>
</svg>