<svg xmlns="http://www.w3.org/2000/svg" viewBox="0 0 960 420" role="img" aria-label="region-8 unique card art">
  <defs>
    <linearGradient id="sky-region-8" x1="0" y1="0" x2="1" y2="1"><stop offset="0" stop-color="#162b45"/><stop offset="0.52" stop-color="#09566b"/><stop offset="1" stop-color="#090812"/></linearGradient>
    <linearGradient id="tower-region-8" x1="0" y1="0" x2="1" y2="1"><stop offset="0" stop-color="#101827"/><stop offset="0.5" stop-color="#09566b"/><stop offset="1" stop-color="#03060c"/></linearGradient>
    <radialGradient id="orb-region-8" cx="50%" cy="50%" r="55%"><stop offset="0" stop-color="#fff0a8"/><stop offset="0.42" stop-color="#36f3ff" stop-opacity="0.62"/><stop offset="1" stop-color="#36f3ff" stop-opacity="0"/></radialGradient>
    <filter id="glow-region-8" x="-20%" y="-20%" width="140%" height="140%"><feGaussianBlur stdDeviation="5" result="b"/><feMerge><feMergeNode in="b"/><feMergeNode in="SourceGraphic"/></feMerge></filter>
  </defs>
  <rect width="960" height="420" fill="url(#sky-region-8)"/>
  <circle cx="227" cy="133" r="54" fill="url(#orb-region-8)" filter="url(#glow-region-8)"/>
  <circle cx="496" cy="158" r="1.6" fill="#ffffff" opacity="0.22"/><circle cx="579" cy="35" r="1.7" fill="#ffffff" opacity="0.22"/><circle cx="662" cy="154" r="1.8" fill="#ffffff" opacity="0.22"/><circle cx="745" cy="62" r="1.9" fill="#ffffff" opacity="0.22"/><circle cx="828" cy="113" r="2.0" fill="#ffffff" opacity="0.22"/><circle cx="911" cy="153" r="2.0" fill="#ffffff" opacity="0.22"/><circle cx="82" cy="105" r="2.1" fill="#ffffff" opacity="0.22"/><circle cx="165" cy="178" r="2.2" fill="#ffffff" opacity="0.22"/><circle cx="248" cy="63" r="0.8" fill="#ffffff" opacity="0.22"/><circle cx="331" cy="20" r="0.9" fill="#ffffff" opacity="0.22"/><circle cx="414" cy="179" r="1.0" fill="#ffffff" opacity="0.22"/><circle cx="497" cy="24" r="1.1" fill="#ffffff" opacity="0.22"/>
  
  <polyline points="0,260 0,251 140,278 280,256 420,280 560,292 700,298 840,266 980,285 960,250 960,420 0,420" fill="#050b14" opacity="0.42"/>
  <polyline points="0,220 0,220 120,239 240,209 360,194 480,187 600,183 720,181 840,219 960,199 960,210 960,420 0,420" fill="#0a1422" opacity="0.48"/>
  <g opacity="0.9"><rect x="752" y="119" width="34" height="95" rx="5.666666666666667" fill="url(#tower-region-8)"/><rect x="764.24" y="129" width="6.12" height="73" rx="3" fill="#36f3ff" opacity="0.42"/><polygon points="744,119 769,87 794,119" fill="#c8fbff" opacity="0.82"/></g><g opacity="0.9"><rect x="111" y="98" width="44" height="140" rx="7.333333333333333" fill="url(#tower-region-8)"/><rect x="126.84" y="108" width="7.92" height="118" rx="3" fill="#36f3ff" opacity="0.42"/><ellipse cx="133" cy="98" rx="31.68" ry="7" fill="#c8fbff" opacity="0.74"/></g><g opacity="0.9"><rect x="260" y="105" width="49" height="109" rx="8.166666666666666" fill="url(#tower-region-8)"/><rect x="277.64" y="115" width="8.82" height="87" rx="3" fill="#36f3ff" opacity="0.42"/><rect x="255" y="96" width="59" height="9" rx="4" fill="#c8fbff" opacity="0.66"/></g><g opacity="0.9"><rect x="409" y="145" width="51" height="93" rx="8.5" fill="url(#tower-region-8)"/><rect x="427.36" y="155" width="9.18" height="71" rx="3" fill="#36f3ff" opacity="0.42"/><polygon points="401,145 434.5,113 468,145" fill="#c8fbff" opacity="0.82"/></g><g opacity="0.9"><rect x="558" y="129" width="52" height="85" rx="8.666666666666666" fill="url(#tower-region-8)"/><rect x="576.72" y="139" width="9.36" height="63" rx="3" fill="#36f3ff" opacity="0.42"/><ellipse cx="584" cy="129" rx="37.44" ry="7" fill="#c8fbff" opacity="0.74"/></g>
  <path d="M0 344 C140 290, 244 396, 390 344 S672 314, 960 364 L960 420 L0 420 Z" fill="#104c64" opacity="0.82"/><path d="M0 362 C144 322, 250 418, 392 366 S690 342, 960 390" fill="none" stroke="#36f3ff" stroke-width="10" opacity="0.36"/>
  <path d="M0 382 H960" stroke="#36f3ff" stroke-width="2" opacity="0.42"/>
  <path d="M176 392 C273 350, 631 410, 789 372" fill="none" stroke="#c8fbff" stroke-width="4" opacity="0.34"/>
  <text x="28" y="40" fill="#c8fbff" font-family="monospace" font-size="18" letter-spacing="5" opacity="0.5">08 NEON CANAL</text>
</svg>