<svg xmlns="http://www.w3.org/2000/svg" viewBox="0 0 960 420" role="img" aria-label="region-67 unique card art">
  <defs>
    <linearGradient id="sky-region-67" x1="0" y1="0" x2="1" y2="1"><stop offset="0" stop-color="#162b45"/><stop offset="0.52" stop-color="#69511c"/><stop offset="1" stop-color="#090812"/></linearGradient>
    <linearGradient id="tower-region-67" x1="0" y1="0" x2="1" y2="1"><stop offset="0" stop-color="#101827"/><stop offset="0.5" stop-color="#69511c"/><stop offset="1" stop-color="#03060c"/></linearGradient>
    <radialGradient id="orb-region-67" cx="50%" cy="50%" r="55%"><stop offset="0" stop-color="#fff0a8"/><stop offset="0.42" stop-color="#ffd85f" stop-opacity="0.62"/><stop offset="1" stop-color="#ffd85f" stop-opacity="0"/></radialGradient>
    <filter id="glow-region-67" x="-20%" y="-20%" width="140%" height="140%"><feGaussianBlur stdDeviation="5" result="b"/><feMerge><feMergeNode in="b"/><feMergeNode in="SourceGraphic"/></feMerge></filter>
  </defs>
  <rect width="960" height="420" fill="url(#sky-region-67)"/>
  <circle cx="691" cy="84" r="54" fill="url(#orb-region-67)" filter="url(#glow-region-67)"/>
  <circle cx="135" cy="41" r="1.1" fill="#ffffff" opacity="0.22"/><circle cx="218" cy="142" r="1.1" fill="#ffffff" opacity="0.22"/><circle cx="301" cy="41" r="1.2" fill="#ffffff" opacity="0.22"/><circle cx="384" cy="88" r="1.3" fill="#ffffff" opacity="0.22"/><circle cx="467" cy="43" r="1.4" fill="#ffffff" opacity="0.22"/><circle cx="550" cy="35" r="1.5" fill="#ffffff" opacity="0.22"/><circle cx="633" cy="129" r="1.6" fill="#ffffff" opacity="0.22"/><circle cx="716" cy="107" r="1.6" fill="#ffffff" opacity="0.22"/><circle cx="799" cy="111" r="1.7" fill="#ffffff" opacity="0.22"/><circle cx="882" cy="127" r="1.8" fill="#ffffff" opacity="0.22"/><circle cx="53" cy="67" r="1.9" fill="#ffffff" opacity="0.22"/><circle cx="136" cy="51" r="2.0" fill="#ffffff" opacity="0.22"/>
  
  <polyline points="0,260 0,247 140,276 280,255 420,280 560,257 700,246 840,275 980,290 960,250 960,420 0,420" fill="#050b14" opacity="0.42"/>
  <polyline points="0,220 0,231 120,205 240,231 360,244 480,251 600,254 720,217 840,198 960,189 960,210 960,420 0,420" fill="#0a1422" opacity="0.48"/>
  <g opacity="0.9"><rect x="631" y="114" width="37" height="147" rx="6.166666666666667" fill="url(#tower-region-67)"/><rect x="644.32" y="124" width="6.66" height="125" rx="3" fill="#ffd85f" opacity="0.42"/><rect x="626" y="105" width="47" height="9" rx="4" fill="#fff1ba" opacity="0.66"/></g><g opacity="0.9"><rect x="780" y="173" width="45" height="112" rx="7.5" fill="url(#tower-region-67)"/><rect x="796.2" y="183" width="8.1" height="90" rx="3" fill="#ffd85f" opacity="0.42"/><polygon points="772,173 802.5,141 833,173" fill="#fff1ba" opacity="0.82"/></g><g opacity="0.9"><rect x="139" y="166" width="33" height="95" rx="5.5" fill="url(#tower-region-67)"/><rect x="150.88" y="176" width="5.9399999999999995" height="73" rx="3" fill="#ffd85f" opacity="0.42"/><ellipse cx="155.5" cy="166" rx="23.759999999999998" ry="7" fill="#fff1ba" opacity="0.74"/></g><g opacity="0.9"><rect x="288" y="145" width="43" height="140" rx="7.166666666666667" fill="url(#tower-region-67)"/><rect x="303.48" y="155" width="7.739999999999999" height="118" rx="3" fill="#ffd85f" opacity="0.42"/><rect x="283" y="136" width="53" height="9" rx="4" fill="#fff1ba" opacity="0.66"/></g><g opacity="0.9"><rect x="437" y="98" width="32" height="163" rx="5.333333333333333" fill="url(#tower-region-67)"/><rect x="448.52" y="108" width="5.76" height="141" rx="3" fill="#ffd85f" opacity="0.42"/><polygon points="429,98 453,66 477,98" fill="#fff1ba" opacity="0.82"/></g>
  <path d="M0 326 C146 256, 290 380, 430 306 S706 250, 960 310 L960 420 L0 420 Z" fill="#6c4b24" opacity="0.86"/><path d="M0 355 C160 318, 300 392, 474 346 S776 318, 960 362" fill="none" stroke="#ffd85f" stroke-width="8" opacity="0.32"/>
  <path d="M0 382 H960" stroke="#ffd85f" stroke-width="2" opacity="0.42"/>
  <path d="M115 392 C265 350, 570 410, 760 372" fill="none" stroke="#fff1ba" stroke-width="4" opacity="0.34"/>
  <text x="28" y="40" fill="#fff1ba" font-family="monospace" font-size="18" letter-spacing="5" opacity="0.5">67 STONE WASTE</text>
</svg>