<svg xmlns="http://www.w3.org/2000/svg" viewBox="0 0 960 420" role="img" aria-label="region-34 unique card art">
  <defs>
    <linearGradient id="sky-region-34" x1="0" y1="0" x2="1" y2="1"><stop offset="0" stop-color="#162b45"/><stop offset="0.52" stop-color="#1e5a28"/><stop offset="1" stop-color="#090812"/></linearGradient>
    <linearGradient id="tower-region-34" x1="0" y1="0" x2="1" y2="1"><stop offset="0" stop-color="#101827"/><stop offset="0.5" stop-color="#1e5a28"/><stop offset="1" stop-color="#03060c"/></linearGradient>
    <radialGradient id="orb-region-34" cx="50%" cy="50%" r="55%"><stop offset="0" stop-color="#fff0a8"/><stop offset="0.42" stop-color="#8dff72" stop-opacity="0.62"/><stop offset="1" stop-color="#8dff72" stop-opacity="0"/></radialGradient>
    <filter id="glow-region-34" x="-20%" y="-20%" width="140%" height="140%"><feGaussianBlur stdDeviation="5" result="b"/><feMerge><feMergeNode in="b"/><feMergeNode in="SourceGraphic"/></feMerge></filter>
  </defs>
  <rect width="960" height="420" fill="url(#sky-region-34)"/>
  <circle cx="814" cy="115" r="54" fill="url(#orb-region-34)" filter="url(#glow-region-34)"/>
  <circle cx="351" cy="91" r="2.0" fill="#ffffff" opacity="0.22"/><circle cx="434" cy="84" r="2.1" fill="#ffffff" opacity="0.22"/><circle cx="517" cy="95" r="2.2" fill="#ffffff" opacity="0.22"/><circle cx="600" cy="115" r="0.8" fill="#ffffff" opacity="0.22"/><circle cx="683" cy="57" r="0.9" fill="#ffffff" opacity="0.22"/><circle cx="766" cy="42" r="1.0" fill="#ffffff" opacity="0.22"/><circle cx="849" cy="132" r="1.1" fill="#ffffff" opacity="0.22"/><circle cx="932" cy="26" r="1.1" fill="#ffffff" opacity="0.22"/><circle cx="103" cy="153" r="1.2" fill="#ffffff" opacity="0.22"/><circle cx="186" cy="148" r="1.3" fill="#ffffff" opacity="0.22"/><circle cx="269" cy="77" r="1.4" fill="#ffffff" opacity="0.22"/><circle cx="352" cy="139" r="1.5" fill="#ffffff" opacity="0.22"/>
  
  <polyline points="0,260 0,258 140,281 280,258 420,246 560,240 700,272 840,253 980,279 960,250 960,420 0,420" fill="#050b14" opacity="0.42"/>
  <polyline points="0,220 0,231 120,244 240,251 360,215 480,236 600,247 720,213 840,235 960,207 960,210 960,420 0,420" fill="#0a1422" opacity="0.48"/>
  <g opacity="0.9"><rect x="815" y="160" width="49" height="101" rx="8.166666666666666" fill="url(#tower-region-34)"/><rect x="832.64" y="170" width="8.82" height="79" rx="3" fill="#8dff72" opacity="0.42"/><rect x="810" y="151" width="59" height="9" rx="4" fill="#e8ffe3" opacity="0.66"/></g><g opacity="0.9"><rect x="174" y="142" width="35" height="143" rx="5.833333333333333" fill="url(#tower-region-34)"/><rect x="186.6" y="152" width="6.3" height="121" rx="3" fill="#8dff72" opacity="0.42"/><polygon points="166,142 191.5,110 217,142" fill="#e8ffe3" opacity="0.82"/></g><g opacity="0.9"><rect x="323" y="97" width="44" height="164" rx="7.333333333333333" fill="url(#tower-region-34)"/><rect x="338.84" y="107" width="7.92" height="142" rx="3" fill="#8dff72" opacity="0.42"/><ellipse cx="345" cy="97" rx="31.68" ry="7" fill="#e8ffe3" opacity="0.74"/></g>
  <path d="M0 330 C105 275, 162 316, 260 274 S430 332, 552 282 S760 310, 960 256 L960 420 L0 420 Z" fill="#173d23" opacity="0.84"/><g opacity="0.68"><circle cx="319" cy="297" r="27" fill="#8dff72"/><circle cx="386" cy="287" r="14" fill="#b7ff91"/><circle cx="453" cy="323" r="25" fill="#b7ff91"/><circle cx="520" cy="300" r="12" fill="#8dff72"/><circle cx="587" cy="289" r="23" fill="#b7ff91"/><circle cx="654" cy="283" r="34" fill="#b7ff91"/><circle cx="721" cy="280" r="21" fill="#8dff72"/><circle cx="788" cy="279" r="32" fill="#b7ff91"/><circle cx="855" cy="319" r="19" fill="#b7ff91"/><circle cx="42" cy="339" r="30" fill="#8dff72"/><circle cx="109" cy="349" r="17" fill="#b7ff91"/><circle cx="176" cy="354" r="28" fill="#b7ff91"/><circle cx="243" cy="297" r="15" fill="#8dff72"/><circle cx="310" cy="287" r="26" fill="#b7ff91"/></g>
  <path d="M0 382 H960" stroke="#8dff72" stroke-width="2" opacity="0.42"/>
  <path d="M199 392 C287 350, 623 410, 742 372" fill="none" stroke="#e8ffe3" stroke-width="4" opacity="0.34"/>
  <text x="28" y="40" fill="#e8ffe3" font-family="monospace" font-size="18" letter-spacing="5" opacity="0.5">34 MYCEL FOREST</text>
</svg>