<svg xmlns="http://www.w3.org/2000/svg" viewBox="0 0 960 420" role="img" aria-label="region-21 unique card art">
  <defs>
    <linearGradient id="sky-region-21" x1="0" y1="0" x2="1" y2="1"><stop offset="0" stop-color="#071126"/><stop offset="0.52" stop-color="#5b164e"/><stop offset="1" stop-color="#090812"/></linearGradient>
    <linearGradient id="tower-region-21" x1="0" y1="0" x2="1" y2="1"><stop offset="0" stop-color="#101827"/><stop offset="0.5" stop-color="#5b164e"/><stop offset="1" stop-color="#03060c"/></linearGradient>
    <radialGradient id="orb-region-21" cx="50%" cy="50%" r="55%"><stop offset="0" stop-color="#d9dfff"/><stop offset="0.42" stop-color="#ff74ee" stop-opacity="0.62"/><stop offset="1" stop-color="#ff74ee" stop-opacity="0"/></radialGradient>
    <filter id="glow-region-21" x="-20%" y="-20%" width="140%" height="140%"><feGaussianBlur stdDeviation="5" result="b"/><feMerge><feMergeNode in="b"/><feMergeNode in="SourceGraphic"/></feMerge></filter>
  </defs>
  <rect width="960" height="420" fill="url(#sky-region-21)"/>
  <circle cx="406" cy="115" r="38" fill="url(#orb-region-21)" filter="url(#glow-region-21)"/>
  <circle cx="445" cy="81" r="1.4" fill="#ffffff" opacity="0.72"/><circle cx="528" cy="79" r="1.5" fill="#ffffff" opacity="0.72"/><circle cx="611" cy="93" r="1.6" fill="#ffffff" opacity="0.72"/><circle cx="694" cy="31" r="1.6" fill="#ffffff" opacity="0.72"/><circle cx="777" cy="181" r="1.7" fill="#ffffff" opacity="0.72"/><circle cx="860" cy="104" r="1.8" fill="#ffffff" opacity="0.72"/><circle cx="31" cy="163" r="1.9" fill="#ffffff" opacity="0.72"/><circle cx="114" cy="124" r="2.0" fill="#ffffff" opacity="0.72"/><circle cx="197" cy="36" r="2.0" fill="#ffffff" opacity="0.72"/><circle cx="280" cy="90" r="2.1" fill="#ffffff" opacity="0.72"/><circle cx="363" cy="48" r="2.2" fill="#ffffff" opacity="0.72"/><circle cx="446" cy="42" r="0.8" fill="#ffffff" opacity="0.72"/><circle cx="529" cy="53" r="0.9" fill="#ffffff" opacity="0.72"/><circle cx="612" cy="73" r="1.0" fill="#ffffff" opacity="0.72"/><circle cx="695" cy="181" r="1.1" fill="#ffffff" opacity="0.72"/><circle cx="778" cy="83" r="1.1" fill="#ffffff" opacity="0.72"/><circle cx="861" cy="47" r="1.2" fill="#ffffff" opacity="0.72"/><circle cx="32" cy="45" r="1.3" fill="#ffffff" opacity="0.72"/><circle cx="115" cy="59" r="1.4" fill="#ffffff" opacity="0.72"/><circle cx="198" cy="163" r="1.5" fill="#ffffff" opacity="0.72"/><circle cx="281" cy="147" r="1.6" fill="#ffffff" opacity="0.72"/><circle cx="364" cy="70" r="1.6" fill="#ffffff" opacity="0.72"/><circle cx="447" cy="129" r="1.7" fill="#ffffff" opacity="0.72"/><circle cx="530" cy="90" r="1.8" fill="#ffffff" opacity="0.72"/><circle cx="613" cy="168" r="1.9" fill="#ffffff" opacity="0.72"/><circle cx="696" cy="56" r="2.0" fill="#ffffff" opacity="0.72"/><circle cx="779" cy="180" r="2.0" fill="#ffffff" opacity="0.72"/><circle cx="862" cy="174" r="2.1" fill="#ffffff" opacity="0.72"/><circle cx="33" cy="185" r="2.2" fill="#ffffff" opacity="0.72"/><circle cx="116" cy="39" r="0.8" fill="#ffffff" opacity="0.72"/><circle cx="199" cy="147" r="0.9" fill="#ffffff" opacity="0.72"/><circle cx="282" cy="49" r="1.0" fill="#ffffff" opacity="0.72"/><circle cx="365" cy="179" r="1.1" fill="#ffffff" opacity="0.72"/><circle cx="448" cy="177" r="1.1" fill="#ffffff" opacity="0.72"/>
  
  <polyline points="0,260 0,276 140,290 280,262 420,283 560,294 700,299 840,302 980,268 960,250 960,420 0,420" fill="#050b14" opacity="0.42"/>
  <polyline points="0,220 0,213 120,196 240,227 360,203 480,191 600,185 720,182 840,181 960,180 960,210 960,420 0,420" fill="#0a1422" opacity="0.48"/>
  <g opacity="0.9"><rect x="319" y="90" width="48" height="149" rx="8" fill="url(#tower-region-21)"/><rect x="336.28" y="100" width="8.64" height="127" rx="3" fill="#ff74ee" opacity="0.42"/><polygon points="311,90 343,58 375,90" fill="#ffe2fb" opacity="0.82"/></g><g opacity="0.9"><rect x="468" y="150" width="51" height="113" rx="8.5" fill="url(#tower-region-21)"/><rect x="486.36" y="160" width="9.18" height="91" rx="3" fill="#ff74ee" opacity="0.42"/><ellipse cx="493.5" cy="150" rx="36.72" ry="7" fill="#ffe2fb" opacity="0.74"/></g><g opacity="0.9"><rect x="617" y="90" width="52" height="149" rx="8.666666666666666" fill="url(#tower-region-21)"/><rect x="635.72" y="100" width="9.36" height="127" rx="3" fill="#ff74ee" opacity="0.42"/><rect x="612" y="81" width="62" height="9" rx="4" fill="#ffe2fb" opacity="0.66"/></g><g opacity="0.9"><rect x="766" y="96" width="37" height="167" rx="6.166666666666667" fill="url(#tower-region-21)"/><rect x="779.32" y="106" width="6.66" height="145" rx="3" fill="#ff74ee" opacity="0.42"/><polygon points="758,96 784.5,64 811,96" fill="#ffe2fb" opacity="0.82"/></g><g opacity="0.9"><rect x="125" y="63" width="45" height="176" rx="7.5" fill="url(#tower-region-21)"/><rect x="141.2" y="73" width="8.1" height="154" rx="3" fill="#ff74ee" opacity="0.42"/><ellipse cx="147.5" cy="63" rx="32.4" ry="7" fill="#ffe2fb" opacity="0.74"/></g><g opacity="0.9"><rect x="274" y="136" width="33" height="127" rx="5.5" fill="url(#tower-region-21)"/><rect x="285.88" y="146" width="5.9399999999999995" height="105" rx="3" fill="#ff74ee" opacity="0.42"/><rect x="269" y="127" width="43" height="9" rx="4" fill="#ffe2fb" opacity="0.66"/></g><g opacity="0.9"><rect x="423" y="83" width="43" height="156" rx="7.166666666666667" fill="url(#tower-region-21)"/><rect x="438.48" y="93" width="7.739999999999999" height="134" rx="3" fill="#ff74ee" opacity="0.42"/><polygon points="415,83 444.5,51 474,83" fill="#ffe2fb" opacity="0.82"/></g>
  <path d="M0 330 L90 298 L164 326 L258 286 L354 326 L478 292 L612 328 L740 276 L842 322 L960 294 L960 420 L0 420 Z" fill="#1c1230" opacity="0.82"/><path d="M80 320 H884" stroke="#ff74ee" stroke-width="4" opacity="0.38"/>
  <path d="M0 382 H960" stroke="#ff74ee" stroke-width="2" opacity="0.42"/>
  <path d="M173 392 C323 350, 597 410, 783 372" fill="none" stroke="#ffe2fb" stroke-width="4" opacity="0.34"/>
  <text x="28" y="40" fill="#ffe2fb" font-family="monospace" font-size="18" letter-spacing="5" opacity="0.5">21 DROWNED CITY</text>
</svg>