<svg xmlns="http://www.w3.org/2000/svg" viewBox="0 0 960 420" role="img" aria-label="region-9 unique card art">
  <defs>
    <linearGradient id="sky-region-9" x1="0" y1="0" x2="1" y2="1"><stop offset="0" stop-color="#071126"/><stop offset="0.52" stop-color="#5b164e"/><stop offset="1" stop-color="#090812"/></linearGradient>
    <linearGradient id="tower-region-9" x1="0" y1="0" x2="1" y2="1"><stop offset="0" stop-color="#101827"/><stop offset="0.5" stop-color="#5b164e"/><stop offset="1" stop-color="#03060c"/></linearGradient>
    <radialGradient id="orb-region-9" cx="50%" cy="50%" r="55%"><stop offset="0" stop-color="#d9dfff"/><stop offset="0.42" stop-color="#ff74ee" stop-opacity="0.62"/><stop offset="1" stop-color="#ff74ee" stop-opacity="0"/></radialGradient>
    <filter id="glow-region-9" x="-20%" y="-20%" width="140%" height="140%"><feGaussianBlur stdDeviation="5" result="b"/><feMerge><feMergeNode in="b"/><feMergeNode in="SourceGraphic"/></feMerge></filter>
  </defs>
  <rect width="960" height="420" fill="url(#sky-region-9)"/>
  <circle cx="789" cy="110" r="38" fill="url(#orb-region-9)" filter="url(#glow-region-9)"/>
  <circle cx="51" cy="157" r="1.6" fill="#ffffff" opacity="0.72"/><circle cx="134" cy="34" r="1.6" fill="#ffffff" opacity="0.72"/><circle cx="217" cy="70" r="1.7" fill="#ffffff" opacity="0.72"/><circle cx="300" cy="20" r="1.8" fill="#ffffff" opacity="0.72"/><circle cx="383" cy="92" r="1.9" fill="#ffffff" opacity="0.72"/><circle cx="466" cy="60" r="2.0" fill="#ffffff" opacity="0.72"/><circle cx="549" cy="141" r="2.0" fill="#ffffff" opacity="0.72"/><circle cx="632" cy="113" r="2.1" fill="#ffffff" opacity="0.72"/><circle cx="715" cy="31" r="2.2" fill="#ffffff" opacity="0.72"/><circle cx="798" cy="87" r="0.8" fill="#ffffff" opacity="0.72"/><circle cx="881" cy="130" r="0.9" fill="#ffffff" opacity="0.72"/><circle cx="52" cy="83" r="1.0" fill="#ffffff" opacity="0.72"/><circle cx="135" cy="157" r="1.1" fill="#ffffff" opacity="0.72"/><circle cx="218" cy="42" r="1.1" fill="#ffffff" opacity="0.72"/><circle cx="301" cy="82" r="1.2" fill="#ffffff" opacity="0.72"/><circle cx="384" cy="117" r="1.3" fill="#ffffff" opacity="0.72"/><circle cx="467" cy="123" r="1.4" fill="#ffffff" opacity="0.72"/><circle cx="550" cy="166" r="1.5" fill="#ffffff" opacity="0.72"/><circle cx="633" cy="36" r="1.6" fill="#ffffff" opacity="0.72"/><circle cx="716" cy="152" r="1.6" fill="#ffffff" opacity="0.72"/><circle cx="799" cy="58" r="1.7" fill="#ffffff" opacity="0.72"/><circle cx="882" cy="26" r="1.8" fill="#ffffff" opacity="0.72"/><circle cx="53" cy="107" r="1.9" fill="#ffffff" opacity="0.72"/><circle cx="136" cy="79" r="2.0" fill="#ffffff" opacity="0.72"/><circle cx="219" cy="163" r="2.0" fill="#ffffff" opacity="0.72"/><circle cx="302" cy="53" r="2.1" fill="#ffffff" opacity="0.72"/><circle cx="385" cy="96" r="2.2" fill="#ffffff" opacity="0.72"/><circle cx="468" cy="49" r="0.8" fill="#ffffff" opacity="0.72"/><circle cx="551" cy="123" r="0.9" fill="#ffffff" opacity="0.72"/><circle cx="634" cy="174" r="1.0" fill="#ffffff" opacity="0.72"/><circle cx="717" cy="48" r="1.1" fill="#ffffff" opacity="0.72"/><circle cx="800" cy="83" r="1.1" fill="#ffffff" opacity="0.72"/><circle cx="883" cy="89" r="1.2" fill="#ffffff" opacity="0.72"/><circle cx="54" cy="132" r="1.3" fill="#ffffff" opacity="0.72"/>
  
  <polyline points="0,260 0,252 140,278 280,291 420,298 560,301 700,303 840,269 980,252 960,250 960,420 0,420" fill="#050b14" opacity="0.42"/>
  <polyline points="0,220 0,252 120,255 240,256 360,257 480,257 600,218 720,199 840,228 960,204 960,210 960,420 0,420" fill="#0a1422" opacity="0.48"/>
  <g opacity="0.9"><rect x="351" y="117" width="43" height="124" rx="7.166666666666667" fill="url(#tower-region-9)"/><rect x="366.48" y="127" width="7.739999999999999" height="102" rx="3" fill="#ff74ee" opacity="0.42"/><rect x="346" y="108" width="53" height="9" rx="4" fill="#ffe2fb" opacity="0.66"/></g><g opacity="0.9"><rect x="500" y="164" width="48" height="101" rx="8" fill="url(#tower-region-9)"/><rect x="517.28" y="174" width="8.64" height="79" rx="3" fill="#ff74ee" opacity="0.42"/><polygon points="492,164 524,132 556,164" fill="#ffe2fb" opacity="0.82"/></g><g opacity="0.9"><rect x="649" y="98" width="35" height="143" rx="5.833333333333333" fill="url(#tower-region-9)"/><rect x="661.6" y="108" width="6.3" height="121" rx="3" fill="#ff74ee" opacity="0.42"/><ellipse cx="666.5" cy="98" rx="25.2" ry="7" fill="#ffe2fb" opacity="0.74"/></g><g opacity="0.9"><rect x="798" y="101" width="44" height="164" rx="7.333333333333333" fill="url(#tower-region-9)"/><rect x="813.84" y="111" width="7.92" height="142" rx="3" fill="#ff74ee" opacity="0.42"/><rect x="793" y="92" width="54" height="9" rx="4" fill="#ffe2fb" opacity="0.66"/></g>
  <path d="M0 330 L90 298 L164 326 L258 286 L354 326 L478 292 L612 328 L740 276 L842 322 L960 294 L960 420 L0 420 Z" fill="#1c1230" opacity="0.82"/><path d="M80 320 H884" stroke="#ff74ee" stroke-width="4" opacity="0.38"/>
  <path d="M0 382 H960" stroke="#ff74ee" stroke-width="2" opacity="0.42"/>
  <path d="M175 392 C274 350, 546 410, 756 372" fill="none" stroke="#ffe2fb" stroke-width="4" opacity="0.34"/>
  <text x="28" y="40" fill="#ffe2fb" font-family="monospace" font-size="18" letter-spacing="5" opacity="0.5">09 DROWNED CITY</text>
</svg>