<svg xmlns="http://www.w3.org/2000/svg" viewBox="0 0 960 420" role="img" aria-label="region-48 unique card art">
  <defs>
    <linearGradient id="sky-region-48" x1="0" y1="0" x2="1" y2="1"><stop offset="0" stop-color="#071126"/><stop offset="0.52" stop-color="#09566b"/><stop offset="1" stop-color="#090812"/></linearGradient>
    <linearGradient id="tower-region-48" x1="0" y1="0" x2="1" y2="1"><stop offset="0" stop-color="#101827"/><stop offset="0.5" stop-color="#09566b"/><stop offset="1" stop-color="#03060c"/></linearGradient>
    <radialGradient id="orb-region-48" cx="50%" cy="50%" r="55%"><stop offset="0" stop-color="#d9dfff"/><stop offset="0.42" stop-color="#36f3ff" stop-opacity="0.62"/><stop offset="1" stop-color="#36f3ff" stop-opacity="0"/></radialGradient>
    <filter id="glow-region-48" x="-20%" y="-20%" width="140%" height="140%"><feGaussianBlur stdDeviation="5" result="b"/><feMerge><feMergeNode in="b"/><feMergeNode in="SourceGraphic"/></feMerge></filter>
  </defs>
  <rect width="960" height="420" fill="url(#sky-region-48)"/>
  <circle cx="659" cy="58" r="38" fill="url(#orb-region-48)" filter="url(#glow-region-48)"/>
  <circle cx="164" cy="160" r="2.0" fill="#ffffff" opacity="0.72"/><circle cx="247" cy="119" r="2.0" fill="#ffffff" opacity="0.72"/><circle cx="330" cy="113" r="2.1" fill="#ffffff" opacity="0.72"/><circle cx="413" cy="124" r="2.2" fill="#ffffff" opacity="0.72"/><circle cx="496" cy="61" r="0.8" fill="#ffffff" opacity="0.72"/><circle cx="579" cy="127" r="0.9" fill="#ffffff" opacity="0.72"/><circle cx="662" cy="175" r="1.0" fill="#ffffff" opacity="0.72"/><circle cx="745" cy="47" r="1.1" fill="#ffffff" opacity="0.72"/><circle cx="828" cy="164" r="1.1" fill="#ffffff" opacity="0.72"/><circle cx="911" cy="154" r="1.2" fill="#ffffff" opacity="0.72"/><circle cx="82" cy="163" r="1.3" fill="#ffffff" opacity="0.72"/><circle cx="165" cy="99" r="1.4" fill="#ffffff" opacity="0.72"/><circle cx="248" cy="82" r="1.5" fill="#ffffff" opacity="0.72"/><circle cx="331" cy="88" r="1.6" fill="#ffffff" opacity="0.72"/><circle cx="414" cy="22" r="1.6" fill="#ffffff" opacity="0.72"/><circle cx="497" cy="170" r="1.7" fill="#ffffff" opacity="0.72"/><circle cx="580" cy="126" r="1.8" fill="#ffffff" opacity="0.72"/><circle cx="663" cy="85" r="1.9" fill="#ffffff" opacity="0.72"/><circle cx="746" cy="79" r="2.0" fill="#ffffff" opacity="0.72"/><circle cx="829" cy="90" r="2.0" fill="#ffffff" opacity="0.72"/><circle cx="912" cy="27" r="2.1" fill="#ffffff" opacity="0.72"/><circle cx="83" cy="93" r="2.2" fill="#ffffff" opacity="0.72"/><circle cx="166" cy="141" r="0.8" fill="#ffffff" opacity="0.72"/><circle cx="249" cy="179" r="0.9" fill="#ffffff" opacity="0.72"/><circle cx="332" cy="130" r="1.0" fill="#ffffff" opacity="0.72"/><circle cx="415" cy="120" r="1.1" fill="#ffffff" opacity="0.72"/><circle cx="498" cy="129" r="1.1" fill="#ffffff" opacity="0.72"/><circle cx="581" cy="65" r="1.2" fill="#ffffff" opacity="0.72"/><circle cx="664" cy="48" r="1.3" fill="#ffffff" opacity="0.72"/><circle cx="747" cy="54" r="1.4" fill="#ffffff" opacity="0.72"/><circle cx="830" cy="154" r="1.5" fill="#ffffff" opacity="0.72"/><circle cx="913" cy="136" r="1.6" fill="#ffffff" opacity="0.72"/><circle cx="84" cy="92" r="1.6" fill="#ffffff" opacity="0.72"/><circle cx="167" cy="51" r="1.7" fill="#ffffff" opacity="0.72"/>
  
  <polyline points="0,260 0,299 140,302 280,303 420,269 560,252 700,278 840,291 980,263 960,250 960,420 0,420" fill="#050b14" opacity="0.42"/>
  <polyline points="0,220 0,221 120,239 240,209 360,194 480,187 600,222 720,240 840,249 960,253 960,210 960,420 0,420" fill="#0a1422" opacity="0.48"/>
  <g opacity="0.9"><rect x="662" y="51" width="36" height="167" rx="6" fill="url(#tower-region-48)"/><rect x="674.96" y="61" width="6.4799999999999995" height="145" rx="3" fill="#36f3ff" opacity="0.42"/><ellipse cx="680" cy="51" rx="25.919999999999998" ry="7" fill="#c8fbff" opacity="0.74"/></g><g opacity="0.9"><rect x="811" y="66" width="45" height="176" rx="7.5" fill="url(#tower-region-48)"/><rect x="827.2" y="76" width="8.1" height="154" rx="3" fill="#36f3ff" opacity="0.42"/><rect x="806" y="57" width="55" height="9" rx="4" fill="#c8fbff" opacity="0.66"/></g><g opacity="0.9"><rect x="170" y="91" width="33" height="127" rx="5.5" fill="url(#tower-region-48)"/><rect x="181.88" y="101" width="5.9399999999999995" height="105" rx="3" fill="#36f3ff" opacity="0.42"/><polygon points="162,91 186.5,59 211,91" fill="#c8fbff" opacity="0.82"/></g><g opacity="0.9"><rect x="319" y="140" width="27" height="102" rx="4.5" fill="url(#tower-region-48)"/><rect x="328.72" y="150" width="4.859999999999999" height="80" rx="3" fill="#36f3ff" opacity="0.42"/><ellipse cx="332.5" cy="140" rx="19.439999999999998" ry="7" fill="#c8fbff" opacity="0.74"/></g><g opacity="0.9"><rect x="468" y="74" width="40" height="144" rx="6.666666666666667" fill="url(#tower-region-48)"/><rect x="482.4" y="84" width="7.199999999999999" height="122" rx="3" fill="#36f3ff" opacity="0.42"/><rect x="463" y="65" width="50" height="9" rx="4" fill="#c8fbff" opacity="0.66"/></g>
  <path d="M0 344 C140 290, 244 396, 390 344 S672 314, 960 364 L960 420 L0 420 Z" fill="#104c64" opacity="0.82"/><path d="M0 362 C144 322, 250 418, 392 366 S690 342, 960 390" fill="none" stroke="#36f3ff" stroke-width="10" opacity="0.36"/>
  <path d="M0 382 H960" stroke="#36f3ff" stroke-width="2" opacity="0.42"/>
  <path d="M216 392 C369 350, 628 410, 774 372" fill="none" stroke="#c8fbff" stroke-width="4" opacity="0.34"/>
  <text x="28" y="40" fill="#c8fbff" font-family="monospace" font-size="18" letter-spacing="5" opacity="0.5">48 NEON CANAL</text>
</svg>