<svg xmlns="http://www.w3.org/2000/svg" viewBox="0 0 960 420" role="img" aria-label="region-22 unique card art">
  <defs>
    <linearGradient id="sky-region-22" x1="0" y1="0" x2="1" y2="1"><stop offset="0" stop-color="#162b45"/><stop offset="0.52" stop-color="#1e5a28"/><stop offset="1" stop-color="#090812"/></linearGradient>
    <linearGradient id="tower-region-22" x1="0" y1="0" x2="1" y2="1"><stop offset="0" stop-color="#101827"/><stop offset="0.5" stop-color="#1e5a28"/><stop offset="1" stop-color="#03060c"/></linearGradient>
    <radialGradient id="orb-region-22" cx="50%" cy="50%" r="55%"><stop offset="0" stop-color="#fff0a8"/><stop offset="0.42" stop-color="#8dff72" stop-opacity="0.62"/><stop offset="1" stop-color="#8dff72" stop-opacity="0"/></radialGradient>
    <filter id="glow-region-22" x="-20%" y="-20%" width="140%" height="140%"><feGaussianBlur stdDeviation="5" result="b"/><feMerge><feMergeNode in="b"/><feMergeNode in="SourceGraphic"/></feMerge></filter>
  </defs>
  <rect width="960" height="420" fill="url(#sky-region-22)"/>
  <circle cx="159" cy="66" r="54" fill="url(#orb-region-22)" filter="url(#glow-region-22)"/>
  <circle cx="868" cy="84" r="1.6" fill="#ffffff" opacity="0.22"/><circle cx="39" cy="81" r="1.7" fill="#ffffff" opacity="0.22"/><circle cx="122" cy="177" r="1.8" fill="#ffffff" opacity="0.22"/><circle cx="205" cy="156" r="1.9" fill="#ffffff" opacity="0.22"/><circle cx="288" cy="77" r="2.0" fill="#ffffff" opacity="0.22"/><circle cx="371" cy="52" r="2.0" fill="#ffffff" opacity="0.22"/><circle cx="454" cy="54" r="2.1" fill="#ffffff" opacity="0.22"/><circle cx="537" cy="153" r="2.2" fill="#ffffff" opacity="0.22"/><circle cx="620" cy="134" r="0.8" fill="#ffffff" opacity="0.22"/><circle cx="703" cy="56" r="0.9" fill="#ffffff" opacity="0.22"/><circle cx="786" cy="31" r="1.0" fill="#ffffff" opacity="0.22"/><circle cx="869" cy="33" r="1.1" fill="#ffffff" opacity="0.22"/>
  
  <polyline points="0,260 0,274 140,289 280,297 420,301 560,268 700,286 840,295 980,300 960,250 960,420 0,420" fill="#050b14" opacity="0.42"/>
  <polyline points="0,220 0,193 120,225 240,241 360,249 480,214 600,236 720,208 840,233 960,245 960,210 960,420 0,420" fill="#0a1422" opacity="0.48"/>
  <g opacity="0.9"><rect x="732" y="41" width="52" height="169" rx="8.666666666666666" fill="url(#tower-region-22)"/><rect x="750.72" y="51" width="9.36" height="147" rx="3" fill="#8dff72" opacity="0.42"/><polygon points="724,41 758,9 792,41" fill="#e8ffe3" opacity="0.82"/></g><g opacity="0.9"><rect x="91" y="111" width="37" height="123" rx="6.166666666666667" fill="url(#tower-region-22)"/><rect x="104.32" y="121" width="6.66" height="101" rx="3" fill="#8dff72" opacity="0.42"/><ellipse cx="109.5" cy="111" rx="26.64" ry="7" fill="#e8ffe3" opacity="0.74"/></g><g opacity="0.9"><rect x="240" y="56" width="29" height="154" rx="4.833333333333333" fill="url(#tower-region-22)"/><rect x="250.44" y="66" width="5.22" height="132" rx="3" fill="#8dff72" opacity="0.42"/><rect x="235" y="47" width="39" height="9" rx="4" fill="#e8ffe3" opacity="0.66"/></g><g opacity="0.9"><rect x="389" y="64" width="25" height="170" rx="4.166666666666667" fill="url(#tower-region-22)"/><rect x="398" y="74" width="4.5" height="148" rx="3" fill="#8dff72" opacity="0.42"/><polygon points="381,64 401.5,32 422,64" fill="#e8ffe3" opacity="0.82"/></g><g opacity="0.9"><rect x="538" y="86" width="39" height="124" rx="6.5" fill="url(#tower-region-22)"/><rect x="552.04" y="96" width="7.02" height="102" rx="3" fill="#8dff72" opacity="0.42"/><ellipse cx="557.5" cy="86" rx="28.08" ry="7" fill="#e8ffe3" opacity="0.74"/></g><g opacity="0.9"><rect x="687" y="133" width="46" height="101" rx="7.666666666666667" fill="url(#tower-region-22)"/><rect x="703.56" y="143" width="8.28" height="79" rx="3" fill="#8dff72" opacity="0.42"/><rect x="682" y="124" width="56" height="9" rx="4" fill="#e8ffe3" opacity="0.66"/></g>
  <path d="M0 330 C105 275, 162 316, 260 274 S430 332, 552 282 S760 310, 960 256 L960 420 L0 420 Z" fill="#173d23" opacity="0.84"/><g opacity="0.68"><circle cx="436" cy="284" r="16" fill="#8dff72"/><circle cx="503" cy="322" r="27" fill="#b7ff91"/><circle cx="570" cy="341" r="14" fill="#b7ff91"/><circle cx="637" cy="309" r="25" fill="#8dff72"/><circle cx="704" cy="293" r="12" fill="#b7ff91"/><circle cx="771" cy="285" r="23" fill="#b7ff91"/><circle cx="838" cy="322" r="34" fill="#8dff72"/><circle cx="905" cy="300" r="21" fill="#b7ff91"/><circle cx="92" cy="330" r="32" fill="#b7ff91"/><circle cx="159" cy="345" r="19" fill="#8dff72"/><circle cx="226" cy="311" r="30" fill="#b7ff91"/><circle cx="293" cy="294" r="17" fill="#b7ff91"/><circle cx="360" cy="284" r="28" fill="#8dff72"/><circle cx="427" cy="322" r="15" fill="#b7ff91"/></g>
  <path d="M0 382 H960" stroke="#8dff72" stroke-width="2" opacity="0.42"/>
  <path d="M176 392 C319 350, 612 410, 880 372" fill="none" stroke="#e8ffe3" stroke-width="4" opacity="0.34"/>
  <text x="28" y="40" fill="#e8ffe3" font-family="monospace" font-size="18" letter-spacing="5" opacity="0.5">22 MYCEL FOREST</text>
</svg>