<svg xmlns="http://www.w3.org/2000/svg" viewBox="0 0 960 420" role="img" aria-label="region-44 unique card art">
  <defs>
    <linearGradient id="sky-region-44" x1="0" y1="0" x2="1" y2="1"><stop offset="0" stop-color="#162b45"/><stop offset="0.52" stop-color="#09566b"/><stop offset="1" stop-color="#090812"/></linearGradient>
    <linearGradient id="tower-region-44" x1="0" y1="0" x2="1" y2="1"><stop offset="0" stop-color="#101827"/><stop offset="0.5" stop-color="#09566b"/><stop offset="1" stop-color="#03060c"/></linearGradient>
    <radialGradient id="orb-region-44" cx="50%" cy="50%" r="55%"><stop offset="0" stop-color="#fff0a8"/><stop offset="0.42" stop-color="#36f3ff" stop-opacity="0.62"/><stop offset="1" stop-color="#36f3ff" stop-opacity="0"/></radialGradient>
    <filter id="glow-region-44" x="-20%" y="-20%" width="140%" height="140%"><feGaussianBlur stdDeviation="5" result="b"/><feMerge><feMergeNode in="b"/><feMergeNode in="SourceGraphic"/></feMerge></filter>
  </defs>
  <rect width="960" height="420" fill="url(#sky-region-44)"/>
  <circle cx="749" cy="85" r="54" fill="url(#orb-region-44)" filter="url(#glow-region-44)"/>
  <circle cx="208" cy="156" r="1.6" fill="#ffffff" opacity="0.22"/><circle cx="291" cy="117" r="1.7" fill="#ffffff" opacity="0.22"/><circle cx="374" cy="112" r="1.8" fill="#ffffff" opacity="0.22"/><circle cx="457" cy="124" r="1.9" fill="#ffffff" opacity="0.22"/><circle cx="540" cy="144" r="2.0" fill="#ffffff" opacity="0.22"/><circle cx="623" cy="86" r="2.0" fill="#ffffff" opacity="0.22"/><circle cx="706" cy="154" r="2.1" fill="#ffffff" opacity="0.22"/><circle cx="789" cy="120" r="2.2" fill="#ffffff" opacity="0.22"/><circle cx="872" cy="34" r="0.8" fill="#ffffff" opacity="0.22"/><circle cx="43" cy="89" r="0.9" fill="#ffffff" opacity="0.22"/><circle cx="126" cy="131" r="1.0" fill="#ffffff" opacity="0.22"/><circle cx="209" cy="166" r="1.1" fill="#ffffff" opacity="0.22"/>
  
  <polyline points="0,260 0,302 140,303 280,304 420,269 560,287 700,296 840,300 980,267 960,250 960,420 0,420" fill="#050b14" opacity="0.42"/>
  <polyline points="0,220 0,196 120,227 240,242 360,211 480,234 600,207 720,232 840,206 960,193 960,210 960,420 0,420" fill="#0a1422" opacity="0.48"/>
  <g opacity="0.9"><rect x="638" y="46" width="42" height="176" rx="7" fill="url(#tower-region-44)"/><rect x="653.12" y="56" width="7.56" height="154" rx="3" fill="#36f3ff" opacity="0.42"/><polygon points="630,46 659,14 688,46" fill="#c8fbff" opacity="0.82"/></g><g opacity="0.9"><rect x="787" y="119" width="32" height="127" rx="5.333333333333333" fill="url(#tower-region-44)"/><rect x="798.52" y="129" width="5.76" height="105" rx="3" fill="#36f3ff" opacity="0.42"/><ellipse cx="803" cy="119" rx="23.04" ry="7" fill="#c8fbff" opacity="0.74"/></g><g opacity="0.9"><rect x="146" y="66" width="43" height="156" rx="7.166666666666667" fill="url(#tower-region-44)"/><rect x="161.48" y="76" width="7.739999999999999" height="134" rx="3" fill="#36f3ff" opacity="0.42"/><rect x="141" y="57" width="53" height="9" rx="4" fill="#c8fbff" opacity="0.66"/></g><g opacity="0.9"><rect x="295" y="75" width="32" height="171" rx="5.333333333333333" fill="url(#tower-region-44)"/><rect x="306.52" y="85" width="5.76" height="149" rx="3" fill="#36f3ff" opacity="0.42"/><polygon points="287,75 311,43 335,75" fill="#c8fbff" opacity="0.82"/></g><g opacity="0.9"><rect x="444" y="44" width="27" height="178" rx="4.5" fill="url(#tower-region-44)"/><rect x="453.72" y="54" width="4.859999999999999" height="156" rx="3" fill="#36f3ff" opacity="0.42"/><ellipse cx="457.5" cy="44" rx="19.439999999999998" ry="7" fill="#c8fbff" opacity="0.74"/></g>
  <path d="M0 335 C140 281, 244 387, 390 335 S672 305, 960 355 L960 420 L0 420 Z" fill="#104c64" opacity="0.82"/><path d="M0 353 C144 313, 250 409, 392 357 S690 333, 960 381" fill="none" stroke="#36f3ff" stroke-width="10" opacity="0.36"/>
  <path d="M0 382 H960" stroke="#36f3ff" stroke-width="2" opacity="0.42"/>
  <path d="M212 392 C374 350, 529 410, 805 372" fill="none" stroke="#c8fbff" stroke-width="4" opacity="0.34"/>
  <text x="28" y="40" fill="#c8fbff" font-family="monospace" font-size="18" letter-spacing="5" opacity="0.5">44 NEON CANAL</text>
</svg>