<svg xmlns="http://www.w3.org/2000/svg" viewBox="0 0 960 420" role="img" aria-label="region-20 unique card art">
  <defs>
    <linearGradient id="sky-region-20" x1="0" y1="0" x2="1" y2="1"><stop offset="0" stop-color="#162b45"/><stop offset="0.52" stop-color="#09566b"/><stop offset="1" stop-color="#090812"/></linearGradient>
    <linearGradient id="tower-region-20" x1="0" y1="0" x2="1" y2="1"><stop offset="0" stop-color="#101827"/><stop offset="0.5" stop-color="#09566b"/><stop offset="1" stop-color="#03060c"/></linearGradient>
    <radialGradient id="orb-region-20" cx="50%" cy="50%" r="55%"><stop offset="0" stop-color="#fff0a8"/><stop offset="0.42" stop-color="#36f3ff" stop-opacity="0.62"/><stop offset="1" stop-color="#36f3ff" stop-opacity="0"/></radialGradient>
    <filter id="glow-region-20" x="-20%" y="-20%" width="140%" height="140%"><feGaussianBlur stdDeviation="5" result="b"/><feMerge><feMergeNode in="b"/><feMergeNode in="SourceGraphic"/></feMerge></filter>
  </defs>
  <rect width="960" height="420" fill="url(#sky-region-20)"/>
  <circle cx="564" cy="138" r="54" fill="url(#orb-region-20)" filter="url(#glow-region-20)"/>
  <circle cx="890" cy="82" r="1.5" fill="#ffffff" opacity="0.22"/><circle cx="61" cy="80" r="1.6" fill="#ffffff" opacity="0.22"/><circle cx="144" cy="176" r="1.6" fill="#ffffff" opacity="0.22"/><circle cx="227" cy="73" r="1.7" fill="#ffffff" opacity="0.22"/><circle cx="310" cy="36" r="1.8" fill="#ffffff" opacity="0.22"/><circle cx="393" cy="32" r="1.9" fill="#ffffff" opacity="0.22"/><circle cx="476" cy="127" r="2.0" fill="#ffffff" opacity="0.22"/><circle cx="559" cy="23" r="2.0" fill="#ffffff" opacity="0.22"/><circle cx="642" cy="69" r="2.1" fill="#ffffff" opacity="0.22"/><circle cx="725" cy="23" r="2.2" fill="#ffffff" opacity="0.22"/><circle cx="808" cy="98" r="0.8" fill="#ffffff" opacity="0.22"/><circle cx="891" cy="150" r="0.9" fill="#ffffff" opacity="0.22"/>
  
  <polyline points="0,260 0,276 140,290 280,297 420,266 560,285 700,295 840,300 980,302 960,250 960,420 0,420" fill="#050b14" opacity="0.42"/>
  <polyline points="0,220 0,180 120,180 240,180 360,219 480,199 600,228 720,243 840,250 960,254 960,210 960,420 0,420" fill="#0a1422" opacity="0.48"/>
  <g opacity="0.9"><rect x="720" y="92" width="39" height="120" rx="6.5" fill="url(#tower-region-20)"/><rect x="734.04" y="102" width="7.02" height="98" rx="3" fill="#36f3ff" opacity="0.42"/><ellipse cx="739.5" cy="92" rx="28.08" ry="7" fill="#c8fbff" opacity="0.74"/></g><g opacity="0.9"><rect x="79" y="83" width="46" height="153" rx="7.666666666666667" fill="url(#tower-region-20)"/><rect x="95.56" y="93" width="8.28" height="131" rx="3" fill="#36f3ff" opacity="0.42"/><rect x="74" y="74" width="56" height="9" rx="4" fill="#c8fbff" opacity="0.66"/></g><g opacity="0.9"><rect x="228" y="97" width="34" height="115" rx="5.666666666666667" fill="url(#tower-region-20)"/><rect x="240.24" y="107" width="6.12" height="93" rx="3" fill="#36f3ff" opacity="0.42"/><polygon points="220,97 245,65 270,97" fill="#c8fbff" opacity="0.82"/></g>
  <path d="M0 369 C140 315, 244 421, 390 369 S672 339, 960 389 L960 420 L0 420 Z" fill="#104c64" opacity="0.82"/><path d="M0 387 C144 347, 250 443, 392 391 S690 367, 960 415" fill="none" stroke="#36f3ff" stroke-width="10" opacity="0.36"/>
  <path d="M0 382 H960" stroke="#36f3ff" stroke-width="2" opacity="0.42"/>
  <path d="M174 392 C322 350, 562 410, 815 372" fill="none" stroke="#c8fbff" stroke-width="4" opacity="0.34"/>
  <text x="28" y="40" fill="#c8fbff" font-family="monospace" font-size="18" letter-spacing="5" opacity="0.5">20 NEON CANAL</text>
</svg>