<svg xmlns="http://www.w3.org/2000/svg" viewBox="0 0 960 420" role="img" aria-label="region-39 unique card art">
  <defs>
    <linearGradient id="sky-region-39" x1="0" y1="0" x2="1" y2="1"><stop offset="0" stop-color="#071126"/><stop offset="0.52" stop-color="#69511c"/><stop offset="1" stop-color="#090812"/></linearGradient>
    <linearGradient id="tower-region-39" x1="0" y1="0" x2="1" y2="1"><stop offset="0" stop-color="#101827"/><stop offset="0.5" stop-color="#69511c"/><stop offset="1" stop-color="#03060c"/></linearGradient>
    <radialGradient id="orb-region-39" cx="50%" cy="50%" r="55%"><stop offset="0" stop-color="#d9dfff"/><stop offset="0.42" stop-color="#ffd85f" stop-opacity="0.62"/><stop offset="1" stop-color="#ffd85f" stop-opacity="0"/></radialGradient>
    <filter id="glow-region-39" x="-20%" y="-20%" width="140%" height="140%"><feGaussianBlur stdDeviation="5" result="b"/><feMerge><feMergeNode in="b"/><feMergeNode in="SourceGraphic"/></feMerge></filter>
  </defs>
  <rect width="960" height="420" fill="url(#sky-region-39)"/>
  <circle cx="704" cy="58" r="38" fill="url(#orb-region-39)" filter="url(#glow-region-39)"/>
  <circle cx="664" cy="104" r="1.6" fill="#ffffff" opacity="0.72"/><circle cx="747" cy="91" r="1.7" fill="#ffffff" opacity="0.72"/><circle cx="830" cy="182" r="1.8" fill="#ffffff" opacity="0.72"/><circle cx="913" cy="159" r="1.9" fill="#ffffff" opacity="0.72"/><circle cx="84" cy="162" r="2.0" fill="#ffffff" opacity="0.72"/><circle cx="167" cy="95" r="2.0" fill="#ffffff" opacity="0.72"/><circle cx="250" cy="159" r="2.1" fill="#ffffff" opacity="0.72"/><circle cx="333" cy="39" r="2.2" fill="#ffffff" opacity="0.72"/><circle cx="416" cy="77" r="0.8" fill="#ffffff" opacity="0.72"/><circle cx="499" cy="110" r="0.9" fill="#ffffff" opacity="0.72"/><circle cx="582" cy="58" r="1.0" fill="#ffffff" opacity="0.72"/><circle cx="665" cy="47" r="1.1" fill="#ffffff" opacity="0.72"/><circle cx="748" cy="139" r="1.1" fill="#ffffff" opacity="0.72"/><circle cx="831" cy="33" r="1.2" fill="#ffffff" opacity="0.72"/><circle cx="914" cy="78" r="1.3" fill="#ffffff" opacity="0.72"/><circle cx="85" cy="32" r="1.4" fill="#ffffff" opacity="0.72"/><circle cx="168" cy="70" r="1.5" fill="#ffffff" opacity="0.72"/><circle cx="251" cy="57" r="1.6" fill="#ffffff" opacity="0.72"/><circle cx="334" cy="148" r="1.6" fill="#ffffff" opacity="0.72"/><circle cx="417" cy="125" r="1.7" fill="#ffffff" opacity="0.72"/><circle cx="500" cy="128" r="1.8" fill="#ffffff" opacity="0.72"/><circle cx="583" cy="61" r="1.9" fill="#ffffff" opacity="0.72"/><circle cx="666" cy="125" r="2.0" fill="#ffffff" opacity="0.72"/><circle cx="749" cy="171" r="2.0" fill="#ffffff" opacity="0.72"/><circle cx="832" cy="43" r="2.1" fill="#ffffff" opacity="0.72"/><circle cx="915" cy="76" r="2.2" fill="#ffffff" opacity="0.72"/><circle cx="86" cy="24" r="0.8" fill="#ffffff" opacity="0.72"/><circle cx="169" cy="179" r="0.9" fill="#ffffff" opacity="0.72"/><circle cx="252" cy="105" r="1.0" fill="#ffffff" opacity="0.72"/><circle cx="335" cy="165" r="1.1" fill="#ffffff" opacity="0.72"/><circle cx="418" cy="44" r="1.1" fill="#ffffff" opacity="0.72"/><circle cx="501" cy="164" r="1.2" fill="#ffffff" opacity="0.72"/><circle cx="584" cy="36" r="1.3" fill="#ffffff" opacity="0.72"/><circle cx="667" cy="23" r="1.4" fill="#ffffff" opacity="0.72"/>
  
  <polyline points="0,260 0,251 140,278 280,291 420,298 560,266 700,285 840,295 980,300 960,250 960,420 0,420" fill="#050b14" opacity="0.42"/>
  <polyline points="0,220 0,196 120,188 240,184 360,182 480,181 600,180 720,219 840,199 960,228 960,210 960,420 0,420" fill="#0a1422" opacity="0.48"/>
  <g opacity="0.9"><rect x="498" y="68" width="22" height="154" rx="4" fill="url(#tower-region-39)"/><rect x="505.92" y="78" width="4" height="132" rx="3" fill="#ffd85f" opacity="0.42"/><polygon points="490,68 509,36 528,68" fill="#fff1ba" opacity="0.82"/></g><g opacity="0.9"><rect x="647" y="130" width="38" height="116" rx="6.333333333333333" fill="url(#tower-region-39)"/><rect x="660.68" y="140" width="6.84" height="94" rx="3" fill="#ffd85f" opacity="0.42"/><ellipse cx="666" cy="130" rx="27.36" ry="7" fill="#fff1ba" opacity="0.74"/></g><g opacity="0.9"><rect x="796" y="71" width="30" height="151" rx="5" fill="url(#tower-region-39)"/><rect x="806.8" y="81" width="5.3999999999999995" height="129" rx="3" fill="#ffd85f" opacity="0.42"/><rect x="791" y="62" width="40" height="9" rx="4" fill="#fff1ba" opacity="0.66"/></g><g opacity="0.9"><rect x="155" y="78" width="42" height="168" rx="7" fill="url(#tower-region-39)"/><rect x="170.12" y="88" width="7.56" height="146" rx="3" fill="#ffd85f" opacity="0.42"/><polygon points="147,78 176,46 205,78" fill="#fff1ba" opacity="0.82"/></g>
  <path d="M0 326 C146 256, 290 380, 430 306 S706 250, 960 310 L960 420 L0 420 Z" fill="#6c4b24" opacity="0.86"/><path d="M0 355 C160 318, 300 392, 474 346 S776 318, 960 362" fill="none" stroke="#ffd85f" stroke-width="8" opacity="0.32"/>
  <path d="M0 382 H960" stroke="#ffd85f" stroke-width="2" opacity="0.42"/>
  <path d="M212 392 C272 350, 526 410, 840 372" fill="none" stroke="#fff1ba" stroke-width="4" opacity="0.34"/>
  <text x="28" y="40" fill="#fff1ba" font-family="monospace" font-size="18" letter-spacing="5" opacity="0.5">39 STONE WASTE</text>
</svg>