<svg xmlns="http://www.w3.org/2000/svg" viewBox="0 0 960 420" role="img" aria-label="region-24 unique card art">
  <defs>
    <linearGradient id="sky-region-24" x1="0" y1="0" x2="1" y2="1"><stop offset="0" stop-color="#071126"/><stop offset="0.52" stop-color="#09566b"/><stop offset="1" stop-color="#090812"/></linearGradient>
    <linearGradient id="tower-region-24" x1="0" y1="0" x2="1" y2="1"><stop offset="0" stop-color="#101827"/><stop offset="0.5" stop-color="#09566b"/><stop offset="1" stop-color="#03060c"/></linearGradient>
    <radialGradient id="orb-region-24" cx="50%" cy="50%" r="55%"><stop offset="0" stop-color="#d9dfff"/><stop offset="0.42" stop-color="#36f3ff" stop-opacity="0.62"/><stop offset="1" stop-color="#36f3ff" stop-opacity="0"/></radialGradient>
    <filter id="glow-region-24" x="-20%" y="-20%" width="140%" height="140%"><feGaussianBlur stdDeviation="5" result="b"/><feMerge><feMergeNode in="b"/><feMergeNode in="SourceGraphic"/></feMerge></filter>
  </defs>
  <rect width="960" height="420" fill="url(#sky-region-24)"/>
  <circle cx="474" cy="112" r="38" fill="url(#orb-region-24)" filter="url(#glow-region-24)"/>
  <circle cx="846" cy="86" r="1.8" fill="#ffffff" opacity="0.72"/><circle cx="929" cy="82" r="1.9" fill="#ffffff" opacity="0.72"/><circle cx="100" cy="177" r="2.0" fill="#ffffff" opacity="0.72"/><circle cx="183" cy="73" r="2.0" fill="#ffffff" opacity="0.72"/><circle cx="266" cy="119" r="2.1" fill="#ffffff" opacity="0.72"/><circle cx="349" cy="73" r="2.2" fill="#ffffff" opacity="0.72"/><circle cx="432" cy="148" r="0.8" fill="#ffffff" opacity="0.72"/><circle cx="515" cy="117" r="0.9" fill="#ffffff" opacity="0.72"/><circle cx="598" cy="33" r="1.0" fill="#ffffff" opacity="0.72"/><circle cx="681" cy="88" r="1.1" fill="#ffffff" opacity="0.72"/><circle cx="764" cy="130" r="1.1" fill="#ffffff" opacity="0.72"/><circle cx="847" cy="83" r="1.2" fill="#ffffff" opacity="0.72"/><circle cx="930" cy="157" r="1.3" fill="#ffffff" opacity="0.72"/><circle cx="101" cy="125" r="1.4" fill="#ffffff" opacity="0.72"/><circle cx="184" cy="41" r="1.5" fill="#ffffff" opacity="0.72"/><circle cx="267" cy="179" r="1.6" fill="#ffffff" opacity="0.72"/><circle cx="350" cy="52" r="1.6" fill="#ffffff" opacity="0.72"/><circle cx="433" cy="48" r="1.7" fill="#ffffff" opacity="0.72"/><circle cx="516" cy="143" r="1.8" fill="#ffffff" opacity="0.72"/><circle cx="599" cy="39" r="1.9" fill="#ffffff" opacity="0.72"/><circle cx="682" cy="85" r="2.0" fill="#ffffff" opacity="0.72"/><circle cx="765" cy="39" r="2.0" fill="#ffffff" opacity="0.72"/><circle cx="848" cy="114" r="2.1" fill="#ffffff" opacity="0.72"/><circle cx="931" cy="83" r="2.2" fill="#ffffff" opacity="0.72"/><circle cx="102" cy="165" r="0.8" fill="#ffffff" opacity="0.72"/><circle cx="185" cy="54" r="0.9" fill="#ffffff" opacity="0.72"/><circle cx="268" cy="96" r="1.0" fill="#ffffff" opacity="0.72"/><circle cx="351" cy="49" r="1.1" fill="#ffffff" opacity="0.72"/><circle cx="434" cy="123" r="1.1" fill="#ffffff" opacity="0.72"/><circle cx="517" cy="91" r="1.2" fill="#ffffff" opacity="0.72"/><circle cx="600" cy="173" r="1.3" fill="#ffffff" opacity="0.72"/><circle cx="683" cy="145" r="1.4" fill="#ffffff" opacity="0.72"/><circle cx="766" cy="184" r="1.5" fill="#ffffff" opacity="0.72"/><circle cx="849" cy="180" r="1.6" fill="#ffffff" opacity="0.72"/>
  
  <polyline points="0,260 0,273 140,289 280,297 420,266 560,250 700,277 840,291 980,298 960,250 960,420 0,420" fill="#050b14" opacity="0.42"/>
  <polyline points="0,220 0,205 120,192 240,225 360,202 480,230 600,244 720,251 840,215 960,236 960,210 960,420 0,420" fill="#0a1422" opacity="0.48"/>
  <g opacity="0.9"><rect x="744" y="149" width="33" height="111" rx="5.5" fill="url(#tower-region-24)"/><rect x="755.88" y="159" width="5.9399999999999995" height="89" rx="3" fill="#36f3ff" opacity="0.42"/><rect x="739" y="140" width="43" height="9" rx="4" fill="#c8fbff" opacity="0.66"/></g><g opacity="0.9"><rect x="103" y="190" width="27" height="94" rx="4.5" fill="url(#tower-region-24)"/><rect x="112.72" y="200" width="4.859999999999999" height="72" rx="3" fill="#36f3ff" opacity="0.42"/><polygon points="95,190 116.5,158 138,190" fill="#c8fbff" opacity="0.82"/></g><g opacity="0.9"><rect x="252" y="174" width="24" height="86" rx="4" fill="url(#tower-region-24)"/><rect x="260.64" y="184" width="4.32" height="64" rx="3" fill="#36f3ff" opacity="0.42"/><ellipse cx="264" cy="174" rx="17.28" ry="7" fill="#c8fbff" opacity="0.74"/></g>
  <path d="M0 378 C140 324, 244 430, 390 378 S672 348, 960 398 L960 420 L0 420 Z" fill="#104c64" opacity="0.82"/><path d="M0 396 C144 356, 250 452, 392 400 S690 376, 960 424" fill="none" stroke="#36f3ff" stroke-width="10" opacity="0.36"/>
  <path d="M0 382 H960" stroke="#36f3ff" stroke-width="2" opacity="0.42"/>
  <path d="M178 392 C317 350, 542 410, 784 372" fill="none" stroke="#c8fbff" stroke-width="4" opacity="0.34"/>
  <text x="28" y="40" fill="#c8fbff" font-family="monospace" font-size="18" letter-spacing="5" opacity="0.5">24 NEON CANAL</text>
</svg>