<svg xmlns="http://www.w3.org/2000/svg" viewBox="0 0 960 420" role="img" aria-label="region-6 unique card art">
  <defs>
    <linearGradient id="sky-region-6" x1="0" y1="0" x2="1" y2="1"><stop offset="0" stop-color="#071126"/><stop offset="0.52" stop-color="#1e5a28"/><stop offset="1" stop-color="#090812"/></linearGradient>
    <linearGradient id="tower-region-6" x1="0" y1="0" x2="1" y2="1"><stop offset="0" stop-color="#101827"/><stop offset="0.5" stop-color="#1e5a28"/><stop offset="1" stop-color="#03060c"/></linearGradient>
    <radialGradient id="orb-region-6" cx="50%" cy="50%" r="55%"><stop offset="0" stop-color="#d9dfff"/><stop offset="0.42" stop-color="#8dff72" stop-opacity="0.62"/><stop offset="1" stop-color="#8dff72" stop-opacity="0"/></radialGradient>
    <filter id="glow-region-6" x="-20%" y="-20%" width="140%" height="140%"><feGaussianBlur stdDeviation="5" result="b"/><feMerge><feMergeNode in="b"/><feMergeNode in="SourceGraphic"/></feMerge></filter>
  </defs>
  <rect width="960" height="420" fill="url(#sky-region-6)"/>
  <circle cx="542" cy="61" r="38" fill="url(#orb-region-6)" filter="url(#glow-region-6)"/>
  <circle cx="474" cy="160" r="1.8" fill="#ffffff" opacity="0.72"/><circle cx="557" cy="36" r="1.9" fill="#ffffff" opacity="0.72"/><circle cx="640" cy="154" r="2.0" fill="#ffffff" opacity="0.72"/><circle cx="723" cy="145" r="2.0" fill="#ffffff" opacity="0.72"/><circle cx="806" cy="155" r="2.1" fill="#ffffff" opacity="0.72"/><circle cx="889" cy="174" r="2.2" fill="#ffffff" opacity="0.72"/><circle cx="60" cy="32" r="0.8" fill="#ffffff" opacity="0.72"/><circle cx="143" cy="142" r="0.9" fill="#ffffff" opacity="0.72"/><circle cx="226" cy="128" r="1.0" fill="#ffffff" opacity="0.72"/><circle cx="309" cy="53" r="1.1" fill="#ffffff" opacity="0.72"/><circle cx="392" cy="113" r="1.1" fill="#ffffff" opacity="0.72"/><circle cx="475" cy="74" r="1.2" fill="#ffffff" opacity="0.72"/><circle cx="558" cy="152" r="1.3" fill="#ffffff" opacity="0.72"/><circle cx="641" cy="40" r="1.4" fill="#ffffff" opacity="0.72"/><circle cx="724" cy="164" r="1.5" fill="#ffffff" opacity="0.72"/><circle cx="807" cy="75" r="1.6" fill="#ffffff" opacity="0.72"/><circle cx="890" cy="126" r="1.6" fill="#ffffff" opacity="0.72"/><circle cx="61" cy="168" r="1.7" fill="#ffffff" opacity="0.72"/><circle cx="144" cy="120" r="1.8" fill="#ffffff" opacity="0.72"/><circle cx="227" cy="111" r="1.9" fill="#ffffff" opacity="0.72"/><circle cx="310" cy="121" r="2.0" fill="#ffffff" opacity="0.72"/><circle cx="393" cy="140" r="2.0" fill="#ffffff" opacity="0.72"/><circle cx="476" cy="164" r="2.1" fill="#ffffff" opacity="0.72"/><circle cx="559" cy="108" r="2.2" fill="#ffffff" opacity="0.72"/><circle cx="642" cy="94" r="0.8" fill="#ffffff" opacity="0.72"/><circle cx="725" cy="185" r="0.9" fill="#ffffff" opacity="0.72"/><circle cx="808" cy="79" r="1.0" fill="#ffffff" opacity="0.72"/><circle cx="891" cy="40" r="1.1" fill="#ffffff" opacity="0.72"/><circle cx="62" cy="118" r="1.1" fill="#ffffff" opacity="0.72"/><circle cx="145" cy="172" r="1.2" fill="#ffffff" opacity="0.72"/><circle cx="228" cy="130" r="1.3" fill="#ffffff" opacity="0.72"/><circle cx="311" cy="41" r="1.4" fill="#ffffff" opacity="0.72"/><circle cx="394" cy="92" r="1.5" fill="#ffffff" opacity="0.72"/><circle cx="477" cy="134" r="1.6" fill="#ffffff" opacity="0.72"/>
  
  <polyline points="0,260 0,250 140,277 280,256 420,245 560,275 700,290 840,262 980,283 960,250 960,420 0,420" fill="#050b14" opacity="0.42"/>
  <polyline points="0,220 0,232 120,206 240,193 360,225 480,202 600,191 720,224 840,202 960,191 960,210 960,420 0,420" fill="#0a1422" opacity="0.48"/>
  <g opacity="0.9"><rect x="764" y="67" width="47" height="145" rx="7.833333333333333" fill="url(#tower-region-6)"/><rect x="780.92" y="77" width="8.459999999999999" height="123" rx="3" fill="#8dff72" opacity="0.42"/><rect x="759" y="58" width="57" height="9" rx="4" fill="#e8ffe3" opacity="0.66"/></g><g opacity="0.9"><rect x="123" y="125" width="34" height="111" rx="5.666666666666667" fill="url(#tower-region-6)"/><rect x="135.24" y="135" width="6.12" height="89" rx="3" fill="#8dff72" opacity="0.42"/><polygon points="115,125 140,93 165,125" fill="#e8ffe3" opacity="0.82"/></g><g opacity="0.9"><rect x="272" y="64" width="44" height="148" rx="7.333333333333333" fill="url(#tower-region-6)"/><rect x="287.84" y="74" width="7.92" height="126" rx="3" fill="#8dff72" opacity="0.42"/><ellipse cx="294" cy="64" rx="31.68" ry="7" fill="#e8ffe3" opacity="0.74"/></g>
  <path d="M0 330 C105 275, 162 316, 260 274 S430 332, 552 282 S760 310, 960 256 L960 420 L0 420 Z" fill="#173d23" opacity="0.84"/><g opacity="0.68"><circle cx="618" cy="290" r="30" fill="#8dff72"/><circle cx="685" cy="325" r="17" fill="#b7ff91"/><circle cx="752" cy="342" r="28" fill="#b7ff91"/><circle cx="819" cy="310" r="15" fill="#8dff72"/><circle cx="886" cy="335" r="26" fill="#b7ff91"/><circle cx="73" cy="347" r="13" fill="#b7ff91"/><circle cx="140" cy="312" r="24" fill="#8dff72"/><circle cx="207" cy="295" r="35" fill="#b7ff91"/><circle cx="274" cy="286" r="22" fill="#b7ff91"/><circle cx="341" cy="282" r="33" fill="#8dff72"/><circle cx="408" cy="321" r="20" fill="#b7ff91"/><circle cx="475" cy="299" r="31" fill="#b7ff91"/><circle cx="542" cy="290" r="18" fill="#8dff72"/><circle cx="609" cy="325" r="29" fill="#b7ff91"/></g>
  <path d="M0 382 H960" stroke="#8dff72" stroke-width="2" opacity="0.42"/>
  <path d="M178 392 C271 350, 561 410, 853 372" fill="none" stroke="#e8ffe3" stroke-width="4" opacity="0.34"/>
  <text x="28" y="40" fill="#e8ffe3" font-family="monospace" font-size="18" letter-spacing="5" opacity="0.5">06 MYCEL FOREST</text>
</svg>