<svg xmlns="http://www.w3.org/2000/svg" viewBox="0 0 960 420" role="img" aria-label="region-19 unique card art">
  <defs>
    <linearGradient id="sky-region-19" x1="0" y1="0" x2="1" y2="1"><stop offset="0" stop-color="#162b45"/><stop offset="0.52" stop-color="#69511c"/><stop offset="1" stop-color="#090812"/></linearGradient>
    <linearGradient id="tower-region-19" x1="0" y1="0" x2="1" y2="1"><stop offset="0" stop-color="#101827"/><stop offset="0.5" stop-color="#69511c"/><stop offset="1" stop-color="#03060c"/></linearGradient>
    <radialGradient id="orb-region-19" cx="50%" cy="50%" r="55%"><stop offset="0" stop-color="#fff0a8"/><stop offset="0.42" stop-color="#ffd85f" stop-opacity="0.62"/><stop offset="1" stop-color="#ffd85f" stop-opacity="0"/></radialGradient>
    <filter id="glow-region-19" x="-20%" y="-20%" width="140%" height="140%"><feGaussianBlur stdDeviation="5" result="b"/><feMerge><feMergeNode in="b"/><feMergeNode in="SourceGraphic"/></feMerge></filter>
  </defs>
  <rect width="960" height="420" fill="url(#sky-region-19)"/>
  <circle cx="739" cy="146" r="54" fill="url(#orb-region-19)" filter="url(#glow-region-19)"/>
  <circle cx="182" cy="62" r="1.5" fill="#ffffff" opacity="0.22"/><circle cx="265" cy="70" r="1.6" fill="#ffffff" opacity="0.22"/><circle cx="348" cy="171" r="1.6" fill="#ffffff" opacity="0.22"/><circle cx="431" cy="70" r="1.7" fill="#ffffff" opacity="0.22"/><circle cx="514" cy="117" r="1.8" fill="#ffffff" opacity="0.22"/><circle cx="597" cy="155" r="1.9" fill="#ffffff" opacity="0.22"/><circle cx="680" cy="23" r="2.0" fill="#ffffff" opacity="0.22"/><circle cx="763" cy="137" r="2.0" fill="#ffffff" opacity="0.22"/><circle cx="846" cy="126" r="2.1" fill="#ffffff" opacity="0.22"/><circle cx="929" cy="135" r="2.2" fill="#ffffff" opacity="0.22"/><circle cx="100" cy="71" r="0.8" fill="#ffffff" opacity="0.22"/><circle cx="183" cy="136" r="0.9" fill="#ffffff" opacity="0.22"/>
  
  <polyline points="0,260 0,299 140,302 280,303 420,269 560,287 700,296 840,300 980,302 960,250 960,420 0,420" fill="#050b14" opacity="0.42"/>
  <polyline points="0,220 0,255 120,217 240,237 360,208 480,233 600,206 720,232 840,206 960,193 960,210 960,420 0,420" fill="#0a1422" opacity="0.48"/>
  <g opacity="0.9"><rect x="164" y="117" width="37" height="135" rx="6.166666666666667" fill="url(#tower-region-19)"/><rect x="177.32" y="127" width="6.66" height="113" rx="3" fill="#ffd85f" opacity="0.42"/><ellipse cx="182.5" cy="117" rx="26.64" ry="7" fill="#fff1ba" opacity="0.74"/></g><g opacity="0.9"><rect x="313" y="116" width="45" height="160" rx="7.5" fill="url(#tower-region-19)"/><rect x="329.2" y="126" width="8.1" height="138" rx="3" fill="#ffd85f" opacity="0.42"/><rect x="308" y="107" width="55" height="9" rx="4" fill="#fff1ba" opacity="0.66"/></g><g opacity="0.9"><rect x="462" y="133" width="33" height="119" rx="5.5" fill="url(#tower-region-19)"/><rect x="473.88" y="143" width="5.9399999999999995" height="97" rx="3" fill="#ffd85f" opacity="0.42"/><polygon points="454,133 478.5,101 503,133" fill="#fff1ba" opacity="0.82"/></g><g opacity="0.9"><rect x="611" y="178" width="27" height="98" rx="4.5" fill="url(#tower-region-19)"/><rect x="620.72" y="188" width="4.859999999999999" height="76" rx="3" fill="#ffd85f" opacity="0.42"/><ellipse cx="624.5" cy="178" rx="19.439999999999998" ry="7" fill="#fff1ba" opacity="0.74"/></g><g opacity="0.9"><rect x="760" y="110" width="24" height="142" rx="4" fill="url(#tower-region-19)"/><rect x="768.64" y="120" width="4.32" height="120" rx="3" fill="#ffd85f" opacity="0.42"/><rect x="755" y="101" width="34" height="9" rx="4" fill="#fff1ba" opacity="0.66"/></g>
  <path d="M0 326 C146 256, 290 380, 430 306 S706 250, 960 310 L960 420 L0 420 Z" fill="#6c4b24" opacity="0.86"/><path d="M0 355 C160 318, 300 392, 474 346 S776 318, 960 362" fill="none" stroke="#ffd85f" stroke-width="8" opacity="0.32"/>
  <path d="M0 382 H960" stroke="#ffd85f" stroke-width="2" opacity="0.42"/>
  <path d="M138 392 C369 350, 528 410, 855 372" fill="none" stroke="#fff1ba" stroke-width="4" opacity="0.34"/>
  <text x="28" y="40" fill="#fff1ba" font-family="monospace" font-size="18" letter-spacing="5" opacity="0.5">19 STONE WASTE</text>
</svg>