<svg xmlns="http://www.w3.org/2000/svg" viewBox="0 0 960 420" role="img" aria-label="region-43 unique card art">
  <defs>
    <linearGradient id="sky-region-43" x1="0" y1="0" x2="1" y2="1"><stop offset="0" stop-color="#162b45"/><stop offset="0.52" stop-color="#69511c"/><stop offset="1" stop-color="#090812"/></linearGradient>
    <linearGradient id="tower-region-43" x1="0" y1="0" x2="1" y2="1"><stop offset="0" stop-color="#101827"/><stop offset="0.5" stop-color="#69511c"/><stop offset="1" stop-color="#03060c"/></linearGradient>
    <radialGradient id="orb-region-43" cx="50%" cy="50%" r="55%"><stop offset="0" stop-color="#fff0a8"/><stop offset="0.42" stop-color="#ffd85f" stop-opacity="0.62"/><stop offset="1" stop-color="#ffd85f" stop-opacity="0"/></radialGradient>
    <filter id="glow-region-43" x="-20%" y="-20%" width="140%" height="140%"><feGaussianBlur stdDeviation="5" result="b"/><feMerge><feMergeNode in="b"/><feMergeNode in="SourceGraphic"/></feMerge></filter>
  </defs>
  <rect width="960" height="420" fill="url(#sky-region-43)"/>
  <circle cx="365" cy="161" r="54" fill="url(#orb-region-43)" filter="url(#glow-region-43)"/>
  <circle cx="741" cy="149" r="1.1" fill="#ffffff" opacity="0.22"/><circle cx="824" cy="113" r="1.1" fill="#ffffff" opacity="0.22"/><circle cx="907" cy="27" r="1.2" fill="#ffffff" opacity="0.22"/><circle cx="78" cy="164" r="1.3" fill="#ffffff" opacity="0.22"/><circle cx="161" cy="164" r="1.4" fill="#ffffff" opacity="0.22"/><circle cx="244" cy="96" r="1.5" fill="#ffffff" opacity="0.22"/><circle cx="327" cy="76" r="1.6" fill="#ffffff" opacity="0.22"/><circle cx="410" cy="164" r="1.6" fill="#ffffff" opacity="0.22"/><circle cx="493" cy="139" r="1.7" fill="#ffffff" opacity="0.22"/><circle cx="576" cy="58" r="1.8" fill="#ffffff" opacity="0.22"/><circle cx="659" cy="115" r="1.9" fill="#ffffff" opacity="0.22"/><circle cx="742" cy="75" r="2.0" fill="#ffffff" opacity="0.22"/>
  
  <polyline points="0,260 0,236 140,235 280,270 420,252 560,278 700,256 840,245 980,240 960,250 960,420 0,420" fill="#050b14" opacity="0.42"/>
  <polyline points="0,220 0,191 120,185 240,182 360,181 480,180 600,219 720,199 840,189 960,223 960,210 960,420 0,420" fill="#0a1422" opacity="0.48"/>
  <g opacity="0.9"><rect x="201" y="91" width="44" height="164" rx="7.333333333333333" fill="url(#tower-region-43)"/><rect x="216.84" y="101" width="7.92" height="142" rx="3" fill="#ffd85f" opacity="0.42"/><rect x="196" y="82" width="54" height="9" rx="4" fill="#fff1ba" opacity="0.66"/></g><g opacity="0.9"><rect x="350" y="104" width="33" height="175" rx="5.5" fill="url(#tower-region-43)"/><rect x="361.88" y="114" width="5.9399999999999995" height="153" rx="3" fill="#ffd85f" opacity="0.42"/><polygon points="342,104 366.5,72 391,104" fill="#fff1ba" opacity="0.82"/></g><g opacity="0.9"><rect x="499" y="75" width="43" height="180" rx="7.166666666666667" fill="url(#tower-region-43)"/><rect x="514.48" y="85" width="7.739999999999999" height="158" rx="3" fill="#ffd85f" opacity="0.42"/><ellipse cx="520.5" cy="75" rx="30.959999999999997" ry="7" fill="#fff1ba" opacity="0.74"/></g><g opacity="0.9"><rect x="648" y="150" width="48" height="129" rx="8" fill="url(#tower-region-43)"/><rect x="665.28" y="160" width="8.64" height="107" rx="3" fill="#ffd85f" opacity="0.42"/><rect x="643" y="141" width="58" height="9" rx="4" fill="#fff1ba" opacity="0.66"/></g><g opacity="0.9"><rect x="797" y="98" width="51" height="157" rx="8.5" fill="url(#tower-region-43)"/><rect x="815.36" y="108" width="9.18" height="135" rx="3" fill="#ffd85f" opacity="0.42"/><polygon points="789,98 822.5,66 856,98" fill="#fff1ba" opacity="0.82"/></g><g opacity="0.9"><rect x="156" y="162" width="52" height="117" rx="8.666666666666666" fill="url(#tower-region-43)"/><rect x="174.72" y="172" width="9.36" height="95" rx="3" fill="#ffd85f" opacity="0.42"/><ellipse cx="182" cy="162" rx="37.44" ry="7" fill="#fff1ba" opacity="0.74"/></g>
  <path d="M0 326 C146 256, 290 380, 430 306 S706 250, 960 310 L960 420 L0 420 Z" fill="#6c4b24" opacity="0.86"/><path d="M0 355 C160 318, 300 392, 474 346 S776 318, 960 362" fill="none" stroke="#ffd85f" stroke-width="8" opacity="0.32"/>
  <path d="M0 382 H960" stroke="#ffd85f" stroke-width="2" opacity="0.42"/>
  <path d="M205 392 C242 350, 535 410, 740 372" fill="none" stroke="#fff1ba" stroke-width="4" opacity="0.34"/>
  <text x="28" y="40" fill="#fff1ba" font-family="monospace" font-size="18" letter-spacing="5" opacity="0.5">43 STONE WASTE</text>
</svg>