<svg xmlns="http://www.w3.org/2000/svg" viewBox="0 0 960 420" role="img" aria-label="region-45 unique card art">
  <defs>
    <linearGradient id="sky-region-45" x1="0" y1="0" x2="1" y2="1"><stop offset="0" stop-color="#071126"/><stop offset="0.52" stop-color="#5b164e"/><stop offset="1" stop-color="#090812"/></linearGradient>
    <linearGradient id="tower-region-45" x1="0" y1="0" x2="1" y2="1"><stop offset="0" stop-color="#101827"/><stop offset="0.5" stop-color="#5b164e"/><stop offset="1" stop-color="#03060c"/></linearGradient>
    <radialGradient id="orb-region-45" cx="50%" cy="50%" r="55%"><stop offset="0" stop-color="#d9dfff"/><stop offset="0.42" stop-color="#ff74ee" stop-opacity="0.62"/><stop offset="1" stop-color="#ff74ee" stop-opacity="0"/></radialGradient>
    <filter id="glow-region-45" x="-20%" y="-20%" width="140%" height="140%"><feGaussianBlur stdDeviation="5" result="b"/><feMerge><feMergeNode in="b"/><feMergeNode in="SourceGraphic"/></feMerge></filter>
  </defs>
  <rect width="960" height="420" fill="url(#sky-region-45)"/>
  <circle cx="591" cy="62" r="38" fill="url(#orb-region-45)" filter="url(#glow-region-45)"/>
  <circle cx="675" cy="155" r="1.6" fill="#ffffff" opacity="0.72"/><circle cx="758" cy="116" r="1.6" fill="#ffffff" opacity="0.72"/><circle cx="841" cy="28" r="1.7" fill="#ffffff" opacity="0.72"/><circle cx="924" cy="82" r="1.8" fill="#ffffff" opacity="0.72"/><circle cx="95" cy="123" r="1.9" fill="#ffffff" opacity="0.72"/><circle cx="178" cy="158" r="2.0" fill="#ffffff" opacity="0.72"/><circle cx="261" cy="24" r="2.0" fill="#ffffff" opacity="0.72"/><circle cx="344" cy="55" r="2.1" fill="#ffffff" opacity="0.72"/><circle cx="427" cy="168" r="2.2" fill="#ffffff" opacity="0.72"/><circle cx="510" cy="156" r="0.8" fill="#ffffff" opacity="0.72"/><circle cx="593" cy="81" r="0.9" fill="#ffffff" opacity="0.72"/><circle cx="676" cy="58" r="1.0" fill="#ffffff" opacity="0.72"/><circle cx="759" cy="144" r="1.1" fill="#ffffff" opacity="0.72"/><circle cx="842" cy="36" r="1.1" fill="#ffffff" opacity="0.72"/><circle cx="925" cy="162" r="1.2" fill="#ffffff" opacity="0.72"/><circle cx="96" cy="74" r="1.3" fill="#ffffff" opacity="0.72"/><circle cx="179" cy="121" r="1.4" fill="#ffffff" opacity="0.72"/><circle cx="262" cy="82" r="1.5" fill="#ffffff" opacity="0.72"/><circle cx="345" cy="160" r="1.6" fill="#ffffff" opacity="0.72"/><circle cx="428" cy="48" r="1.6" fill="#ffffff" opacity="0.72"/><circle cx="511" cy="89" r="1.7" fill="#ffffff" opacity="0.72"/><circle cx="594" cy="124" r="1.8" fill="#ffffff" opacity="0.72"/><circle cx="677" cy="156" r="1.9" fill="#ffffff" opacity="0.72"/><circle cx="760" cy="21" r="2.0" fill="#ffffff" opacity="0.72"/><circle cx="843" cy="134" r="2.0" fill="#ffffff" opacity="0.72"/><circle cx="926" cy="122" r="2.1" fill="#ffffff" opacity="0.72"/><circle cx="97" cy="47" r="2.2" fill="#ffffff" opacity="0.72"/><circle cx="180" cy="24" r="0.8" fill="#ffffff" opacity="0.72"/><circle cx="263" cy="110" r="0.9" fill="#ffffff" opacity="0.72"/><circle cx="346" cy="168" r="1.0" fill="#ffffff" opacity="0.72"/><circle cx="429" cy="128" r="1.1" fill="#ffffff" opacity="0.72"/><circle cx="512" cy="40" r="1.1" fill="#ffffff" opacity="0.72"/><circle cx="595" cy="87" r="1.2" fill="#ffffff" opacity="0.72"/><circle cx="678" cy="48" r="1.3" fill="#ffffff" opacity="0.72"/>
  
  <polyline points="0,260 0,302 140,303 280,269 420,287 560,296 700,300 840,302 980,303 960,250 960,420 0,420" fill="#050b14" opacity="0.42"/>
  <polyline points="0,220 0,228 120,243 240,211 360,195 480,226 600,242 720,250 840,215 960,197 960,210 960,420 0,420" fill="#0a1422" opacity="0.48"/>
  <g opacity="0.9"><rect x="237" y="152" width="51" height="97" rx="8.5" fill="url(#tower-region-45)"/><rect x="255.36" y="162" width="9.18" height="75" rx="3" fill="#ff74ee" opacity="0.42"/><rect x="232" y="143" width="61" height="9" rx="4" fill="#ffe2fb" opacity="0.66"/></g><g opacity="0.9"><rect x="386" y="186" width="36" height="87" rx="6" fill="url(#tower-region-45)"/><rect x="398.96" y="196" width="6.4799999999999995" height="65" rx="3" fill="#ff74ee" opacity="0.42"/><polygon points="378,186 404,154 430,186" fill="#ffe2fb" opacity="0.82"/></g><g opacity="0.9"><rect x="535" y="167" width="29" height="82" rx="4.833333333333333" fill="url(#tower-region-45)"/><rect x="545.44" y="177" width="5.22" height="60" rx="3" fill="#ff74ee" opacity="0.42"/><ellipse cx="549.5" cy="167" rx="20.88" ry="7" fill="#ffe2fb" opacity="0.74"/></g><g opacity="0.9"><rect x="684" y="139" width="25" height="134" rx="4.166666666666667" fill="url(#tower-region-45)"/><rect x="693" y="149" width="4.5" height="112" rx="3" fill="#ff74ee" opacity="0.42"/><rect x="679" y="130" width="35" height="9" rx="4" fill="#ffe2fb" opacity="0.66"/></g>
  <path d="M0 330 L90 298 L164 326 L258 286 L354 326 L478 292 L612 328 L740 276 L842 322 L960 294 L960 420 L0 420 Z" fill="#1c1230" opacity="0.82"/><path d="M80 320 H884" stroke="#ff74ee" stroke-width="4" opacity="0.38"/>
  <path d="M0 382 H960" stroke="#ff74ee" stroke-width="2" opacity="0.42"/>
  <path d="M211 392 C375 350, 564 410, 773 372" fill="none" stroke="#ffe2fb" stroke-width="4" opacity="0.34"/>
  <text x="28" y="40" fill="#ffe2fb" font-family="monospace" font-size="18" letter-spacing="5" opacity="0.5">45 DROWNED CITY</text>
</svg>