<svg xmlns="http://www.w3.org/2000/svg" viewBox="0 0 960 420" role="img" aria-label="region-42 unique card art">
  <defs>
    <linearGradient id="sky-region-42" x1="0" y1="0" x2="1" y2="1"><stop offset="0" stop-color="#071126"/><stop offset="0.52" stop-color="#1e5a28"/><stop offset="1" stop-color="#090812"/></linearGradient>
    <linearGradient id="tower-region-42" x1="0" y1="0" x2="1" y2="1"><stop offset="0" stop-color="#101827"/><stop offset="0.5" stop-color="#1e5a28"/><stop offset="1" stop-color="#03060c"/></linearGradient>
    <radialGradient id="orb-region-42" cx="50%" cy="50%" r="55%"><stop offset="0" stop-color="#d9dfff"/><stop offset="0.42" stop-color="#8dff72" stop-opacity="0.62"/><stop offset="1" stop-color="#8dff72" stop-opacity="0"/></radialGradient>
    <filter id="glow-region-42" x="-20%" y="-20%" width="140%" height="140%"><feGaussianBlur stdDeviation="5" result="b"/><feMerge><feMergeNode in="b"/><feMergeNode in="SourceGraphic"/></feMerge></filter>
  </defs>
  <rect width="960" height="420" fill="url(#sky-region-42)"/>
  <circle cx="523" cy="66" r="38" fill="url(#orb-region-42)" filter="url(#glow-region-42)"/>
  <circle cx="274" cy="150" r="1.1" fill="#ffffff" opacity="0.72"/><circle cx="357" cy="114" r="1.2" fill="#ffffff" opacity="0.72"/><circle cx="440" cy="110" r="1.3" fill="#ffffff" opacity="0.72"/><circle cx="523" cy="40" r="1.4" fill="#ffffff" opacity="0.72"/><circle cx="606" cy="185" r="1.5" fill="#ffffff" opacity="0.72"/><circle cx="689" cy="23" r="1.6" fill="#ffffff" opacity="0.72"/><circle cx="772" cy="40" r="1.6" fill="#ffffff" opacity="0.72"/><circle cx="855" cy="63" r="1.7" fill="#ffffff" opacity="0.72"/><circle cx="26" cy="172" r="1.8" fill="#ffffff" opacity="0.72"/><circle cx="109" cy="158" r="1.9" fill="#ffffff" opacity="0.72"/><circle cx="192" cy="165" r="2.0" fill="#ffffff" opacity="0.72"/><circle cx="275" cy="183" r="2.0" fill="#ffffff" opacity="0.72"/><circle cx="358" cy="41" r="2.1" fill="#ffffff" opacity="0.72"/><circle cx="441" cy="150" r="2.2" fill="#ffffff" opacity="0.72"/><circle cx="524" cy="136" r="0.8" fill="#ffffff" opacity="0.72"/><circle cx="607" cy="144" r="0.9" fill="#ffffff" opacity="0.72"/><circle cx="690" cy="116" r="1.0" fill="#ffffff" opacity="0.72"/><circle cx="773" cy="80" r="1.1" fill="#ffffff" opacity="0.72"/><circle cx="856" cy="76" r="1.1" fill="#ffffff" opacity="0.72"/><circle cx="27" cy="172" r="1.2" fill="#ffffff" opacity="0.72"/><circle cx="110" cy="151" r="1.3" fill="#ffffff" opacity="0.72"/><circle cx="193" cy="155" r="1.4" fill="#ffffff" opacity="0.72"/><circle cx="276" cy="172" r="1.5" fill="#ffffff" opacity="0.72"/><circle cx="359" cy="29" r="1.6" fill="#ffffff" opacity="0.72"/><circle cx="442" cy="138" r="1.6" fill="#ffffff" opacity="0.72"/><circle cx="525" cy="124" r="1.7" fill="#ffffff" opacity="0.72"/><circle cx="608" cy="131" r="1.8" fill="#ffffff" opacity="0.72"/><circle cx="691" cy="149" r="1.9" fill="#ffffff" opacity="0.72"/><circle cx="774" cy="173" r="2.0" fill="#ffffff" opacity="0.72"/><circle cx="857" cy="116" r="2.0" fill="#ffffff" opacity="0.72"/><circle cx="28" cy="102" r="2.1" fill="#ffffff" opacity="0.72"/><circle cx="111" cy="110" r="2.2" fill="#ffffff" opacity="0.72"/><circle cx="194" cy="82" r="0.8" fill="#ffffff" opacity="0.72"/><circle cx="277" cy="46" r="0.9" fill="#ffffff" opacity="0.72"/>
  
  <polyline points="0,260 0,235 140,235 280,235 420,235 560,270 700,252 840,243 980,274 960,250 960,420 0,420" fill="#050b14" opacity="0.42"/>
  <polyline points="0,220 0,236 120,247 240,213 360,196 480,188 600,184 720,182 840,181 960,219 960,210 960,420 0,420" fill="#0a1422" opacity="0.48"/>
  <g opacity="0.9"><rect x="602" y="93" width="35" height="135" rx="5.833333333333333" fill="url(#tower-region-42)"/><rect x="614.6" y="103" width="6.3" height="113" rx="3" fill="#8dff72" opacity="0.42"/><polygon points="594,93 619.5,61 645,93" fill="#e8ffe3" opacity="0.82"/></g><g opacity="0.9"><rect x="751" y="146" width="28" height="106" rx="4.666666666666667" fill="url(#tower-region-42)"/><rect x="761.08" y="156" width="5.04" height="84" rx="3" fill="#8dff72" opacity="0.42"/><ellipse cx="765" cy="146" rx="20.16" ry="7" fill="#e8ffe3" opacity="0.74"/></g><g opacity="0.9"><rect x="110" y="82" width="25" height="146" rx="4.166666666666667" fill="url(#tower-region-42)"/><rect x="119" y="92" width="4.5" height="124" rx="3" fill="#8dff72" opacity="0.42"/><rect x="105" y="73" width="35" height="9" rx="4" fill="#e8ffe3" opacity="0.66"/></g>
  <path d="M0 330 C105 275, 162 316, 260 274 S430 332, 552 282 S760 310, 960 256 L960 420 L0 420 Z" fill="#173d23" opacity="0.84"/><g opacity="0.68"><circle cx="626" cy="328" r="22" fill="#8dff72"/><circle cx="693" cy="303" r="33" fill="#b7ff91"/><circle cx="760" cy="290" r="20" fill="#b7ff91"/><circle cx="827" cy="325" r="31" fill="#8dff72"/><circle cx="894" cy="301" r="18" fill="#b7ff91"/><circle cx="81" cy="330" r="29" fill="#b7ff91"/><circle cx="148" cy="304" r="16" fill="#8dff72"/><circle cx="215" cy="332" r="27" fill="#b7ff91"/><circle cx="282" cy="346" r="14" fill="#b7ff91"/><circle cx="349" cy="353" r="25" fill="#8dff72"/><circle cx="416" cy="315" r="12" fill="#b7ff91"/><circle cx="483" cy="296" r="23" fill="#b7ff91"/><circle cx="550" cy="328" r="34" fill="#8dff72"/><circle cx="617" cy="303" r="21" fill="#b7ff91"/></g>
  <path d="M0 382 H960" stroke="#8dff72" stroke-width="2" opacity="0.42"/>
  <path d="M206 392 C241 350, 620 410, 772 372" fill="none" stroke="#e8ffe3" stroke-width="4" opacity="0.34"/>
  <text x="28" y="40" fill="#e8ffe3" font-family="monospace" font-size="18" letter-spacing="5" opacity="0.5">42 MYCEL FOREST</text>
</svg>