<svg xmlns="http://www.w3.org/2000/svg" viewBox="0 0 960 420" role="img" aria-label="region-51 unique card art">
  <defs>
    <linearGradient id="sky-region-51" x1="0" y1="0" x2="1" y2="1"><stop offset="0" stop-color="#071126"/><stop offset="0.52" stop-color="#69511c"/><stop offset="1" stop-color="#090812"/></linearGradient>
    <linearGradient id="tower-region-51" x1="0" y1="0" x2="1" y2="1"><stop offset="0" stop-color="#101827"/><stop offset="0.5" stop-color="#69511c"/><stop offset="1" stop-color="#03060c"/></linearGradient>
    <radialGradient id="orb-region-51" cx="50%" cy="50%" r="55%"><stop offset="0" stop-color="#d9dfff"/><stop offset="0.42" stop-color="#ffd85f" stop-opacity="0.62"/><stop offset="1" stop-color="#ffd85f" stop-opacity="0"/></radialGradient>
    <filter id="glow-region-51" x="-20%" y="-20%" width="140%" height="140%"><feGaussianBlur stdDeviation="5" result="b"/><feMerge><feMergeNode in="b"/><feMergeNode in="SourceGraphic"/></feMerge></filter>
  </defs>
  <rect width="960" height="420" fill="url(#sky-region-51)"/>
  <circle cx="437" cy="84" r="38" fill="url(#orb-region-51)" filter="url(#glow-region-51)"/>
  <circle cx="114" cy="166" r="0.8" fill="#ffffff" opacity="0.72"/><circle cx="197" cy="122" r="0.9" fill="#ffffff" opacity="0.72"/><circle cx="280" cy="114" r="1.0" fill="#ffffff" opacity="0.72"/><circle cx="363" cy="42" r="1.1" fill="#ffffff" opacity="0.72"/><circle cx="446" cy="20" r="1.1" fill="#ffffff" opacity="0.72"/><circle cx="529" cy="24" r="1.2" fill="#ffffff" opacity="0.72"/><circle cx="612" cy="123" r="1.3" fill="#ffffff" opacity="0.72"/><circle cx="695" cy="21" r="1.4" fill="#ffffff" opacity="0.72"/><circle cx="778" cy="151" r="1.5" fill="#ffffff" opacity="0.72"/><circle cx="861" cy="147" r="1.6" fill="#ffffff" opacity="0.72"/><circle cx="32" cy="160" r="1.6" fill="#ffffff" opacity="0.72"/><circle cx="115" cy="98" r="1.7" fill="#ffffff" opacity="0.72"/><circle cx="198" cy="81" r="1.8" fill="#ffffff" opacity="0.72"/><circle cx="281" cy="170" r="1.9" fill="#ffffff" opacity="0.72"/><circle cx="364" cy="63" r="2.0" fill="#ffffff" opacity="0.72"/><circle cx="447" cy="24" r="2.0" fill="#ffffff" opacity="0.72"/><circle cx="530" cy="132" r="2.1" fill="#ffffff" opacity="0.72"/><circle cx="613" cy="88" r="2.2" fill="#ffffff" opacity="0.72"/><circle cx="696" cy="80" r="0.8" fill="#ffffff" opacity="0.72"/><circle cx="779" cy="174" r="0.9" fill="#ffffff" opacity="0.72"/><circle cx="862" cy="152" r="1.0" fill="#ffffff" opacity="0.72"/><circle cx="33" cy="156" r="1.1" fill="#ffffff" opacity="0.72"/><circle cx="116" cy="89" r="1.1" fill="#ffffff" opacity="0.72"/><circle cx="199" cy="153" r="1.2" fill="#ffffff" opacity="0.72"/><circle cx="282" cy="117" r="1.3" fill="#ffffff" opacity="0.72"/><circle cx="365" cy="113" r="1.4" fill="#ffffff" opacity="0.72"/><circle cx="448" cy="126" r="1.5" fill="#ffffff" opacity="0.72"/><circle cx="531" cy="64" r="1.6" fill="#ffffff" opacity="0.72"/><circle cx="614" cy="47" r="1.6" fill="#ffffff" opacity="0.72"/><circle cx="697" cy="136" r="1.7" fill="#ffffff" opacity="0.72"/><circle cx="780" cy="29" r="1.8" fill="#ffffff" opacity="0.72"/><circle cx="863" cy="156" r="1.9" fill="#ffffff" opacity="0.72"/><circle cx="34" cy="98" r="2.0" fill="#ffffff" opacity="0.72"/><circle cx="117" cy="54" r="2.0" fill="#ffffff" opacity="0.72"/>
  
  <polyline points="0,260 0,284 140,294 280,299 420,302 560,303 700,269 840,252 980,278 960,250 960,420 0,420" fill="#050b14" opacity="0.42"/>
  <polyline points="0,220 0,214 120,197 240,188 360,223 480,201 600,190 720,185 840,182 960,220 960,210 960,420 0,420" fill="#0a1422" opacity="0.48"/>
  <g opacity="0.9"><rect x="344" y="116" width="43" height="128" rx="7.166666666666667" fill="url(#tower-region-51)"/><rect x="359.48" y="126" width="7.739999999999999" height="106" rx="3" fill="#ffd85f" opacity="0.42"/><rect x="339" y="107" width="53" height="9" rx="4" fill="#fff1ba" opacity="0.66"/></g><g opacity="0.9"><rect x="493" y="111" width="48" height="157" rx="8" fill="url(#tower-region-51)"/><rect x="510.28" y="121" width="8.64" height="135" rx="3" fill="#ffd85f" opacity="0.42"/><polygon points="485,111 517,79 549,111" fill="#fff1ba" opacity="0.82"/></g><g opacity="0.9"><rect x="642" y="73" width="35" height="171" rx="5.833333333333333" fill="url(#tower-region-51)"/><rect x="654.6" y="83" width="6.3" height="149" rx="3" fill="#ffd85f" opacity="0.42"/><ellipse cx="659.5" cy="73" rx="25.2" ry="7" fill="#fff1ba" opacity="0.74"/></g><g opacity="0.9"><rect x="791" y="144" width="44" height="124" rx="7.333333333333333" fill="url(#tower-region-51)"/><rect x="806.84" y="154" width="7.92" height="102" rx="3" fill="#ffd85f" opacity="0.42"/><rect x="786" y="135" width="54" height="9" rx="4" fill="#fff1ba" opacity="0.66"/></g><g opacity="0.9"><rect x="150" y="89" width="33" height="155" rx="5.5" fill="url(#tower-region-51)"/><rect x="161.88" y="99" width="5.9399999999999995" height="133" rx="3" fill="#ffd85f" opacity="0.42"/><polygon points="142,89 166.5,57 191,89" fill="#fff1ba" opacity="0.82"/></g><g opacity="0.9"><rect x="299" y="98" width="27" height="170" rx="4.5" fill="url(#tower-region-51)"/><rect x="308.72" y="108" width="4.859999999999999" height="148" rx="3" fill="#ffd85f" opacity="0.42"/><ellipse cx="312.5" cy="98" rx="19.439999999999998" ry="7" fill="#fff1ba" opacity="0.74"/></g>
  <path d="M0 326 C146 256, 290 380, 430 306 S706 250, 960 310 L960 420 L0 420 Z" fill="#6c4b24" opacity="0.86"/><path d="M0 355 C160 318, 300 392, 474 346 S776 318, 960 362" fill="none" stroke="#ffd85f" stroke-width="8" opacity="0.32"/>
  <path d="M0 382 H960" stroke="#ffd85f" stroke-width="2" opacity="0.42"/>
  <path d="M58 392 C338 350, 554 410, 763 372" fill="none" stroke="#fff1ba" stroke-width="4" opacity="0.34"/>
  <text x="28" y="40" fill="#fff1ba" font-family="monospace" font-size="18" letter-spacing="5" opacity="0.5">51 STONE WASTE</text>
</svg>