<svg xmlns="http://www.w3.org/2000/svg" viewBox="0 0 960 420" role="img" aria-label="region-26 unique card art">
  <defs>
    <linearGradient id="sky-region-26" x1="0" y1="0" x2="1" y2="1"><stop offset="0" stop-color="#162b45"/><stop offset="0.52" stop-color="#1e5a28"/><stop offset="1" stop-color="#090812"/></linearGradient>
    <linearGradient id="tower-region-26" x1="0" y1="0" x2="1" y2="1"><stop offset="0" stop-color="#101827"/><stop offset="0.5" stop-color="#1e5a28"/><stop offset="1" stop-color="#03060c"/></linearGradient>
    <radialGradient id="orb-region-26" cx="50%" cy="50%" r="55%"><stop offset="0" stop-color="#fff0a8"/><stop offset="0.42" stop-color="#8dff72" stop-opacity="0.62"/><stop offset="1" stop-color="#8dff72" stop-opacity="0"/></radialGradient>
    <filter id="glow-region-26" x="-20%" y="-20%" width="140%" height="140%"><feGaussianBlur stdDeviation="5" result="b"/><feMerge><feMergeNode in="b"/><feMergeNode in="SourceGraphic"/></feMerge></filter>
  </defs>
  <rect width="960" height="420" fill="url(#sky-region-26)"/>
  <circle cx="790" cy="157" r="54" fill="url(#orb-region-26)" filter="url(#glow-region-26)"/>
  <circle cx="824" cy="88" r="2.0" fill="#ffffff" opacity="0.22"/><circle cx="907" cy="83" r="2.0" fill="#ffffff" opacity="0.22"/><circle cx="78" cy="178" r="2.1" fill="#ffffff" opacity="0.22"/><circle cx="161" cy="157" r="2.2" fill="#ffffff" opacity="0.22"/><circle cx="244" cy="161" r="0.8" fill="#ffffff" opacity="0.22"/><circle cx="327" cy="94" r="0.9" fill="#ffffff" opacity="0.22"/><circle cx="410" cy="75" r="1.0" fill="#ffffff" opacity="0.22"/><circle cx="493" cy="80" r="1.1" fill="#ffffff" opacity="0.22"/><circle cx="576" cy="97" r="1.1" fill="#ffffff" opacity="0.22"/><circle cx="659" cy="120" r="1.2" fill="#ffffff" opacity="0.22"/><circle cx="742" cy="63" r="1.3" fill="#ffffff" opacity="0.22"/><circle cx="825" cy="132" r="1.4" fill="#ffffff" opacity="0.22"/>
  
  <polyline points="0,260 0,272 140,288 280,296 420,300 560,302 700,268 840,286 980,295 960,250 960,420 0,420" fill="#050b14" opacity="0.42"/>
  <polyline points="0,220 0,218 120,238 240,209 360,233 480,245 600,251 720,215 840,197 960,227 960,210 960,420 0,420" fill="#0a1422" opacity="0.48"/>
  <g opacity="0.9"><rect x="756" y="97" width="46" height="161" rx="7.666666666666667" fill="url(#tower-region-26)"/><rect x="772.56" y="107" width="8.28" height="139" rx="3" fill="#8dff72" opacity="0.42"/><ellipse cx="779" cy="97" rx="33.12" ry="7" fill="#e8ffe3" opacity="0.74"/></g><g opacity="0.9"><rect x="115" y="109" width="50" height="173" rx="8.333333333333334" fill="url(#tower-region-26)"/><rect x="133" y="119" width="9" height="151" rx="3" fill="#8dff72" opacity="0.42"/><rect x="110" y="100" width="60" height="9" rx="4" fill="#e8ffe3" opacity="0.66"/></g><g opacity="0.9"><rect x="264" y="133" width="52" height="125" rx="8.666666666666666" fill="url(#tower-region-26)"/><rect x="282.72" y="143" width="9.36" height="103" rx="3" fill="#8dff72" opacity="0.42"/><polygon points="256,133 290,101 324,133" fill="#e8ffe3" opacity="0.82"/></g><g opacity="0.9"><rect x="413" y="181" width="53" height="101" rx="8.833333333333334" fill="url(#tower-region-26)"/><rect x="432.08" y="191" width="9.54" height="79" rx="3" fill="#8dff72" opacity="0.42"/><ellipse cx="439.5" cy="181" rx="38.16" ry="7" fill="#e8ffe3" opacity="0.74"/></g><g opacity="0.9"><rect x="562" y="169" width="53" height="89" rx="8.833333333333334" fill="url(#tower-region-26)"/><rect x="581.08" y="179" width="9.54" height="67" rx="3" fill="#8dff72" opacity="0.42"/><rect x="557" y="160" width="63" height="9" rx="4" fill="#e8ffe3" opacity="0.66"/></g>
  <path d="M0 330 C105 275, 162 316, 260 274 S430 332, 552 282 S760 310, 960 256 L960 420 L0 420 Z" fill="#173d23" opacity="0.84"/><g opacity="0.68"><circle cx="520" cy="330" r="20" fill="#8dff72"/><circle cx="587" cy="304" r="31" fill="#b7ff91"/><circle cx="654" cy="332" r="18" fill="#b7ff91"/><circle cx="721" cy="346" r="29" fill="#8dff72"/><circle cx="788" cy="353" r="16" fill="#b7ff91"/><circle cx="855" cy="315" r="27" fill="#b7ff91"/><circle cx="42" cy="337" r="14" fill="#8dff72"/><circle cx="109" cy="307" r="25" fill="#b7ff91"/><circle cx="176" cy="333" r="12" fill="#b7ff91"/><circle cx="243" cy="305" r="23" fill="#8dff72"/><circle cx="310" cy="291" r="34" fill="#b7ff91"/><circle cx="377" cy="325" r="21" fill="#b7ff91"/><circle cx="444" cy="330" r="32" fill="#8dff72"/><circle cx="511" cy="304" r="19" fill="#b7ff91"/></g>
  <path d="M0 382 H960" stroke="#8dff72" stroke-width="2" opacity="0.42"/>
  <path d="M180 392 C315 350, 591 410, 849 372" fill="none" stroke="#e8ffe3" stroke-width="4" opacity="0.34"/>
  <text x="28" y="40" fill="#e8ffe3" font-family="monospace" font-size="18" letter-spacing="5" opacity="0.5">26 MYCEL FOREST</text>
</svg>