<svg xmlns="http://www.w3.org/2000/svg" viewBox="0 0 960 420" role="img" aria-label="region-23 unique card art">
  <defs>
    <linearGradient id="sky-region-23" x1="0" y1="0" x2="1" y2="1"><stop offset="0" stop-color="#162b45"/><stop offset="0.52" stop-color="#69511c"/><stop offset="1" stop-color="#090812"/></linearGradient>
    <linearGradient id="tower-region-23" x1="0" y1="0" x2="1" y2="1"><stop offset="0" stop-color="#101827"/><stop offset="0.5" stop-color="#69511c"/><stop offset="1" stop-color="#03060c"/></linearGradient>
    <radialGradient id="orb-region-23" cx="50%" cy="50%" r="55%"><stop offset="0" stop-color="#fff0a8"/><stop offset="0.42" stop-color="#ffd85f" stop-opacity="0.62"/><stop offset="1" stop-color="#ffd85f" stop-opacity="0"/></radialGradient>
    <filter id="glow-region-23" x="-20%" y="-20%" width="140%" height="140%"><feGaussianBlur stdDeviation="5" result="b"/><feMerge><feMergeNode in="b"/><feMergeNode in="SourceGraphic"/></feMerge></filter>
  </defs>
  <rect width="960" height="420" fill="url(#sky-region-23)"/>
  <circle cx="721" cy="161" r="54" fill="url(#orb-region-23)" filter="url(#glow-region-23)"/>
  <circle cx="423" cy="83" r="1.6" fill="#ffffff" opacity="0.22"/><circle cx="506" cy="80" r="1.6" fill="#ffffff" opacity="0.22"/><circle cx="589" cy="93" r="1.7" fill="#ffffff" opacity="0.22"/><circle cx="672" cy="114" r="1.8" fill="#ffffff" opacity="0.22"/><circle cx="755" cy="56" r="1.9" fill="#ffffff" opacity="0.22"/><circle cx="838" cy="125" r="2.0" fill="#ffffff" opacity="0.22"/><circle cx="921" cy="91" r="2.0" fill="#ffffff" opacity="0.22"/><circle cx="92" cy="88" r="2.1" fill="#ffffff" opacity="0.22"/><circle cx="175" cy="101" r="2.2" fill="#ffffff" opacity="0.22"/><circle cx="258" cy="122" r="0.8" fill="#ffffff" opacity="0.22"/><circle cx="341" cy="147" r="0.9" fill="#ffffff" opacity="0.22"/><circle cx="424" cy="91" r="1.0" fill="#ffffff" opacity="0.22"/>
  
  <polyline points="0,260 0,275 140,290 280,262 420,248 560,276 700,290 840,297 980,266 960,250 960,420 0,420" fill="#050b14" opacity="0.42"/>
  <polyline points="0,220 0,225 120,241 240,210 360,234 480,207 600,193 720,225 840,241 960,249 960,210 960,420 0,420" fill="#0a1422" opacity="0.48"/>
  <g opacity="0.9"><rect x="331" y="147" width="29" height="90" rx="4.833333333333333" fill="url(#tower-region-23)"/><rect x="341.44" y="157" width="5.22" height="68" rx="3" fill="#ffd85f" opacity="0.42"/><rect x="326" y="138" width="39" height="9" rx="4" fill="#fff1ba" opacity="0.66"/></g><g opacity="0.9"><rect x="480" y="177" width="41" height="84" rx="6.833333333333333" fill="url(#tower-region-23)"/><rect x="494.76" y="187" width="7.38" height="62" rx="3" fill="#ffd85f" opacity="0.42"/><polygon points="472,177 500.5,145 529,177" fill="#fff1ba" opacity="0.82"/></g><g opacity="0.9"><rect x="629" y="156" width="47" height="81" rx="7.833333333333333" fill="url(#tower-region-23)"/><rect x="645.92" y="166" width="8.459999999999999" height="59" rx="3" fill="#ffd85f" opacity="0.42"/><ellipse cx="652.5" cy="156" rx="33.839999999999996" ry="7" fill="#fff1ba" opacity="0.74"/></g><g opacity="0.9"><rect x="778" y="128" width="50" height="133" rx="8.333333333333334" fill="url(#tower-region-23)"/><rect x="796" y="138" width="9" height="111" rx="3" fill="#ffd85f" opacity="0.42"/><rect x="773" y="119" width="60" height="9" rx="4" fill="#fff1ba" opacity="0.66"/></g>
  <path d="M0 326 C146 256, 290 380, 430 306 S706 250, 960 310 L960 420 L0 420 Z" fill="#6c4b24" opacity="0.86"/><path d="M0 355 C160 318, 300 392, 474 346 S776 318, 960 362" fill="none" stroke="#ffd85f" stroke-width="8" opacity="0.32"/>
  <path d="M0 382 H960" stroke="#ffd85f" stroke-width="2" opacity="0.42"/>
  <path d="M175 392 C320 350, 527 410, 848 372" fill="none" stroke="#fff1ba" stroke-width="4" opacity="0.34"/>
  <text x="28" y="40" fill="#fff1ba" font-family="monospace" font-size="18" letter-spacing="5" opacity="0.5">23 STONE WASTE</text>
</svg>