<svg xmlns="http://www.w3.org/2000/svg" viewBox="0 0 960 420" role="img" aria-label="region-33 unique card art">
  <defs>
    <linearGradient id="sky-region-33" x1="0" y1="0" x2="1" y2="1"><stop offset="0" stop-color="#071126"/><stop offset="0.52" stop-color="#5b164e"/><stop offset="1" stop-color="#090812"/></linearGradient>
    <linearGradient id="tower-region-33" x1="0" y1="0" x2="1" y2="1"><stop offset="0" stop-color="#101827"/><stop offset="0.5" stop-color="#5b164e"/><stop offset="1" stop-color="#03060c"/></linearGradient>
    <radialGradient id="orb-region-33" cx="50%" cy="50%" r="55%"><stop offset="0" stop-color="#d9dfff"/><stop offset="0.42" stop-color="#ff74ee" stop-opacity="0.62"/><stop offset="1" stop-color="#ff74ee" stop-opacity="0"/></radialGradient>
    <filter id="glow-region-33" x="-20%" y="-20%" width="140%" height="140%"><feGaussianBlur stdDeviation="5" result="b"/><feMerge><feMergeNode in="b"/><feMergeNode in="SourceGraphic"/></feMerge></filter>
  </defs>
  <rect width="960" height="420" fill="url(#sky-region-33)"/>
  <circle cx="567" cy="65" r="38" fill="url(#orb-region-33)" filter="url(#glow-region-33)"/>
  <circle cx="774" cy="94" r="0.8" fill="#ffffff" opacity="0.72"/><circle cx="857" cy="86" r="0.9" fill="#ffffff" opacity="0.72"/><circle cx="28" cy="179" r="1.0" fill="#ffffff" opacity="0.72"/><circle cx="111" cy="74" r="1.1" fill="#ffffff" opacity="0.72"/><circle cx="194" cy="119" r="1.1" fill="#ffffff" opacity="0.72"/><circle cx="277" cy="156" r="1.2" fill="#ffffff" opacity="0.72"/><circle cx="360" cy="23" r="1.3" fill="#ffffff" opacity="0.72"/><circle cx="443" cy="54" r="1.4" fill="#ffffff" opacity="0.72"/><circle cx="526" cy="84" r="1.5" fill="#ffffff" opacity="0.72"/><circle cx="609" cy="114" r="1.6" fill="#ffffff" opacity="0.72"/><circle cx="692" cy="60" r="1.6" fill="#ffffff" opacity="0.72"/><circle cx="775" cy="131" r="1.7" fill="#ffffff" opacity="0.72"/><circle cx="858" cy="98" r="1.8" fill="#ffffff" opacity="0.72"/><circle cx="29" cy="96" r="1.9" fill="#ffffff" opacity="0.72"/><circle cx="112" cy="26" r="2.0" fill="#ffffff" opacity="0.72"/><circle cx="195" cy="172" r="2.0" fill="#ffffff" opacity="0.72"/><circle cx="278" cy="60" r="2.1" fill="#ffffff" opacity="0.72"/><circle cx="361" cy="52" r="2.2" fill="#ffffff" opacity="0.72"/><circle cx="444" cy="145" r="0.8" fill="#ffffff" opacity="0.72"/><circle cx="527" cy="40" r="0.9" fill="#ffffff" opacity="0.72"/><circle cx="610" cy="85" r="1.0" fill="#ffffff" opacity="0.72"/><circle cx="693" cy="122" r="1.1" fill="#ffffff" opacity="0.72"/><circle cx="776" cy="155" r="1.1" fill="#ffffff" opacity="0.72"/><circle cx="859" cy="20" r="1.2" fill="#ffffff" opacity="0.72"/><circle cx="30" cy="50" r="1.3" fill="#ffffff" opacity="0.72"/><circle cx="113" cy="80" r="1.4" fill="#ffffff" opacity="0.72"/><circle cx="196" cy="26" r="1.5" fill="#ffffff" opacity="0.72"/><circle cx="279" cy="97" r="1.6" fill="#ffffff" opacity="0.72"/><circle cx="362" cy="64" r="1.6" fill="#ffffff" opacity="0.72"/><circle cx="445" cy="62" r="1.7" fill="#ffffff" opacity="0.72"/><circle cx="528" cy="158" r="1.8" fill="#ffffff" opacity="0.72"/><circle cx="611" cy="138" r="1.9" fill="#ffffff" opacity="0.72"/><circle cx="694" cy="26" r="2.0" fill="#ffffff" opacity="0.72"/><circle cx="777" cy="184" r="2.0" fill="#ffffff" opacity="0.72"/>
  
  <polyline points="0,260 0,256 140,280 280,292 420,263 560,284 700,259 840,247 980,241 960,250 960,420 0,420" fill="#050b14" opacity="0.42"/>
  <polyline points="0,220 0,211 120,195 240,187 360,183 480,181 600,219 720,238 840,209 960,194 960,210 960,420 0,420" fill="#0a1422" opacity="0.48"/>
  <g opacity="0.9"><rect x="438" y="111" width="53" height="121" rx="8.833333333333334" fill="url(#tower-region-33)"/><rect x="457.08" y="121" width="9.54" height="99" rx="3" fill="#ff74ee" opacity="0.42"/><rect x="433" y="102" width="63" height="9" rx="4" fill="#ffe2fb" opacity="0.66"/></g><g opacity="0.9"><rect x="587" y="103" width="53" height="153" rx="8.833333333333334" fill="url(#tower-region-33)"/><rect x="606.08" y="113" width="9.54" height="131" rx="3" fill="#ff74ee" opacity="0.42"/><polygon points="579,103 613.5,71 648,103" fill="#ffe2fb" opacity="0.82"/></g><g opacity="0.9"><rect x="736" y="63" width="53" height="169" rx="8.833333333333334" fill="url(#tower-region-33)"/><rect x="755.08" y="73" width="9.54" height="147" rx="3" fill="#ff74ee" opacity="0.42"/><ellipse cx="762.5" cy="63" rx="38.16" ry="7" fill="#ffe2fb" opacity="0.74"/></g><g opacity="0.9"><rect x="95" y="133" width="37" height="123" rx="6.166666666666667" fill="url(#tower-region-33)"/><rect x="108.32" y="143" width="6.66" height="101" rx="3" fill="#ff74ee" opacity="0.42"/><rect x="90" y="124" width="47" height="9" rx="4" fill="#ffe2fb" opacity="0.66"/></g><g opacity="0.9"><rect x="244" y="132" width="45" height="100" rx="7.5" fill="url(#tower-region-33)"/><rect x="260.2" y="142" width="8.1" height="78" rx="3" fill="#ff74ee" opacity="0.42"/><polygon points="236,132 266.5,100 297,132" fill="#ffe2fb" opacity="0.82"/></g><g opacity="0.9"><rect x="393" y="113" width="33" height="143" rx="5.5" fill="url(#tower-region-33)"/><rect x="404.88" y="123" width="5.9399999999999995" height="121" rx="3" fill="#ff74ee" opacity="0.42"/><ellipse cx="409.5" cy="113" rx="23.759999999999998" ry="7" fill="#ffe2fb" opacity="0.74"/></g><g opacity="0.9"><rect x="542" y="122" width="27" height="110" rx="4.5" fill="url(#tower-region-33)"/><rect x="551.72" y="132" width="4.859999999999999" height="88" rx="3" fill="#ff74ee" opacity="0.42"/><rect x="537" y="113" width="37" height="9" rx="4" fill="#ffe2fb" opacity="0.66"/></g>
  <path d="M0 330 L90 298 L164 326 L258 286 L354 326 L478 292 L612 328 L740 276 L842 322 L960 294 L960 420 L0 420 Z" fill="#1c1230" opacity="0.82"/><path d="M80 320 H884" stroke="#ff74ee" stroke-width="4" opacity="0.38"/>
  <path d="M0 382 H960" stroke="#ff74ee" stroke-width="2" opacity="0.42"/>
  <path d="M202 392 C283 350, 637 410, 838 372" fill="none" stroke="#ffe2fb" stroke-width="4" opacity="0.34"/>
  <text x="28" y="40" fill="#ffe2fb" font-family="monospace" font-size="18" letter-spacing="5" opacity="0.5">33 DROWNED CITY</text>
</svg>