<svg xmlns="http://www.w3.org/2000/svg" viewBox="0 0 960 420" role="img" aria-label="region-50 unique card art">
  <defs>
    <linearGradient id="sky-region-50" x1="0" y1="0" x2="1" y2="1"><stop offset="0" stop-color="#162b45"/><stop offset="0.52" stop-color="#1e5a28"/><stop offset="1" stop-color="#090812"/></linearGradient>
    <linearGradient id="tower-region-50" x1="0" y1="0" x2="1" y2="1"><stop offset="0" stop-color="#101827"/><stop offset="0.5" stop-color="#1e5a28"/><stop offset="1" stop-color="#03060c"/></linearGradient>
    <radialGradient id="orb-region-50" cx="50%" cy="50%" r="55%"><stop offset="0" stop-color="#fff0a8"/><stop offset="0.42" stop-color="#8dff72" stop-opacity="0.62"/><stop offset="1" stop-color="#8dff72" stop-opacity="0"/></radialGradient>
    <filter id="glow-region-50" x="-20%" y="-20%" width="140%" height="140%"><feGaussianBlur stdDeviation="5" result="b"/><feMerge><feMergeNode in="b"/><feMergeNode in="SourceGraphic"/></feMerge></filter>
  </defs>
  <rect width="960" height="420" fill="url(#sky-region-50)"/>
  <circle cx="279" cy="61" r="54" fill="url(#orb-region-50)" filter="url(#glow-region-50)"/>
  <circle cx="581" cy="165" r="2.2" fill="#ffffff" opacity="0.22"/><circle cx="664" cy="121" r="0.8" fill="#ffffff" opacity="0.22"/><circle cx="747" cy="31" r="0.9" fill="#ffffff" opacity="0.22"/><circle cx="830" cy="166" r="1.0" fill="#ffffff" opacity="0.22"/><circle cx="913" cy="165" r="1.1" fill="#ffffff" opacity="0.22"/><circle cx="84" cy="96" r="1.1" fill="#ffffff" opacity="0.22"/><circle cx="167" cy="159" r="1.2" fill="#ffffff" opacity="0.22"/><circle cx="250" cy="122" r="1.3" fill="#ffffff" opacity="0.22"/><circle cx="333" cy="118" r="1.4" fill="#ffffff" opacity="0.22"/><circle cx="416" cy="48" r="1.5" fill="#ffffff" opacity="0.22"/><circle cx="499" cy="110" r="1.6" fill="#ffffff" opacity="0.22"/><circle cx="582" cy="156" r="1.6" fill="#ffffff" opacity="0.22"/>
  
  <polyline points="0,260 0,284 140,294 280,264 420,249 560,242 700,273 840,254 980,244 960,250 960,420 0,420" fill="#050b14" opacity="0.42"/>
  <polyline points="0,220 0,247 120,213 240,235 360,207 480,193 600,225 720,202 840,191 960,224 960,210 960,420 0,420" fill="#0a1422" opacity="0.48"/>
  <g opacity="0.9"><rect x="733" y="62" width="52" height="157" rx="8.666666666666666" fill="url(#tower-region-50)"/><rect x="751.72" y="72" width="9.36" height="135" rx="3" fill="#8dff72" opacity="0.42"/><ellipse cx="759" cy="62" rx="37.44" ry="7" fill="#e8ffe3" opacity="0.74"/></g><g opacity="0.9"><rect x="92" y="126" width="53" height="117" rx="8.833333333333334" fill="url(#tower-region-50)"/><rect x="111.08" y="136" width="9.54" height="95" rx="3" fill="#8dff72" opacity="0.42"/><rect x="87" y="117" width="63" height="9" rx="4" fill="#e8ffe3" opacity="0.66"/></g><g opacity="0.9"><rect x="241" y="122" width="53" height="97" rx="8.833333333333334" fill="url(#tower-region-50)"/><rect x="260.08" y="132" width="9.54" height="75" rx="3" fill="#8dff72" opacity="0.42"/><polygon points="233,122 267.5,90 302,122" fill="#e8ffe3" opacity="0.82"/></g><g opacity="0.9"><rect x="390" y="156" width="37" height="87" rx="6.166666666666667" fill="url(#tower-region-50)"/><rect x="403.32" y="166" width="6.66" height="65" rx="3" fill="#8dff72" opacity="0.42"/><ellipse cx="408.5" cy="156" rx="26.64" ry="7" fill="#e8ffe3" opacity="0.74"/></g><g opacity="0.9"><rect x="539" y="83" width="45" height="136" rx="7.5" fill="url(#tower-region-50)"/><rect x="555.2" y="93" width="8.1" height="114" rx="3" fill="#8dff72" opacity="0.42"/><rect x="534" y="74" width="55" height="9" rx="4" fill="#e8ffe3" opacity="0.66"/></g>
  <path d="M0 330 C105 275, 162 316, 260 274 S430 332, 552 282 S760 310, 960 256 L960 420 L0 420 Z" fill="#173d23" opacity="0.84"/><g opacity="0.68"><circle cx="677" cy="351" r="17" fill="#8dff72"/><circle cx="744" cy="314" r="28" fill="#b7ff91"/><circle cx="811" cy="337" r="15" fill="#b7ff91"/><circle cx="878" cy="307" r="26" fill="#8dff72"/><circle cx="65" cy="333" r="13" fill="#b7ff91"/><circle cx="132" cy="305" r="24" fill="#b7ff91"/><circle cx="199" cy="291" r="35" fill="#8dff72"/><circle cx="266" cy="325" r="22" fill="#b7ff91"/><circle cx="333" cy="342" r="33" fill="#b7ff91"/><circle cx="400" cy="351" r="20" fill="#8dff72"/><circle cx="467" cy="314" r="31" fill="#b7ff91"/><circle cx="534" cy="337" r="18" fill="#b7ff91"/><circle cx="601" cy="351" r="29" fill="#8dff72"/><circle cx="668" cy="314" r="16" fill="#b7ff91"/></g>
  <path d="M0 382 H960" stroke="#8dff72" stroke-width="2" opacity="0.42"/>
  <path d="M57 392 C339 350, 589 410, 731 372" fill="none" stroke="#e8ffe3" stroke-width="4" opacity="0.34"/>
  <text x="28" y="40" fill="#e8ffe3" font-family="monospace" font-size="18" letter-spacing="5" opacity="0.5">50 MYCEL FOREST</text>
</svg>