<svg xmlns="http://www.w3.org/2000/svg" viewBox="0 0 960 420" role="img" aria-label="region-49 unique card art">
  <defs>
    <linearGradient id="sky-region-49" x1="0" y1="0" x2="1" y2="1"><stop offset="0" stop-color="#162b45"/><stop offset="0.52" stop-color="#5b164e"/><stop offset="1" stop-color="#090812"/></linearGradient>
    <linearGradient id="tower-region-49" x1="0" y1="0" x2="1" y2="1"><stop offset="0" stop-color="#101827"/><stop offset="0.5" stop-color="#5b164e"/><stop offset="1" stop-color="#03060c"/></linearGradient>
    <radialGradient id="orb-region-49" cx="50%" cy="50%" r="55%"><stop offset="0" stop-color="#fff0a8"/><stop offset="0.42" stop-color="#ff74ee" stop-opacity="0.62"/><stop offset="1" stop-color="#ff74ee" stop-opacity="0"/></radialGradient>
    <filter id="glow-region-49" x="-20%" y="-20%" width="140%" height="140%"><feGaussianBlur stdDeviation="5" result="b"/><feMerge><feMergeNode in="b"/><feMergeNode in="SourceGraphic"/></feMerge></filter>
  </defs>
  <rect width="960" height="420" fill="url(#sky-region-49)"/>
  <circle cx="501" cy="153" r="54" fill="url(#orb-region-49)" filter="url(#glow-region-49)"/>
  <circle cx="631" cy="159" r="1.9" fill="#ffffff" opacity="0.22"/><circle cx="714" cy="118" r="2.0" fill="#ffffff" opacity="0.22"/><circle cx="797" cy="29" r="2.0" fill="#ffffff" opacity="0.22"/><circle cx="880" cy="82" r="2.1" fill="#ffffff" opacity="0.22"/><circle cx="51" cy="40" r="2.2" fill="#ffffff" opacity="0.22"/><circle cx="134" cy="34" r="0.8" fill="#ffffff" opacity="0.22"/><circle cx="217" cy="45" r="0.9" fill="#ffffff" opacity="0.22"/><circle cx="300" cy="148" r="1.0" fill="#ffffff" opacity="0.22"/><circle cx="383" cy="131" r="1.1" fill="#ffffff" opacity="0.22"/><circle cx="466" cy="54" r="1.1" fill="#ffffff" opacity="0.22"/><circle cx="549" cy="113" r="1.2" fill="#ffffff" opacity="0.22"/><circle cx="632" cy="157" r="1.3" fill="#ffffff" opacity="0.22"/>
  
  <polyline points="0,260 0,300 140,302 280,268 420,286 560,260 700,282 840,293 980,299 960,250 960,420 0,420" fill="#050b14" opacity="0.42"/>
  <polyline points="0,220 0,253 120,255 240,256 360,257 480,257 600,257 720,257 840,257 960,257 960,210 960,420 0,420" fill="#0a1422" opacity="0.48"/>
  <g opacity="0.9"><rect x="261" y="157" width="45" height="88" rx="7.5" fill="url(#tower-region-49)"/><rect x="277.2" y="167" width="8.1" height="66" rx="3" fill="#ff74ee" opacity="0.42"/><polygon points="253,157 283.5,125 314,157" fill="#ffe2fb" opacity="0.82"/></g><g opacity="0.9"><rect x="410" y="132" width="49" height="137" rx="8.166666666666666" fill="url(#tower-region-49)"/><rect x="427.64" y="142" width="8.82" height="115" rx="3" fill="#ff74ee" opacity="0.42"/><ellipse cx="434.5" cy="132" rx="35.28" ry="7" fill="#ffe2fb" opacity="0.74"/></g><g opacity="0.9"><rect x="559" y="84" width="51" height="161" rx="8.5" fill="url(#tower-region-49)"/><rect x="577.36" y="94" width="9.18" height="139" rx="3" fill="#ff74ee" opacity="0.42"/><rect x="554" y="75" width="61" height="9" rx="4" fill="#ffe2fb" opacity="0.66"/></g>
  <path d="M0 330 L90 298 L164 326 L258 286 L354 326 L478 292 L612 328 L740 276 L842 322 L960 294 L960 420 L0 420 Z" fill="#1c1230" opacity="0.82"/><path d="M80 320 H884" stroke="#ff74ee" stroke-width="4" opacity="0.38"/>
  <path d="M0 382 H960" stroke="#ff74ee" stroke-width="2" opacity="0.42"/>
  <path d="M215 392 C370 350, 543 410, 742 372" fill="none" stroke="#ffe2fb" stroke-width="4" opacity="0.34"/>
  <text x="28" y="40" fill="#ffe2fb" font-family="monospace" font-size="18" letter-spacing="5" opacity="0.5">49 DROWNED CITY</text>
</svg>