<svg xmlns="http://www.w3.org/2000/svg" viewBox="0 0 960 420" role="img" aria-label="region-30 unique card art">
  <defs>
    <linearGradient id="sky-region-30" x1="0" y1="0" x2="1" y2="1"><stop offset="0" stop-color="#071126"/><stop offset="0.52" stop-color="#1e5a28"/><stop offset="1" stop-color="#090812"/></linearGradient>
    <linearGradient id="tower-region-30" x1="0" y1="0" x2="1" y2="1"><stop offset="0" stop-color="#101827"/><stop offset="0.5" stop-color="#1e5a28"/><stop offset="1" stop-color="#03060c"/></linearGradient>
    <radialGradient id="orb-region-30" cx="50%" cy="50%" r="55%"><stop offset="0" stop-color="#d9dfff"/><stop offset="0.42" stop-color="#8dff72" stop-opacity="0.62"/><stop offset="1" stop-color="#8dff72" stop-opacity="0"/></radialGradient>
    <filter id="glow-region-30" x="-20%" y="-20%" width="140%" height="140%"><feGaussianBlur stdDeviation="5" result="b"/><feMerge><feMergeNode in="b"/><feMergeNode in="SourceGraphic"/></feMerge></filter>
  </defs>
  <rect width="960" height="420" fill="url(#sky-region-30)"/>
  <circle cx="725" cy="88" r="38" fill="url(#orb-region-30)" filter="url(#glow-region-30)"/>
  <circle cx="307" cy="95" r="0.9" fill="#ffffff" opacity="0.72"/><circle cx="390" cy="86" r="1.0" fill="#ffffff" opacity="0.72"/><circle cx="473" cy="96" r="1.1" fill="#ffffff" opacity="0.72"/><circle cx="556" cy="116" r="1.1" fill="#ffffff" opacity="0.72"/><circle cx="639" cy="140" r="1.2" fill="#ffffff" opacity="0.72"/><circle cx="722" cy="84" r="1.3" fill="#ffffff" opacity="0.72"/><circle cx="805" cy="153" r="1.4" fill="#ffffff" opacity="0.72"/><circle cx="888" cy="119" r="1.5" fill="#ffffff" opacity="0.72"/><circle cx="59" cy="117" r="1.6" fill="#ffffff" opacity="0.72"/><circle cx="142" cy="47" r="1.6" fill="#ffffff" opacity="0.72"/><circle cx="225" cy="110" r="1.7" fill="#ffffff" opacity="0.72"/><circle cx="308" cy="73" r="1.8" fill="#ffffff" opacity="0.72"/><circle cx="391" cy="152" r="1.9" fill="#ffffff" opacity="0.72"/><circle cx="474" cy="40" r="2.0" fill="#ffffff" opacity="0.72"/><circle cx="557" cy="164" r="2.0" fill="#ffffff" opacity="0.72"/><circle cx="640" cy="158" r="2.1" fill="#ffffff" opacity="0.72"/><circle cx="723" cy="61" r="2.2" fill="#ffffff" opacity="0.72"/><circle cx="806" cy="52" r="0.8" fill="#ffffff" opacity="0.72"/><circle cx="889" cy="62" r="0.9" fill="#ffffff" opacity="0.72"/><circle cx="60" cy="82" r="1.0" fill="#ffffff" opacity="0.72"/><circle cx="143" cy="106" r="1.1" fill="#ffffff" opacity="0.72"/><circle cx="226" cy="50" r="1.1" fill="#ffffff" opacity="0.72"/><circle cx="309" cy="119" r="1.2" fill="#ffffff" opacity="0.72"/><circle cx="392" cy="85" r="1.3" fill="#ffffff" opacity="0.72"/><circle cx="475" cy="83" r="1.4" fill="#ffffff" opacity="0.72"/><circle cx="558" cy="179" r="1.5" fill="#ffffff" opacity="0.72"/><circle cx="641" cy="76" r="1.6" fill="#ffffff" opacity="0.72"/><circle cx="724" cy="39" r="1.6" fill="#ffffff" opacity="0.72"/><circle cx="807" cy="118" r="1.7" fill="#ffffff" opacity="0.72"/><circle cx="890" cy="172" r="1.8" fill="#ffffff" opacity="0.72"/><circle cx="61" cy="130" r="1.9" fill="#ffffff" opacity="0.72"/><circle cx="144" cy="124" r="2.0" fill="#ffffff" opacity="0.72"/><circle cx="227" cy="27" r="2.0" fill="#ffffff" opacity="0.72"/><circle cx="310" cy="184" r="2.1" fill="#ffffff" opacity="0.72"/>
  
  <polyline points="0,260 0,256 140,280 280,257 420,246 560,275 700,255 840,245 980,275 960,250 960,420 0,420" fill="#050b14" opacity="0.42"/>
  <polyline points="0,220 0,256 120,257 240,218 360,199 480,189 600,184 720,221 840,200 960,190 960,210 960,420 0,420" fill="#0a1422" opacity="0.48"/>
  <g opacity="0.9"><rect x="839" y="165" width="43" height="92" rx="7.166666666666667" fill="url(#tower-region-30)"/><rect x="854.48" y="175" width="7.739999999999999" height="70" rx="3" fill="#8dff72" opacity="0.42"/><polygon points="831,165 860.5,133 890,165" fill="#e8ffe3" opacity="0.82"/></g><g opacity="0.9"><rect x="198" y="196" width="48" height="85" rx="8" fill="url(#tower-region-30)"/><rect x="215.28" y="206" width="8.64" height="63" rx="3" fill="#8dff72" opacity="0.42"/><ellipse cx="222" cy="196" rx="34.56" ry="7" fill="#e8ffe3" opacity="0.74"/></g><g opacity="0.9"><rect x="347" y="122" width="35" height="135" rx="5.833333333333333" fill="url(#tower-region-30)"/><rect x="359.6" y="132" width="6.3" height="113" rx="3" fill="#8dff72" opacity="0.42"/><rect x="342" y="113" width="45" height="9" rx="4" fill="#e8ffe3" opacity="0.66"/></g>
  <path d="M0 330 C105 275, 162 316, 260 274 S430 332, 552 282 S760 310, 960 256 L960 420 L0 420 Z" fill="#173d23" opacity="0.84"/><g opacity="0.68"><circle cx="403" cy="343" r="31" fill="#8dff72"/><circle cx="470" cy="351" r="18" fill="#b7ff91"/><circle cx="537" cy="314" r="29" fill="#b7ff91"/><circle cx="604" cy="337" r="16" fill="#8dff72"/><circle cx="671" cy="348" r="27" fill="#b7ff91"/><circle cx="738" cy="313" r="14" fill="#b7ff91"/><circle cx="805" cy="295" r="25" fill="#8dff72"/><circle cx="872" cy="286" r="12" fill="#b7ff91"/><circle cx="59" cy="323" r="23" fill="#b7ff91"/><circle cx="126" cy="300" r="34" fill="#8dff72"/><circle cx="193" cy="330" r="21" fill="#b7ff91"/><circle cx="260" cy="304" r="32" fill="#b7ff91"/><circle cx="327" cy="343" r="19" fill="#8dff72"/><circle cx="394" cy="351" r="30" fill="#b7ff91"/></g>
  <path d="M0 382 H960" stroke="#8dff72" stroke-width="2" opacity="0.42"/>
  <path d="M203 392 C282 350, 602 410, 870 372" fill="none" stroke="#e8ffe3" stroke-width="4" opacity="0.34"/>
  <text x="28" y="40" fill="#e8ffe3" font-family="monospace" font-size="18" letter-spacing="5" opacity="0.5">30 MYCEL FOREST</text>
</svg>