<svg xmlns="http://www.w3.org/2000/svg" viewBox="0 0 960 420" role="img" aria-label="sanctuary-37 unique sanctuary art">
  <defs>
    <linearGradient id="sky-sanctuary-37" x1="0" y1="0" x2="1" y2="1"><stop offset="0" stop-color="#071326"/><stop offset="0.55" stop-color="#09566b"/><stop offset="1" stop-color="#05060d"/></linearGradient>
    <radialGradient id="heart-sanctuary-37" cx="50%" cy="50%" r="55%"><stop offset="0" stop-color="#fff8d0"/><stop offset="0.38" stop-color="#36f3ff" stop-opacity="0.78"/><stop offset="1" stop-color="#36f3ff" stop-opacity="0"/></radialGradient>
    <filter id="glow-sanctuary-37" x="-25%" y="-25%" width="150%" height="150%"><feGaussianBlur stdDeviation="6" result="b"/><feMerge><feMergeNode in="b"/><feMergeNode in="SourceGraphic"/></feMerge></filter>
  </defs>
  <rect width="960" height="420" fill="url(#sky-sanctuary-37)"/>
  <circle cx="852" cy="180" r="4" fill="#fff3bb" opacity="0.62"/><circle cx="49" cy="132" r="6" fill="#36f3ff" opacity="0.42"/><circle cx="146" cy="119" r="3" fill="#fff3bb" opacity="0.62"/><circle cx="243" cy="124" r="5" fill="#36f3ff" opacity="0.42"/><circle cx="340" cy="138" r="2" fill="#fff3bb" opacity="0.62"/><circle cx="437" cy="42" r="4" fill="#36f3ff" opacity="0.42"/><circle cx="534" cy="235" r="6" fill="#fff3bb" opacity="0.62"/><circle cx="631" cy="228" r="3" fill="#36f3ff" opacity="0.42"/><circle cx="728" cy="236" r="5" fill="#fff3bb" opacity="0.62"/><circle cx="825" cy="137" r="2" fill="#36f3ff" opacity="0.42"/><circle cx="922" cy="214" r="4" fill="#fff3bb" opacity="0.62"/><circle cx="119" cy="264" r="6" fill="#36f3ff" opacity="0.42"/><circle cx="216" cy="70" r="3" fill="#fff3bb" opacity="0.62"/><circle cx="313" cy="215" r="5" fill="#36f3ff" opacity="0.42"/><circle cx="410" cy="69" r="2" fill="#fff3bb" opacity="0.62"/><circle cx="507" cy="65" r="4" fill="#36f3ff" opacity="0.42"/><circle cx="604" cy="247" r="6" fill="#fff3bb" opacity="0.62"/><circle cx="701" cy="234" r="3" fill="#36f3ff" opacity="0.42"/>
  <path d="M0 294 C140 228, 260 280, 390 226 S700 266, 960 218 L960 420 L0 420 Z" fill="#07101b" opacity="0.5"/>
  <g transform="translate(138 224.84) scale(0.78)"><rect x="0" y="38" width="98" height="96" rx="18" fill="#0b1824" opacity="0.9"/><path d="M-14 44 L49 0 L112 44 Z" fill="#36f3ff" opacity="0.42"/><circle cx="49" cy="72" r="18" fill="#36f3ff" opacity="0.36"/><rect x="38" y="86" width="22" height="48" rx="10" fill="#fff4cc" opacity="0.48"/></g>
  <g transform="translate(690 227.04) scale(0.68)"><rect x="0" y="38" width="98" height="96" rx="18" fill="#0b1824" opacity="0.9"/><path d="M-14 44 L49 0 L112 44 Z" fill="#36f3ff" opacity="0.42"/><circle cx="49" cy="72" r="18" fill="#36f3ff" opacity="0.36"/><rect x="38" y="86" width="22" height="48" rx="10" fill="#fff4cc" opacity="0.48"/></g>
  <ellipse cx="302" cy="299" rx="212" ry="52" fill="#06101b" opacity="0.72"/>
  <path d="M92 309 Q302 95 512 309 Z" fill="#36f3ff" opacity="0.36"/>
  <path d="M130 307 Q302 151 474 307" fill="none" stroke="#fff6d2" stroke-width="7" opacity="0.45"/>
  <rect x="152.0" y="279" width="18" height="125" rx="8" fill="#eaf8ff" opacity="0.42"/><rect x="158.0" y="291" width="6" height="101" rx="3" fill="#36f3ff" opacity="0.55"/><rect x="202.0" y="279" width="18" height="127" rx="8" fill="#eaf8ff" opacity="0.42"/><rect x="208.0" y="291" width="6" height="103" rx="3" fill="#36f3ff" opacity="0.55"/><rect x="252.0" y="279" width="18" height="128" rx="8" fill="#eaf8ff" opacity="0.42"/><rect x="258.0" y="291" width="6" height="104" rx="3" fill="#36f3ff" opacity="0.55"/><rect x="302.0" y="279" width="18" height="129" rx="8" fill="#eaf8ff" opacity="0.42"/><rect x="308.0" y="291" width="6" height="105" rx="3" fill="#36f3ff" opacity="0.55"/><rect x="352.0" y="279" width="18" height="129" rx="8" fill="#eaf8ff" opacity="0.42"/><rect x="358.0" y="291" width="6" height="105" rx="3" fill="#36f3ff" opacity="0.55"/><rect x="402.0" y="279" width="18" height="129" rx="8" fill="#eaf8ff" opacity="0.42"/><rect x="408.0" y="291" width="6" height="105" rx="3" fill="#36f3ff" opacity="0.55"/><rect x="452.0" y="279" width="18" height="108" rx="8" fill="#eaf8ff" opacity="0.42"/><rect x="458.0" y="291" width="6" height="84" rx="3" fill="#36f3ff" opacity="0.55"/>
  <rect x="96" y="321" width="412" height="122" rx="32" fill="#0a1724" opacity="0.88"/>
  <circle cx="302" cy="348" r="86" fill="url(#heart-sanctuary-37)" filter="url(#glow-sanctuary-37)" opacity="0.95"/>
  <path d="M0 360 C132 338, 210 386, 350 354 S620 328, 960 366 L960 420 L0 420 Z" fill="#0f2330" opacity="0.82"/>
  <path d="M37 384 C190 326, 406 414, 566 356" fill="none" stroke="#c8fbff" stroke-width="5" opacity="0.32"/>
  <text x="28" y="40" fill="#c8fbff" font-family="monospace" font-size="18" letter-spacing="5" opacity="0.5">RF 37 NEON CANAL</text>
</svg>