<svg xmlns="http://www.w3.org/2000/svg" viewBox="0 0 960 420" role="img" aria-label="sanctuary-2 unique sanctuary art">
  <defs>
    <linearGradient id="sky-sanctuary-2" x1="0" y1="0" x2="1" y2="1"><stop offset="0" stop-color="#071326"/><stop offset="0.55" stop-color="#194b63"/><stop offset="1" stop-color="#05060d"/></linearGradient>
    <radialGradient id="heart-sanctuary-2" cx="50%" cy="50%" r="55%"><stop offset="0" stop-color="#fff8d0"/><stop offset="0.38" stop-color="#ffdd8a" stop-opacity="0.78"/><stop offset="1" stop-color="#ffdd8a" stop-opacity="0"/></radialGradient>
    <filter id="glow-sanctuary-2" x="-25%" y="-25%" width="150%" height="150%"><feGaussianBlur stdDeviation="6" result="b"/><feMerge><feMergeNode in="b"/><feMergeNode in="SourceGraphic"/></feMerge></filter>
  </defs>
  <rect width="960" height="420" fill="url(#sky-sanctuary-2)"/>
  <circle cx="728" cy="176" r="5" fill="#fff3bb" opacity="0.62"/><circle cx="825" cy="130" r="2" fill="#ffdd8a" opacity="0.42"/><circle cx="922" cy="118" r="4" fill="#fff3bb" opacity="0.62"/><circle cx="119" cy="124" r="6" fill="#ffdd8a" opacity="0.42"/><circle cx="216" cy="253" r="3" fill="#fff3bb" opacity="0.62"/><circle cx="313" cy="99" r="5" fill="#ffdd8a" opacity="0.42"/><circle cx="410" cy="264" r="2" fill="#fff3bb" opacity="0.62"/><circle cx="507" cy="128" r="4" fill="#ffdd8a" opacity="0.42"/><circle cx="604" cy="186" r="6" fill="#fff3bb" opacity="0.62"/><circle cx="701" cy="112" r="3" fill="#ffdd8a" opacity="0.42"/><circle cx="798" cy="201" r="5" fill="#fff3bb" opacity="0.62"/><circle cx="895" cy="142" r="2" fill="#ffdd8a" opacity="0.42"/><circle cx="92" cy="239" r="4" fill="#fff3bb" opacity="0.62"/><circle cx="189" cy="69" r="6" fill="#ffdd8a" opacity="0.42"/><circle cx="286" cy="111" r="3" fill="#fff3bb" opacity="0.62"/><circle cx="383" cy="61" r="5" fill="#ffdd8a" opacity="0.42"/><circle cx="480" cy="245" r="2" fill="#fff3bb" opacity="0.62"/><circle cx="577" cy="233" r="4" fill="#ffdd8a" opacity="0.42"/>
  <path d="M0 294 C140 228, 260 280, 390 226 S700 266, 960 218 L960 420 L0 420 Z" fill="#07101b" opacity="0.5"/>
  <g transform="translate(134 224.84) scale(0.78)"><rect x="0" y="38" width="98" height="96" rx="18" fill="#0b1824" opacity="0.9"/><path d="M-14 44 L49 0 L112 44 Z" fill="#ffdd8a" opacity="0.42"/><circle cx="49" cy="72" r="18" fill="#ffdd8a" opacity="0.36"/><rect x="38" y="86" width="22" height="48" rx="10" fill="#fff4cc" opacity="0.48"/></g>
  <g transform="translate(667 227.04) scale(0.68)"><rect x="0" y="38" width="98" height="96" rx="18" fill="#0b1824" opacity="0.9"/><path d="M-14 44 L49 0 L112 44 Z" fill="#ffdd8a" opacity="0.42"/><circle cx="49" cy="72" r="18" fill="#ffdd8a" opacity="0.36"/><rect x="38" y="86" width="22" height="48" rx="10" fill="#fff4cc" opacity="0.48"/></g>
  <ellipse cx="478" cy="310" rx="212" ry="52" fill="#06101b" opacity="0.72"/>
  <path d="M268 320 Q478 106 688 320 Z" fill="#ffdd8a" opacity="0.36"/>
  <path d="M306 318 Q478 162 650 318" fill="none" stroke="#fff6d2" stroke-width="7" opacity="0.45"/>
  <rect x="328.0" y="290" width="18" height="94" rx="8" fill="#eaf8ff" opacity="0.42"/><rect x="334.0" y="302" width="6" height="70" rx="3" fill="#ffdd8a" opacity="0.55"/><rect x="378.0" y="290" width="18" height="91" rx="8" fill="#eaf8ff" opacity="0.42"/><rect x="384.0" y="302" width="6" height="67" rx="3" fill="#ffdd8a" opacity="0.55"/><rect x="428.0" y="290" width="18" height="89" rx="8" fill="#eaf8ff" opacity="0.42"/><rect x="434.0" y="302" width="6" height="65" rx="3" fill="#ffdd8a" opacity="0.55"/><rect x="478.0" y="290" width="18" height="88" rx="8" fill="#eaf8ff" opacity="0.42"/><rect x="484.0" y="302" width="6" height="64" rx="3" fill="#ffdd8a" opacity="0.55"/><rect x="528.0" y="290" width="18" height="88" rx="8" fill="#eaf8ff" opacity="0.42"/><rect x="534.0" y="302" width="6" height="64" rx="3" fill="#ffdd8a" opacity="0.55"/><rect x="578.0" y="290" width="18" height="109" rx="8" fill="#eaf8ff" opacity="0.42"/><rect x="584.0" y="302" width="6" height="85" rx="3" fill="#ffdd8a" opacity="0.55"/><rect x="628.0" y="290" width="18" height="98" rx="8" fill="#eaf8ff" opacity="0.42"/><rect x="634.0" y="302" width="6" height="74" rx="3" fill="#ffdd8a" opacity="0.55"/>
  <rect x="272" y="332" width="412" height="122" rx="32" fill="#0a1724" opacity="0.88"/>
  <circle cx="478" cy="359" r="86" fill="url(#heart-sanctuary-2)" filter="url(#glow-sanctuary-2)" opacity="0.95"/>
  <path d="M0 360 C132 338, 210 386, 350 354 S620 328, 960 366 L960 420 L0 420 Z" fill="#0f2330" opacity="0.82"/>
  <path d="M213 384 C366 326, 582 414, 742 356" fill="none" stroke="#fff4cf" stroke-width="5" opacity="0.32"/>
  <text x="28" y="40" fill="#fff4cf" font-family="monospace" font-size="18" letter-spacing="5" opacity="0.5">RF 02 SANCTUARY</text>
</svg>