<svg xmlns="http://www.w3.org/2000/svg" viewBox="0 0 960 420" role="img" aria-label="sanctuary-21 unique sanctuary art">
  <defs>
    <linearGradient id="sky-sanctuary-21" x1="0" y1="0" x2="1" y2="1"><stop offset="0" stop-color="#071326"/><stop offset="0.55" stop-color="#194b63"/><stop offset="1" stop-color="#05060d"/></linearGradient>
    <radialGradient id="heart-sanctuary-21" cx="50%" cy="50%" r="55%"><stop offset="0" stop-color="#fff8d0"/><stop offset="0.38" stop-color="#ffdd8a" stop-opacity="0.78"/><stop offset="1" stop-color="#ffdd8a" stop-opacity="0"/></radialGradient>
    <filter id="glow-sanctuary-21" x="-25%" y="-25%" width="150%" height="150%"><feGaussianBlur stdDeviation="6" result="b"/><feMerge><feMergeNode in="b"/><feMergeNode in="SourceGraphic"/></feMerge></filter>
  </defs>
  <rect width="960" height="420" fill="url(#sky-sanctuary-21)"/>
  <circle cx="819" cy="207" r="6" fill="#fff3bb" opacity="0.62"/><circle cx="916" cy="145" r="3" fill="#ffdd8a" opacity="0.42"/><circle cx="113" cy="126" r="5" fill="#fff3bb" opacity="0.62"/><circle cx="210" cy="243" r="2" fill="#ffdd8a" opacity="0.42"/><circle cx="307" cy="83" r="4" fill="#fff3bb" opacity="0.62"/><circle cx="404" cy="244" r="6" fill="#ffdd8a" opacity="0.42"/><circle cx="501" cy="106" r="3" fill="#fff3bb" opacity="0.62"/><circle cx="598" cy="49" r="5" fill="#ffdd8a" opacity="0.42"/><circle cx="695" cy="147" r="2" fill="#fff3bb" opacity="0.62"/><circle cx="792" cy="92" r="4" fill="#ffdd8a" opacity="0.42"/><circle cx="889" cy="191" r="6" fill="#fff3bb" opacity="0.62"/><circle cx="86" cy="137" r="3" fill="#ffdd8a" opacity="0.42"/><circle cx="183" cy="122" r="5" fill="#fff3bb" opacity="0.62"/><circle cx="280" cy="241" r="2" fill="#ffdd8a" opacity="0.42"/><circle cx="377" cy="82" r="4" fill="#fff3bb" opacity="0.62"/><circle cx="474" cy="92" r="6" fill="#ffdd8a" opacity="0.42"/><circle cx="571" cy="260" r="3" fill="#fff3bb" opacity="0.62"/><circle cx="668" cy="241" r="5" fill="#ffdd8a" opacity="0.42"/>
  <path d="M0 294 C140 228, 260 280, 390 226 S700 266, 960 218 L960 420 L0 420 Z" fill="#07101b" opacity="0.5"/>
  <g transform="translate(125 224.84) scale(0.78)"><rect x="0" y="38" width="98" height="96" rx="18" fill="#0b1824" opacity="0.9"/><path d="M-14 44 L49 0 L112 44 Z" fill="#ffdd8a" opacity="0.42"/><circle cx="49" cy="72" r="18" fill="#ffdd8a" opacity="0.36"/><rect x="38" y="86" width="22" height="48" rx="10" fill="#fff4cc" opacity="0.48"/></g>
  <g transform="translate(653 227.04) scale(0.68)"><rect x="0" y="38" width="98" height="96" rx="18" fill="#0b1824" opacity="0.9"/><path d="M-14 44 L49 0 L112 44 Z" fill="#ffdd8a" opacity="0.42"/><circle cx="49" cy="72" r="18" fill="#ffdd8a" opacity="0.36"/><rect x="38" y="86" width="22" height="48" rx="10" fill="#fff4cc" opacity="0.48"/></g>
  <ellipse cx="549" cy="317" rx="212" ry="52" fill="#06101b" opacity="0.72"/>
  <path d="M339 327 Q549 113 759 327 Z" fill="#ffdd8a" opacity="0.36"/>
  <path d="M377 325 Q549 169 721 325" fill="none" stroke="#fff6d2" stroke-width="7" opacity="0.45"/>
  <rect x="399.0" y="297" width="18" height="120" rx="8" fill="#eaf8ff" opacity="0.42"/><rect x="405.0" y="309" width="6" height="96" rx="3" fill="#ffdd8a" opacity="0.55"/><rect x="449.0" y="297" width="18" height="104" rx="8" fill="#eaf8ff" opacity="0.42"/><rect x="455.0" y="309" width="6" height="80" rx="3" fill="#ffdd8a" opacity="0.55"/><rect x="499.0" y="297" width="18" height="117" rx="8" fill="#eaf8ff" opacity="0.42"/><rect x="505.0" y="309" width="6" height="93" rx="3" fill="#ffdd8a" opacity="0.55"/><rect x="549.0" y="297" width="18" height="123" rx="8" fill="#eaf8ff" opacity="0.42"/><rect x="555.0" y="309" width="6" height="99" rx="3" fill="#ffdd8a" opacity="0.55"/><rect x="599.0" y="297" width="18" height="126" rx="8" fill="#eaf8ff" opacity="0.42"/><rect x="605.0" y="309" width="6" height="102" rx="3" fill="#ffdd8a" opacity="0.55"/><rect x="649.0" y="297" width="18" height="128" rx="8" fill="#eaf8ff" opacity="0.42"/><rect x="655.0" y="309" width="6" height="104" rx="3" fill="#ffdd8a" opacity="0.55"/><rect x="699.0" y="297" width="18" height="129" rx="8" fill="#eaf8ff" opacity="0.42"/><rect x="705.0" y="309" width="6" height="105" rx="3" fill="#ffdd8a" opacity="0.55"/>
  <rect x="343" y="339" width="412" height="122" rx="32" fill="#0a1724" opacity="0.88"/>
  <circle cx="549" cy="366" r="86" fill="url(#heart-sanctuary-21)" filter="url(#glow-sanctuary-21)" opacity="0.95"/>
  <path d="M0 360 C132 338, 210 386, 350 354 S620 328, 960 366 L960 420 L0 420 Z" fill="#0f2330" opacity="0.82"/>
  <path d="M284 384 C437 326, 653 414, 813 356" fill="none" stroke="#fff4cf" stroke-width="5" opacity="0.32"/>
  <text x="28" y="40" fill="#fff4cf" font-family="monospace" font-size="18" letter-spacing="5" opacity="0.5">RF 21 SANCTUARY</text>
</svg>