<svg xmlns="http://www.w3.org/2000/svg" viewBox="0 0 960 420" role="img" aria-label="sanctuary-23 unique sanctuary art">
  <defs>
    <linearGradient id="sky-sanctuary-23" x1="0" y1="0" x2="1" y2="1"><stop offset="0" stop-color="#071326"/><stop offset="0.55" stop-color="#194b63"/><stop offset="1" stop-color="#05060d"/></linearGradient>
    <radialGradient id="heart-sanctuary-23" cx="50%" cy="50%" r="55%"><stop offset="0" stop-color="#fff8d0"/><stop offset="0.38" stop-color="#ffdd8a" stop-opacity="0.78"/><stop offset="1" stop-color="#ffdd8a" stop-opacity="0"/></radialGradient>
    <filter id="glow-sanctuary-23" x="-25%" y="-25%" width="150%" height="150%"><feGaussianBlur stdDeviation="6" result="b"/><feMerge><feMergeNode in="b"/><feMergeNode in="SourceGraphic"/></feMerge></filter>
  </defs>
  <rect width="960" height="420" fill="url(#sky-sanctuary-23)"/>
  <circle cx="281" cy="129" r="3" fill="#fff3bb" opacity="0.62"/><circle cx="378" cy="106" r="5" fill="#ffdd8a" opacity="0.42"/><circle cx="475" cy="106" r="2" fill="#fff3bb" opacity="0.62"/><circle cx="572" cy="118" r="4" fill="#ffdd8a" opacity="0.42"/><circle cx="669" cy="250" r="6" fill="#fff3bb" opacity="0.62"/><circle cx="766" cy="213" r="3" fill="#ffdd8a" opacity="0.42"/><circle cx="863" cy="206" r="5" fill="#fff3bb" opacity="0.62"/><circle cx="60" cy="99" r="2" fill="#ffdd8a" opacity="0.42"/><circle cx="157" cy="172" r="4" fill="#fff3bb" opacity="0.62"/><circle cx="254" cy="105" r="6" fill="#ffdd8a" opacity="0.42"/><circle cx="351" cy="83" r="3" fill="#fff3bb" opacity="0.62"/><circle cx="448" cy="83" r="5" fill="#ffdd8a" opacity="0.42"/><circle cx="545" cy="210" r="2" fill="#fff3bb" opacity="0.62"/><circle cx="642" cy="55" r="4" fill="#ffdd8a" opacity="0.42"/><circle cx="739" cy="104" r="6" fill="#fff3bb" opacity="0.62"/><circle cx="836" cy="244" r="3" fill="#ffdd8a" opacity="0.42"/><circle cx="33" cy="221" r="5" fill="#fff3bb" opacity="0.62"/><circle cx="130" cy="221" r="2" fill="#ffdd8a" opacity="0.42"/>
  <path d="M0 294 C140 228, 260 280, 390 226 S700 266, 960 218 L960 420 L0 420 Z" fill="#07101b" opacity="0.5"/>
  <g transform="translate(87 224.84) scale(0.78)"><rect x="0" y="38" width="98" height="96" rx="18" fill="#0b1824" opacity="0.9"/><path d="M-14 44 L49 0 L112 44 Z" fill="#ffdd8a" opacity="0.42"/><circle cx="49" cy="72" r="18" fill="#ffdd8a" opacity="0.36"/><rect x="38" y="86" width="22" height="48" rx="10" fill="#fff4cc" opacity="0.48"/></g>
  <g transform="translate(716 227.04) scale(0.68)"><rect x="0" y="38" width="98" height="96" rx="18" fill="#0b1824" opacity="0.9"/><path d="M-14 44 L49 0 L112 44 Z" fill="#ffdd8a" opacity="0.42"/><circle cx="49" cy="72" r="18" fill="#ffdd8a" opacity="0.36"/><rect x="38" y="86" width="22" height="48" rx="10" fill="#fff4cc" opacity="0.48"/></g>
  <ellipse cx="451" cy="286" rx="212" ry="52" fill="#06101b" opacity="0.72"/>
  <path d="M241 296 Q451 82 661 296 Z" fill="#ffdd8a" opacity="0.36"/>
  <path d="M279 294 Q451 138 623 294" fill="none" stroke="#fff6d2" stroke-width="7" opacity="0.45"/>
  <rect x="301.0" y="266" width="18" height="96" rx="8" fill="#eaf8ff" opacity="0.42"/><rect x="307.0" y="278" width="6" height="72" rx="3" fill="#ffdd8a" opacity="0.55"/><rect x="376.0" y="266" width="18" height="113" rx="8" fill="#eaf8ff" opacity="0.42"/><rect x="382.0" y="278" width="6" height="89" rx="3" fill="#ffdd8a" opacity="0.55"/><rect x="451.0" y="266" width="18" height="100" rx="8" fill="#eaf8ff" opacity="0.42"/><rect x="457.0" y="278" width="6" height="76" rx="3" fill="#ffdd8a" opacity="0.55"/><rect x="526.0" y="266" width="18" height="94" rx="8" fill="#eaf8ff" opacity="0.42"/><rect x="532.0" y="278" width="6" height="70" rx="3" fill="#ffdd8a" opacity="0.55"/><rect x="601.0" y="266" width="18" height="112" rx="8" fill="#eaf8ff" opacity="0.42"/><rect x="607.0" y="278" width="6" height="88" rx="3" fill="#ffdd8a" opacity="0.55"/>
  <rect x="245" y="308" width="412" height="122" rx="32" fill="#0a1724" opacity="0.88"/>
  <circle cx="451" cy="335" r="86" fill="url(#heart-sanctuary-23)" filter="url(#glow-sanctuary-23)" opacity="0.95"/>
  <path d="M0 360 C132 338, 210 386, 350 354 S620 328, 960 366 L960 420 L0 420 Z" fill="#0f2330" opacity="0.82"/>
  <path d="M186 384 C339 326, 555 414, 715 356" fill="none" stroke="#fff4cf" stroke-width="5" opacity="0.32"/>
  <text x="28" y="40" fill="#fff4cf" font-family="monospace" font-size="18" letter-spacing="5" opacity="0.5">RF 23 SANCTUARY</text>
</svg>