<svg xmlns="http://www.w3.org/2000/svg" viewBox="0 0 960 420" role="img" aria-label="sanctuary-18 unique sanctuary art">
  <defs>
    <linearGradient id="sky-sanctuary-18" x1="0" y1="0" x2="1" y2="1"><stop offset="0" stop-color="#071326"/><stop offset="0.55" stop-color="#194b63"/><stop offset="1" stop-color="#05060d"/></linearGradient>
    <radialGradient id="heart-sanctuary-18" cx="50%" cy="50%" r="55%"><stop offset="0" stop-color="#fff8d0"/><stop offset="0.38" stop-color="#ffdd8a" stop-opacity="0.78"/><stop offset="1" stop-color="#ffdd8a" stop-opacity="0"/></radialGradient>
    <filter id="glow-sanctuary-18" x="-25%" y="-25%" width="150%" height="150%"><feGaussianBlur stdDeviation="6" result="b"/><feMerge><feMergeNode in="b"/><feMergeNode in="SourceGraphic"/></feMerge></filter>
  </defs>
  <rect width="960" height="420" fill="url(#sky-sanctuary-18)"/>
  <circle cx="243" cy="121" r="5" fill="#fff3bb" opacity="0.62"/><circle cx="340" cy="217" r="2" fill="#ffdd8a" opacity="0.42"/><circle cx="437" cy="47" r="4" fill="#fff3bb" opacity="0.62"/><circle cx="534" cy="88" r="6" fill="#ffdd8a" opacity="0.42"/><circle cx="631" cy="120" r="3" fill="#fff3bb" opacity="0.62"/><circle cx="728" cy="148" r="5" fill="#ffdd8a" opacity="0.42"/><circle cx="825" cy="58" r="2" fill="#fff3bb" opacity="0.62"/><circle cx="922" cy="255" r="4" fill="#ffdd8a" opacity="0.42"/><circle cx="119" cy="250" r="6" fill="#fff3bb" opacity="0.62"/><circle cx="216" cy="144" r="3" fill="#ffdd8a" opacity="0.42"/><circle cx="313" cy="102" r="5" fill="#fff3bb" opacity="0.62"/><circle cx="410" cy="208" r="2" fill="#ffdd8a" opacity="0.42"/><circle cx="507" cy="42" r="4" fill="#fff3bb" opacity="0.62"/><circle cx="604" cy="201" r="6" fill="#ffdd8a" opacity="0.42"/><circle cx="701" cy="177" r="3" fill="#fff3bb" opacity="0.62"/><circle cx="798" cy="236" r="5" fill="#ffdd8a" opacity="0.42"/><circle cx="895" cy="102" r="2" fill="#fff3bb" opacity="0.62"/><circle cx="92" cy="162" r="4" fill="#ffdd8a" opacity="0.42"/>
  <path d="M0 294 C140 228, 260 280, 390 226 S700 266, 960 218 L960 420 L0 420 Z" fill="#07101b" opacity="0.5"/>
  <g transform="translate(89 224.84) scale(0.78)"><rect x="0" y="38" width="98" height="96" rx="18" fill="#0b1824" opacity="0.9"/><path d="M-14 44 L49 0 L112 44 Z" fill="#ffdd8a" opacity="0.42"/><circle cx="49" cy="72" r="18" fill="#ffdd8a" opacity="0.36"/><rect x="38" y="86" width="22" height="48" rx="10" fill="#fff4cc" opacity="0.48"/></g>
  <g transform="translate(662 227.04) scale(0.68)"><rect x="0" y="38" width="98" height="96" rx="18" fill="#0b1824" opacity="0.9"/><path d="M-14 44 L49 0 L112 44 Z" fill="#ffdd8a" opacity="0.42"/><circle cx="49" cy="72" r="18" fill="#ffdd8a" opacity="0.36"/><rect x="38" y="86" width="22" height="48" rx="10" fill="#fff4cc" opacity="0.48"/></g>
  <ellipse cx="373" cy="313" rx="212" ry="52" fill="#06101b" opacity="0.72"/>
  <path d="M163 323 Q373 109 583 323 Z" fill="#ffdd8a" opacity="0.36"/>
  <path d="M201 321 Q373 165 545 321" fill="none" stroke="#fff6d2" stroke-width="7" opacity="0.45"/>
  <rect x="223.0" y="293" width="18" height="129" rx="8" fill="#eaf8ff" opacity="0.42"/><rect x="229.0" y="305" width="6" height="105" rx="3" fill="#ffdd8a" opacity="0.55"/><rect x="260.5" y="293" width="18" height="129" rx="8" fill="#eaf8ff" opacity="0.42"/><rect x="266.5" y="305" width="6" height="105" rx="3" fill="#ffdd8a" opacity="0.55"/><rect x="298.0" y="293" width="18" height="108" rx="8" fill="#eaf8ff" opacity="0.42"/><rect x="304.0" y="305" width="6" height="84" rx="3" fill="#ffdd8a" opacity="0.55"/><rect x="335.5" y="293" width="18" height="119" rx="8" fill="#eaf8ff" opacity="0.42"/><rect x="341.5" y="305" width="6" height="95" rx="3" fill="#ffdd8a" opacity="0.55"/><rect x="373.0" y="293" width="18" height="124" rx="8" fill="#eaf8ff" opacity="0.42"/><rect x="379.0" y="305" width="6" height="100" rx="3" fill="#ffdd8a" opacity="0.55"/><rect x="410.5" y="293" width="18" height="106" rx="8" fill="#eaf8ff" opacity="0.42"/><rect x="416.5" y="305" width="6" height="82" rx="3" fill="#ffdd8a" opacity="0.55"/><rect x="448.0" y="293" width="18" height="118" rx="8" fill="#eaf8ff" opacity="0.42"/><rect x="454.0" y="305" width="6" height="94" rx="3" fill="#ffdd8a" opacity="0.55"/><rect x="485.5" y="293" width="18" height="103" rx="8" fill="#eaf8ff" opacity="0.42"/><rect x="491.5" y="305" width="6" height="79" rx="3" fill="#ffdd8a" opacity="0.55"/><rect x="523.0" y="293" width="18" height="116" rx="8" fill="#eaf8ff" opacity="0.42"/><rect x="529.0" y="305" width="6" height="92" rx="3" fill="#ffdd8a" opacity="0.55"/>
  <rect x="167" y="335" width="412" height="122" rx="32" fill="#0a1724" opacity="0.88"/>
  <circle cx="373" cy="362" r="86" fill="url(#heart-sanctuary-18)" filter="url(#glow-sanctuary-18)" opacity="0.95"/>
  <path d="M0 360 C132 338, 210 386, 350 354 S620 328, 960 366 L960 420 L0 420 Z" fill="#0f2330" opacity="0.82"/>
  <path d="M108 384 C261 326, 477 414, 637 356" fill="none" stroke="#fff4cf" stroke-width="5" opacity="0.32"/>
  <text x="28" y="40" fill="#fff4cf" font-family="monospace" font-size="18" letter-spacing="5" opacity="0.5">RF 18 SANCTUARY</text>
</svg>