<svg xmlns="http://www.w3.org/2000/svg" viewBox="0 0 960 420" role="img" aria-label="sanctuary-28 unique sanctuary art">
  <defs>
    <linearGradient id="sky-sanctuary-28" x1="0" y1="0" x2="1" y2="1"><stop offset="0" stop-color="#071326"/><stop offset="0.55" stop-color="#69511c"/><stop offset="1" stop-color="#05060d"/></linearGradient>
    <radialGradient id="heart-sanctuary-28" cx="50%" cy="50%" r="55%"><stop offset="0" stop-color="#fff8d0"/><stop offset="0.38" stop-color="#ffd85f" stop-opacity="0.78"/><stop offset="1" stop-color="#ffd85f" stop-opacity="0"/></radialGradient>
    <filter id="glow-sanctuary-28" x="-25%" y="-25%" width="150%" height="150%"><feGaussianBlur stdDeviation="6" result="b"/><feMerge><feMergeNode in="b"/><feMergeNode in="SourceGraphic"/></feMerge></filter>
  </defs>
  <rect width="960" height="420" fill="url(#sky-sanctuary-28)"/>
  <circle cx="648" cy="86" r="5" fill="#fff3bb" opacity="0.62"/><circle cx="745" cy="200" r="2" fill="#ffd85f" opacity="0.42"/><circle cx="842" cy="153" r="4" fill="#fff3bb" opacity="0.62"/><circle cx="39" cy="141" r="6" fill="#ffd85f" opacity="0.42"/><circle cx="136" cy="262" r="3" fill="#fff3bb" opacity="0.62"/><circle cx="233" cy="219" r="5" fill="#ffd85f" opacity="0.42"/><circle cx="330" cy="94" r="2" fill="#fff3bb" opacity="0.62"/><circle cx="427" cy="43" r="4" fill="#ffd85f" opacity="0.42"/><circle cx="524" cy="259" r="6" fill="#fff3bb" opacity="0.62"/><circle cx="621" cy="263" r="3" fill="#ffd85f" opacity="0.42"/><circle cx="718" cy="162" r="5" fill="#fff3bb" opacity="0.62"/><circle cx="815" cy="238" r="2" fill="#ffd85f" opacity="0.42"/><circle cx="912" cy="57" r="4" fill="#fff3bb" opacity="0.62"/><circle cx="109" cy="208" r="6" fill="#ffd85f" opacity="0.42"/><circle cx="206" cy="65" r="3" fill="#fff3bb" opacity="0.62"/><circle cx="303" cy="201" r="5" fill="#ffd85f" opacity="0.42"/><circle cx="400" cy="85" r="2" fill="#fff3bb" opacity="0.62"/><circle cx="497" cy="38" r="4" fill="#ffd85f" opacity="0.42"/>
  <path d="M0 294 C140 228, 260 280, 390 226 S700 266, 960 218 L960 420 L0 420 Z" fill="#07101b" opacity="0.5"/>
  <g transform="translate(114 224.84) scale(0.78)"><rect x="0" y="38" width="98" height="96" rx="18" fill="#0b1824" opacity="0.9"/><path d="M-14 44 L49 0 L112 44 Z" fill="#ffd85f" opacity="0.42"/><circle cx="49" cy="72" r="18" fill="#ffd85f" opacity="0.36"/><rect x="38" y="86" width="22" height="48" rx="10" fill="#fff4cc" opacity="0.48"/></g>
  <g transform="translate(704 227.04) scale(0.68)"><rect x="0" y="38" width="98" height="96" rx="18" fill="#0b1824" opacity="0.9"/><path d="M-14 44 L49 0 L112 44 Z" fill="#ffd85f" opacity="0.42"/><circle cx="49" cy="72" r="18" fill="#ffd85f" opacity="0.36"/><rect x="38" y="86" width="22" height="48" rx="10" fill="#fff4cc" opacity="0.48"/></g>
  <ellipse cx="298" cy="292" rx="212" ry="52" fill="#06101b" opacity="0.72"/>
  <path d="M88 302 Q298 88 508 302 Z" fill="#ffd85f" opacity="0.36"/>
  <path d="M126 300 Q298 144 470 300" fill="none" stroke="#fff6d2" stroke-width="7" opacity="0.45"/>
  <rect x="148.0" y="272" width="18" height="119" rx="8" fill="#eaf8ff" opacity="0.42"/><rect x="154.0" y="284" width="6" height="95" rx="3" fill="#ffd85f" opacity="0.55"/><rect x="190.9" y="272" width="18" height="124" rx="8" fill="#eaf8ff" opacity="0.42"/><rect x="196.9" y="284" width="6" height="100" rx="3" fill="#ffd85f" opacity="0.55"/><rect x="233.7" y="272" width="18" height="106" rx="8" fill="#eaf8ff" opacity="0.42"/><rect x="239.7" y="284" width="6" height="82" rx="3" fill="#ffd85f" opacity="0.55"/><rect x="276.6" y="272" width="18" height="118" rx="8" fill="#eaf8ff" opacity="0.42"/><rect x="282.6" y="284" width="6" height="94" rx="3" fill="#ffd85f" opacity="0.55"/><rect x="319.4" y="272" width="18" height="124" rx="8" fill="#eaf8ff" opacity="0.42"/><rect x="325.4" y="284" width="6" height="100" rx="3" fill="#ffd85f" opacity="0.55"/><rect x="362.3" y="272" width="18" height="106" rx="8" fill="#eaf8ff" opacity="0.42"/><rect x="368.3" y="284" width="6" height="82" rx="3" fill="#ffd85f" opacity="0.55"/><rect x="405.1" y="272" width="18" height="97" rx="8" fill="#eaf8ff" opacity="0.42"/><rect x="411.1" y="284" width="6" height="73" rx="3" fill="#ffd85f" opacity="0.55"/><rect x="448.0" y="272" width="18" height="92" rx="8" fill="#eaf8ff" opacity="0.42"/><rect x="454.0" y="284" width="6" height="68" rx="3" fill="#ffd85f" opacity="0.55"/>
  <rect x="92" y="314" width="412" height="122" rx="32" fill="#0a1724" opacity="0.88"/>
  <circle cx="298" cy="341" r="86" fill="url(#heart-sanctuary-28)" filter="url(#glow-sanctuary-28)" opacity="0.95"/>
  <path d="M0 360 C132 338, 210 386, 350 354 S620 328, 960 366 L960 420 L0 420 Z" fill="#0f2330" opacity="0.82"/>
  <path d="M33 384 C186 326, 402 414, 562 356" fill="none" stroke="#fff1ba" stroke-width="5" opacity="0.32"/>
  <text x="28" y="40" fill="#fff1ba" font-family="monospace" font-size="18" letter-spacing="5" opacity="0.5">RF 28 STONE WASTE</text>
</svg>