<svg xmlns="http://www.w3.org/2000/svg" viewBox="0 0 960 420" role="img" aria-label="sanctuary-32 unique sanctuary art">
  <defs>
    <linearGradient id="sky-sanctuary-32" x1="0" y1="0" x2="1" y2="1"><stop offset="0" stop-color="#071326"/><stop offset="0.55" stop-color="#194b63"/><stop offset="1" stop-color="#05060d"/></linearGradient>
    <radialGradient id="heart-sanctuary-32" cx="50%" cy="50%" r="55%"><stop offset="0" stop-color="#fff8d0"/><stop offset="0.38" stop-color="#ffdd8a" stop-opacity="0.78"/><stop offset="1" stop-color="#ffdd8a" stop-opacity="0"/></radialGradient>
    <filter id="glow-sanctuary-32" x="-25%" y="-25%" width="150%" height="150%"><feGaussianBlur stdDeviation="6" result="b"/><feMerge><feMergeNode in="b"/><feMergeNode in="SourceGraphic"/></feMerge></filter>
  </defs>
  <rect width="960" height="420" fill="url(#sky-sanctuary-32)"/>
  <circle cx="847" cy="145" r="4" fill="#fff3bb" opacity="0.62"/><circle cx="44" cy="229" r="6" fill="#ffdd8a" opacity="0.42"/><circle cx="141" cy="53" r="3" fill="#fff3bb" opacity="0.62"/><circle cx="238" cy="206" r="5" fill="#ffdd8a" opacity="0.42"/><circle cx="335" cy="64" r="2" fill="#fff3bb" opacity="0.62"/><circle cx="432" cy="235" r="4" fill="#ffdd8a" opacity="0.42"/><circle cx="529" cy="217" r="6" fill="#fff3bb" opacity="0.62"/><circle cx="626" cy="104" r="3" fill="#ffdd8a" opacity="0.42"/><circle cx="723" cy="174" r="5" fill="#fff3bb" opacity="0.62"/><circle cx="820" cy="221" r="2" fill="#ffdd8a" opacity="0.42"/><circle cx="917" cy="256" r="4" fill="#fff3bb" opacity="0.62"/><circle cx="114" cy="55" r="6" fill="#ffdd8a" opacity="0.42"/><circle cx="211" cy="81" r="3" fill="#fff3bb" opacity="0.62"/><circle cx="308" cy="105" r="5" fill="#ffdd8a" opacity="0.42"/><circle cx="405" cy="129" r="2" fill="#fff3bb" opacity="0.62"/><circle cx="502" cy="260" r="4" fill="#ffdd8a" opacity="0.42"/><circle cx="599" cy="114" r="6" fill="#fff3bb" opacity="0.62"/><circle cx="696" cy="168" r="3" fill="#ffdd8a" opacity="0.42"/>
  <path d="M0 294 C140 228, 260 280, 390 226 S700 266, 960 218 L960 420 L0 420 Z" fill="#07101b" opacity="0.5"/>
  <g transform="translate(153 224.84) scale(0.78)"><rect x="0" y="38" width="98" height="96" rx="18" fill="#0b1824" opacity="0.9"/><path d="M-14 44 L49 0 L112 44 Z" fill="#ffdd8a" opacity="0.42"/><circle cx="49" cy="72" r="18" fill="#ffdd8a" opacity="0.36"/><rect x="38" y="86" width="22" height="48" rx="10" fill="#fff4cc" opacity="0.48"/></g>
  <g transform="translate(672 227.04) scale(0.68)"><rect x="0" y="38" width="98" height="96" rx="18" fill="#0b1824" opacity="0.9"/><path d="M-14 44 L49 0 L112 44 Z" fill="#ffdd8a" opacity="0.42"/><circle cx="49" cy="72" r="18" fill="#ffdd8a" opacity="0.36"/><rect x="38" y="86" width="22" height="48" rx="10" fill="#fff4cc" opacity="0.48"/></g>
  <ellipse cx="357" cy="308" rx="212" ry="52" fill="#06101b" opacity="0.72"/>
  <path d="M147 318 Q357 104 567 318 Z" fill="#ffdd8a" opacity="0.36"/>
  <path d="M185 316 Q357 160 529 316" fill="none" stroke="#fff6d2" stroke-width="7" opacity="0.45"/>
  <rect x="207.0" y="288" width="18" height="121" rx="8" fill="#eaf8ff" opacity="0.42"/><rect x="213.0" y="300" width="6" height="97" rx="3" fill="#ffdd8a" opacity="0.55"/><rect x="267.0" y="288" width="18" height="125" rx="8" fill="#eaf8ff" opacity="0.42"/><rect x="273.0" y="300" width="6" height="101" rx="3" fill="#ffdd8a" opacity="0.55"/><rect x="327.0" y="288" width="18" height="106" rx="8" fill="#eaf8ff" opacity="0.42"/><rect x="333.0" y="300" width="6" height="82" rx="3" fill="#ffdd8a" opacity="0.55"/><rect x="387.0" y="288" width="18" height="118" rx="8" fill="#eaf8ff" opacity="0.42"/><rect x="393.0" y="300" width="6" height="94" rx="3" fill="#ffdd8a" opacity="0.55"/><rect x="447.0" y="288" width="18" height="103" rx="8" fill="#eaf8ff" opacity="0.42"/><rect x="453.0" y="300" width="6" height="79" rx="3" fill="#ffdd8a" opacity="0.55"/><rect x="507.0" y="288" width="18" height="95" rx="8" fill="#eaf8ff" opacity="0.42"/><rect x="513.0" y="300" width="6" height="71" rx="3" fill="#ffdd8a" opacity="0.55"/>
  <rect x="151" y="330" width="412" height="122" rx="32" fill="#0a1724" opacity="0.88"/>
  <circle cx="357" cy="357" r="86" fill="url(#heart-sanctuary-32)" filter="url(#glow-sanctuary-32)" opacity="0.95"/>
  <path d="M0 360 C132 338, 210 386, 350 354 S620 328, 960 366 L960 420 L0 420 Z" fill="#0f2330" opacity="0.82"/>
  <path d="M92 384 C245 326, 461 414, 621 356" fill="none" stroke="#fff4cf" stroke-width="5" opacity="0.32"/>
  <text x="28" y="40" fill="#fff4cf" font-family="monospace" font-size="18" letter-spacing="5" opacity="0.5">RF 32 SANCTUARY</text>
</svg>