<svg xmlns="http://www.w3.org/2000/svg" viewBox="0 0 960 420" role="img" aria-label="sanctuary-22 unique sanctuary art">
  <defs>
    <linearGradient id="sky-sanctuary-22" x1="0" y1="0" x2="1" y2="1"><stop offset="0" stop-color="#071326"/><stop offset="0.55" stop-color="#5b164e"/><stop offset="1" stop-color="#05060d"/></linearGradient>
    <radialGradient id="heart-sanctuary-22" cx="50%" cy="50%" r="55%"><stop offset="0" stop-color="#fff8d0"/><stop offset="0.38" stop-color="#ff74ee" stop-opacity="0.78"/><stop offset="1" stop-color="#ff74ee" stop-opacity="0"/></radialGradient>
    <filter id="glow-sanctuary-22" x="-25%" y="-25%" width="150%" height="150%"><feGaussianBlur stdDeviation="6" result="b"/><feMerge><feMergeNode in="b"/><feMergeNode in="SourceGraphic"/></feMerge></filter>
  </defs>
  <rect width="960" height="420" fill="url(#sky-sanctuary-22)"/>
  <circle cx="462" cy="90" r="4" fill="#fff3bb" opacity="0.62"/><circle cx="559" cy="87" r="6" fill="#ff74ee" opacity="0.42"/><circle cx="656" cy="212" r="3" fill="#fff3bb" opacity="0.62"/><circle cx="753" cy="56" r="5" fill="#ff74ee" opacity="0.42"/><circle cx="850" cy="219" r="2" fill="#fff3bb" opacity="0.62"/><circle cx="47" cy="82" r="4" fill="#ff74ee" opacity="0.42"/><circle cx="144" cy="255" r="6" fill="#fff3bb" opacity="0.62"/><circle cx="241" cy="123" r="3" fill="#ff74ee" opacity="0.42"/><circle cx="338" cy="184" r="5" fill="#fff3bb" opacity="0.62"/><circle cx="435" cy="226" r="2" fill="#ff74ee" opacity="0.42"/><circle cx="532" cy="258" r="4" fill="#fff3bb" opacity="0.62"/><circle cx="629" cy="171" r="6" fill="#ff74ee" opacity="0.42"/><circle cx="726" cy="254" r="3" fill="#fff3bb" opacity="0.62"/><circle cx="823" cy="77" r="5" fill="#ff74ee" opacity="0.42"/><circle cx="920" cy="230" r="2" fill="#fff3bb" opacity="0.62"/><circle cx="117" cy="205" r="4" fill="#ff74ee" opacity="0.42"/><circle cx="214" cy="202" r="6" fill="#fff3bb" opacity="0.62"/><circle cx="311" cy="97" r="3" fill="#ff74ee" opacity="0.42"/>
  <path d="M0 294 C140 228, 260 280, 390 226 S700 266, 960 218 L960 420 L0 420 Z" fill="#07101b" opacity="0.5"/>
  <g transform="translate(148 224.84) scale(0.78)"><rect x="0" y="38" width="98" height="96" rx="18" fill="#0b1824" opacity="0.9"/><path d="M-14 44 L49 0 L112 44 Z" fill="#ff74ee" opacity="0.42"/><circle cx="49" cy="72" r="18" fill="#ff74ee" opacity="0.36"/><rect x="38" y="86" width="22" height="48" rx="10" fill="#fff4cc" opacity="0.48"/></g>
  <g transform="translate(701 227.04) scale(0.68)"><rect x="0" y="38" width="98" height="96" rx="18" fill="#0b1824" opacity="0.9"/><path d="M-14 44 L49 0 L112 44 Z" fill="#ff74ee" opacity="0.42"/><circle cx="49" cy="72" r="18" fill="#ff74ee" opacity="0.36"/><rect x="38" y="86" width="22" height="48" rx="10" fill="#fff4cc" opacity="0.48"/></g>
  <ellipse cx="592" cy="293" rx="212" ry="52" fill="#06101b" opacity="0.72"/>
  <path d="M382 303 Q592 89 802 303 Z" fill="#ff74ee" opacity="0.36"/>
  <path d="M420 301 Q592 145 764 301" fill="none" stroke="#fff6d2" stroke-width="7" opacity="0.45"/>
  <rect x="442.0" y="273" width="18" height="106" rx="8" fill="#eaf8ff" opacity="0.42"/><rect x="448.0" y="285" width="6" height="82" rx="3" fill="#ff74ee" opacity="0.55"/><rect x="502.0" y="273" width="18" height="97" rx="8" fill="#eaf8ff" opacity="0.42"/><rect x="508.0" y="285" width="6" height="73" rx="3" fill="#ff74ee" opacity="0.55"/><rect x="562.0" y="273" width="18" height="113" rx="8" fill="#eaf8ff" opacity="0.42"/><rect x="568.0" y="285" width="6" height="89" rx="3" fill="#ff74ee" opacity="0.55"/><rect x="622.0" y="273" width="18" height="121" rx="8" fill="#eaf8ff" opacity="0.42"/><rect x="628.0" y="285" width="6" height="97" rx="3" fill="#ff74ee" opacity="0.55"/><rect x="682.0" y="273" width="18" height="125" rx="8" fill="#eaf8ff" opacity="0.42"/><rect x="688.0" y="285" width="6" height="101" rx="3" fill="#ff74ee" opacity="0.55"/><rect x="742.0" y="273" width="18" height="106" rx="8" fill="#eaf8ff" opacity="0.42"/><rect x="748.0" y="285" width="6" height="82" rx="3" fill="#ff74ee" opacity="0.55"/>
  <rect x="386" y="315" width="412" height="122" rx="32" fill="#0a1724" opacity="0.88"/>
  <circle cx="592" cy="342" r="86" fill="url(#heart-sanctuary-22)" filter="url(#glow-sanctuary-22)" opacity="0.95"/>
  <path d="M0 360 C132 338, 210 386, 350 354 S620 328, 960 366 L960 420 L0 420 Z" fill="#0f2330" opacity="0.82"/>
  <path d="M327 384 C480 326, 696 414, 856 356" fill="none" stroke="#ffe2fb" stroke-width="5" opacity="0.32"/>
  <text x="28" y="40" fill="#ffe2fb" font-family="monospace" font-size="18" letter-spacing="5" opacity="0.5">RF 22 DROWNED CITY</text>
</svg>