<svg xmlns="http://www.w3.org/2000/svg" viewBox="0 0 960 420" role="img" aria-label="sanctuary-33 unique sanctuary art">
  <defs>
    <linearGradient id="sky-sanctuary-33" x1="0" y1="0" x2="1" y2="1"><stop offset="0" stop-color="#071326"/><stop offset="0.55" stop-color="#194b63"/><stop offset="1" stop-color="#05060d"/></linearGradient>
    <radialGradient id="heart-sanctuary-33" cx="50%" cy="50%" r="55%"><stop offset="0" stop-color="#fff8d0"/><stop offset="0.38" stop-color="#ffdd8a" stop-opacity="0.78"/><stop offset="1" stop-color="#ffdd8a" stop-opacity="0"/></radialGradient>
    <filter id="glow-sanctuary-33" x="-25%" y="-25%" width="150%" height="150%"><feGaussianBlur stdDeviation="6" result="b"/><feMerge><feMergeNode in="b"/><feMergeNode in="SourceGraphic"/></feMerge></filter>
  </defs>
  <rect width="960" height="420" fill="url(#sky-sanctuary-33)"/>
  <circle cx="128" cy="106" r="5" fill="#fff3bb" opacity="0.62"/><circle cx="225" cy="210" r="2" fill="#ffdd8a" opacity="0.42"/><circle cx="322" cy="158" r="4" fill="#fff3bb" opacity="0.62"/><circle cx="419" cy="144" r="6" fill="#ffdd8a" opacity="0.42"/><circle cx="516" cy="263" r="3" fill="#fff3bb" opacity="0.62"/><circle cx="613" cy="104" r="5" fill="#ffdd8a" opacity="0.42"/><circle cx="710" cy="266" r="2" fill="#fff3bb" opacity="0.62"/><circle cx="807" cy="129" r="4" fill="#ffdd8a" opacity="0.42"/><circle cx="904" cy="187" r="6" fill="#fff3bb" opacity="0.62"/><circle cx="101" cy="112" r="3" fill="#ffdd8a" opacity="0.42"/><circle cx="198" cy="201" r="5" fill="#fff3bb" opacity="0.62"/><circle cx="295" cy="142" r="2" fill="#ffdd8a" opacity="0.42"/><circle cx="392" cy="124" r="4" fill="#fff3bb" opacity="0.62"/><circle cx="489" cy="127" r="6" fill="#ffdd8a" opacity="0.42"/><circle cx="586" cy="255" r="3" fill="#fff3bb" opacity="0.62"/><circle cx="683" cy="221" r="5" fill="#ffdd8a" opacity="0.42"/><circle cx="780" cy="95" r="2" fill="#fff3bb" opacity="0.62"/><circle cx="877" cy="43" r="4" fill="#ffdd8a" opacity="0.42"/>
  <path d="M0 294 C140 228, 260 280, 390 226 S700 266, 960 218 L960 420 L0 420 Z" fill="#07101b" opacity="0.5"/>
  <g transform="translate(134 224.84) scale(0.78)"><rect x="0" y="38" width="98" height="96" rx="18" fill="#0b1824" opacity="0.9"/><path d="M-14 44 L49 0 L112 44 Z" fill="#ffdd8a" opacity="0.42"/><circle cx="49" cy="72" r="18" fill="#ffdd8a" opacity="0.36"/><rect x="38" y="86" width="22" height="48" rx="10" fill="#fff4cc" opacity="0.48"/></g>
  <g transform="translate(657 227.04) scale(0.68)"><rect x="0" y="38" width="98" height="96" rx="18" fill="#0b1824" opacity="0.9"/><path d="M-14 44 L49 0 L112 44 Z" fill="#ffdd8a" opacity="0.42"/><circle cx="49" cy="72" r="18" fill="#ffdd8a" opacity="0.36"/><rect x="38" y="86" width="22" height="48" rx="10" fill="#fff4cc" opacity="0.48"/></g>
  <ellipse cx="498" cy="315" rx="212" ry="52" fill="#06101b" opacity="0.72"/>
  <path d="M288 325 Q498 111 708 325 Z" fill="#ffdd8a" opacity="0.36"/>
  <path d="M326 323 Q498 167 670 323" fill="none" stroke="#fff6d2" stroke-width="7" opacity="0.45"/>
  <rect x="348.0" y="295" width="18" height="88" rx="8" fill="#eaf8ff" opacity="0.42"/><rect x="354.0" y="307" width="6" height="64" rx="3" fill="#ffdd8a" opacity="0.55"/><rect x="398.0" y="295" width="18" height="109" rx="8" fill="#eaf8ff" opacity="0.42"/><rect x="404.0" y="307" width="6" height="85" rx="3" fill="#ffdd8a" opacity="0.55"/><rect x="448.0" y="295" width="18" height="119" rx="8" fill="#eaf8ff" opacity="0.42"/><rect x="454.0" y="307" width="6" height="95" rx="3" fill="#ffdd8a" opacity="0.55"/><rect x="498.0" y="295" width="18" height="103" rx="8" fill="#eaf8ff" opacity="0.42"/><rect x="504.0" y="307" width="6" height="79" rx="3" fill="#ffdd8a" opacity="0.55"/><rect x="548.0" y="295" width="18" height="116" rx="8" fill="#eaf8ff" opacity="0.42"/><rect x="554.0" y="307" width="6" height="92" rx="3" fill="#ffdd8a" opacity="0.55"/><rect x="598.0" y="295" width="18" height="102" rx="8" fill="#eaf8ff" opacity="0.42"/><rect x="604.0" y="307" width="6" height="78" rx="3" fill="#ffdd8a" opacity="0.55"/><rect x="648.0" y="295" width="18" height="95" rx="8" fill="#eaf8ff" opacity="0.42"/><rect x="654.0" y="307" width="6" height="71" rx="3" fill="#ffdd8a" opacity="0.55"/>
  <rect x="292" y="337" width="412" height="122" rx="32" fill="#0a1724" opacity="0.88"/>
  <circle cx="498" cy="364" r="86" fill="url(#heart-sanctuary-33)" filter="url(#glow-sanctuary-33)" opacity="0.95"/>
  <path d="M0 360 C132 338, 210 386, 350 354 S620 328, 960 366 L960 420 L0 420 Z" fill="#0f2330" opacity="0.82"/>
  <path d="M233 384 C386 326, 602 414, 762 356" fill="none" stroke="#fff4cf" stroke-width="5" opacity="0.32"/>
  <text x="28" y="40" fill="#fff4cf" font-family="monospace" font-size="18" letter-spacing="5" opacity="0.5">RF 33 SANCTUARY</text>
</svg>