<svg xmlns="http://www.w3.org/2000/svg" viewBox="0 0 960 420" role="img" aria-label="sanctuary-5 unique sanctuary art">
  <defs>
    <linearGradient id="sky-sanctuary-5" x1="0" y1="0" x2="1" y2="1"><stop offset="0" stop-color="#071326"/><stop offset="0.55" stop-color="#194b63"/><stop offset="1" stop-color="#05060d"/></linearGradient>
    <radialGradient id="heart-sanctuary-5" cx="50%" cy="50%" r="55%"><stop offset="0" stop-color="#fff8d0"/><stop offset="0.38" stop-color="#ffdd8a" stop-opacity="0.78"/><stop offset="1" stop-color="#ffdd8a" stop-opacity="0"/></radialGradient>
    <filter id="glow-sanctuary-5" x="-25%" y="-25%" width="150%" height="150%"><feGaussianBlur stdDeviation="6" result="b"/><feMerge><feMergeNode in="b"/><feMergeNode in="SourceGraphic"/></feMerge></filter>
  </defs>
  <rect width="960" height="420" fill="url(#sky-sanctuary-5)"/>
  <circle cx="733" cy="211" r="5" fill="#fff3bb" opacity="0.62"/><circle cx="830" cy="262" r="2" fill="#ffdd8a" opacity="0.42"/><circle cx="927" cy="184" r="4" fill="#fff3bb" opacity="0.62"/><circle cx="124" cy="42" r="6" fill="#ffdd8a" opacity="0.42"/><circle cx="221" cy="97" r="3" fill="#fff3bb" opacity="0.62"/><circle cx="318" cy="136" r="5" fill="#ffdd8a" opacity="0.42"/><circle cx="415" cy="52" r="2" fill="#fff3bb" opacity="0.62"/><circle cx="512" cy="252" r="4" fill="#ffdd8a" opacity="0.42"/><circle cx="609" cy="248" r="6" fill="#fff3bb" opacity="0.62"/><circle cx="706" cy="258" r="3" fill="#ffdd8a" opacity="0.42"/><circle cx="803" cy="159" r="5" fill="#fff3bb" opacity="0.62"/><circle cx="900" cy="121" r="2" fill="#ffdd8a" opacity="0.42"/><circle cx="97" cy="229" r="4" fill="#fff3bb" opacity="0.62"/><circle cx="194" cy="179" r="6" fill="#ffdd8a" opacity="0.42"/><circle cx="291" cy="51" r="3" fill="#fff3bb" opacity="0.62"/><circle cx="388" cy="96" r="5" fill="#ffdd8a" opacity="0.42"/><circle cx="485" cy="147" r="2" fill="#fff3bb" opacity="0.62"/><circle cx="582" cy="69" r="4" fill="#ffdd8a" opacity="0.42"/>
  <path d="M0 294 C140 228, 260 280, 390 226 S700 266, 960 218 L960 420 L0 420 Z" fill="#07101b" opacity="0.5"/>
  <g transform="translate(119 224.84) scale(0.78)"><rect x="0" y="38" width="98" height="96" rx="18" fill="#0b1824" opacity="0.9"/><path d="M-14 44 L49 0 L112 44 Z" fill="#ffdd8a" opacity="0.42"/><circle cx="49" cy="72" r="18" fill="#ffdd8a" opacity="0.36"/><rect x="38" y="86" width="22" height="48" rx="10" fill="#fff4cc" opacity="0.48"/></g>
  <g transform="translate(685 227.04) scale(0.68)"><rect x="0" y="38" width="98" height="96" rx="18" fill="#0b1824" opacity="0.9"/><path d="M-14 44 L49 0 L112 44 Z" fill="#ffdd8a" opacity="0.42"/><circle cx="49" cy="72" r="18" fill="#ffdd8a" opacity="0.36"/><rect x="38" y="86" width="22" height="48" rx="10" fill="#fff4cc" opacity="0.48"/></g>
  <ellipse cx="423" cy="301" rx="212" ry="52" fill="#06101b" opacity="0.72"/>
  <path d="M213 311 Q423 97 633 311 Z" fill="#ffdd8a" opacity="0.36"/>
  <path d="M251 309 Q423 153 595 309" fill="none" stroke="#fff6d2" stroke-width="7" opacity="0.45"/>
  <rect x="273.0" y="281" width="18" height="98" rx="8" fill="#eaf8ff" opacity="0.42"/><rect x="279.0" y="293" width="6" height="74" rx="3" fill="#ffdd8a" opacity="0.55"/><rect x="315.9" y="281" width="18" height="93" rx="8" fill="#eaf8ff" opacity="0.42"/><rect x="321.9" y="293" width="6" height="69" rx="3" fill="#ffdd8a" opacity="0.55"/><rect x="358.7" y="281" width="18" height="111" rx="8" fill="#eaf8ff" opacity="0.42"/><rect x="364.7" y="293" width="6" height="87" rx="3" fill="#ffdd8a" opacity="0.55"/><rect x="401.6" y="281" width="18" height="99" rx="8" fill="#eaf8ff" opacity="0.42"/><rect x="407.6" y="293" width="6" height="75" rx="3" fill="#ffdd8a" opacity="0.55"/><rect x="444.4" y="281" width="18" height="114" rx="8" fill="#eaf8ff" opacity="0.42"/><rect x="450.4" y="293" width="6" height="90" rx="3" fill="#ffdd8a" opacity="0.55"/><rect x="487.3" y="281" width="18" height="101" rx="8" fill="#eaf8ff" opacity="0.42"/><rect x="493.3" y="293" width="6" height="77" rx="3" fill="#ffdd8a" opacity="0.55"/><rect x="530.1" y="281" width="18" height="94" rx="8" fill="#eaf8ff" opacity="0.42"/><rect x="536.1" y="293" width="6" height="70" rx="3" fill="#ffdd8a" opacity="0.55"/><rect x="573.0" y="281" width="18" height="91" rx="8" fill="#eaf8ff" opacity="0.42"/><rect x="579.0" y="293" width="6" height="67" rx="3" fill="#ffdd8a" opacity="0.55"/>
  <rect x="217" y="323" width="412" height="122" rx="32" fill="#0a1724" opacity="0.88"/>
  <circle cx="423" cy="350" r="86" fill="url(#heart-sanctuary-5)" filter="url(#glow-sanctuary-5)" opacity="0.95"/>
  <path d="M0 360 C132 338, 210 386, 350 354 S620 328, 960 366 L960 420 L0 420 Z" fill="#0f2330" opacity="0.82"/>
  <path d="M158 384 C311 326, 527 414, 687 356" fill="none" stroke="#fff4cf" stroke-width="5" opacity="0.32"/>
  <text x="28" y="40" fill="#fff4cf" font-family="monospace" font-size="18" letter-spacing="5" opacity="0.5">RF 05 SANCTUARY</text>
</svg>