<svg xmlns="http://www.w3.org/2000/svg" viewBox="0 0 960 420" role="img" aria-label="sanctuary-4 unique sanctuary art">
  <defs>
    <linearGradient id="sky-sanctuary-4" x1="0" y1="0" x2="1" y2="1"><stop offset="0" stop-color="#071326"/><stop offset="0.55" stop-color="#69511c"/><stop offset="1" stop-color="#05060d"/></linearGradient>
    <radialGradient id="heart-sanctuary-4" cx="50%" cy="50%" r="55%"><stop offset="0" stop-color="#fff8d0"/><stop offset="0.38" stop-color="#ffd85f" stop-opacity="0.78"/><stop offset="1" stop-color="#ffd85f" stop-opacity="0"/></radialGradient>
    <filter id="glow-sanctuary-4" x="-25%" y="-25%" width="150%" height="150%"><feGaussianBlur stdDeviation="6" result="b"/><feMerge><feMergeNode in="b"/><feMergeNode in="SourceGraphic"/></feMerge></filter>
  </defs>
  <rect width="960" height="420" fill="url(#sky-sanctuary-4)"/>
  <circle cx="914" cy="172" r="6" fill="#fff3bb" opacity="0.62"/><circle cx="111" cy="243" r="3" fill="#ffd85f" opacity="0.42"/><circle cx="208" cy="60" r="5" fill="#fff3bb" opacity="0.62"/><circle cx="305" cy="210" r="2" fill="#ffd85f" opacity="0.42"/><circle cx="402" cy="66" r="4" fill="#fff3bb" opacity="0.62"/><circle cx="499" cy="236" r="6" fill="#ffd85f" opacity="0.42"/><circle cx="596" cy="102" r="3" fill="#fff3bb" opacity="0.62"/><circle cx="693" cy="47" r="5" fill="#ffd85f" opacity="0.42"/><circle cx="790" cy="261" r="2" fill="#fff3bb" opacity="0.62"/><circle cx="887" cy="149" r="4" fill="#ffd85f" opacity="0.42"/><circle cx="84" cy="105" r="6" fill="#fff3bb" opacity="0.62"/><circle cx="181" cy="209" r="3" fill="#ffd85f" opacity="0.42"/><circle cx="278" cy="43" r="5" fill="#fff3bb" opacity="0.62"/><circle cx="375" cy="201" r="2" fill="#ffd85f" opacity="0.42"/><circle cx="472" cy="177" r="4" fill="#fff3bb" opacity="0.62"/><circle cx="569" cy="57" r="6" fill="#ffd85f" opacity="0.42"/><circle cx="666" cy="128" r="3" fill="#fff3bb" opacity="0.62"/><circle cx="763" cy="175" r="5" fill="#ffd85f" opacity="0.42"/>
  <path d="M0 294 C140 228, 260 280, 390 226 S700 266, 960 218 L960 420 L0 420 Z" fill="#07101b" opacity="0.5"/>
  <g transform="translate(100 224.84) scale(0.78)"><rect x="0" y="38" width="98" height="96" rx="18" fill="#0b1824" opacity="0.9"/><path d="M-14 44 L49 0 L112 44 Z" fill="#ffd85f" opacity="0.42"/><circle cx="49" cy="72" r="18" fill="#ffd85f" opacity="0.36"/><rect x="38" y="86" width="22" height="48" rx="10" fill="#fff4cc" opacity="0.48"/></g>
  <g transform="translate(670 227.04) scale(0.68)"><rect x="0" y="38" width="98" height="96" rx="18" fill="#0b1824" opacity="0.9"/><path d="M-14 44 L49 0 L112 44 Z" fill="#ffd85f" opacity="0.42"/><circle cx="49" cy="72" r="18" fill="#ffd85f" opacity="0.36"/><rect x="38" y="86" width="22" height="48" rx="10" fill="#fff4cc" opacity="0.48"/></g>
  <ellipse cx="564" cy="309" rx="212" ry="52" fill="#06101b" opacity="0.72"/>
  <path d="M354 319 Q564 105 774 319 Z" fill="#ffd85f" opacity="0.36"/>
  <path d="M392 317 Q564 161 736 317" fill="none" stroke="#fff6d2" stroke-width="7" opacity="0.45"/>
  <rect x="414.0" y="289" width="18" height="108" rx="8" fill="#eaf8ff" opacity="0.42"/><rect x="420.0" y="301" width="6" height="84" rx="3" fill="#ffd85f" opacity="0.55"/><rect x="451.5" y="289" width="18" height="119" rx="8" fill="#eaf8ff" opacity="0.42"/><rect x="457.5" y="301" width="6" height="95" rx="3" fill="#ffd85f" opacity="0.55"/><rect x="489.0" y="289" width="18" height="124" rx="8" fill="#eaf8ff" opacity="0.42"/><rect x="495.0" y="301" width="6" height="100" rx="3" fill="#ffd85f" opacity="0.55"/><rect x="526.5" y="289" width="18" height="127" rx="8" fill="#eaf8ff" opacity="0.42"/><rect x="532.5" y="301" width="6" height="103" rx="3" fill="#ffd85f" opacity="0.55"/><rect x="564.0" y="289" width="18" height="128" rx="8" fill="#eaf8ff" opacity="0.42"/><rect x="570.0" y="301" width="6" height="104" rx="3" fill="#ffd85f" opacity="0.55"/><rect x="601.5" y="289" width="18" height="108" rx="8" fill="#eaf8ff" opacity="0.42"/><rect x="607.5" y="301" width="6" height="84" rx="3" fill="#ffd85f" opacity="0.55"/><rect x="639.0" y="289" width="18" height="119" rx="8" fill="#eaf8ff" opacity="0.42"/><rect x="645.0" y="301" width="6" height="95" rx="3" fill="#ffd85f" opacity="0.55"/><rect x="676.5" y="289" width="18" height="124" rx="8" fill="#eaf8ff" opacity="0.42"/><rect x="682.5" y="301" width="6" height="100" rx="3" fill="#ffd85f" opacity="0.55"/><rect x="714.0" y="289" width="18" height="127" rx="8" fill="#eaf8ff" opacity="0.42"/><rect x="720.0" y="301" width="6" height="103" rx="3" fill="#ffd85f" opacity="0.55"/>
  <rect x="358" y="331" width="412" height="122" rx="32" fill="#0a1724" opacity="0.88"/>
  <circle cx="564" cy="358" r="86" fill="url(#heart-sanctuary-4)" filter="url(#glow-sanctuary-4)" opacity="0.95"/>
  <path d="M0 360 C132 338, 210 386, 350 354 S620 328, 960 366 L960 420 L0 420 Z" fill="#0f2330" opacity="0.82"/>
  <path d="M299 384 C452 326, 668 414, 828 356" fill="none" stroke="#fff1ba" stroke-width="5" opacity="0.32"/>
  <text x="28" y="40" fill="#fff1ba" font-family="monospace" font-size="18" letter-spacing="5" opacity="0.5">RF 04 STONE WASTE</text>
</svg>