<svg xmlns="http://www.w3.org/2000/svg" viewBox="0 0 960 420" role="img" aria-label="sanctuary-14 unique sanctuary art">
  <defs>
    <linearGradient id="sky-sanctuary-14" x1="0" y1="0" x2="1" y2="1"><stop offset="0" stop-color="#071326"/><stop offset="0.55" stop-color="#194b63"/><stop offset="1" stop-color="#05060d"/></linearGradient>
    <radialGradient id="heart-sanctuary-14" cx="50%" cy="50%" r="55%"><stop offset="0" stop-color="#fff8d0"/><stop offset="0.38" stop-color="#ffdd8a" stop-opacity="0.78"/><stop offset="1" stop-color="#ffdd8a" stop-opacity="0"/></radialGradient>
    <filter id="glow-sanctuary-14" x="-25%" y="-25%" width="150%" height="150%"><feGaussianBlur stdDeviation="6" result="b"/><feMerge><feMergeNode in="b"/><feMergeNode in="SourceGraphic"/></feMerge></filter>
  </defs>
  <rect width="960" height="420" fill="url(#sky-sanctuary-14)"/>
  <circle cx="615" cy="113" r="2" fill="#fff3bb" opacity="0.62"/><circle cx="712" cy="213" r="4" fill="#ffdd8a" opacity="0.42"/><circle cx="809" cy="160" r="6" fill="#fff3bb" opacity="0.62"/><circle cx="906" cy="260" r="3" fill="#ffdd8a" opacity="0.42"/><circle cx="103" cy="206" r="5" fill="#fff3bb" opacity="0.62"/><circle cx="200" cy="191" r="2" fill="#ffdd8a" opacity="0.42"/><circle cx="297" cy="195" r="4" fill="#fff3bb" opacity="0.62"/><circle cx="394" cy="93" r="6" fill="#ffdd8a" opacity="0.42"/><circle cx="491" cy="169" r="3" fill="#fff3bb" opacity="0.62"/><circle cx="588" cy="218" r="5" fill="#ffdd8a" opacity="0.42"/><circle cx="685" cy="139" r="2" fill="#fff3bb" opacity="0.62"/><circle cx="782" cy="111" r="4" fill="#ffdd8a" opacity="0.42"/><circle cx="879" cy="109" r="6" fill="#fff3bb" opacity="0.62"/><circle cx="76" cy="234" r="3" fill="#ffdd8a" opacity="0.42"/><circle cx="173" cy="78" r="5" fill="#fff3bb" opacity="0.62"/><circle cx="270" cy="228" r="2" fill="#ffdd8a" opacity="0.42"/><circle cx="367" cy="98" r="4" fill="#fff3bb" opacity="0.62"/><circle cx="464" cy="45" r="6" fill="#ffdd8a" opacity="0.42"/>
  <path d="M0 294 C140 228, 260 280, 390 226 S700 266, 960 218 L960 420 L0 420 Z" fill="#07101b" opacity="0.5"/>
  <g transform="translate(101 224.84) scale(0.78)"><rect x="0" y="38" width="98" height="96" rx="18" fill="#0b1824" opacity="0.9"/><path d="M-14 44 L49 0 L112 44 Z" fill="#ffdd8a" opacity="0.42"/><circle cx="49" cy="72" r="18" fill="#ffdd8a" opacity="0.36"/><rect x="38" y="86" width="22" height="48" rx="10" fill="#fff4cc" opacity="0.48"/></g>
  <g transform="translate(668 227.04) scale(0.68)"><rect x="0" y="38" width="98" height="96" rx="18" fill="#0b1824" opacity="0.9"/><path d="M-14 44 L49 0 L112 44 Z" fill="#ffdd8a" opacity="0.42"/><circle cx="49" cy="72" r="18" fill="#ffdd8a" opacity="0.36"/><rect x="38" y="86" width="22" height="48" rx="10" fill="#fff4cc" opacity="0.48"/></g>
  <ellipse cx="545" cy="310" rx="212" ry="52" fill="#06101b" opacity="0.72"/>
  <path d="M335 320 Q545 106 755 320 Z" fill="#ffdd8a" opacity="0.36"/>
  <path d="M373 318 Q545 162 717 318" fill="none" stroke="#fff6d2" stroke-width="7" opacity="0.45"/>
  <rect x="395.0" y="290" width="18" height="114" rx="8" fill="#eaf8ff" opacity="0.42"/><rect x="401.0" y="302" width="6" height="90" rx="3" fill="#ffdd8a" opacity="0.55"/><rect x="437.9" y="290" width="18" height="101" rx="8" fill="#eaf8ff" opacity="0.42"/><rect x="443.9" y="302" width="6" height="77" rx="3" fill="#ffdd8a" opacity="0.55"/><rect x="480.7" y="290" width="18" height="94" rx="8" fill="#eaf8ff" opacity="0.42"/><rect x="486.7" y="302" width="6" height="70" rx="3" fill="#ffdd8a" opacity="0.55"/><rect x="523.6" y="290" width="18" height="112" rx="8" fill="#eaf8ff" opacity="0.42"/><rect x="529.6" y="302" width="6" height="88" rx="3" fill="#ffdd8a" opacity="0.55"/><rect x="566.4" y="290" width="18" height="121" rx="8" fill="#eaf8ff" opacity="0.42"/><rect x="572.4" y="302" width="6" height="97" rx="3" fill="#ffdd8a" opacity="0.55"/><rect x="609.3" y="290" width="18" height="104" rx="8" fill="#eaf8ff" opacity="0.42"/><rect x="615.3" y="302" width="6" height="80" rx="3" fill="#ffdd8a" opacity="0.55"/><rect x="652.1" y="290" width="18" height="117" rx="8" fill="#eaf8ff" opacity="0.42"/><rect x="658.1" y="302" width="6" height="93" rx="3" fill="#ffdd8a" opacity="0.55"/><rect x="695.0" y="290" width="18" height="123" rx="8" fill="#eaf8ff" opacity="0.42"/><rect x="701.0" y="302" width="6" height="99" rx="3" fill="#ffdd8a" opacity="0.55"/>
  <rect x="339" y="332" width="412" height="122" rx="32" fill="#0a1724" opacity="0.88"/>
  <circle cx="545" cy="359" r="86" fill="url(#heart-sanctuary-14)" filter="url(#glow-sanctuary-14)" opacity="0.95"/>
  <path d="M0 360 C132 338, 210 386, 350 354 S620 328, 960 366 L960 420 L0 420 Z" fill="#0f2330" opacity="0.82"/>
  <path d="M280 384 C433 326, 649 414, 809 356" fill="none" stroke="#fff4cf" stroke-width="5" opacity="0.32"/>
  <text x="28" y="40" fill="#fff4cf" font-family="monospace" font-size="18" letter-spacing="5" opacity="0.5">RF 14 SANCTUARY</text>
</svg>