<svg xmlns="http://www.w3.org/2000/svg" viewBox="0 0 960 420" role="img" aria-label="sanctuary-44 unique sanctuary art">
  <defs>
    <linearGradient id="sky-sanctuary-44" x1="0" y1="0" x2="1" y2="1"><stop offset="0" stop-color="#071326"/><stop offset="0.55" stop-color="#194b63"/><stop offset="1" stop-color="#05060d"/></linearGradient>
    <radialGradient id="heart-sanctuary-44" cx="50%" cy="50%" r="55%"><stop offset="0" stop-color="#fff8d0"/><stop offset="0.38" stop-color="#ffdd8a" stop-opacity="0.78"/><stop offset="1" stop-color="#ffdd8a" stop-opacity="0"/></radialGradient>
    <filter id="glow-sanctuary-44" x="-25%" y="-25%" width="150%" height="150%"><feGaussianBlur stdDeviation="6" result="b"/><feMerge><feMergeNode in="b"/><feMergeNode in="SourceGraphic"/></feMerge></filter>
  </defs>
  <rect width="960" height="420" fill="url(#sky-sanctuary-44)"/>
  <circle cx="762" cy="210" r="4" fill="#fff3bb" opacity="0.62"/><circle cx="859" cy="147" r="6" fill="#ffdd8a" opacity="0.42"/><circle cx="56" cy="127" r="3" fill="#fff3bb" opacity="0.62"/><circle cx="153" cy="243" r="5" fill="#ffdd8a" opacity="0.42"/><circle cx="250" cy="83" r="2" fill="#fff3bb" opacity="0.62"/><circle cx="347" cy="129" r="4" fill="#ffdd8a" opacity="0.42"/><circle cx="444" cy="164" r="6" fill="#fff3bb" opacity="0.62"/><circle cx="541" cy="193" r="3" fill="#ffdd8a" opacity="0.42"/><circle cx="638" cy="219" r="5" fill="#fff3bb" opacity="0.62"/><circle cx="735" cy="128" r="2" fill="#ffdd8a" opacity="0.42"/><circle cx="832" cy="94" r="4" fill="#fff3bb" opacity="0.62"/><circle cx="929" cy="204" r="6" fill="#ffdd8a" opacity="0.42"/><circle cx="126" cy="155" r="3" fill="#fff3bb" opacity="0.62"/><circle cx="223" cy="142" r="5" fill="#ffdd8a" opacity="0.42"/><circle cx="320" cy="147" r="2" fill="#fff3bb" opacity="0.62"/><circle cx="417" cy="95" r="4" fill="#ffdd8a" opacity="0.42"/><circle cx="514" cy="262" r="6" fill="#fff3bb" opacity="0.62"/><circle cx="611" cy="242" r="3" fill="#ffdd8a" opacity="0.42"/>
  <path d="M0 294 C140 228, 260 280, 390 226 S700 266, 960 218 L960 420 L0 420 Z" fill="#07101b" opacity="0.5"/>
  <g transform="translate(128 224.84) scale(0.78)"><rect x="0" y="38" width="98" height="96" rx="18" fill="#0b1824" opacity="0.9"/><path d="M-14 44 L49 0 L112 44 Z" fill="#ffdd8a" opacity="0.42"/><circle cx="49" cy="72" r="18" fill="#ffdd8a" opacity="0.36"/><rect x="38" y="86" width="22" height="48" rx="10" fill="#fff4cc" opacity="0.48"/></g>
  <g transform="translate(699 227.04) scale(0.68)"><rect x="0" y="38" width="98" height="96" rx="18" fill="#0b1824" opacity="0.9"/><path d="M-14 44 L49 0 L112 44 Z" fill="#ffdd8a" opacity="0.42"/><circle cx="49" cy="72" r="18" fill="#ffdd8a" opacity="0.36"/><rect x="38" y="86" width="22" height="48" rx="10" fill="#fff4cc" opacity="0.48"/></g>
  <ellipse cx="292" cy="294" rx="212" ry="52" fill="#06101b" opacity="0.72"/>
  <path d="M82 304 Q292 90 502 304 Z" fill="#ffdd8a" opacity="0.36"/>
  <path d="M120 302 Q292 146 464 302" fill="none" stroke="#fff6d2" stroke-width="7" opacity="0.45"/>
  <rect x="142.0" y="274" width="18" height="109" rx="8" fill="#eaf8ff" opacity="0.42"/><rect x="148.0" y="286" width="6" height="85" rx="3" fill="#ffdd8a" opacity="0.55"/><rect x="184.9" y="274" width="18" height="98" rx="8" fill="#eaf8ff" opacity="0.42"/><rect x="190.9" y="286" width="6" height="74" rx="3" fill="#ffdd8a" opacity="0.55"/><rect x="227.7" y="274" width="18" height="93" rx="8" fill="#eaf8ff" opacity="0.42"/><rect x="233.7" y="286" width="6" height="69" rx="3" fill="#ffdd8a" opacity="0.55"/><rect x="270.6" y="274" width="18" height="90" rx="8" fill="#eaf8ff" opacity="0.42"/><rect x="276.6" y="286" width="6" height="66" rx="3" fill="#ffdd8a" opacity="0.55"/><rect x="313.4" y="274" width="18" height="110" rx="8" fill="#eaf8ff" opacity="0.42"/><rect x="319.4" y="286" width="6" height="86" rx="3" fill="#ffdd8a" opacity="0.55"/><rect x="356.3" y="274" width="18" height="120" rx="8" fill="#eaf8ff" opacity="0.42"/><rect x="362.3" y="286" width="6" height="96" rx="3" fill="#ffdd8a" opacity="0.55"/><rect x="399.1" y="274" width="18" height="125" rx="8" fill="#eaf8ff" opacity="0.42"/><rect x="405.1" y="286" width="6" height="101" rx="3" fill="#ffdd8a" opacity="0.55"/><rect x="442.0" y="274" width="18" height="127" rx="8" fill="#eaf8ff" opacity="0.42"/><rect x="448.0" y="286" width="6" height="103" rx="3" fill="#ffdd8a" opacity="0.55"/>
  <rect x="86" y="316" width="412" height="122" rx="32" fill="#0a1724" opacity="0.88"/>
  <circle cx="292" cy="343" r="86" fill="url(#heart-sanctuary-44)" filter="url(#glow-sanctuary-44)" opacity="0.95"/>
  <path d="M0 360 C132 338, 210 386, 350 354 S620 328, 960 366 L960 420 L0 420 Z" fill="#0f2330" opacity="0.82"/>
  <path d="M27 384 C180 326, 396 414, 556 356" fill="none" stroke="#fff4cf" stroke-width="5" opacity="0.32"/>
  <text x="28" y="40" fill="#fff4cf" font-family="monospace" font-size="18" letter-spacing="5" opacity="0.5">RF 44 SANCTUARY</text>
</svg>