<svg xmlns="http://www.w3.org/2000/svg" viewBox="0 0 960 420" role="img" aria-label="sanctuary-42 unique sanctuary art">
  <defs>
    <linearGradient id="sky-sanctuary-42" x1="0" y1="0" x2="1" y2="1"><stop offset="0" stop-color="#071326"/><stop offset="0.55" stop-color="#194b63"/><stop offset="1" stop-color="#05060d"/></linearGradient>
    <radialGradient id="heart-sanctuary-42" cx="50%" cy="50%" r="55%"><stop offset="0" stop-color="#fff8d0"/><stop offset="0.38" stop-color="#ffdd8a" stop-opacity="0.78"/><stop offset="1" stop-color="#ffdd8a" stop-opacity="0"/></radialGradient>
    <filter id="glow-sanctuary-42" x="-25%" y="-25%" width="150%" height="150%"><feGaussianBlur stdDeviation="6" result="b"/><feMerge><feMergeNode in="b"/><feMergeNode in="SourceGraphic"/></feMerge></filter>
  </defs>
  <rect width="960" height="420" fill="url(#sky-sanctuary-42)"/>
  <circle cx="224" cy="132" r="6" fill="#fff3bb" opacity="0.62"/><circle cx="321" cy="108" r="3" fill="#ffdd8a" opacity="0.42"/><circle cx="418" cy="107" r="5" fill="#fff3bb" opacity="0.62"/><circle cx="515" cy="118" r="2" fill="#ffdd8a" opacity="0.42"/><circle cx="612" cy="250" r="4" fill="#fff3bb" opacity="0.62"/><circle cx="709" cy="98" r="6" fill="#ffdd8a" opacity="0.42"/><circle cx="806" cy="263" r="3" fill="#fff3bb" opacity="0.62"/><circle cx="903" cy="242" r="5" fill="#ffdd8a" opacity="0.42"/><circle cx="100" cy="243" r="2" fill="#fff3bb" opacity="0.62"/><circle cx="197" cy="140" r="4" fill="#ffdd8a" opacity="0.42"/><circle cx="294" cy="215" r="6" fill="#fff3bb" opacity="0.62"/><circle cx="391" cy="149" r="3" fill="#ffdd8a" opacity="0.42"/><circle cx="488" cy="243" r="5" fill="#fff3bb" opacity="0.62"/><circle cx="585" cy="186" r="2" fill="#ffdd8a" opacity="0.42"/><circle cx="682" cy="169" r="4" fill="#fff3bb" opacity="0.62"/><circle cx="779" cy="247" r="6" fill="#ffdd8a" opacity="0.42"/><circle cx="876" cy="223" r="3" fill="#fff3bb" opacity="0.62"/><circle cx="73" cy="222" r="5" fill="#ffdd8a" opacity="0.42"/>
  <path d="M0 294 C140 228, 260 280, 390 226 S700 266, 960 218 L960 420 L0 420 Z" fill="#07101b" opacity="0.5"/>
  <g transform="translate(90 224.84) scale(0.78)"><rect x="0" y="38" width="98" height="96" rx="18" fill="#0b1824" opacity="0.9"/><path d="M-14 44 L49 0 L112 44 Z" fill="#ffdd8a" opacity="0.42"/><circle cx="49" cy="72" r="18" fill="#ffdd8a" opacity="0.36"/><rect x="38" y="86" width="22" height="48" rx="10" fill="#fff4cc" opacity="0.48"/></g>
  <g transform="translate(670 227.04) scale(0.68)"><rect x="0" y="38" width="98" height="96" rx="18" fill="#0b1824" opacity="0.9"/><path d="M-14 44 L49 0 L112 44 Z" fill="#ffdd8a" opacity="0.42"/><circle cx="49" cy="72" r="18" fill="#ffdd8a" opacity="0.36"/><rect x="38" y="86" width="22" height="48" rx="10" fill="#fff4cc" opacity="0.48"/></g>
  <ellipse cx="574" cy="309" rx="212" ry="52" fill="#06101b" opacity="0.72"/>
  <path d="M364 319 Q574 105 784 319 Z" fill="#ffdd8a" opacity="0.36"/>
  <path d="M402 317 Q574 161 746 317" fill="none" stroke="#fff6d2" stroke-width="7" opacity="0.45"/>
  <rect x="424.0" y="289" width="18" height="127" rx="8" fill="#eaf8ff" opacity="0.42"/><rect x="430.0" y="301" width="6" height="103" rx="3" fill="#ffdd8a" opacity="0.55"/><rect x="499.0" y="289" width="18" height="107" rx="8" fill="#eaf8ff" opacity="0.42"/><rect x="505.0" y="301" width="6" height="83" rx="3" fill="#ffdd8a" opacity="0.55"/><rect x="574.0" y="289" width="18" height="118" rx="8" fill="#eaf8ff" opacity="0.42"/><rect x="580.0" y="301" width="6" height="94" rx="3" fill="#ffdd8a" opacity="0.55"/><rect x="649.0" y="289" width="18" height="103" rx="8" fill="#eaf8ff" opacity="0.42"/><rect x="655.0" y="301" width="6" height="79" rx="3" fill="#ffdd8a" opacity="0.55"/><rect x="724.0" y="289" width="18" height="95" rx="8" fill="#eaf8ff" opacity="0.42"/><rect x="730.0" y="301" width="6" height="71" rx="3" fill="#ffdd8a" opacity="0.55"/>
  <rect x="368" y="331" width="412" height="122" rx="32" fill="#0a1724" opacity="0.88"/>
  <circle cx="574" cy="358" r="86" fill="url(#heart-sanctuary-42)" filter="url(#glow-sanctuary-42)" opacity="0.95"/>
  <path d="M0 360 C132 338, 210 386, 350 354 S620 328, 960 366 L960 420 L0 420 Z" fill="#0f2330" opacity="0.82"/>
  <path d="M309 384 C462 326, 678 414, 838 356" fill="none" stroke="#fff4cf" stroke-width="5" opacity="0.32"/>
  <text x="28" y="40" fill="#fff4cf" font-family="monospace" font-size="18" letter-spacing="5" opacity="0.5">RF 42 SANCTUARY</text>
</svg>