<svg xmlns="http://www.w3.org/2000/svg" viewBox="0 0 960 420" role="img" aria-label="sanctuary-40 unique sanctuary art">
  <defs>
    <linearGradient id="sky-sanctuary-40" x1="0" y1="0" x2="1" y2="1"><stop offset="0" stop-color="#071326"/><stop offset="0.55" stop-color="#69511c"/><stop offset="1" stop-color="#05060d"/></linearGradient>
    <radialGradient id="heart-sanctuary-40" cx="50%" cy="50%" r="55%"><stop offset="0" stop-color="#fff8d0"/><stop offset="0.38" stop-color="#ffd85f" stop-opacity="0.78"/><stop offset="1" stop-color="#ffd85f" stop-opacity="0"/></radialGradient>
    <filter id="glow-sanctuary-40" x="-25%" y="-25%" width="150%" height="150%"><feGaussianBlur stdDeviation="6" result="b"/><feMerge><feMergeNode in="b"/><feMergeNode in="SourceGraphic"/></feMerge></filter>
  </defs>
  <rect width="960" height="420" fill="url(#sky-sanctuary-40)"/>
  <circle cx="586" cy="54" r="3" fill="#fff3bb" opacity="0.62"/><circle cx="683" cy="69" r="5" fill="#ffd85f" opacity="0.42"/><circle cx="780" cy="88" r="2" fill="#fff3bb" opacity="0.62"/><circle cx="877" cy="224" r="4" fill="#ffd85f" opacity="0.42"/><circle cx="74" cy="188" r="6" fill="#fff3bb" opacity="0.62"/><circle cx="171" cy="67" r="3" fill="#ffd85f" opacity="0.42"/><circle cx="268" cy="133" r="5" fill="#fff3bb" opacity="0.62"/><circle cx="365" cy="62" r="2" fill="#ffd85f" opacity="0.42"/><circle cx="462" cy="38" r="4" fill="#fff3bb" opacity="0.62"/><circle cx="559" cy="153" r="6" fill="#ffd85f" opacity="0.42"/><circle cx="656" cy="107" r="3" fill="#fff3bb" opacity="0.62"/><circle cx="753" cy="95" r="5" fill="#ffd85f" opacity="0.42"/><circle cx="850" cy="101" r="2" fill="#fff3bb" opacity="0.62"/><circle cx="47" cy="230" r="4" fill="#ffd85f" opacity="0.42"/><circle cx="144" cy="191" r="6" fill="#fff3bb" opacity="0.62"/><circle cx="241" cy="169" r="3" fill="#ffd85f" opacity="0.42"/><circle cx="338" cy="184" r="5" fill="#fff3bb" opacity="0.62"/><circle cx="435" cy="203" r="2" fill="#ffd85f" opacity="0.42"/>
  <path d="M0 294 C140 228, 260 280, 390 226 S700 266, 960 218 L960 420 L0 420 Z" fill="#07101b" opacity="0.5"/>
  <g transform="translate(132 224.84) scale(0.78)"><rect x="0" y="38" width="98" height="96" rx="18" fill="#0b1824" opacity="0.9"/><path d="M-14 44 L49 0 L112 44 Z" fill="#ffd85f" opacity="0.42"/><circle cx="49" cy="72" r="18" fill="#ffd85f" opacity="0.36"/><rect x="38" y="86" width="22" height="48" rx="10" fill="#fff4cc" opacity="0.48"/></g>
  <g transform="translate(732 227.04) scale(0.68)"><rect x="0" y="38" width="98" height="96" rx="18" fill="#0b1824" opacity="0.9"/><path d="M-14 44 L49 0 L112 44 Z" fill="#ffd85f" opacity="0.42"/><circle cx="49" cy="72" r="18" fill="#ffd85f" opacity="0.36"/><rect x="38" y="86" width="22" height="48" rx="10" fill="#fff4cc" opacity="0.48"/></g>
  <ellipse cx="476" cy="278" rx="212" ry="52" fill="#06101b" opacity="0.72"/>
  <path d="M266 288 Q476 74 686 288 Z" fill="#ffd85f" opacity="0.36"/>
  <path d="M304 286 Q476 130 648 286" fill="none" stroke="#fff6d2" stroke-width="7" opacity="0.45"/>
  <rect x="326.0" y="258" width="18" height="104" rx="8" fill="#eaf8ff" opacity="0.42"/><rect x="332.0" y="270" width="6" height="80" rx="3" fill="#ffd85f" opacity="0.55"/><rect x="368.9" y="258" width="18" height="117" rx="8" fill="#eaf8ff" opacity="0.42"/><rect x="374.9" y="270" width="6" height="93" rx="3" fill="#ffd85f" opacity="0.55"/><rect x="411.7" y="258" width="18" height="102" rx="8" fill="#eaf8ff" opacity="0.42"/><rect x="417.7" y="270" width="6" height="78" rx="3" fill="#ffd85f" opacity="0.55"/><rect x="454.6" y="258" width="18" height="116" rx="8" fill="#eaf8ff" opacity="0.42"/><rect x="460.6" y="270" width="6" height="92" rx="3" fill="#ffd85f" opacity="0.55"/><rect x="497.4" y="258" width="18" height="123" rx="8" fill="#eaf8ff" opacity="0.42"/><rect x="503.4" y="270" width="6" height="99" rx="3" fill="#ffd85f" opacity="0.55"/><rect x="540.3" y="258" width="18" height="105" rx="8" fill="#eaf8ff" opacity="0.42"/><rect x="546.3" y="270" width="6" height="81" rx="3" fill="#ffd85f" opacity="0.55"/><rect x="583.1" y="258" width="18" height="96" rx="8" fill="#eaf8ff" opacity="0.42"/><rect x="589.1" y="270" width="6" height="72" rx="3" fill="#ffd85f" opacity="0.55"/><rect x="626.0" y="258" width="18" height="92" rx="8" fill="#eaf8ff" opacity="0.42"/><rect x="632.0" y="270" width="6" height="68" rx="3" fill="#ffd85f" opacity="0.55"/>
  <rect x="270" y="300" width="412" height="122" rx="32" fill="#0a1724" opacity="0.88"/>
  <circle cx="476" cy="327" r="86" fill="url(#heart-sanctuary-40)" filter="url(#glow-sanctuary-40)" opacity="0.95"/>
  <path d="M0 360 C132 338, 210 386, 350 354 S620 328, 960 366 L960 420 L0 420 Z" fill="#0f2330" opacity="0.82"/>
  <path d="M211 384 C364 326, 580 414, 740 356" fill="none" stroke="#fff1ba" stroke-width="5" opacity="0.32"/>
  <text x="28" y="40" fill="#fff1ba" font-family="monospace" font-size="18" letter-spacing="5" opacity="0.5">RF 40 STONE WASTE</text>
</svg>