<svg xmlns="http://www.w3.org/2000/svg" viewBox="0 0 960 420" role="img" aria-label="sanctuary-36 unique sanctuary art">
  <defs>
    <linearGradient id="sky-sanctuary-36" x1="0" y1="0" x2="1" y2="1"><stop offset="0" stop-color="#071326"/><stop offset="0.55" stop-color="#194b63"/><stop offset="1" stop-color="#05060d"/></linearGradient>
    <radialGradient id="heart-sanctuary-36" cx="50%" cy="50%" r="55%"><stop offset="0" stop-color="#fff8d0"/><stop offset="0.38" stop-color="#ffdd8a" stop-opacity="0.78"/><stop offset="1" stop-color="#ffdd8a" stop-opacity="0"/></radialGradient>
    <filter id="glow-sanctuary-36" x="-25%" y="-25%" width="150%" height="150%"><feGaussianBlur stdDeviation="6" result="b"/><feMerge><feMergeNode in="b"/><feMergeNode in="SourceGraphic"/></feMerge></filter>
  </defs>
  <rect width="960" height="420" fill="url(#sky-sanctuary-36)"/>
  <circle cx="671" cy="219" r="3" fill="#fff3bb" opacity="0.62"/><circle cx="768" cy="151" r="5" fill="#ffdd8a" opacity="0.42"/><circle cx="865" cy="244" r="2" fill="#fff3bb" opacity="0.62"/><circle cx="62" cy="187" r="4" fill="#ffdd8a" opacity="0.42"/><circle cx="159" cy="170" r="6" fill="#fff3bb" opacity="0.62"/><circle cx="256" cy="173" r="3" fill="#ffdd8a" opacity="0.42"/><circle cx="353" cy="186" r="5" fill="#fff3bb" opacity="0.62"/><circle cx="450" cy="204" r="2" fill="#ffdd8a" opacity="0.42"/><circle cx="547" cy="224" r="4" fill="#fff3bb" opacity="0.62"/><circle cx="644" cy="246" r="6" fill="#ffdd8a" opacity="0.42"/><circle cx="741" cy="38" r="3" fill="#fff3bb" opacity="0.62"/><circle cx="838" cy="176" r="5" fill="#ffdd8a" opacity="0.42"/><circle cx="35" cy="256" r="2" fill="#fff3bb" opacity="0.62"/><circle cx="132" cy="193" r="4" fill="#ffdd8a" opacity="0.42"/><circle cx="229" cy="173" r="6" fill="#fff3bb" opacity="0.62"/><circle cx="326" cy="104" r="3" fill="#ffdd8a" opacity="0.42"/><circle cx="423" cy="266" r="5" fill="#fff3bb" opacity="0.62"/><circle cx="520" cy="129" r="2" fill="#ffdd8a" opacity="0.42"/>
  <path d="M0 294 C140 228, 260 280, 390 226 S700 266, 960 218 L960 420 L0 420 Z" fill="#07101b" opacity="0.5"/>
  <g transform="translate(77 224.84) scale(0.78)"><rect x="0" y="38" width="98" height="96" rx="18" fill="#0b1824" opacity="0.9"/><path d="M-14 44 L49 0 L112 44 Z" fill="#ffdd8a" opacity="0.42"/><circle cx="49" cy="72" r="18" fill="#ffdd8a" opacity="0.36"/><rect x="38" y="86" width="22" height="48" rx="10" fill="#fff4cc" opacity="0.48"/></g>
  <g transform="translate(704 227.04) scale(0.68)"><rect x="0" y="38" width="98" height="96" rx="18" fill="#0b1824" opacity="0.9"/><path d="M-14 44 L49 0 L112 44 Z" fill="#ffdd8a" opacity="0.42"/><circle cx="49" cy="72" r="18" fill="#ffdd8a" opacity="0.36"/><rect x="38" y="86" width="22" height="48" rx="10" fill="#fff4cc" opacity="0.48"/></g>
  <ellipse cx="541" cy="292" rx="212" ry="52" fill="#06101b" opacity="0.72"/>
  <path d="M331 302 Q541 88 751 302 Z" fill="#ffdd8a" opacity="0.36"/>
  <path d="M369 300 Q541 144 713 300" fill="none" stroke="#fff6d2" stroke-width="7" opacity="0.45"/>
  <rect x="391.0" y="272" width="18" height="116" rx="8" fill="#eaf8ff" opacity="0.42"/><rect x="397.0" y="284" width="6" height="92" rx="3" fill="#ffdd8a" opacity="0.55"/><rect x="451.0" y="272" width="18" height="102" rx="8" fill="#eaf8ff" opacity="0.42"/><rect x="457.0" y="284" width="6" height="78" rx="3" fill="#ffdd8a" opacity="0.55"/><rect x="511.0" y="272" width="18" height="116" rx="8" fill="#eaf8ff" opacity="0.42"/><rect x="517.0" y="284" width="6" height="92" rx="3" fill="#ffdd8a" opacity="0.55"/><rect x="571.0" y="272" width="18" height="102" rx="8" fill="#eaf8ff" opacity="0.42"/><rect x="577.0" y="284" width="6" height="78" rx="3" fill="#ffdd8a" opacity="0.55"/><rect x="631.0" y="272" width="18" height="116" rx="8" fill="#eaf8ff" opacity="0.42"/><rect x="637.0" y="284" width="6" height="92" rx="3" fill="#ffdd8a" opacity="0.55"/><rect x="691.0" y="272" width="18" height="123" rx="8" fill="#eaf8ff" opacity="0.42"/><rect x="697.0" y="284" width="6" height="99" rx="3" fill="#ffdd8a" opacity="0.55"/>
  <rect x="335" y="314" width="412" height="122" rx="32" fill="#0a1724" opacity="0.88"/>
  <circle cx="541" cy="341" r="86" fill="url(#heart-sanctuary-36)" filter="url(#glow-sanctuary-36)" opacity="0.95"/>
  <path d="M0 360 C132 338, 210 386, 350 354 S620 328, 960 366 L960 420 L0 420 Z" fill="#0f2330" opacity="0.82"/>
  <path d="M276 384 C429 326, 645 414, 805 356" fill="none" stroke="#fff4cf" stroke-width="5" opacity="0.32"/>
  <text x="28" y="40" fill="#fff4cf" font-family="monospace" font-size="18" letter-spacing="5" opacity="0.5">RF 36 SANCTUARY</text>
</svg>