<svg xmlns="http://www.w3.org/2000/svg" viewBox="0 0 960 420" role="img" aria-label="sanctuary-20 unique sanctuary art">
  <defs>
    <linearGradient id="sky-sanctuary-20" x1="0" y1="0" x2="1" y2="1"><stop offset="0" stop-color="#071326"/><stop offset="0.55" stop-color="#194b63"/><stop offset="1" stop-color="#05060d"/></linearGradient>
    <radialGradient id="heart-sanctuary-20" cx="50%" cy="50%" r="55%"><stop offset="0" stop-color="#fff8d0"/><stop offset="0.38" stop-color="#ffdd8a" stop-opacity="0.78"/><stop offset="1" stop-color="#ffdd8a" stop-opacity="0"/></radialGradient>
    <filter id="glow-sanctuary-20" x="-25%" y="-25%" width="150%" height="150%"><feGaussianBlur stdDeviation="6" result="b"/><feMerge><feMergeNode in="b"/><feMergeNode in="SourceGraphic"/></feMerge></filter>
  </defs>
  <rect width="960" height="420" fill="url(#sky-sanctuary-20)"/>
  <circle cx="100" cy="168" r="2" fill="#fff3bb" opacity="0.62"/><circle cx="197" cy="126" r="4" fill="#ffdd8a" opacity="0.42"/><circle cx="294" cy="231" r="6" fill="#fff3bb" opacity="0.62"/><circle cx="391" cy="180" r="3" fill="#ffdd8a" opacity="0.42"/><circle cx="488" cy="51" r="5" fill="#fff3bb" opacity="0.62"/><circle cx="585" cy="113" r="2" fill="#ffdd8a" opacity="0.42"/><circle cx="682" cy="156" r="4" fill="#fff3bb" opacity="0.62"/><circle cx="779" cy="74" r="6" fill="#ffdd8a" opacity="0.42"/><circle cx="876" cy="159" r="3" fill="#fff3bb" opacity="0.62"/><circle cx="73" cy="213" r="5" fill="#ffdd8a" opacity="0.42"/><circle cx="170" cy="137" r="2" fill="#fff3bb" opacity="0.62"/><circle cx="267" cy="225" r="4" fill="#ffdd8a" opacity="0.42"/><circle cx="364" cy="166" r="6" fill="#fff3bb" opacity="0.62"/><circle cx="461" cy="263" r="3" fill="#ffdd8a" opacity="0.42"/><circle cx="558" cy="208" r="5" fill="#fff3bb" opacity="0.62"/><circle cx="655" cy="53" r="2" fill="#ffdd8a" opacity="0.42"/><circle cx="752" cy="241" r="4" fill="#fff3bb" opacity="0.62"/><circle cx="849" cy="116" r="6" fill="#ffdd8a" opacity="0.42"/>
  <path d="M0 294 C140 228, 260 280, 390 226 S700 266, 960 218 L960 420 L0 420 Z" fill="#07101b" opacity="0.5"/>
  <g transform="translate(106 224.84) scale(0.78)"><rect x="0" y="38" width="98" height="96" rx="18" fill="#0b1824" opacity="0.9"/><path d="M-14 44 L49 0 L112 44 Z" fill="#ffdd8a" opacity="0.42"/><circle cx="49" cy="72" r="18" fill="#ffdd8a" opacity="0.36"/><rect x="38" y="86" width="22" height="48" rx="10" fill="#fff4cc" opacity="0.48"/></g>
  <g transform="translate(731 227.04) scale(0.68)"><rect x="0" y="38" width="98" height="96" rx="18" fill="#0b1824" opacity="0.9"/><path d="M-14 44 L49 0 L112 44 Z" fill="#ffdd8a" opacity="0.42"/><circle cx="49" cy="72" r="18" fill="#ffdd8a" opacity="0.36"/><rect x="38" y="86" width="22" height="48" rx="10" fill="#fff4cc" opacity="0.48"/></g>
  <ellipse cx="310" cy="278" rx="212" ry="52" fill="#06101b" opacity="0.72"/>
  <path d="M100 288 Q310 74 520 288 Z" fill="#ffdd8a" opacity="0.36"/>
  <path d="M138 286 Q310 130 482 286" fill="none" stroke="#fff6d2" stroke-width="7" opacity="0.45"/>
  <rect x="160.0" y="258" width="18" height="129" rx="8" fill="#eaf8ff" opacity="0.42"/><rect x="166.0" y="270" width="6" height="105" rx="3" fill="#ffdd8a" opacity="0.55"/><rect x="202.9" y="258" width="18" height="129" rx="8" fill="#eaf8ff" opacity="0.42"/><rect x="208.9" y="270" width="6" height="105" rx="3" fill="#ffdd8a" opacity="0.55"/><rect x="245.7" y="258" width="18" height="129" rx="8" fill="#eaf8ff" opacity="0.42"/><rect x="251.7" y="270" width="6" height="105" rx="3" fill="#ffdd8a" opacity="0.55"/><rect x="288.6" y="258" width="18" height="108" rx="8" fill="#eaf8ff" opacity="0.42"/><rect x="294.6" y="270" width="6" height="84" rx="3" fill="#ffdd8a" opacity="0.55"/><rect x="331.4" y="258" width="18" height="98" rx="8" fill="#eaf8ff" opacity="0.42"/><rect x="337.4" y="270" width="6" height="74" rx="3" fill="#ffdd8a" opacity="0.55"/><rect x="374.3" y="258" width="18" height="93" rx="8" fill="#eaf8ff" opacity="0.42"/><rect x="380.3" y="270" width="6" height="69" rx="3" fill="#ffdd8a" opacity="0.55"/><rect x="417.1" y="258" width="18" height="111" rx="8" fill="#eaf8ff" opacity="0.42"/><rect x="423.1" y="270" width="6" height="87" rx="3" fill="#ffdd8a" opacity="0.55"/><rect x="460.0" y="258" width="18" height="120" rx="8" fill="#eaf8ff" opacity="0.42"/><rect x="466.0" y="270" width="6" height="96" rx="3" fill="#ffdd8a" opacity="0.55"/>
  <rect x="104" y="300" width="412" height="122" rx="32" fill="#0a1724" opacity="0.88"/>
  <circle cx="310" cy="327" r="86" fill="url(#heart-sanctuary-20)" filter="url(#glow-sanctuary-20)" opacity="0.95"/>
  <path d="M0 360 C132 338, 210 386, 350 354 S620 328, 960 366 L960 420 L0 420 Z" fill="#0f2330" opacity="0.82"/>
  <path d="M45 384 C198 326, 414 414, 574 356" fill="none" stroke="#fff4cf" stroke-width="5" opacity="0.32"/>
  <text x="28" y="40" fill="#fff4cf" font-family="monospace" font-size="18" letter-spacing="5" opacity="0.5">RF 20 SANCTUARY</text>
</svg>