<svg xmlns="http://www.w3.org/2000/svg" viewBox="0 0 960 420" role="img" aria-label="sanctuary-25 unique sanctuary art">
  <defs>
    <linearGradient id="sky-sanctuary-25" x1="0" y1="0" x2="1" y2="1"><stop offset="0" stop-color="#071326"/><stop offset="0.55" stop-color="#09566b"/><stop offset="1" stop-color="#05060d"/></linearGradient>
    <radialGradient id="heart-sanctuary-25" cx="50%" cy="50%" r="55%"><stop offset="0" stop-color="#fff8d0"/><stop offset="0.38" stop-color="#36f3ff" stop-opacity="0.78"/><stop offset="1" stop-color="#36f3ff" stop-opacity="0"/></radialGradient>
    <filter id="glow-sanctuary-25" x="-25%" y="-25%" width="150%" height="150%"><feGaussianBlur stdDeviation="6" result="b"/><feMerge><feMergeNode in="b"/><feMergeNode in="SourceGraphic"/></feMerge></filter>
  </defs>
  <rect width="960" height="420" fill="url(#sky-sanctuary-25)"/>
  <circle cx="95" cy="133" r="2" fill="#fff3bb" opacity="0.62"/><circle cx="192" cy="223" r="4" fill="#36f3ff" opacity="0.42"/><circle cx="289" cy="165" r="6" fill="#fff3bb" opacity="0.62"/><circle cx="386" cy="262" r="3" fill="#36f3ff" opacity="0.42"/><circle cx="483" cy="207" r="5" fill="#fff3bb" opacity="0.62"/><circle cx="580" cy="76" r="2" fill="#36f3ff" opacity="0.42"/><circle cx="677" cy="137" r="4" fill="#fff3bb" opacity="0.62"/><circle cx="774" cy="179" r="6" fill="#36f3ff" opacity="0.42"/><circle cx="871" cy="97" r="3" fill="#fff3bb" opacity="0.62"/><circle cx="68" cy="67" r="5" fill="#36f3ff" opacity="0.42"/><circle cx="165" cy="179" r="2" fill="#fff3bb" opacity="0.62"/><circle cx="262" cy="246" r="4" fill="#36f3ff" opacity="0.42"/><circle cx="359" cy="176" r="6" fill="#fff3bb" opacity="0.62"/><circle cx="456" cy="153" r="3" fill="#36f3ff" opacity="0.42"/><circle cx="553" cy="38" r="5" fill="#fff3bb" opacity="0.62"/><circle cx="650" cy="248" r="2" fill="#36f3ff" opacity="0.42"/><circle cx="747" cy="108" r="4" fill="#fff3bb" opacity="0.62"/><circle cx="844" cy="50" r="6" fill="#36f3ff" opacity="0.42"/>
  <path d="M0 294 C140 228, 260 280, 390 226 S700 266, 960 218 L960 420 L0 420 Z" fill="#07101b" opacity="0.5"/>
  <g transform="translate(121 224.84) scale(0.78)"><rect x="0" y="38" width="98" height="96" rx="18" fill="#0b1824" opacity="0.9"/><path d="M-14 44 L49 0 L112 44 Z" fill="#36f3ff" opacity="0.42"/><circle cx="49" cy="72" r="18" fill="#36f3ff" opacity="0.36"/><rect x="38" y="86" width="22" height="48" rx="10" fill="#fff4cc" opacity="0.48"/></g>
  <g transform="translate(713 227.04) scale(0.68)"><rect x="0" y="38" width="98" height="96" rx="18" fill="#0b1824" opacity="0.9"/><path d="M-14 44 L49 0 L112 44 Z" fill="#36f3ff" opacity="0.42"/><circle cx="49" cy="72" r="18" fill="#36f3ff" opacity="0.36"/><rect x="38" y="86" width="22" height="48" rx="10" fill="#fff4cc" opacity="0.48"/></g>
  <ellipse cx="365" cy="287" rx="212" ry="52" fill="#06101b" opacity="0.72"/>
  <path d="M155 297 Q365 83 575 297 Z" fill="#36f3ff" opacity="0.36"/>
  <path d="M193 295 Q365 139 537 295" fill="none" stroke="#fff6d2" stroke-width="7" opacity="0.45"/>
  <rect x="215.0" y="267" width="18" height="125" rx="8" fill="#eaf8ff" opacity="0.42"/><rect x="221.0" y="279" width="6" height="101" rx="3" fill="#36f3ff" opacity="0.55"/><rect x="265.0" y="267" width="18" height="127" rx="8" fill="#eaf8ff" opacity="0.42"/><rect x="271.0" y="279" width="6" height="103" rx="3" fill="#36f3ff" opacity="0.55"/><rect x="315.0" y="267" width="18" height="107" rx="8" fill="#eaf8ff" opacity="0.42"/><rect x="321.0" y="279" width="6" height="83" rx="3" fill="#36f3ff" opacity="0.55"/><rect x="365.0" y="267" width="18" height="97" rx="8" fill="#eaf8ff" opacity="0.42"/><rect x="371.0" y="279" width="6" height="73" rx="3" fill="#36f3ff" opacity="0.55"/><rect x="415.0" y="267" width="18" height="113" rx="8" fill="#eaf8ff" opacity="0.42"/><rect x="421.0" y="279" width="6" height="89" rx="3" fill="#36f3ff" opacity="0.55"/><rect x="465.0" y="267" width="18" height="100" rx="8" fill="#eaf8ff" opacity="0.42"/><rect x="471.0" y="279" width="6" height="76" rx="3" fill="#36f3ff" opacity="0.55"/><rect x="515.0" y="267" width="18" height="115" rx="8" fill="#eaf8ff" opacity="0.42"/><rect x="521.0" y="279" width="6" height="91" rx="3" fill="#36f3ff" opacity="0.55"/>
  <rect x="159" y="309" width="412" height="122" rx="32" fill="#0a1724" opacity="0.88"/>
  <circle cx="365" cy="336" r="86" fill="url(#heart-sanctuary-25)" filter="url(#glow-sanctuary-25)" opacity="0.95"/>
  <path d="M0 360 C132 338, 210 386, 350 354 S620 328, 960 366 L960 420 L0 420 Z" fill="#0f2330" opacity="0.82"/>
  <path d="M100 384 C253 326, 469 414, 629 356" fill="none" stroke="#c8fbff" stroke-width="5" opacity="0.32"/>
  <text x="28" y="40" fill="#c8fbff" font-family="monospace" font-size="18" letter-spacing="5" opacity="0.5">RF 25 NEON CANAL</text>
</svg>