<svg xmlns="http://www.w3.org/2000/svg" viewBox="0 0 960 420" role="img" aria-label="sanctuary-27 unique sanctuary art">
  <defs>
    <linearGradient id="sky-sanctuary-27" x1="0" y1="0" x2="1" y2="1"><stop offset="0" stop-color="#071326"/><stop offset="0.55" stop-color="#194b63"/><stop offset="1" stop-color="#05060d"/></linearGradient>
    <radialGradient id="heart-sanctuary-27" cx="50%" cy="50%" r="55%"><stop offset="0" stop-color="#fff8d0"/><stop offset="0.38" stop-color="#ffdd8a" stop-opacity="0.78"/><stop offset="1" stop-color="#ffdd8a" stop-opacity="0"/></radialGradient>
    <filter id="glow-sanctuary-27" x="-25%" y="-25%" width="150%" height="150%"><feGaussianBlur stdDeviation="6" result="b"/><feMerge><feMergeNode in="b"/><feMergeNode in="SourceGraphic"/></feMerge></filter>
  </defs>
  <rect width="960" height="420" fill="url(#sky-sanctuary-27)"/>
  <circle cx="457" cy="55" r="4" fill="#fff3bb" opacity="0.62"/><circle cx="554" cy="184" r="6" fill="#ffdd8a" opacity="0.42"/><circle cx="651" cy="145" r="3" fill="#fff3bb" opacity="0.62"/><circle cx="748" cy="137" r="5" fill="#ffdd8a" opacity="0.42"/><circle cx="845" cy="145" r="2" fill="#fff3bb" opacity="0.62"/><circle cx="42" cy="45" r="4" fill="#ffdd8a" opacity="0.42"/><circle cx="139" cy="237" r="6" fill="#fff3bb" opacity="0.62"/><circle cx="236" cy="229" r="3" fill="#ffdd8a" opacity="0.42"/><circle cx="333" cy="122" r="5" fill="#fff3bb" opacity="0.62"/><circle cx="430" cy="80" r="2" fill="#ffdd8a" opacity="0.42"/><circle cx="527" cy="70" r="4" fill="#fff3bb" opacity="0.62"/><circle cx="624" cy="192" r="6" fill="#ffdd8a" opacity="0.42"/><circle cx="721" cy="264" r="3" fill="#fff3bb" opacity="0.62"/><circle cx="818" cy="197" r="5" fill="#ffdd8a" opacity="0.42"/><circle cx="915" cy="60" r="2" fill="#fff3bb" opacity="0.62"/><circle cx="112" cy="170" r="4" fill="#ffdd8a" opacity="0.42"/><circle cx="209" cy="69" r="6" fill="#fff3bb" opacity="0.62"/><circle cx="306" cy="260" r="3" fill="#ffdd8a" opacity="0.42"/>
  <path d="M0 294 C140 228, 260 280, 390 226 S700 266, 960 218 L960 420 L0 420 Z" fill="#07101b" opacity="0.5"/>
  <g transform="translate(83 224.84) scale(0.78)"><rect x="0" y="38" width="98" height="96" rx="18" fill="#0b1824" opacity="0.9"/><path d="M-14 44 L49 0 L112 44 Z" fill="#ffdd8a" opacity="0.42"/><circle cx="49" cy="72" r="18" fill="#ffdd8a" opacity="0.36"/><rect x="38" y="86" width="22" height="48" rx="10" fill="#fff4cc" opacity="0.48"/></g>
  <g transform="translate(683 227.04) scale(0.68)"><rect x="0" y="38" width="98" height="96" rx="18" fill="#0b1824" opacity="0.9"/><path d="M-14 44 L49 0 L112 44 Z" fill="#ffdd8a" opacity="0.42"/><circle cx="49" cy="72" r="18" fill="#ffdd8a" opacity="0.36"/><rect x="38" y="86" width="22" height="48" rx="10" fill="#fff4cc" opacity="0.48"/></g>
  <ellipse cx="647" cy="302" rx="212" ry="52" fill="#06101b" opacity="0.72"/>
  <path d="M437 312 Q647 98 857 312 Z" fill="#ffdd8a" opacity="0.36"/>
  <path d="M475 310 Q647 154 819 310" fill="none" stroke="#fff6d2" stroke-width="7" opacity="0.45"/>
  <rect x="497.0" y="282" width="18" height="101" rx="8" fill="#eaf8ff" opacity="0.42"/><rect x="503.0" y="294" width="6" height="77" rx="3" fill="#ffdd8a" opacity="0.55"/><rect x="572.0" y="282" width="18" height="94" rx="8" fill="#eaf8ff" opacity="0.42"/><rect x="578.0" y="294" width="6" height="70" rx="3" fill="#ffdd8a" opacity="0.55"/><rect x="647.0" y="282" width="18" height="91" rx="8" fill="#eaf8ff" opacity="0.42"/><rect x="653.0" y="294" width="6" height="67" rx="3" fill="#ffdd8a" opacity="0.55"/><rect x="722.0" y="282" width="18" height="110" rx="8" fill="#eaf8ff" opacity="0.42"/><rect x="728.0" y="294" width="6" height="86" rx="3" fill="#ffdd8a" opacity="0.55"/><rect x="797.0" y="282" width="18" height="99" rx="8" fill="#eaf8ff" opacity="0.42"/><rect x="803.0" y="294" width="6" height="75" rx="3" fill="#ffdd8a" opacity="0.55"/>
  <rect x="441" y="324" width="412" height="122" rx="32" fill="#0a1724" opacity="0.88"/>
  <circle cx="647" cy="351" r="86" fill="url(#heart-sanctuary-27)" filter="url(#glow-sanctuary-27)" opacity="0.95"/>
  <path d="M0 360 C132 338, 210 386, 350 354 S620 328, 960 366 L960 420 L0 420 Z" fill="#0f2330" opacity="0.82"/>
  <path d="M382 384 C535 326, 751 414, 911 356" fill="none" stroke="#fff4cf" stroke-width="5" opacity="0.32"/>
  <text x="28" y="40" fill="#fff4cf" font-family="monospace" font-size="18" letter-spacing="5" opacity="0.5">RF 27 SANCTUARY</text>
</svg>