<svg xmlns="http://www.w3.org/2000/svg" viewBox="0 0 960 420" role="img" aria-label="sanctuary-43 unique sanctuary art">
  <defs>
    <linearGradient id="sky-sanctuary-43" x1="0" y1="0" x2="1" y2="1"><stop offset="0" stop-color="#071326"/><stop offset="0.55" stop-color="#1e5a28"/><stop offset="1" stop-color="#05060d"/></linearGradient>
    <radialGradient id="heart-sanctuary-43" cx="50%" cy="50%" r="55%"><stop offset="0" stop-color="#fff8d0"/><stop offset="0.38" stop-color="#8dff72" stop-opacity="0.78"/><stop offset="1" stop-color="#8dff72" stop-opacity="0"/></radialGradient>
    <filter id="glow-sanctuary-43" x="-25%" y="-25%" width="150%" height="150%"><feGaussianBlur stdDeviation="6" result="b"/><feMerge><feMergeNode in="b"/><feMergeNode in="SourceGraphic"/></feMerge></filter>
  </defs>
  <rect width="960" height="420" fill="url(#sky-sanctuary-43)"/>
  <circle cx="43" cy="171" r="5" fill="#fff3bb" opacity="0.62"/><circle cx="140" cy="127" r="2" fill="#8dff72" opacity="0.42"/><circle cx="237" cy="232" r="4" fill="#fff3bb" opacity="0.62"/><circle cx="334" cy="181" r="6" fill="#8dff72" opacity="0.42"/><circle cx="431" cy="52" r="3" fill="#fff3bb" opacity="0.62"/><circle cx="528" cy="229" r="5" fill="#8dff72" opacity="0.42"/><circle cx="625" cy="214" r="2" fill="#fff3bb" opacity="0.62"/><circle cx="722" cy="218" r="4" fill="#8dff72" opacity="0.42"/><circle cx="819" cy="231" r="6" fill="#fff3bb" opacity="0.62"/><circle cx="916" cy="249" r="3" fill="#8dff72" opacity="0.42"/><circle cx="113" cy="40" r="5" fill="#fff3bb" opacity="0.62"/><circle cx="210" cy="62" r="2" fill="#8dff72" opacity="0.42"/><circle cx="307" cy="199" r="4" fill="#fff3bb" opacity="0.62"/><circle cx="404" cy="164" r="6" fill="#8dff72" opacity="0.42"/><circle cx="501" cy="43" r="3" fill="#fff3bb" opacity="0.62"/><circle cx="598" cy="56" r="5" fill="#8dff72" opacity="0.42"/><circle cx="695" cy="242" r="2" fill="#fff3bb" opacity="0.62"/><circle cx="792" cy="117" r="4" fill="#8dff72" opacity="0.42"/>
  <path d="M0 294 C140 228, 260 280, 390 226 S700 266, 960 218 L960 420 L0 420 Z" fill="#07101b" opacity="0.5"/>
  <g transform="translate(109 224.84) scale(0.78)"><rect x="0" y="38" width="98" height="96" rx="18" fill="#0b1824" opacity="0.9"/><path d="M-14 44 L49 0 L112 44 Z" fill="#8dff72" opacity="0.42"/><circle cx="49" cy="72" r="18" fill="#8dff72" opacity="0.36"/><rect x="38" y="86" width="22" height="48" rx="10" fill="#fff4cc" opacity="0.48"/></g>
  <g transform="translate(684 227.04) scale(0.68)"><rect x="0" y="38" width="98" height="96" rx="18" fill="#0b1824" opacity="0.9"/><path d="M-14 44 L49 0 L112 44 Z" fill="#8dff72" opacity="0.42"/><circle cx="49" cy="72" r="18" fill="#8dff72" opacity="0.36"/><rect x="38" y="86" width="22" height="48" rx="10" fill="#fff4cc" opacity="0.48"/></g>
  <ellipse cx="433" cy="302" rx="212" ry="52" fill="#06101b" opacity="0.72"/>
  <path d="M223 312 Q433 98 643 312 Z" fill="#8dff72" opacity="0.36"/>
  <path d="M261 310 Q433 154 605 310" fill="none" stroke="#fff6d2" stroke-width="7" opacity="0.45"/>
  <rect x="283.0" y="282" width="18" height="118" rx="8" fill="#eaf8ff" opacity="0.42"/><rect x="289.0" y="294" width="6" height="94" rx="3" fill="#8dff72" opacity="0.55"/><rect x="320.5" y="282" width="18" height="124" rx="8" fill="#eaf8ff" opacity="0.42"/><rect x="326.5" y="294" width="6" height="100" rx="3" fill="#8dff72" opacity="0.55"/><rect x="358.0" y="282" width="18" height="106" rx="8" fill="#eaf8ff" opacity="0.42"/><rect x="364.0" y="294" width="6" height="82" rx="3" fill="#8dff72" opacity="0.55"/><rect x="395.5" y="282" width="18" height="118" rx="8" fill="#eaf8ff" opacity="0.42"/><rect x="401.5" y="294" width="6" height="94" rx="3" fill="#8dff72" opacity="0.55"/><rect x="433.0" y="282" width="18" height="124" rx="8" fill="#eaf8ff" opacity="0.42"/><rect x="439.0" y="294" width="6" height="100" rx="3" fill="#8dff72" opacity="0.55"/><rect x="470.5" y="282" width="18" height="127" rx="8" fill="#eaf8ff" opacity="0.42"/><rect x="476.5" y="294" width="6" height="103" rx="3" fill="#8dff72" opacity="0.55"/><rect x="508.0" y="282" width="18" height="107" rx="8" fill="#eaf8ff" opacity="0.42"/><rect x="514.0" y="294" width="6" height="83" rx="3" fill="#8dff72" opacity="0.55"/><rect x="545.5" y="282" width="18" height="118" rx="8" fill="#eaf8ff" opacity="0.42"/><rect x="551.5" y="294" width="6" height="94" rx="3" fill="#8dff72" opacity="0.55"/><rect x="583.0" y="282" width="18" height="124" rx="8" fill="#eaf8ff" opacity="0.42"/><rect x="589.0" y="294" width="6" height="100" rx="3" fill="#8dff72" opacity="0.55"/>
  <rect x="227" y="324" width="412" height="122" rx="32" fill="#0a1724" opacity="0.88"/>
  <circle cx="433" cy="351" r="86" fill="url(#heart-sanctuary-43)" filter="url(#glow-sanctuary-43)" opacity="0.95"/>
  <path d="M0 360 C132 338, 210 386, 350 354 S620 328, 960 366 L960 420 L0 420 Z" fill="#0f2330" opacity="0.82"/>
  <path d="M168 384 C321 326, 537 414, 697 356" fill="none" stroke="#e8ffe3" stroke-width="5" opacity="0.32"/>
  <text x="28" y="40" fill="#e8ffe3" font-family="monospace" font-size="18" letter-spacing="5" opacity="0.5">RF 43 MYCEL FOREST</text>
</svg>