<svg xmlns="http://www.w3.org/2000/svg" viewBox="0 0 960 420" role="img" aria-label="sanctuary-9 unique sanctuary art">
  <defs>
    <linearGradient id="sky-sanctuary-9" x1="0" y1="0" x2="1" y2="1"><stop offset="0" stop-color="#071326"/><stop offset="0.55" stop-color="#194b63"/><stop offset="1" stop-color="#05060d"/></linearGradient>
    <radialGradient id="heart-sanctuary-9" cx="50%" cy="50%" r="55%"><stop offset="0" stop-color="#fff8d0"/><stop offset="0.38" stop-color="#ffdd8a" stop-opacity="0.78"/><stop offset="1" stop-color="#ffdd8a" stop-opacity="0"/></radialGradient>
    <filter id="glow-sanctuary-9" x="-25%" y="-25%" width="150%" height="150%"><feGaussianBlur stdDeviation="6" result="b"/><feMerge><feMergeNode in="b"/><feMergeNode in="SourceGraphic"/></feMerge></filter>
  </defs>
  <rect width="960" height="420" fill="url(#sky-sanctuary-9)"/>
  <circle cx="557" cy="55" r="4" fill="#fff3bb" opacity="0.62"/><circle cx="654" cy="184" r="6" fill="#ffdd8a" opacity="0.42"/><circle cx="751" cy="145" r="3" fill="#fff3bb" opacity="0.62"/><circle cx="848" cy="252" r="5" fill="#ffdd8a" opacity="0.42"/><circle cx="45" cy="202" r="2" fill="#fff3bb" opacity="0.62"/><circle cx="142" cy="74" r="4" fill="#ffdd8a" opacity="0.42"/><circle cx="239" cy="251" r="6" fill="#fff3bb" opacity="0.62"/><circle cx="336" cy="121" r="3" fill="#ffdd8a" opacity="0.42"/><circle cx="433" cy="68" r="5" fill="#fff3bb" opacity="0.62"/><circle cx="530" cy="53" r="2" fill="#ffdd8a" opacity="0.42"/><circle cx="627" cy="172" r="4" fill="#fff3bb" opacity="0.62"/><circle cx="724" cy="243" r="6" fill="#ffdd8a" opacity="0.42"/><circle cx="821" cy="175" r="3" fill="#fff3bb" opacity="0.62"/><circle cx="918" cy="267" r="5" fill="#ffdd8a" opacity="0.42"/><circle cx="115" cy="95" r="2" fill="#fff3bb" opacity="0.62"/><circle cx="212" cy="170" r="4" fill="#ffdd8a" opacity="0.42"/><circle cx="309" cy="69" r="6" fill="#fff3bb" opacity="0.62"/><circle cx="406" cy="260" r="3" fill="#ffdd8a" opacity="0.42"/>
  <path d="M0 294 C140 228, 260 280, 390 226 S700 266, 960 218 L960 420 L0 420 Z" fill="#07101b" opacity="0.5"/>
  <g transform="translate(123 224.84) scale(0.78)"><rect x="0" y="38" width="98" height="96" rx="18" fill="#0b1824" opacity="0.9"/><path d="M-14 44 L49 0 L112 44 Z" fill="#ffdd8a" opacity="0.42"/><circle cx="49" cy="72" r="18" fill="#ffdd8a" opacity="0.36"/><rect x="38" y="86" width="22" height="48" rx="10" fill="#fff4cc" opacity="0.48"/></g>
  <g transform="translate(718 227.04) scale(0.68)"><rect x="0" y="38" width="98" height="96" rx="18" fill="#0b1824" opacity="0.9"/><path d="M-14 44 L49 0 L112 44 Z" fill="#ffdd8a" opacity="0.42"/><circle cx="49" cy="72" r="18" fill="#ffdd8a" opacity="0.36"/><rect x="38" y="86" width="22" height="48" rx="10" fill="#fff4cc" opacity="0.48"/></g>
  <ellipse cx="607" cy="285" rx="212" ry="52" fill="#06101b" opacity="0.72"/>
  <path d="M397 295 Q607 81 817 295 Z" fill="#ffdd8a" opacity="0.36"/>
  <path d="M435 293 Q607 137 779 293" fill="none" stroke="#fff6d2" stroke-width="7" opacity="0.45"/>
  <rect x="457.0" y="265" width="18" height="93" rx="8" fill="#eaf8ff" opacity="0.42"/><rect x="463.0" y="277" width="6" height="69" rx="3" fill="#ffdd8a" opacity="0.55"/><rect x="499.9" y="265" width="18" height="111" rx="8" fill="#eaf8ff" opacity="0.42"/><rect x="505.9" y="277" width="6" height="87" rx="3" fill="#ffdd8a" opacity="0.55"/><rect x="542.7" y="265" width="18" height="120" rx="8" fill="#eaf8ff" opacity="0.42"/><rect x="548.7" y="277" width="6" height="96" rx="3" fill="#ffdd8a" opacity="0.55"/><rect x="585.6" y="265" width="18" height="125" rx="8" fill="#eaf8ff" opacity="0.42"/><rect x="591.6" y="277" width="6" height="101" rx="3" fill="#ffdd8a" opacity="0.55"/><rect x="628.4" y="265" width="18" height="127" rx="8" fill="#eaf8ff" opacity="0.42"/><rect x="634.4" y="277" width="6" height="103" rx="3" fill="#ffdd8a" opacity="0.55"/><rect x="671.3" y="265" width="18" height="128" rx="8" fill="#eaf8ff" opacity="0.42"/><rect x="677.3" y="277" width="6" height="104" rx="3" fill="#ffdd8a" opacity="0.55"/><rect x="714.1" y="265" width="18" height="108" rx="8" fill="#eaf8ff" opacity="0.42"/><rect x="720.1" y="277" width="6" height="84" rx="3" fill="#ffdd8a" opacity="0.55"/><rect x="757.0" y="265" width="18" height="98" rx="8" fill="#eaf8ff" opacity="0.42"/><rect x="763.0" y="277" width="6" height="74" rx="3" fill="#ffdd8a" opacity="0.55"/>
  <rect x="401" y="307" width="412" height="122" rx="32" fill="#0a1724" opacity="0.88"/>
  <circle cx="607" cy="334" r="86" fill="url(#heart-sanctuary-9)" filter="url(#glow-sanctuary-9)" opacity="0.95"/>
  <path d="M0 360 C132 338, 210 386, 350 354 S620 328, 960 366 L960 420 L0 420 Z" fill="#0f2330" opacity="0.82"/>
  <path d="M342 384 C495 326, 711 414, 871 356" fill="none" stroke="#fff4cf" stroke-width="5" opacity="0.32"/>
  <text x="28" y="40" fill="#fff4cf" font-family="monospace" font-size="18" letter-spacing="5" opacity="0.5">RF 09 SANCTUARY</text>
</svg>