<svg xmlns="http://www.w3.org/2000/svg" viewBox="0 0 960 420" role="img" aria-label="sanctuary-7 unique sanctuary art">
  <defs>
    <linearGradient id="sky-sanctuary-7" x1="0" y1="0" x2="1" y2="1"><stop offset="0" stop-color="#071326"/><stop offset="0.55" stop-color="#1e5a28"/><stop offset="1" stop-color="#05060d"/></linearGradient>
    <radialGradient id="heart-sanctuary-7" cx="50%" cy="50%" r="55%"><stop offset="0" stop-color="#fff8d0"/><stop offset="0.38" stop-color="#8dff72" stop-opacity="0.78"/><stop offset="1" stop-color="#8dff72" stop-opacity="0"/></radialGradient>
    <filter id="glow-sanctuary-7" x="-25%" y="-25%" width="150%" height="150%"><feGaussianBlur stdDeviation="6" result="b"/><feMerge><feMergeNode in="b"/><feMergeNode in="SourceGraphic"/></feMerge></filter>
  </defs>
  <rect width="960" height="420" fill="url(#sky-sanctuary-7)"/>
  <circle cx="371" cy="59" r="3" fill="#fff3bb" opacity="0.62"/><circle cx="468" cy="71" r="5" fill="#8dff72" opacity="0.42"/><circle cx="565" cy="204" r="2" fill="#fff3bb" opacity="0.62"/><circle cx="662" cy="167" r="4" fill="#8dff72" opacity="0.42"/><circle cx="759" cy="160" r="6" fill="#fff3bb" opacity="0.62"/><circle cx="856" cy="168" r="3" fill="#8dff72" opacity="0.42"/><circle cx="53" cy="183" r="5" fill="#fff3bb" opacity="0.62"/><circle cx="150" cy="202" r="2" fill="#8dff72" opacity="0.42"/><circle cx="247" cy="223" r="4" fill="#fff3bb" opacity="0.62"/><circle cx="344" cy="245" r="6" fill="#8dff72" opacity="0.42"/><circle cx="441" cy="38" r="3" fill="#fff3bb" opacity="0.62"/><circle cx="538" cy="176" r="5" fill="#8dff72" opacity="0.42"/><circle cx="635" cy="141" r="2" fill="#fff3bb" opacity="0.62"/><circle cx="732" cy="135" r="4" fill="#8dff72" opacity="0.42"/><circle cx="829" cy="259" r="6" fill="#fff3bb" opacity="0.62"/><circle cx="926" cy="174" r="3" fill="#8dff72" opacity="0.42"/><circle cx="123" cy="186" r="5" fill="#fff3bb" opacity="0.62"/><circle cx="220" cy="89" r="2" fill="#8dff72" opacity="0.42"/>
  <path d="M0 294 C140 228, 260 280, 390 226 S700 266, 960 218 L960 420 L0 420 Z" fill="#07101b" opacity="0.5"/>
  <g transform="translate(77 224.84) scale(0.78)"><rect x="0" y="38" width="98" height="96" rx="18" fill="#0b1824" opacity="0.9"/><path d="M-14 44 L49 0 L112 44 Z" fill="#8dff72" opacity="0.42"/><circle cx="49" cy="72" r="18" fill="#8dff72" opacity="0.36"/><rect x="38" y="86" width="22" height="48" rx="10" fill="#fff4cc" opacity="0.48"/></g>
  <g transform="translate(714 227.04) scale(0.68)"><rect x="0" y="38" width="98" height="96" rx="18" fill="#0b1824" opacity="0.9"/><path d="M-14 44 L49 0 L112 44 Z" fill="#8dff72" opacity="0.42"/><circle cx="49" cy="72" r="18" fill="#8dff72" opacity="0.36"/><rect x="38" y="86" width="22" height="48" rx="10" fill="#fff4cc" opacity="0.48"/></g>
  <ellipse cx="521" cy="287" rx="212" ry="52" fill="#06101b" opacity="0.72"/>
  <path d="M311 297 Q521 83 731 297 Z" fill="#8dff72" opacity="0.36"/>
  <path d="M349 295 Q521 139 693 295" fill="none" stroke="#fff6d2" stroke-width="7" opacity="0.45"/>
  <rect x="371.0" y="267" width="18" height="122" rx="8" fill="#eaf8ff" opacity="0.42"/><rect x="377.0" y="279" width="6" height="98" rx="3" fill="#8dff72" opacity="0.55"/><rect x="446.0" y="267" width="18" height="126" rx="8" fill="#eaf8ff" opacity="0.42"/><rect x="452.0" y="279" width="6" height="102" rx="3" fill="#8dff72" opacity="0.55"/><rect x="521.0" y="267" width="18" height="128" rx="8" fill="#eaf8ff" opacity="0.42"/><rect x="527.0" y="279" width="6" height="104" rx="3" fill="#8dff72" opacity="0.55"/><rect x="596.0" y="267" width="18" height="129" rx="8" fill="#eaf8ff" opacity="0.42"/><rect x="602.0" y="279" width="6" height="105" rx="3" fill="#8dff72" opacity="0.55"/><rect x="671.0" y="267" width="18" height="129" rx="8" fill="#eaf8ff" opacity="0.42"/><rect x="677.0" y="279" width="6" height="105" rx="3" fill="#8dff72" opacity="0.55"/>
  <rect x="315" y="309" width="412" height="122" rx="32" fill="#0a1724" opacity="0.88"/>
  <circle cx="521" cy="336" r="86" fill="url(#heart-sanctuary-7)" filter="url(#glow-sanctuary-7)" opacity="0.95"/>
  <path d="M0 360 C132 338, 210 386, 350 354 S620 328, 960 366 L960 420 L0 420 Z" fill="#0f2330" opacity="0.82"/>
  <path d="M256 384 C409 326, 625 414, 785 356" fill="none" stroke="#e8ffe3" stroke-width="5" opacity="0.32"/>
  <text x="28" y="40" fill="#e8ffe3" font-family="monospace" font-size="18" letter-spacing="5" opacity="0.5">RF 07 MYCEL FOREST</text>
</svg>