<svg xmlns="http://www.w3.org/2000/svg" viewBox="0 0 960 420" role="img" aria-label="sanctuary-31 unique sanctuary art">
  <defs>
    <linearGradient id="sky-sanctuary-31" x1="0" y1="0" x2="1" y2="1"><stop offset="0" stop-color="#071326"/><stop offset="0.55" stop-color="#1e5a28"/><stop offset="1" stop-color="#05060d"/></linearGradient>
    <radialGradient id="heart-sanctuary-31" cx="50%" cy="50%" r="55%"><stop offset="0" stop-color="#fff8d0"/><stop offset="0.38" stop-color="#8dff72" stop-opacity="0.78"/><stop offset="1" stop-color="#8dff72" stop-opacity="0"/></radialGradient>
    <filter id="glow-sanctuary-31" x="-25%" y="-25%" width="150%" height="150%"><feGaussianBlur stdDeviation="6" result="b"/><feMerge><feMergeNode in="b"/><feMergeNode in="SourceGraphic"/></feMerge></filter>
  </defs>
  <rect width="960" height="420" fill="url(#sky-sanctuary-31)"/>
  <circle cx="490" cy="258" r="2" fill="#fff3bb" opacity="0.62"/><circle cx="587" cy="171" r="4" fill="#8dff72" opacity="0.42"/><circle cx="684" cy="139" r="6" fill="#fff3bb" opacity="0.62"/><circle cx="781" cy="249" r="3" fill="#8dff72" opacity="0.42"/><circle cx="878" cy="201" r="5" fill="#fff3bb" opacity="0.62"/><circle cx="75" cy="73" r="2" fill="#8dff72" opacity="0.42"/><circle cx="172" cy="136" r="4" fill="#fff3bb" opacity="0.62"/><circle cx="269" cy="179" r="6" fill="#8dff72" opacity="0.42"/><circle cx="366" cy="212" r="3" fill="#fff3bb" opacity="0.62"/><circle cx="463" cy="125" r="5" fill="#8dff72" opacity="0.42"/><circle cx="560" cy="93" r="2" fill="#fff3bb" opacity="0.62"/><circle cx="657" cy="88" r="4" fill="#8dff72" opacity="0.42"/><circle cx="754" cy="212" r="6" fill="#fff3bb" opacity="0.62"/><circle cx="851" cy="171" r="3" fill="#8dff72" opacity="0.42"/><circle cx="48" cy="47" r="5" fill="#fff3bb" opacity="0.62"/><circle cx="145" cy="143" r="2" fill="#8dff72" opacity="0.42"/><circle cx="242" cy="56" r="4" fill="#fff3bb" opacity="0.62"/><circle cx="339" cy="254" r="6" fill="#8dff72" opacity="0.42"/>
  <path d="M0 294 C140 228, 260 280, 390 226 S700 266, 960 218 L960 420 L0 420 Z" fill="#07101b" opacity="0.5"/>
  <g transform="translate(96 224.84) scale(0.78)"><rect x="0" y="38" width="98" height="96" rx="18" fill="#0b1824" opacity="0.9"/><path d="M-14 44 L49 0 L112 44 Z" fill="#8dff72" opacity="0.42"/><circle cx="49" cy="72" r="18" fill="#8dff72" opacity="0.36"/><rect x="38" y="86" width="22" height="48" rx="10" fill="#fff4cc" opacity="0.48"/></g>
  <g transform="translate(719 227.04) scale(0.68)"><rect x="0" y="38" width="98" height="96" rx="18" fill="#0b1824" opacity="0.9"/><path d="M-14 44 L49 0 L112 44 Z" fill="#8dff72" opacity="0.42"/><circle cx="49" cy="72" r="18" fill="#8dff72" opacity="0.36"/><rect x="38" y="86" width="22" height="48" rx="10" fill="#fff4cc" opacity="0.48"/></g>
  <ellipse cx="400" cy="284" rx="212" ry="52" fill="#06101b" opacity="0.72"/>
  <path d="M190 294 Q400 80 610 294 Z" fill="#8dff72" opacity="0.36"/>
  <path d="M228 292 Q400 136 572 292" fill="none" stroke="#fff6d2" stroke-width="7" opacity="0.45"/>
  <rect x="250.0" y="264" width="18" height="107" rx="8" fill="#eaf8ff" opacity="0.42"/><rect x="256.0" y="276" width="6" height="83" rx="3" fill="#8dff72" opacity="0.55"/><rect x="325.0" y="264" width="18" height="118" rx="8" fill="#eaf8ff" opacity="0.42"/><rect x="331.0" y="276" width="6" height="94" rx="3" fill="#8dff72" opacity="0.55"/><rect x="400.0" y="264" width="18" height="103" rx="8" fill="#eaf8ff" opacity="0.42"/><rect x="406.0" y="276" width="6" height="79" rx="3" fill="#8dff72" opacity="0.55"/><rect x="475.0" y="264" width="18" height="116" rx="8" fill="#eaf8ff" opacity="0.42"/><rect x="481.0" y="276" width="6" height="92" rx="3" fill="#8dff72" opacity="0.55"/><rect x="550.0" y="264" width="18" height="102" rx="8" fill="#eaf8ff" opacity="0.42"/><rect x="556.0" y="276" width="6" height="78" rx="3" fill="#8dff72" opacity="0.55"/>
  <rect x="194" y="306" width="412" height="122" rx="32" fill="#0a1724" opacity="0.88"/>
  <circle cx="400" cy="333" r="86" fill="url(#heart-sanctuary-31)" filter="url(#glow-sanctuary-31)" opacity="0.95"/>
  <path d="M0 360 C132 338, 210 386, 350 354 S620 328, 960 366 L960 420 L0 420 Z" fill="#0f2330" opacity="0.82"/>
  <path d="M135 384 C288 326, 504 414, 664 356" fill="none" stroke="#e8ffe3" stroke-width="5" opacity="0.32"/>
  <text x="28" y="40" fill="#e8ffe3" font-family="monospace" font-size="18" letter-spacing="5" opacity="0.5">RF 31 MYCEL FOREST</text>
</svg>