<svg xmlns="http://www.w3.org/2000/svg" viewBox="0 0 960 420" role="img" aria-label="sanctuary-30 unique sanctuary art">
  <defs>
    <linearGradient id="sky-sanctuary-30" x1="0" y1="0" x2="1" y2="1"><stop offset="0" stop-color="#071326"/><stop offset="0.55" stop-color="#194b63"/><stop offset="1" stop-color="#05060d"/></linearGradient>
    <radialGradient id="heart-sanctuary-30" cx="50%" cy="50%" r="55%"><stop offset="0" stop-color="#fff8d0"/><stop offset="0.38" stop-color="#ffdd8a" stop-opacity="0.78"/><stop offset="1" stop-color="#ffdd8a" stop-opacity="0"/></radialGradient>
    <filter id="glow-sanctuary-30" x="-25%" y="-25%" width="150%" height="150%"><feGaussianBlur stdDeviation="6" result="b"/><feMerge><feMergeNode in="b"/><feMergeNode in="SourceGraphic"/></feMerge></filter>
  </defs>
  <rect width="960" height="420" fill="url(#sky-sanctuary-30)"/>
  <circle cx="309" cy="67" r="6" fill="#fff3bb" opacity="0.62"/><circle cx="406" cy="190" r="3" fill="#ffdd8a" opacity="0.42"/><circle cx="503" cy="263" r="5" fill="#fff3bb" opacity="0.62"/><circle cx="600" cy="81" r="2" fill="#ffdd8a" opacity="0.42"/><circle cx="697" cy="232" r="4" fill="#fff3bb" opacity="0.62"/><circle cx="794" cy="204" r="6" fill="#ffdd8a" opacity="0.42"/><circle cx="891" cy="86" r="3" fill="#fff3bb" opacity="0.62"/><circle cx="88" cy="154" r="5" fill="#ffdd8a" opacity="0.42"/><circle cx="185" cy="199" r="2" fill="#fff3bb" opacity="0.62"/><circle cx="282" cy="233" r="4" fill="#ffdd8a" opacity="0.42"/><circle cx="379" cy="147" r="6" fill="#fff3bb" opacity="0.62"/><circle cx="476" cy="230" r="3" fill="#ffdd8a" opacity="0.42"/><circle cx="573" cy="168" r="5" fill="#fff3bb" opacity="0.62"/><circle cx="670" cy="149" r="2" fill="#ffdd8a" opacity="0.42"/><circle cx="767" cy="151" r="4" fill="#fff3bb" opacity="0.62"/><circle cx="864" cy="182" r="6" fill="#ffdd8a" opacity="0.42"/><circle cx="61" cy="75" r="3" fill="#fff3bb" opacity="0.62"/><circle cx="158" cy="148" r="5" fill="#ffdd8a" opacity="0.42"/>
  <path d="M0 294 C140 228, 260 280, 390 226 S700 266, 960 218 L960 420 L0 420 Z" fill="#07101b" opacity="0.5"/>
  <g transform="translate(115 224.84) scale(0.78)"><rect x="0" y="38" width="98" height="96" rx="18" fill="#0b1824" opacity="0.9"/><path d="M-14 44 L49 0 L112 44 Z" fill="#ffdd8a" opacity="0.42"/><circle cx="49" cy="72" r="18" fill="#ffdd8a" opacity="0.36"/><rect x="38" y="86" width="22" height="48" rx="10" fill="#fff4cc" opacity="0.48"/></g>
  <g transform="translate(734 227.04) scale(0.68)"><rect x="0" y="38" width="98" height="96" rx="18" fill="#0b1824" opacity="0.9"/><path d="M-14 44 L49 0 L112 44 Z" fill="#ffdd8a" opacity="0.42"/><circle cx="49" cy="72" r="18" fill="#ffdd8a" opacity="0.36"/><rect x="38" y="86" width="22" height="48" rx="10" fill="#fff4cc" opacity="0.48"/></g>
  <ellipse cx="639" cy="277" rx="212" ry="52" fill="#06101b" opacity="0.72"/>
  <path d="M429 287 Q639 73 849 287 Z" fill="#ffdd8a" opacity="0.36"/>
  <path d="M467 285 Q639 129 811 285" fill="none" stroke="#fff6d2" stroke-width="7" opacity="0.45"/>
  <rect x="489.0" y="257" width="18" height="97" rx="8" fill="#eaf8ff" opacity="0.42"/><rect x="495.0" y="269" width="6" height="73" rx="3" fill="#ffdd8a" opacity="0.55"/><rect x="531.9" y="257" width="18" height="92" rx="8" fill="#eaf8ff" opacity="0.42"/><rect x="537.9" y="269" width="6" height="68" rx="3" fill="#ffdd8a" opacity="0.55"/><rect x="574.7" y="257" width="18" height="90" rx="8" fill="#eaf8ff" opacity="0.42"/><rect x="580.7" y="269" width="6" height="66" rx="3" fill="#ffdd8a" opacity="0.55"/><rect x="617.6" y="257" width="18" height="89" rx="8" fill="#eaf8ff" opacity="0.42"/><rect x="623.6" y="269" width="6" height="65" rx="3" fill="#ffdd8a" opacity="0.55"/><rect x="660.4" y="257" width="18" height="88" rx="8" fill="#eaf8ff" opacity="0.42"/><rect x="666.4" y="269" width="6" height="64" rx="3" fill="#ffdd8a" opacity="0.55"/><rect x="703.3" y="257" width="18" height="109" rx="8" fill="#eaf8ff" opacity="0.42"/><rect x="709.3" y="269" width="6" height="85" rx="3" fill="#ffdd8a" opacity="0.55"/><rect x="746.1" y="257" width="18" height="119" rx="8" fill="#eaf8ff" opacity="0.42"/><rect x="752.1" y="269" width="6" height="95" rx="3" fill="#ffdd8a" opacity="0.55"/><rect x="789.0" y="257" width="18" height="124" rx="8" fill="#eaf8ff" opacity="0.42"/><rect x="795.0" y="269" width="6" height="100" rx="3" fill="#ffdd8a" opacity="0.55"/>
  <rect x="433" y="299" width="412" height="122" rx="32" fill="#0a1724" opacity="0.88"/>
  <circle cx="639" cy="326" r="86" fill="url(#heart-sanctuary-30)" filter="url(#glow-sanctuary-30)" opacity="0.95"/>
  <path d="M0 360 C132 338, 210 386, 350 354 S620 328, 960 366 L960 420 L0 420 Z" fill="#0f2330" opacity="0.82"/>
  <path d="M374 384 C527 326, 743 414, 903 356" fill="none" stroke="#fff4cf" stroke-width="5" opacity="0.32"/>
  <text x="28" y="40" fill="#fff4cf" font-family="monospace" font-size="18" letter-spacing="5" opacity="0.5">RF 30 SANCTUARY</text>
</svg>