<svg xmlns="http://www.w3.org/2000/svg" viewBox="0 0 960 420" role="img" aria-label="sanctuary-11 unique sanctuary art">
  <defs>
    <linearGradient id="sky-sanctuary-11" x1="0" y1="0" x2="1" y2="1"><stop offset="0" stop-color="#071326"/><stop offset="0.55" stop-color="#194b63"/><stop offset="1" stop-color="#05060d"/></linearGradient>
    <radialGradient id="heart-sanctuary-11" cx="50%" cy="50%" r="55%"><stop offset="0" stop-color="#fff8d0"/><stop offset="0.38" stop-color="#ffdd8a" stop-opacity="0.78"/><stop offset="1" stop-color="#ffdd8a" stop-opacity="0"/></radialGradient>
    <filter id="glow-sanctuary-11" x="-25%" y="-25%" width="150%" height="150%"><feGaussianBlur stdDeviation="6" result="b"/><feMerge><feMergeNode in="b"/><feMergeNode in="SourceGraphic"/></feMerge></filter>
  </defs>
  <rect width="960" height="420" fill="url(#sky-sanctuary-11)"/>
  <circle cx="72" cy="230" r="4" fill="#fff3bb" opacity="0.62"/><circle cx="169" cy="42" r="6" fill="#ffdd8a" opacity="0.42"/><circle cx="266" cy="74" r="3" fill="#fff3bb" opacity="0.62"/><circle cx="363" cy="217" r="5" fill="#ffdd8a" opacity="0.42"/><circle cx="460" cy="70" r="2" fill="#fff3bb" opacity="0.62"/><circle cx="557" cy="123" r="4" fill="#ffdd8a" opacity="0.42"/><circle cx="654" cy="46" r="6" fill="#fff3bb" opacity="0.62"/><circle cx="751" cy="249" r="3" fill="#ffdd8a" opacity="0.42"/><circle cx="848" cy="132" r="5" fill="#fff3bb" opacity="0.62"/><circle cx="45" cy="85" r="2" fill="#ffdd8a" opacity="0.42"/><circle cx="142" cy="73" r="4" fill="#fff3bb" opacity="0.62"/><circle cx="239" cy="78" r="6" fill="#ffdd8a" opacity="0.42"/><circle cx="336" cy="207" r="3" fill="#fff3bb" opacity="0.62"/><circle cx="433" cy="168" r="5" fill="#ffdd8a" opacity="0.42"/><circle cx="530" cy="160" r="2" fill="#fff3bb" opacity="0.62"/><circle cx="627" cy="115" r="4" fill="#ffdd8a" opacity="0.42"/><circle cx="724" cy="157" r="6" fill="#fff3bb" opacity="0.62"/><circle cx="821" cy="189" r="3" fill="#ffdd8a" opacity="0.42"/>
  <path d="M0 294 C140 228, 260 280, 390 226 S700 266, 960 218 L960 420 L0 420 Z" fill="#07101b" opacity="0.5"/>
  <g transform="translate(78 224.84) scale(0.78)"><rect x="0" y="38" width="98" height="96" rx="18" fill="#0b1824" opacity="0.9"/><path d="M-14 44 L49 0 L112 44 Z" fill="#ffdd8a" opacity="0.42"/><circle cx="49" cy="72" r="18" fill="#ffdd8a" opacity="0.36"/><rect x="38" y="86" width="22" height="48" rx="10" fill="#fff4cc" opacity="0.48"/></g>
  <g transform="translate(712 227.04) scale(0.68)"><rect x="0" y="38" width="98" height="96" rx="18" fill="#0b1824" opacity="0.9"/><path d="M-14 44 L49 0 L112 44 Z" fill="#ffdd8a" opacity="0.42"/><circle cx="49" cy="72" r="18" fill="#ffdd8a" opacity="0.36"/><rect x="38" y="86" width="22" height="48" rx="10" fill="#fff4cc" opacity="0.48"/></g>
  <ellipse cx="502" cy="288" rx="212" ry="52" fill="#06101b" opacity="0.72"/>
  <path d="M292 298 Q502 84 712 298 Z" fill="#ffdd8a" opacity="0.36"/>
  <path d="M330 296 Q502 140 674 296" fill="none" stroke="#fff6d2" stroke-width="7" opacity="0.45"/>
  <rect x="352.0" y="268" width="18" height="128" rx="8" fill="#eaf8ff" opacity="0.42"/><rect x="358.0" y="280" width="6" height="104" rx="3" fill="#ffdd8a" opacity="0.55"/><rect x="427.0" y="268" width="18" height="108" rx="8" fill="#eaf8ff" opacity="0.42"/><rect x="433.0" y="280" width="6" height="84" rx="3" fill="#ffdd8a" opacity="0.55"/><rect x="502.0" y="268" width="18" height="98" rx="8" fill="#eaf8ff" opacity="0.42"/><rect x="508.0" y="280" width="6" height="74" rx="3" fill="#ffdd8a" opacity="0.55"/><rect x="577.0" y="268" width="18" height="114" rx="8" fill="#eaf8ff" opacity="0.42"/><rect x="583.0" y="280" width="6" height="90" rx="3" fill="#ffdd8a" opacity="0.55"/><rect x="652.0" y="268" width="18" height="122" rx="8" fill="#eaf8ff" opacity="0.42"/><rect x="658.0" y="280" width="6" height="98" rx="3" fill="#ffdd8a" opacity="0.55"/>
  <rect x="296" y="310" width="412" height="122" rx="32" fill="#0a1724" opacity="0.88"/>
  <circle cx="502" cy="337" r="86" fill="url(#heart-sanctuary-11)" filter="url(#glow-sanctuary-11)" opacity="0.95"/>
  <path d="M0 360 C132 338, 210 386, 350 354 S620 328, 960 366 L960 420 L0 420 Z" fill="#0f2330" opacity="0.82"/>
  <path d="M237 384 C390 326, 606 414, 766 356" fill="none" stroke="#fff4cf" stroke-width="5" opacity="0.32"/>
  <text x="28" y="40" fill="#fff4cf" font-family="monospace" font-size="18" letter-spacing="5" opacity="0.5">RF 11 SANCTUARY</text>
</svg>