<svg xmlns="http://www.w3.org/2000/svg" viewBox="0 0 960 420" role="img" aria-label="sanctuary-15 unique sanctuary art">
  <defs>
    <linearGradient id="sky-sanctuary-15" x1="0" y1="0" x2="1" y2="1"><stop offset="0" stop-color="#071326"/><stop offset="0.55" stop-color="#194b63"/><stop offset="1" stop-color="#05060d"/></linearGradient>
    <radialGradient id="heart-sanctuary-15" cx="50%" cy="50%" r="55%"><stop offset="0" stop-color="#fff8d0"/><stop offset="0.38" stop-color="#ffdd8a" stop-opacity="0.78"/><stop offset="1" stop-color="#ffdd8a" stop-opacity="0"/></radialGradient>
    <filter id="glow-sanctuary-15" x="-25%" y="-25%" width="150%" height="150%"><feGaussianBlur stdDeviation="6" result="b"/><feMerge><feMergeNode in="b"/><feMergeNode in="SourceGraphic"/></feMerge></filter>
  </defs>
  <rect width="960" height="420" fill="url(#sky-sanctuary-15)"/>
  <circle cx="796" cy="74" r="3" fill="#fff3bb" opacity="0.62"/><circle cx="893" cy="194" r="5" fill="#ffdd8a" opacity="0.42"/><circle cx="90" cy="265" r="2" fill="#fff3bb" opacity="0.62"/><circle cx="187" cy="197" r="4" fill="#ffdd8a" opacity="0.42"/><circle cx="284" cy="175" r="6" fill="#fff3bb" opacity="0.62"/><circle cx="381" cy="60" r="3" fill="#ffdd8a" opacity="0.42"/><circle cx="478" cy="244" r="5" fill="#fff3bb" opacity="0.62"/><circle cx="575" cy="118" r="2" fill="#ffdd8a" opacity="0.42"/><circle cx="672" cy="181" r="4" fill="#fff3bb" opacity="0.62"/><circle cx="769" cy="109" r="6" fill="#ffdd8a" opacity="0.42"/><circle cx="866" cy="85" r="3" fill="#fff3bb" opacity="0.62"/><circle cx="63" cy="199" r="5" fill="#ffdd8a" opacity="0.42"/><circle cx="160" cy="153" r="2" fill="#fff3bb" opacity="0.62"/><circle cx="257" cy="256" r="4" fill="#ffdd8a" opacity="0.42"/><circle cx="354" cy="204" r="6" fill="#fff3bb" opacity="0.62"/><circle cx="451" cy="189" r="3" fill="#ffdd8a" opacity="0.42"/><circle cx="548" cy="79" r="5" fill="#fff3bb" opacity="0.62"/><circle cx="645" cy="150" r="2" fill="#ffdd8a" opacity="0.42"/>
  <path d="M0 294 C140 228, 260 280, 390 226 S700 266, 960 218 L960 420 L0 420 Z" fill="#07101b" opacity="0.5"/>
  <g transform="translate(82 224.84) scale(0.78)"><rect x="0" y="38" width="98" height="96" rx="18" fill="#0b1824" opacity="0.9"/><path d="M-14 44 L49 0 L112 44 Z" fill="#ffdd8a" opacity="0.42"/><circle cx="49" cy="72" r="18" fill="#ffdd8a" opacity="0.36"/><rect x="38" y="86" width="22" height="48" rx="10" fill="#fff4cc" opacity="0.48"/></g>
  <g transform="translate(653 227.04) scale(0.68)"><rect x="0" y="38" width="98" height="96" rx="18" fill="#0b1824" opacity="0.9"/><path d="M-14 44 L49 0 L112 44 Z" fill="#ffdd8a" opacity="0.42"/><circle cx="49" cy="72" r="18" fill="#ffdd8a" opacity="0.36"/><rect x="38" y="86" width="22" height="48" rx="10" fill="#fff4cc" opacity="0.48"/></g>
  <ellipse cx="306" cy="317" rx="212" ry="52" fill="#06101b" opacity="0.72"/>
  <path d="M96 327 Q306 113 516 327 Z" fill="#ffdd8a" opacity="0.36"/>
  <path d="M134 325 Q306 169 478 325" fill="none" stroke="#fff6d2" stroke-width="7" opacity="0.45"/>
  <rect x="156.0" y="297" width="18" height="123" rx="8" fill="#eaf8ff" opacity="0.42"/><rect x="162.0" y="309" width="6" height="99" rx="3" fill="#ffdd8a" opacity="0.55"/><rect x="193.5" y="297" width="18" height="126" rx="8" fill="#eaf8ff" opacity="0.42"/><rect x="199.5" y="309" width="6" height="102" rx="3" fill="#ffdd8a" opacity="0.55"/><rect x="231.0" y="297" width="18" height="107" rx="8" fill="#eaf8ff" opacity="0.42"/><rect x="237.0" y="309" width="6" height="83" rx="3" fill="#ffdd8a" opacity="0.55"/><rect x="268.5" y="297" width="18" height="97" rx="8" fill="#eaf8ff" opacity="0.42"/><rect x="274.5" y="309" width="6" height="73" rx="3" fill="#ffdd8a" opacity="0.55"/><rect x="306.0" y="297" width="18" height="92" rx="8" fill="#eaf8ff" opacity="0.42"/><rect x="312.0" y="309" width="6" height="68" rx="3" fill="#ffdd8a" opacity="0.55"/><rect x="343.5" y="297" width="18" height="111" rx="8" fill="#eaf8ff" opacity="0.42"/><rect x="349.5" y="309" width="6" height="87" rx="3" fill="#ffdd8a" opacity="0.55"/><rect x="381.0" y="297" width="18" height="99" rx="8" fill="#eaf8ff" opacity="0.42"/><rect x="387.0" y="309" width="6" height="75" rx="3" fill="#ffdd8a" opacity="0.55"/><rect x="418.5" y="297" width="18" height="114" rx="8" fill="#eaf8ff" opacity="0.42"/><rect x="424.5" y="309" width="6" height="90" rx="3" fill="#ffdd8a" opacity="0.55"/><rect x="456.0" y="297" width="18" height="101" rx="8" fill="#eaf8ff" opacity="0.42"/><rect x="462.0" y="309" width="6" height="77" rx="3" fill="#ffdd8a" opacity="0.55"/>
  <rect x="100" y="339" width="412" height="122" rx="32" fill="#0a1724" opacity="0.88"/>
  <circle cx="306" cy="366" r="86" fill="url(#heart-sanctuary-15)" filter="url(#glow-sanctuary-15)" opacity="0.95"/>
  <path d="M0 360 C132 338, 210 386, 350 354 S620 328, 960 366 L960 420 L0 420 Z" fill="#0f2330" opacity="0.82"/>
  <path d="M41 384 C194 326, 410 414, 570 356" fill="none" stroke="#fff4cf" stroke-width="5" opacity="0.32"/>
  <text x="28" y="40" fill="#fff4cf" font-family="monospace" font-size="18" letter-spacing="5" opacity="0.5">RF 15 SANCTUARY</text>
</svg>