<svg xmlns="http://www.w3.org/2000/svg" viewBox="0 0 960 420" role="img" aria-label="sanctuary-34 unique sanctuary art">
  <defs>
    <linearGradient id="sky-sanctuary-34" x1="0" y1="0" x2="1" y2="1"><stop offset="0" stop-color="#071326"/><stop offset="0.55" stop-color="#5b164e"/><stop offset="1" stop-color="#05060d"/></linearGradient>
    <radialGradient id="heart-sanctuary-34" cx="50%" cy="50%" r="55%"><stop offset="0" stop-color="#fff8d0"/><stop offset="0.38" stop-color="#ff74ee" stop-opacity="0.78"/><stop offset="1" stop-color="#ff74ee" stop-opacity="0"/></radialGradient>
    <filter id="glow-sanctuary-34" x="-25%" y="-25%" width="150%" height="150%"><feGaussianBlur stdDeviation="6" result="b"/><feMerge><feMergeNode in="b"/><feMergeNode in="SourceGraphic"/></feMerge></filter>
  </defs>
  <rect width="960" height="420" fill="url(#sky-sanctuary-34)"/>
  <circle cx="133" cy="141" r="5" fill="#fff3bb" opacity="0.62"/><circle cx="230" cy="112" r="2" fill="#ff74ee" opacity="0.42"/><circle cx="327" cy="224" r="4" fill="#fff3bb" opacity="0.62"/><circle cx="424" cy="62" r="6" fill="#ff74ee" opacity="0.42"/><circle cx="521" cy="107" r="3" fill="#fff3bb" opacity="0.62"/><circle cx="618" cy="141" r="5" fill="#ff74ee" opacity="0.42"/><circle cx="715" cy="55" r="2" fill="#fff3bb" opacity="0.62"/><circle cx="812" cy="253" r="4" fill="#ff74ee" opacity="0.42"/><circle cx="909" cy="249" r="6" fill="#fff3bb" opacity="0.62"/><circle cx="106" cy="258" r="3" fill="#ff74ee" opacity="0.42"/><circle cx="203" cy="159" r="5" fill="#fff3bb" opacity="0.62"/><circle cx="300" cy="121" r="2" fill="#ff74ee" opacity="0.42"/><circle cx="397" cy="114" r="4" fill="#fff3bb" opacity="0.62"/><circle cx="494" cy="237" r="6" fill="#ff74ee" opacity="0.42"/><circle cx="591" cy="195" r="3" fill="#fff3bb" opacity="0.62"/><circle cx="688" cy="256" r="5" fill="#ff74ee" opacity="0.42"/><circle cx="785" cy="227" r="2" fill="#fff3bb" opacity="0.62"/><circle cx="882" cy="109" r="4" fill="#ff74ee" opacity="0.42"/>
  <path d="M0 294 C140 228, 260 280, 390 226 S700 266, 960 218 L960 420 L0 420 Z" fill="#07101b" opacity="0.5"/>
  <g transform="translate(119 224.84) scale(0.78)"><rect x="0" y="38" width="98" height="96" rx="18" fill="#0b1824" opacity="0.9"/><path d="M-14 44 L49 0 L112 44 Z" fill="#ff74ee" opacity="0.42"/><circle cx="49" cy="72" r="18" fill="#ff74ee" opacity="0.36"/><rect x="38" y="86" width="22" height="48" rx="10" fill="#fff4cc" opacity="0.48"/></g>
  <g transform="translate(675 227.04) scale(0.68)"><rect x="0" y="38" width="98" height="96" rx="18" fill="#0b1824" opacity="0.9"/><path d="M-14 44 L49 0 L112 44 Z" fill="#ff74ee" opacity="0.42"/><circle cx="49" cy="72" r="18" fill="#ff74ee" opacity="0.36"/><rect x="38" y="86" width="22" height="48" rx="10" fill="#fff4cc" opacity="0.48"/></g>
  <ellipse cx="443" cy="306" rx="212" ry="52" fill="#06101b" opacity="0.72"/>
  <path d="M233 316 Q443 102 653 316 Z" fill="#ff74ee" opacity="0.36"/>
  <path d="M271 314 Q443 158 615 314" fill="none" stroke="#fff6d2" stroke-width="7" opacity="0.45"/>
  <rect x="293.0" y="286" width="18" height="92" rx="8" fill="#eaf8ff" opacity="0.42"/><rect x="299.0" y="298" width="6" height="68" rx="3" fill="#ff74ee" opacity="0.55"/><rect x="335.9" y="286" width="18" height="111" rx="8" fill="#eaf8ff" opacity="0.42"/><rect x="341.9" y="298" width="6" height="87" rx="3" fill="#ff74ee" opacity="0.55"/><rect x="378.7" y="286" width="18" height="99" rx="8" fill="#eaf8ff" opacity="0.42"/><rect x="384.7" y="298" width="6" height="75" rx="3" fill="#ff74ee" opacity="0.55"/><rect x="421.6" y="286" width="18" height="114" rx="8" fill="#eaf8ff" opacity="0.42"/><rect x="427.6" y="298" width="6" height="90" rx="3" fill="#ff74ee" opacity="0.55"/><rect x="464.4" y="286" width="18" height="101" rx="8" fill="#eaf8ff" opacity="0.42"/><rect x="470.4" y="298" width="6" height="77" rx="3" fill="#ff74ee" opacity="0.55"/><rect x="507.3" y="286" width="18" height="94" rx="8" fill="#eaf8ff" opacity="0.42"/><rect x="513.3" y="298" width="6" height="70" rx="3" fill="#ff74ee" opacity="0.55"/><rect x="550.1" y="286" width="18" height="91" rx="8" fill="#eaf8ff" opacity="0.42"/><rect x="556.1" y="298" width="6" height="67" rx="3" fill="#ff74ee" opacity="0.55"/><rect x="593.0" y="286" width="18" height="89" rx="8" fill="#eaf8ff" opacity="0.42"/><rect x="599.0" y="298" width="6" height="65" rx="3" fill="#ff74ee" opacity="0.55"/>
  <rect x="237" y="328" width="412" height="122" rx="32" fill="#0a1724" opacity="0.88"/>
  <circle cx="443" cy="355" r="86" fill="url(#heart-sanctuary-34)" filter="url(#glow-sanctuary-34)" opacity="0.95"/>
  <path d="M0 360 C132 338, 210 386, 350 354 S620 328, 960 366 L960 420 L0 420 Z" fill="#0f2330" opacity="0.82"/>
  <path d="M178 384 C331 326, 547 414, 707 356" fill="none" stroke="#ffe2fb" stroke-width="5" opacity="0.32"/>
  <text x="28" y="40" fill="#ffe2fb" font-family="monospace" font-size="18" letter-spacing="5" opacity="0.5">RF 34 DROWNED CITY</text>
</svg>