<svg xmlns="http://www.w3.org/2000/svg" viewBox="0 0 960 420" role="img" aria-label="sanctuary-1 unique sanctuary art">
  <defs>
    <linearGradient id="sky-sanctuary-1" x1="0" y1="0" x2="1" y2="1"><stop offset="0" stop-color="#071326"/><stop offset="0.55" stop-color="#09566b"/><stop offset="1" stop-color="#05060d"/></linearGradient>
    <radialGradient id="heart-sanctuary-1" cx="50%" cy="50%" r="55%"><stop offset="0" stop-color="#fff8d0"/><stop offset="0.38" stop-color="#36f3ff" stop-opacity="0.78"/><stop offset="1" stop-color="#36f3ff" stop-opacity="0"/></radialGradient>
    <filter id="glow-sanctuary-1" x="-25%" y="-25%" width="150%" height="150%"><feGaussianBlur stdDeviation="6" result="b"/><feMerge><feMergeNode in="b"/><feMergeNode in="SourceGraphic"/></feMerge></filter>
  </defs>
  <rect width="960" height="420" fill="url(#sky-sanctuary-1)"/>
  <circle cx="909" cy="137" r="6" fill="#fff3bb" opacity="0.62"/><circle cx="106" cy="110" r="3" fill="#36f3ff" opacity="0.42"/><circle cx="203" cy="223" r="5" fill="#fff3bb" opacity="0.62"/><circle cx="300" cy="61" r="2" fill="#36f3ff" opacity="0.42"/><circle cx="397" cy="222" r="4" fill="#fff3bb" opacity="0.62"/><circle cx="494" cy="199" r="6" fill="#36f3ff" opacity="0.42"/><circle cx="591" cy="84" r="3" fill="#fff3bb" opacity="0.62"/><circle cx="688" cy="153" r="5" fill="#36f3ff" opacity="0.42"/><circle cx="785" cy="199" r="2" fill="#fff3bb" opacity="0.62"/><circle cx="882" cy="233" r="4" fill="#36f3ff" opacity="0.42"/><circle cx="79" cy="147" r="6" fill="#fff3bb" opacity="0.62"/><circle cx="176" cy="230" r="3" fill="#36f3ff" opacity="0.42"/><circle cx="273" cy="53" r="5" fill="#fff3bb" opacity="0.62"/><circle cx="370" cy="91" r="2" fill="#36f3ff" opacity="0.42"/><circle cx="467" cy="237" r="4" fill="#fff3bb" opacity="0.62"/><circle cx="564" cy="252" r="6" fill="#36f3ff" opacity="0.42"/><circle cx="661" cy="225" r="3" fill="#fff3bb" opacity="0.62"/><circle cx="758" cy="108" r="5" fill="#36f3ff" opacity="0.42"/>
  <path d="M0 294 C140 228, 260 280, 390 226 S700 266, 960 218 L960 420 L0 420 Z" fill="#07101b" opacity="0.5"/>
  <g transform="translate(115 224.84) scale(0.78)"><rect x="0" y="38" width="98" height="96" rx="18" fill="#0b1824" opacity="0.9"/><path d="M-14 44 L49 0 L112 44 Z" fill="#36f3ff" opacity="0.42"/><circle cx="49" cy="72" r="18" fill="#36f3ff" opacity="0.36"/><rect x="38" y="86" width="22" height="48" rx="10" fill="#fff4cc" opacity="0.48"/></g>
  <g transform="translate(744 227.04) scale(0.68)"><rect x="0" y="38" width="98" height="96" rx="18" fill="#0b1824" opacity="0.9"/><path d="M-14 44 L49 0 L112 44 Z" fill="#36f3ff" opacity="0.42"/><circle cx="49" cy="72" r="18" fill="#36f3ff" opacity="0.36"/><rect x="38" y="86" width="22" height="48" rx="10" fill="#fff4cc" opacity="0.48"/></g>
  <ellipse cx="619" cy="272" rx="212" ry="52" fill="#06101b" opacity="0.72"/>
  <path d="M409 282 Q619 68 829 282 Z" fill="#36f3ff" opacity="0.36"/>
  <path d="M447 280 Q619 124 791 280" fill="none" stroke="#fff6d2" stroke-width="7" opacity="0.45"/>
  <rect x="469.0" y="252" width="18" height="103" rx="8" fill="#eaf8ff" opacity="0.42"/><rect x="475.0" y="264" width="6" height="79" rx="3" fill="#36f3ff" opacity="0.55"/><rect x="511.9" y="252" width="18" height="116" rx="8" fill="#eaf8ff" opacity="0.42"/><rect x="517.9" y="264" width="6" height="92" rx="3" fill="#36f3ff" opacity="0.55"/><rect x="554.7" y="252" width="18" height="102" rx="8" fill="#eaf8ff" opacity="0.42"/><rect x="560.7" y="264" width="6" height="78" rx="3" fill="#36f3ff" opacity="0.55"/><rect x="597.6" y="252" width="18" height="116" rx="8" fill="#eaf8ff" opacity="0.42"/><rect x="603.6" y="264" width="6" height="92" rx="3" fill="#36f3ff" opacity="0.55"/><rect x="640.4" y="252" width="18" height="102" rx="8" fill="#eaf8ff" opacity="0.42"/><rect x="646.4" y="264" width="6" height="78" rx="3" fill="#36f3ff" opacity="0.55"/><rect x="683.3" y="252" width="18" height="116" rx="8" fill="#eaf8ff" opacity="0.42"/><rect x="689.3" y="264" width="6" height="92" rx="3" fill="#36f3ff" opacity="0.55"/><rect x="726.1" y="252" width="18" height="123" rx="8" fill="#eaf8ff" opacity="0.42"/><rect x="732.1" y="264" width="6" height="99" rx="3" fill="#36f3ff" opacity="0.55"/><rect x="769.0" y="252" width="18" height="126" rx="8" fill="#eaf8ff" opacity="0.42"/><rect x="775.0" y="264" width="6" height="102" rx="3" fill="#36f3ff" opacity="0.55"/>
  <rect x="413" y="294" width="412" height="122" rx="32" fill="#0a1724" opacity="0.88"/>
  <circle cx="619" cy="321" r="86" fill="url(#heart-sanctuary-1)" filter="url(#glow-sanctuary-1)" opacity="0.95"/>
  <path d="M0 360 C132 338, 210 386, 350 354 S620 328, 960 366 L960 420 L0 420 Z" fill="#0f2330" opacity="0.82"/>
  <path d="M354 384 C507 326, 723 414, 883 356" fill="none" stroke="#c8fbff" stroke-width="5" opacity="0.32"/>
  <text x="28" y="40" fill="#c8fbff" font-family="monospace" font-size="18" letter-spacing="5" opacity="0.5">RF 01 NEON CANAL</text>
</svg>