<svg xmlns="http://www.w3.org/2000/svg" viewBox="0 0 960 420" role="img" aria-label="sanctuary-17 unique sanctuary art">
  <defs>
    <linearGradient id="sky-sanctuary-17" x1="0" y1="0" x2="1" y2="1"><stop offset="0" stop-color="#071326"/><stop offset="0.55" stop-color="#194b63"/><stop offset="1" stop-color="#05060d"/></linearGradient>
    <radialGradient id="heart-sanctuary-17" cx="50%" cy="50%" r="55%"><stop offset="0" stop-color="#fff8d0"/><stop offset="0.38" stop-color="#ffdd8a" stop-opacity="0.78"/><stop offset="1" stop-color="#ffdd8a" stop-opacity="0"/></radialGradient>
    <filter id="glow-sanctuary-17" x="-25%" y="-25%" width="150%" height="150%"><feGaussianBlur stdDeviation="6" result="b"/><feMerge><feMergeNode in="b"/><feMergeNode in="SourceGraphic"/></feMerge></filter>
  </defs>
  <rect width="960" height="420" fill="url(#sky-sanctuary-17)"/>
  <circle cx="258" cy="226" r="5" fill="#fff3bb" opacity="0.62"/><circle cx="355" cy="155" r="2" fill="#ffdd8a" opacity="0.42"/><circle cx="452" cy="246" r="4" fill="#fff3bb" opacity="0.62"/><circle cx="549" cy="73" r="6" fill="#ffdd8a" opacity="0.42"/><circle cx="646" cy="113" r="3" fill="#fff3bb" opacity="0.62"/><circle cx="743" cy="259" r="5" fill="#ffdd8a" opacity="0.42"/><circle cx="840" cy="114" r="2" fill="#fff3bb" opacity="0.62"/><circle cx="37" cy="168" r="4" fill="#ffdd8a" opacity="0.42"/><circle cx="134" cy="206" r="6" fill="#fff3bb" opacity="0.62"/><circle cx="231" cy="122" r="3" fill="#ffdd8a" opacity="0.42"/><circle cx="328" cy="206" r="5" fill="#fff3bb" opacity="0.62"/><circle cx="425" cy="145" r="2" fill="#ffdd8a" opacity="0.42"/><circle cx="522" cy="241" r="4" fill="#fff3bb" opacity="0.62"/><circle cx="619" cy="70" r="6" fill="#ffdd8a" opacity="0.42"/><circle cx="716" cy="226" r="3" fill="#fff3bb" opacity="0.62"/><circle cx="813" cy="111" r="5" fill="#ffdd8a" opacity="0.42"/><circle cx="910" cy="40" r="2" fill="#fff3bb" opacity="0.62"/><circle cx="107" cy="131" r="4" fill="#ffdd8a" opacity="0.42"/>
  <path d="M0 294 C140 228, 260 280, 390 226 S700 266, 960 218 L960 420 L0 420 Z" fill="#07101b" opacity="0.5"/>
  <g transform="translate(124 224.84) scale(0.78)"><rect x="0" y="38" width="98" height="96" rx="18" fill="#0b1824" opacity="0.9"/><path d="M-14 44 L49 0 L112 44 Z" fill="#ffdd8a" opacity="0.42"/><circle cx="49" cy="72" r="18" fill="#ffdd8a" opacity="0.36"/><rect x="38" y="86" width="22" height="48" rx="10" fill="#fff4cc" opacity="0.48"/></g>
  <g transform="translate(715 227.04) scale(0.68)"><rect x="0" y="38" width="98" height="96" rx="18" fill="#0b1824" opacity="0.9"/><path d="M-14 44 L49 0 L112 44 Z" fill="#ffdd8a" opacity="0.42"/><circle cx="49" cy="72" r="18" fill="#ffdd8a" opacity="0.36"/><rect x="38" y="86" width="22" height="48" rx="10" fill="#fff4cc" opacity="0.48"/></g>
  <ellipse cx="588" cy="286" rx="212" ry="52" fill="#06101b" opacity="0.72"/>
  <path d="M378 296 Q588 82 798 296 Z" fill="#ffdd8a" opacity="0.36"/>
  <path d="M416 294 Q588 138 760 294" fill="none" stroke="#fff6d2" stroke-width="7" opacity="0.45"/>
  <rect x="438.0" y="266" width="18" height="100" rx="8" fill="#eaf8ff" opacity="0.42"/><rect x="444.0" y="278" width="6" height="76" rx="3" fill="#ffdd8a" opacity="0.55"/><rect x="488.0" y="266" width="18" height="94" rx="8" fill="#eaf8ff" opacity="0.42"/><rect x="494.0" y="278" width="6" height="70" rx="3" fill="#ffdd8a" opacity="0.55"/><rect x="538.0" y="266" width="18" height="91" rx="8" fill="#eaf8ff" opacity="0.42"/><rect x="544.0" y="278" width="6" height="67" rx="3" fill="#ffdd8a" opacity="0.55"/><rect x="588.0" y="266" width="18" height="110" rx="8" fill="#eaf8ff" opacity="0.42"/><rect x="594.0" y="278" width="6" height="86" rx="3" fill="#ffdd8a" opacity="0.55"/><rect x="638.0" y="266" width="18" height="120" rx="8" fill="#eaf8ff" opacity="0.42"/><rect x="644.0" y="278" width="6" height="96" rx="3" fill="#ffdd8a" opacity="0.55"/><rect x="688.0" y="266" width="18" height="125" rx="8" fill="#eaf8ff" opacity="0.42"/><rect x="694.0" y="278" width="6" height="101" rx="3" fill="#ffdd8a" opacity="0.55"/><rect x="738.0" y="266" width="18" height="106" rx="8" fill="#eaf8ff" opacity="0.42"/><rect x="744.0" y="278" width="6" height="82" rx="3" fill="#ffdd8a" opacity="0.55"/>
  <rect x="382" y="308" width="412" height="122" rx="32" fill="#0a1724" opacity="0.88"/>
  <circle cx="588" cy="335" r="86" fill="url(#heart-sanctuary-17)" filter="url(#glow-sanctuary-17)" opacity="0.95"/>
  <path d="M0 360 C132 338, 210 386, 350 354 S620 328, 960 366 L960 420 L0 420 Z" fill="#0f2330" opacity="0.82"/>
  <path d="M323 384 C476 326, 692 414, 852 356" fill="none" stroke="#fff4cf" stroke-width="5" opacity="0.32"/>
  <text x="28" y="40" fill="#fff4cf" font-family="monospace" font-size="18" letter-spacing="5" opacity="0.5">RF 17 SANCTUARY</text>
</svg>