<svg xmlns="http://www.w3.org/2000/svg" viewBox="0 0 960 420" role="img" aria-label="sanctuary-24 unique sanctuary art">
  <defs>
    <linearGradient id="sky-sanctuary-24" x1="0" y1="0" x2="1" y2="1"><stop offset="0" stop-color="#071326"/><stop offset="0.55" stop-color="#194b63"/><stop offset="1" stop-color="#05060d"/></linearGradient>
    <radialGradient id="heart-sanctuary-24" cx="50%" cy="50%" r="55%"><stop offset="0" stop-color="#fff8d0"/><stop offset="0.38" stop-color="#ffdd8a" stop-opacity="0.78"/><stop offset="1" stop-color="#ffdd8a" stop-opacity="0"/></radialGradient>
    <filter id="glow-sanctuary-24" x="-25%" y="-25%" width="150%" height="150%"><feGaussianBlur stdDeviation="6" result="b"/><feMerge><feMergeNode in="b"/><feMergeNode in="SourceGraphic"/></feMerge></filter>
  </defs>
  <rect width="960" height="420" fill="url(#sky-sanctuary-24)"/>
  <circle cx="276" cy="94" r="3" fill="#fff3bb" opacity="0.62"/><circle cx="373" cy="204" r="5" fill="#ffdd8a" opacity="0.42"/><circle cx="470" cy="40" r="2" fill="#fff3bb" opacity="0.62"/><circle cx="567" cy="200" r="4" fill="#ffdd8a" opacity="0.42"/><circle cx="664" cy="176" r="6" fill="#fff3bb" opacity="0.62"/><circle cx="761" cy="176" r="3" fill="#ffdd8a" opacity="0.42"/><circle cx="858" cy="187" r="5" fill="#fff3bb" opacity="0.62"/><circle cx="55" cy="204" r="2" fill="#ffdd8a" opacity="0.42"/><circle cx="152" cy="109" r="4" fill="#fff3bb" opacity="0.62"/><circle cx="249" cy="188" r="6" fill="#ffdd8a" opacity="0.42"/><circle cx="346" cy="124" r="3" fill="#fff3bb" opacity="0.62"/><circle cx="443" cy="104" r="5" fill="#ffdd8a" opacity="0.42"/><circle cx="540" cy="220" r="2" fill="#fff3bb" opacity="0.62"/><circle cx="637" cy="175" r="4" fill="#ffdd8a" opacity="0.42"/><circle cx="734" cy="164" r="6" fill="#fff3bb" opacity="0.62"/><circle cx="831" cy="209" r="3" fill="#ffdd8a" opacity="0.42"/><circle cx="928" cy="89" r="5" fill="#fff3bb" opacity="0.62"/><circle cx="125" cy="155" r="2" fill="#ffdd8a" opacity="0.42"/>
  <path d="M0 294 C140 228, 260 280, 390 226 S700 266, 960 218 L960 420 L0 420 Z" fill="#07101b" opacity="0.5"/>
  <g transform="translate(102 224.84) scale(0.78)"><rect x="0" y="38" width="98" height="96" rx="18" fill="#0b1824" opacity="0.9"/><path d="M-14 44 L49 0 L112 44 Z" fill="#ffdd8a" opacity="0.42"/><circle cx="49" cy="72" r="18" fill="#ffdd8a" opacity="0.36"/><rect x="38" y="86" width="22" height="48" rx="10" fill="#fff4cc" opacity="0.48"/></g>
  <g transform="translate(698 227.04) scale(0.68)"><rect x="0" y="38" width="98" height="96" rx="18" fill="#0b1824" opacity="0.9"/><path d="M-14 44 L49 0 L112 44 Z" fill="#ffdd8a" opacity="0.42"/><circle cx="49" cy="72" r="18" fill="#ffdd8a" opacity="0.36"/><rect x="38" y="86" width="22" height="48" rx="10" fill="#fff4cc" opacity="0.48"/></g>
  <ellipse cx="506" cy="295" rx="212" ry="52" fill="#06101b" opacity="0.72"/>
  <path d="M296 305 Q506 91 716 305 Z" fill="#ffdd8a" opacity="0.36"/>
  <path d="M334 303 Q506 147 678 303" fill="none" stroke="#fff6d2" stroke-width="7" opacity="0.45"/>
  <rect x="356.0" y="275" width="18" height="92" rx="8" fill="#eaf8ff" opacity="0.42"/><rect x="362.0" y="287" width="6" height="68" rx="3" fill="#ffdd8a" opacity="0.55"/><rect x="398.9" y="275" width="18" height="111" rx="8" fill="#eaf8ff" opacity="0.42"/><rect x="404.9" y="287" width="6" height="87" rx="3" fill="#ffdd8a" opacity="0.55"/><rect x="441.7" y="275" width="18" height="120" rx="8" fill="#eaf8ff" opacity="0.42"/><rect x="447.7" y="287" width="6" height="96" rx="3" fill="#ffdd8a" opacity="0.55"/><rect x="484.6" y="275" width="18" height="125" rx="8" fill="#eaf8ff" opacity="0.42"/><rect x="490.6" y="287" width="6" height="101" rx="3" fill="#ffdd8a" opacity="0.55"/><rect x="527.4" y="275" width="18" height="127" rx="8" fill="#eaf8ff" opacity="0.42"/><rect x="533.4" y="287" width="6" height="103" rx="3" fill="#ffdd8a" opacity="0.55"/><rect x="570.3" y="275" width="18" height="107" rx="8" fill="#eaf8ff" opacity="0.42"/><rect x="576.3" y="287" width="6" height="83" rx="3" fill="#ffdd8a" opacity="0.55"/><rect x="613.1" y="275" width="18" height="97" rx="8" fill="#eaf8ff" opacity="0.42"/><rect x="619.1" y="287" width="6" height="73" rx="3" fill="#ffdd8a" opacity="0.55"/><rect x="656.0" y="275" width="18" height="113" rx="8" fill="#eaf8ff" opacity="0.42"/><rect x="662.0" y="287" width="6" height="89" rx="3" fill="#ffdd8a" opacity="0.55"/>
  <rect x="300" y="317" width="412" height="122" rx="32" fill="#0a1724" opacity="0.88"/>
  <circle cx="506" cy="344" r="86" fill="url(#heart-sanctuary-24)" filter="url(#glow-sanctuary-24)" opacity="0.95"/>
  <path d="M0 360 C132 338, 210 386, 350 354 S620 328, 960 366 L960 420 L0 420 Z" fill="#0f2330" opacity="0.82"/>
  <path d="M241 384 C394 326, 610 414, 770 356" fill="none" stroke="#fff4cf" stroke-width="5" opacity="0.32"/>
  <text x="28" y="40" fill="#fff4cf" font-family="monospace" font-size="18" letter-spacing="5" opacity="0.5">RF 24 SANCTUARY</text>
</svg>