<svg xmlns="http://www.w3.org/2000/svg" viewBox="0 0 960 420" role="img" aria-label="sanctuary-38 unique sanctuary art">
  <defs>
    <linearGradient id="sky-sanctuary-38" x1="0" y1="0" x2="1" y2="1"><stop offset="0" stop-color="#071326"/><stop offset="0.55" stop-color="#194b63"/><stop offset="1" stop-color="#05060d"/></linearGradient>
    <radialGradient id="heart-sanctuary-38" cx="50%" cy="50%" r="55%"><stop offset="0" stop-color="#fff8d0"/><stop offset="0.38" stop-color="#ffdd8a" stop-opacity="0.78"/><stop offset="1" stop-color="#ffdd8a" stop-opacity="0"/></radialGradient>
    <filter id="glow-sanctuary-38" x="-25%" y="-25%" width="150%" height="150%"><feGaussianBlur stdDeviation="6" result="b"/><feMerge><feMergeNode in="b"/><feMergeNode in="SourceGraphic"/></feMerge></filter>
  </defs>
  <rect width="960" height="420" fill="url(#sky-sanctuary-38)"/>
  <circle cx="857" cy="215" r="4" fill="#fff3bb" opacity="0.62"/><circle cx="54" cy="264" r="6" fill="#ffdd8a" opacity="0.42"/><circle cx="151" cy="185" r="3" fill="#fff3bb" opacity="0.62"/><circle cx="248" cy="42" r="5" fill="#ffdd8a" opacity="0.42"/><circle cx="345" cy="212" r="2" fill="#fff3bb" opacity="0.62"/><circle cx="442" cy="79" r="4" fill="#ffdd8a" opacity="0.42"/><circle cx="539" cy="254" r="6" fill="#fff3bb" opacity="0.62"/><circle cx="636" cy="123" r="3" fill="#ffdd8a" opacity="0.42"/><circle cx="733" cy="69" r="5" fill="#fff3bb" opacity="0.62"/><circle cx="830" cy="53" r="2" fill="#ffdd8a" opacity="0.42"/><circle cx="927" cy="172" r="4" fill="#fff3bb" opacity="0.62"/><circle cx="124" cy="243" r="6" fill="#ffdd8a" opacity="0.42"/><circle cx="221" cy="60" r="3" fill="#fff3bb" opacity="0.62"/><circle cx="318" cy="95" r="5" fill="#ffdd8a" opacity="0.42"/><circle cx="415" cy="239" r="2" fill="#fff3bb" opacity="0.62"/><circle cx="512" cy="100" r="4" fill="#ffdd8a" opacity="0.42"/><circle cx="609" cy="149" r="6" fill="#fff3bb" opacity="0.62"/><circle cx="706" cy="70" r="3" fill="#ffdd8a" opacity="0.42"/>
  <path d="M0 294 C140 228, 260 280, 390 226 S700 266, 960 218 L960 420 L0 420 Z" fill="#07101b" opacity="0.5"/>
  <g transform="translate(123 224.84) scale(0.78)"><rect x="0" y="38" width="98" height="96" rx="18" fill="#0b1824" opacity="0.9"/><path d="M-14 44 L49 0 L112 44 Z" fill="#ffdd8a" opacity="0.42"/><circle cx="49" cy="72" r="18" fill="#ffdd8a" opacity="0.36"/><rect x="38" y="86" width="22" height="48" rx="10" fill="#fff4cc" opacity="0.48"/></g>
  <g transform="translate(708 227.04) scale(0.68)"><rect x="0" y="38" width="98" height="96" rx="18" fill="#0b1824" opacity="0.9"/><path d="M-14 44 L49 0 L112 44 Z" fill="#ffdd8a" opacity="0.42"/><circle cx="49" cy="72" r="18" fill="#ffdd8a" opacity="0.36"/><rect x="38" y="86" width="22" height="48" rx="10" fill="#fff4cc" opacity="0.48"/></g>
  <ellipse cx="627" cy="290" rx="212" ry="52" fill="#06101b" opacity="0.72"/>
  <path d="M417 300 Q627 86 837 300 Z" fill="#ffdd8a" opacity="0.36"/>
  <path d="M455 298 Q627 142 799 298" fill="none" stroke="#fff6d2" stroke-width="7" opacity="0.45"/>
  <rect x="477.0" y="270" width="18" height="129" rx="8" fill="#eaf8ff" opacity="0.42"/><rect x="483.0" y="282" width="6" height="105" rx="3" fill="#ffdd8a" opacity="0.55"/><rect x="519.9" y="270" width="18" height="129" rx="8" fill="#eaf8ff" opacity="0.42"/><rect x="525.9" y="282" width="6" height="105" rx="3" fill="#ffdd8a" opacity="0.55"/><rect x="562.7" y="270" width="18" height="108" rx="8" fill="#eaf8ff" opacity="0.42"/><rect x="568.7" y="282" width="6" height="84" rx="3" fill="#ffdd8a" opacity="0.55"/><rect x="605.6" y="270" width="18" height="98" rx="8" fill="#eaf8ff" opacity="0.42"/><rect x="611.6" y="282" width="6" height="74" rx="3" fill="#ffdd8a" opacity="0.55"/><rect x="648.4" y="270" width="18" height="114" rx="8" fill="#eaf8ff" opacity="0.42"/><rect x="654.4" y="282" width="6" height="90" rx="3" fill="#ffdd8a" opacity="0.55"/><rect x="691.3" y="270" width="18" height="122" rx="8" fill="#eaf8ff" opacity="0.42"/><rect x="697.3" y="282" width="6" height="98" rx="3" fill="#ffdd8a" opacity="0.55"/><rect x="734.1" y="270" width="18" height="105" rx="8" fill="#eaf8ff" opacity="0.42"/><rect x="740.1" y="282" width="6" height="81" rx="3" fill="#ffdd8a" opacity="0.55"/><rect x="777.0" y="270" width="18" height="96" rx="8" fill="#eaf8ff" opacity="0.42"/><rect x="783.0" y="282" width="6" height="72" rx="3" fill="#ffdd8a" opacity="0.55"/>
  <rect x="421" y="312" width="412" height="122" rx="32" fill="#0a1724" opacity="0.88"/>
  <circle cx="627" cy="339" r="86" fill="url(#heart-sanctuary-38)" filter="url(#glow-sanctuary-38)" opacity="0.95"/>
  <path d="M0 360 C132 338, 210 386, 350 354 S620 328, 960 366 L960 420 L0 420 Z" fill="#0f2330" opacity="0.82"/>
  <path d="M362 384 C515 326, 731 414, 891 356" fill="none" stroke="#fff4cf" stroke-width="5" opacity="0.32"/>
  <text x="28" y="40" fill="#fff4cf" font-family="monospace" font-size="18" letter-spacing="5" opacity="0.5">RF 38 SANCTUARY</text>
</svg>