<svg xmlns="http://www.w3.org/2000/svg" viewBox="0 0 960 420" role="img" aria-label="sanctuary-39 unique sanctuary art">
  <defs>
    <linearGradient id="sky-sanctuary-39" x1="0" y1="0" x2="1" y2="1"><stop offset="0" stop-color="#071326"/><stop offset="0.55" stop-color="#194b63"/><stop offset="1" stop-color="#05060d"/></linearGradient>
    <radialGradient id="heart-sanctuary-39" cx="50%" cy="50%" r="55%"><stop offset="0" stop-color="#fff8d0"/><stop offset="0.38" stop-color="#ffdd8a" stop-opacity="0.78"/><stop offset="1" stop-color="#ffdd8a" stop-opacity="0"/></radialGradient>
    <filter id="glow-sanctuary-39" x="-25%" y="-25%" width="150%" height="150%"><feGaussianBlur stdDeviation="6" result="b"/><feMerge><feMergeNode in="b"/><feMergeNode in="SourceGraphic"/></feMerge></filter>
  </defs>
  <rect width="960" height="420" fill="url(#sky-sanctuary-39)"/>
  <circle cx="138" cy="176" r="5" fill="#fff3bb" opacity="0.62"/><circle cx="235" cy="245" r="2" fill="#ffdd8a" opacity="0.42"/><circle cx="332" cy="61" r="4" fill="#fff3bb" opacity="0.62"/><circle cx="429" cy="210" r="6" fill="#ffdd8a" opacity="0.42"/><circle cx="526" cy="181" r="3" fill="#fff3bb" opacity="0.62"/><circle cx="623" cy="178" r="5" fill="#ffdd8a" opacity="0.42"/><circle cx="720" cy="73" r="2" fill="#fff3bb" opacity="0.62"/><circle cx="817" cy="147" r="4" fill="#ffdd8a" opacity="0.42"/><circle cx="914" cy="81" r="6" fill="#fff3bb" opacity="0.62"/><circle cx="111" cy="174" r="3" fill="#ffdd8a" opacity="0.42"/><circle cx="208" cy="117" r="5" fill="#fff3bb" opacity="0.62"/><circle cx="305" cy="100" r="2" fill="#ffdd8a" opacity="0.42"/><circle cx="402" cy="103" r="4" fill="#fff3bb" opacity="0.62"/><circle cx="499" cy="116" r="6" fill="#ffdd8a" opacity="0.42"/><circle cx="596" cy="134" r="3" fill="#fff3bb" opacity="0.62"/><circle cx="693" cy="61" r="5" fill="#ffdd8a" opacity="0.42"/><circle cx="790" cy="130" r="2" fill="#fff3bb" opacity="0.62"/><circle cx="887" cy="176" r="4" fill="#ffdd8a" opacity="0.42"/>
  <path d="M0 294 C140 228, 260 280, 390 226 S700 266, 960 218 L960 420 L0 420 Z" fill="#07101b" opacity="0.5"/>
  <g transform="translate(104 224.84) scale(0.78)"><rect x="0" y="38" width="98" height="96" rx="18" fill="#0b1824" opacity="0.9"/><path d="M-14 44 L49 0 L112 44 Z" fill="#ffdd8a" opacity="0.42"/><circle cx="49" cy="72" r="18" fill="#ffdd8a" opacity="0.36"/><rect x="38" y="86" width="22" height="48" rx="10" fill="#fff4cc" opacity="0.48"/></g>
  <g transform="translate(693 227.04) scale(0.68)"><rect x="0" y="38" width="98" height="96" rx="18" fill="#0b1824" opacity="0.9"/><path d="M-14 44 L49 0 L112 44 Z" fill="#ffdd8a" opacity="0.42"/><circle cx="49" cy="72" r="18" fill="#ffdd8a" opacity="0.36"/><rect x="38" y="86" width="22" height="48" rx="10" fill="#fff4cc" opacity="0.48"/></g>
  <ellipse cx="388" cy="297" rx="212" ry="52" fill="#06101b" opacity="0.72"/>
  <path d="M178 307 Q388 93 598 307 Z" fill="#ffdd8a" opacity="0.36"/>
  <path d="M216 305 Q388 149 560 305" fill="none" stroke="#fff6d2" stroke-width="7" opacity="0.45"/>
  <rect x="238.0" y="277" width="18" height="97" rx="8" fill="#eaf8ff" opacity="0.42"/><rect x="244.0" y="289" width="6" height="73" rx="3" fill="#ffdd8a" opacity="0.55"/><rect x="275.5" y="277" width="18" height="113" rx="8" fill="#eaf8ff" opacity="0.42"/><rect x="281.5" y="289" width="6" height="89" rx="3" fill="#ffdd8a" opacity="0.55"/><rect x="313.0" y="277" width="18" height="121" rx="8" fill="#eaf8ff" opacity="0.42"/><rect x="319.0" y="289" width="6" height="97" rx="3" fill="#ffdd8a" opacity="0.55"/><rect x="350.5" y="277" width="18" height="125" rx="8" fill="#eaf8ff" opacity="0.42"/><rect x="356.5" y="289" width="6" height="101" rx="3" fill="#ffdd8a" opacity="0.55"/><rect x="388.0" y="277" width="18" height="127" rx="8" fill="#eaf8ff" opacity="0.42"/><rect x="394.0" y="289" width="6" height="103" rx="3" fill="#ffdd8a" opacity="0.55"/><rect x="425.5" y="277" width="18" height="128" rx="8" fill="#eaf8ff" opacity="0.42"/><rect x="431.5" y="289" width="6" height="104" rx="3" fill="#ffdd8a" opacity="0.55"/><rect x="463.0" y="277" width="18" height="129" rx="8" fill="#eaf8ff" opacity="0.42"/><rect x="469.0" y="289" width="6" height="105" rx="3" fill="#ffdd8a" opacity="0.55"/><rect x="500.5" y="277" width="18" height="129" rx="8" fill="#eaf8ff" opacity="0.42"/><rect x="506.5" y="289" width="6" height="105" rx="3" fill="#ffdd8a" opacity="0.55"/><rect x="538.0" y="277" width="18" height="129" rx="8" fill="#eaf8ff" opacity="0.42"/><rect x="544.0" y="289" width="6" height="105" rx="3" fill="#ffdd8a" opacity="0.55"/>
  <rect x="182" y="319" width="412" height="122" rx="32" fill="#0a1724" opacity="0.88"/>
  <circle cx="388" cy="346" r="86" fill="url(#heart-sanctuary-39)" filter="url(#glow-sanctuary-39)" opacity="0.95"/>
  <path d="M0 360 C132 338, 210 386, 350 354 S620 328, 960 366 L960 420 L0 420 Z" fill="#0f2330" opacity="0.82"/>
  <path d="M123 384 C276 326, 492 414, 652 356" fill="none" stroke="#fff4cf" stroke-width="5" opacity="0.32"/>
  <text x="28" y="40" fill="#fff4cf" font-family="monospace" font-size="18" letter-spacing="5" opacity="0.5">RF 39 SANCTUARY</text>
</svg>