<svg xmlns="http://www.w3.org/2000/svg" viewBox="0 0 960 420" role="img" aria-label="sanctuary-13 unique sanctuary art">
  <defs>
    <linearGradient id="sky-sanctuary-13" x1="0" y1="0" x2="1" y2="1"><stop offset="0" stop-color="#071326"/><stop offset="0.55" stop-color="#09566b"/><stop offset="1" stop-color="#05060d"/></linearGradient>
    <radialGradient id="heart-sanctuary-13" cx="50%" cy="50%" r="55%"><stop offset="0" stop-color="#fff8d0"/><stop offset="0.38" stop-color="#36f3ff" stop-opacity="0.78"/><stop offset="1" stop-color="#36f3ff" stop-opacity="0"/></radialGradient>
    <filter id="glow-sanctuary-13" x="-25%" y="-25%" width="150%" height="150%"><feGaussianBlur stdDeviation="6" result="b"/><feMerge><feMergeNode in="b"/><feMergeNode in="SourceGraphic"/></feMerge></filter>
  </defs>
  <rect width="960" height="420" fill="url(#sky-sanctuary-13)"/>
  <circle cx="434" cy="152" r="6" fill="#fff3bb" opacity="0.62"/><circle cx="531" cy="233" r="3" fill="#36f3ff" opacity="0.42"/><circle cx="628" cy="55" r="5" fill="#fff3bb" opacity="0.62"/><circle cx="725" cy="92" r="2" fill="#36f3ff" opacity="0.42"/><circle cx="822" cy="237" r="4" fill="#fff3bb" opacity="0.62"/><circle cx="919" cy="91" r="6" fill="#36f3ff" opacity="0.42"/><circle cx="116" cy="145" r="3" fill="#fff3bb" opacity="0.62"/><circle cx="213" cy="68" r="5" fill="#36f3ff" opacity="0.42"/><circle cx="310" cy="156" r="2" fill="#fff3bb" opacity="0.62"/><circle cx="407" cy="97" r="4" fill="#36f3ff" opacity="0.42"/><circle cx="504" cy="194" r="6" fill="#fff3bb" opacity="0.62"/><circle cx="601" cy="254" r="3" fill="#36f3ff" opacity="0.42"/><circle cx="698" cy="65" r="5" fill="#fff3bb" opacity="0.62"/><circle cx="795" cy="212" r="2" fill="#36f3ff" opacity="0.42"/><circle cx="892" cy="182" r="4" fill="#fff3bb" opacity="0.62"/><circle cx="89" cy="267" r="6" fill="#36f3ff" opacity="0.42"/><circle cx="186" cy="118" r="3" fill="#fff3bb" opacity="0.62"/><circle cx="283" cy="170" r="5" fill="#36f3ff" opacity="0.42"/>
  <path d="M0 294 C140 228, 260 280, 390 226 S700 266, 960 218 L960 420 L0 420 Z" fill="#07101b" opacity="0.5"/>
  <g transform="translate(120 224.84) scale(0.78)"><rect x="0" y="38" width="98" height="96" rx="18" fill="#0b1824" opacity="0.9"/><path d="M-14 44 L49 0 L112 44 Z" fill="#36f3ff" opacity="0.42"/><circle cx="49" cy="72" r="18" fill="#36f3ff" opacity="0.36"/><rect x="38" y="86" width="22" height="48" rx="10" fill="#fff4cc" opacity="0.48"/></g>
  <g transform="translate(683 227.04) scale(0.68)"><rect x="0" y="38" width="98" height="96" rx="18" fill="#0b1824" opacity="0.9"/><path d="M-14 44 L49 0 L112 44 Z" fill="#36f3ff" opacity="0.42"/><circle cx="49" cy="72" r="18" fill="#36f3ff" opacity="0.36"/><rect x="38" y="86" width="22" height="48" rx="10" fill="#fff4cc" opacity="0.48"/></g>
  <ellipse cx="404" cy="302" rx="212" ry="52" fill="#06101b" opacity="0.72"/>
  <path d="M194 312 Q404 98 614 312 Z" fill="#36f3ff" opacity="0.36"/>
  <path d="M232 310 Q404 154 576 310" fill="none" stroke="#fff6d2" stroke-width="7" opacity="0.45"/>
  <rect x="254.0" y="282" width="18" height="105" rx="8" fill="#eaf8ff" opacity="0.42"/><rect x="260.0" y="294" width="6" height="81" rx="3" fill="#36f3ff" opacity="0.55"/><rect x="304.0" y="282" width="18" height="117" rx="8" fill="#eaf8ff" opacity="0.42"/><rect x="310.0" y="294" width="6" height="93" rx="3" fill="#36f3ff" opacity="0.55"/><rect x="354.0" y="282" width="18" height="123" rx="8" fill="#eaf8ff" opacity="0.42"/><rect x="360.0" y="294" width="6" height="99" rx="3" fill="#36f3ff" opacity="0.55"/><rect x="404.0" y="282" width="18" height="126" rx="8" fill="#eaf8ff" opacity="0.42"/><rect x="410.0" y="294" width="6" height="102" rx="3" fill="#36f3ff" opacity="0.55"/><rect x="454.0" y="282" width="18" height="107" rx="8" fill="#eaf8ff" opacity="0.42"/><rect x="460.0" y="294" width="6" height="83" rx="3" fill="#36f3ff" opacity="0.55"/><rect x="504.0" y="282" width="18" height="97" rx="8" fill="#eaf8ff" opacity="0.42"/><rect x="510.0" y="294" width="6" height="73" rx="3" fill="#36f3ff" opacity="0.55"/><rect x="554.0" y="282" width="18" height="92" rx="8" fill="#eaf8ff" opacity="0.42"/><rect x="560.0" y="294" width="6" height="68" rx="3" fill="#36f3ff" opacity="0.55"/>
  <rect x="198" y="324" width="412" height="122" rx="32" fill="#0a1724" opacity="0.88"/>
  <circle cx="404" cy="351" r="86" fill="url(#heart-sanctuary-13)" filter="url(#glow-sanctuary-13)" opacity="0.95"/>
  <path d="M0 360 C132 338, 210 386, 350 354 S620 328, 960 366 L960 420 L0 420 Z" fill="#0f2330" opacity="0.82"/>
  <path d="M139 384 C292 326, 508 414, 668 356" fill="none" stroke="#c8fbff" stroke-width="5" opacity="0.32"/>
  <text x="28" y="40" fill="#c8fbff" font-family="monospace" font-size="18" letter-spacing="5" opacity="0.5">RF 13 NEON CANAL</text>
</svg>