<svg xmlns="http://www.w3.org/2000/svg" viewBox="0 0 960 420" role="img" aria-label="sanctuary-10 unique sanctuary art">
  <defs>
    <linearGradient id="sky-sanctuary-10" x1="0" y1="0" x2="1" y2="1"><stop offset="0" stop-color="#071326"/><stop offset="0.55" stop-color="#5b164e"/><stop offset="1" stop-color="#05060d"/></linearGradient>
    <radialGradient id="heart-sanctuary-10" cx="50%" cy="50%" r="55%"><stop offset="0" stop-color="#fff8d0"/><stop offset="0.38" stop-color="#ff74ee" stop-opacity="0.78"/><stop offset="1" stop-color="#ff74ee" stop-opacity="0"/></radialGradient>
    <filter id="glow-sanctuary-10" x="-25%" y="-25%" width="150%" height="150%"><feGaussianBlur stdDeviation="6" result="b"/><feMerge><feMergeNode in="b"/><feMergeNode in="SourceGraphic"/></feMerge></filter>
  </defs>
  <rect width="960" height="420" fill="url(#sky-sanctuary-10)"/>
  <circle cx="791" cy="39" r="3" fill="#fff3bb" opacity="0.62"/><circle cx="888" cy="61" r="5" fill="#ff74ee" opacity="0.42"/><circle cx="85" cy="199" r="2" fill="#fff3bb" opacity="0.62"/><circle cx="182" cy="49" r="4" fill="#ff74ee" opacity="0.42"/><circle cx="279" cy="101" r="6" fill="#fff3bb" opacity="0.62"/><circle cx="376" cy="253" r="3" fill="#ff74ee" opacity="0.42"/><circle cx="473" cy="226" r="5" fill="#fff3bb" opacity="0.62"/><circle cx="570" cy="224" r="2" fill="#ff74ee" opacity="0.42"/><circle cx="667" cy="119" r="4" fill="#fff3bb" opacity="0.62"/><circle cx="764" cy="193" r="6" fill="#ff74ee" opacity="0.42"/><circle cx="861" cy="127" r="3" fill="#fff3bb" opacity="0.62"/><circle cx="58" cy="220" r="5" fill="#ff74ee" opacity="0.42"/><circle cx="155" cy="163" r="2" fill="#fff3bb" opacity="0.62"/><circle cx="252" cy="146" r="4" fill="#ff74ee" opacity="0.42"/><circle cx="349" cy="264" r="6" fill="#fff3bb" opacity="0.62"/><circle cx="446" cy="154" r="3" fill="#ff74ee" opacity="0.42"/><circle cx="543" cy="176" r="5" fill="#fff3bb" opacity="0.62"/><circle cx="640" cy="84" r="2" fill="#ff74ee" opacity="0.42"/>
  <path d="M0 294 C140 228, 260 280, 390 226 S700 266, 960 218 L960 420 L0 420 Z" fill="#07101b" opacity="0.5"/>
  <g transform="translate(97 224.84) scale(0.78)"><rect x="0" y="38" width="98" height="96" rx="18" fill="#0b1824" opacity="0.9"/><path d="M-14 44 L49 0 L112 44 Z" fill="#ff74ee" opacity="0.42"/><circle cx="49" cy="72" r="18" fill="#ff74ee" opacity="0.36"/><rect x="38" y="86" width="22" height="48" rx="10" fill="#fff4cc" opacity="0.48"/></g>
  <g transform="translate(727 227.04) scale(0.68)"><rect x="0" y="38" width="98" height="96" rx="18" fill="#0b1824" opacity="0.9"/><path d="M-14 44 L49 0 L112 44 Z" fill="#ff74ee" opacity="0.42"/><circle cx="49" cy="72" r="18" fill="#ff74ee" opacity="0.36"/><rect x="38" y="86" width="22" height="48" rx="10" fill="#fff4cc" opacity="0.48"/></g>
  <ellipse cx="361" cy="280" rx="212" ry="52" fill="#06101b" opacity="0.72"/>
  <path d="M151 290 Q361 76 571 290 Z" fill="#ff74ee" opacity="0.36"/>
  <path d="M189 288 Q361 132 533 288" fill="none" stroke="#fff6d2" stroke-width="7" opacity="0.45"/>
  <rect x="211.0" y="260" width="18" height="119" rx="8" fill="#eaf8ff" opacity="0.42"/><rect x="217.0" y="272" width="6" height="95" rx="3" fill="#ff74ee" opacity="0.55"/><rect x="253.9" y="260" width="18" height="124" rx="8" fill="#eaf8ff" opacity="0.42"/><rect x="259.9" y="272" width="6" height="100" rx="3" fill="#ff74ee" opacity="0.55"/><rect x="296.7" y="260" width="18" height="127" rx="8" fill="#eaf8ff" opacity="0.42"/><rect x="302.7" y="272" width="6" height="103" rx="3" fill="#ff74ee" opacity="0.55"/><rect x="339.6" y="260" width="18" height="128" rx="8" fill="#eaf8ff" opacity="0.42"/><rect x="345.6" y="272" width="6" height="104" rx="3" fill="#ff74ee" opacity="0.55"/><rect x="382.4" y="260" width="18" height="108" rx="8" fill="#eaf8ff" opacity="0.42"/><rect x="388.4" y="272" width="6" height="84" rx="3" fill="#ff74ee" opacity="0.55"/><rect x="425.3" y="260" width="18" height="119" rx="8" fill="#eaf8ff" opacity="0.42"/><rect x="431.3" y="272" width="6" height="95" rx="3" fill="#ff74ee" opacity="0.55"/><rect x="468.1" y="260" width="18" height="103" rx="8" fill="#eaf8ff" opacity="0.42"/><rect x="474.1" y="272" width="6" height="79" rx="3" fill="#ff74ee" opacity="0.55"/><rect x="511.0" y="260" width="18" height="116" rx="8" fill="#eaf8ff" opacity="0.42"/><rect x="517.0" y="272" width="6" height="92" rx="3" fill="#ff74ee" opacity="0.55"/>
  <rect x="155" y="302" width="412" height="122" rx="32" fill="#0a1724" opacity="0.88"/>
  <circle cx="361" cy="329" r="86" fill="url(#heart-sanctuary-10)" filter="url(#glow-sanctuary-10)" opacity="0.95"/>
  <path d="M0 360 C132 338, 210 386, 350 354 S620 328, 960 366 L960 420 L0 420 Z" fill="#0f2330" opacity="0.82"/>
  <path d="M96 384 C249 326, 465 414, 625 356" fill="none" stroke="#ffe2fb" stroke-width="5" opacity="0.32"/>
  <text x="28" y="40" fill="#ffe2fb" font-family="monospace" font-size="18" letter-spacing="5" opacity="0.5">RF 10 DROWNED CITY</text>
</svg>