<svg xmlns="http://www.w3.org/2000/svg" viewBox="0 0 960 420" role="img" aria-label="sanctuary-6 unique sanctuary art">
  <defs>
    <linearGradient id="sky-sanctuary-6" x1="0" y1="0" x2="1" y2="1"><stop offset="0" stop-color="#071326"/><stop offset="0.55" stop-color="#194b63"/><stop offset="1" stop-color="#05060d"/></linearGradient>
    <radialGradient id="heart-sanctuary-6" cx="50%" cy="50%" r="55%"><stop offset="0" stop-color="#fff8d0"/><stop offset="0.38" stop-color="#ffdd8a" stop-opacity="0.78"/><stop offset="1" stop-color="#ffdd8a" stop-opacity="0"/></radialGradient>
    <filter id="glow-sanctuary-6" x="-25%" y="-25%" width="150%" height="150%"><feGaussianBlur stdDeviation="6" result="b"/><feMerge><feMergeNode in="b"/><feMergeNode in="SourceGraphic"/></feMerge></filter>
  </defs>
  <rect width="960" height="420" fill="url(#sky-sanctuary-6)"/>
  <circle cx="552" cy="250" r="4" fill="#fff3bb" opacity="0.62"/><circle cx="649" cy="52" r="6" fill="#ffdd8a" opacity="0.42"/><circle cx="746" cy="79" r="3" fill="#fff3bb" opacity="0.62"/><circle cx="843" cy="104" r="5" fill="#ffdd8a" opacity="0.42"/><circle cx="40" cy="128" r="2" fill="#fff3bb" opacity="0.62"/><circle cx="137" cy="267" r="4" fill="#ffdd8a" opacity="0.42"/><circle cx="234" cy="233" r="6" fill="#fff3bb" opacity="0.62"/><circle cx="331" cy="227" r="3" fill="#ffdd8a" opacity="0.42"/><circle cx="428" cy="236" r="5" fill="#fff3bb" opacity="0.62"/><circle cx="525" cy="137" r="2" fill="#ffdd8a" opacity="0.42"/><circle cx="622" cy="214" r="4" fill="#fff3bb" opacity="0.62"/><circle cx="719" cy="264" r="6" fill="#ffdd8a" opacity="0.42"/><circle cx="816" cy="185" r="3" fill="#fff3bb" opacity="0.62"/><circle cx="913" cy="157" r="5" fill="#ffdd8a" opacity="0.42"/><circle cx="110" cy="155" r="2" fill="#fff3bb" opacity="0.62"/><circle cx="207" cy="135" r="4" fill="#ffdd8a" opacity="0.42"/><circle cx="304" cy="167" r="6" fill="#fff3bb" opacity="0.62"/><circle cx="401" cy="194" r="3" fill="#ffdd8a" opacity="0.42"/>
  <path d="M0 294 C140 228, 260 280, 390 226 S700 266, 960 218 L960 420 L0 420 Z" fill="#07101b" opacity="0.5"/>
  <g transform="translate(138 224.84) scale(0.78)"><rect x="0" y="38" width="98" height="96" rx="18" fill="#0b1824" opacity="0.9"/><path d="M-14 44 L49 0 L112 44 Z" fill="#ffdd8a" opacity="0.42"/><circle cx="49" cy="72" r="18" fill="#ffdd8a" opacity="0.36"/><rect x="38" y="86" width="22" height="48" rx="10" fill="#fff4cc" opacity="0.48"/></g>
  <g transform="translate(700 227.04) scale(0.68)"><rect x="0" y="38" width="98" height="96" rx="18" fill="#0b1824" opacity="0.9"/><path d="M-14 44 L49 0 L112 44 Z" fill="#ffdd8a" opacity="0.42"/><circle cx="49" cy="72" r="18" fill="#ffdd8a" opacity="0.36"/><rect x="38" y="86" width="22" height="48" rx="10" fill="#fff4cc" opacity="0.48"/></g>
  <ellipse cx="282" cy="294" rx="212" ry="52" fill="#06101b" opacity="0.72"/>
  <path d="M72 304 Q282 90 492 304 Z" fill="#ffdd8a" opacity="0.36"/>
  <path d="M110 302 Q282 146 454 302" fill="none" stroke="#fff6d2" stroke-width="7" opacity="0.45"/>
  <rect x="132.0" y="274" width="18" height="89" rx="8" fill="#eaf8ff" opacity="0.42"/><rect x="138.0" y="286" width="6" height="65" rx="3" fill="#ffdd8a" opacity="0.55"/><rect x="182.0" y="274" width="18" height="109" rx="8" fill="#eaf8ff" opacity="0.42"/><rect x="188.0" y="286" width="6" height="85" rx="3" fill="#ffdd8a" opacity="0.55"/><rect x="232.0" y="274" width="18" height="98" rx="8" fill="#eaf8ff" opacity="0.42"/><rect x="238.0" y="286" width="6" height="74" rx="3" fill="#ffdd8a" opacity="0.55"/><rect x="282.0" y="274" width="18" height="114" rx="8" fill="#eaf8ff" opacity="0.42"/><rect x="288.0" y="286" width="6" height="90" rx="3" fill="#ffdd8a" opacity="0.55"/><rect x="332.0" y="274" width="18" height="101" rx="8" fill="#eaf8ff" opacity="0.42"/><rect x="338.0" y="286" width="6" height="77" rx="3" fill="#ffdd8a" opacity="0.55"/><rect x="382.0" y="274" width="18" height="94" rx="8" fill="#eaf8ff" opacity="0.42"/><rect x="388.0" y="286" width="6" height="70" rx="3" fill="#ffdd8a" opacity="0.55"/><rect x="432.0" y="274" width="18" height="112" rx="8" fill="#eaf8ff" opacity="0.42"/><rect x="438.0" y="286" width="6" height="88" rx="3" fill="#ffdd8a" opacity="0.55"/>
  <rect x="76" y="316" width="412" height="122" rx="32" fill="#0a1724" opacity="0.88"/>
  <circle cx="282" cy="343" r="86" fill="url(#heart-sanctuary-6)" filter="url(#glow-sanctuary-6)" opacity="0.95"/>
  <path d="M0 360 C132 338, 210 386, 350 354 S620 328, 960 366 L960 420 L0 420 Z" fill="#0f2330" opacity="0.82"/>
  <path d="M17 384 C170 326, 386 414, 546 356" fill="none" stroke="#fff4cf" stroke-width="5" opacity="0.32"/>
  <text x="28" y="40" fill="#fff4cf" font-family="monospace" font-size="18" letter-spacing="5" opacity="0.5">RF 06 SANCTUARY</text>
</svg>