<svg xmlns="http://www.w3.org/2000/svg" viewBox="0 0 960 420" role="img" aria-label="sanctuary-19 unique sanctuary art">
  <defs>
    <linearGradient id="sky-sanctuary-19" x1="0" y1="0" x2="1" y2="1"><stop offset="0" stop-color="#071326"/><stop offset="0.55" stop-color="#1e5a28"/><stop offset="1" stop-color="#05060d"/></linearGradient>
    <radialGradient id="heart-sanctuary-19" cx="50%" cy="50%" r="55%"><stop offset="0" stop-color="#fff8d0"/><stop offset="0.38" stop-color="#8dff72" stop-opacity="0.78"/><stop offset="1" stop-color="#8dff72" stop-opacity="0"/></radialGradient>
    <filter id="glow-sanctuary-19" x="-25%" y="-25%" width="150%" height="150%"><feGaussianBlur stdDeviation="6" result="b"/><feMerge><feMergeNode in="b"/><feMergeNode in="SourceGraphic"/></feMerge></filter>
  </defs>
  <rect width="960" height="420" fill="url(#sky-sanctuary-19)"/>
  <circle cx="424" cy="82" r="6" fill="#fff3bb" opacity="0.62"/><circle cx="521" cy="198" r="3" fill="#8dff72" opacity="0.42"/><circle cx="618" cy="152" r="5" fill="#fff3bb" opacity="0.62"/><circle cx="715" cy="256" r="2" fill="#8dff72" opacity="0.42"/><circle cx="812" cy="89" r="4" fill="#fff3bb" opacity="0.62"/><circle cx="909" cy="247" r="6" fill="#8dff72" opacity="0.42"/><circle cx="106" cy="108" r="3" fill="#fff3bb" opacity="0.62"/><circle cx="203" cy="50" r="5" fill="#8dff72" opacity="0.42"/><circle cx="300" cy="262" r="2" fill="#fff3bb" opacity="0.62"/><circle cx="397" cy="265" r="4" fill="#8dff72" opacity="0.42"/><circle cx="494" cy="48" r="6" fill="#fff3bb" opacity="0.62"/><circle cx="591" cy="66" r="3" fill="#8dff72" opacity="0.42"/><circle cx="688" cy="86" r="5" fill="#fff3bb" opacity="0.62"/><circle cx="785" cy="223" r="2" fill="#8dff72" opacity="0.42"/><circle cx="882" cy="73" r="4" fill="#fff3bb" opacity="0.62"/><circle cx="79" cy="197" r="6" fill="#8dff72" opacity="0.42"/><circle cx="176" cy="83" r="3" fill="#fff3bb" opacity="0.62"/><circle cx="273" cy="267" r="5" fill="#8dff72" opacity="0.42"/>
  <path d="M0 294 C140 228, 260 280, 390 226 S700 266, 960 218 L960 420 L0 420 Z" fill="#07101b" opacity="0.5"/>
  <g transform="translate(150 224.84) scale(0.78)"><rect x="0" y="38" width="98" height="96" rx="18" fill="#0b1824" opacity="0.9"/><path d="M-14 44 L49 0 L112 44 Z" fill="#8dff72" opacity="0.42"/><circle cx="49" cy="72" r="18" fill="#8dff72" opacity="0.36"/><rect x="38" y="86" width="22" height="48" rx="10" fill="#fff4cc" opacity="0.48"/></g>
  <g transform="translate(739 227.04) scale(0.68)"><rect x="0" y="38" width="98" height="96" rx="18" fill="#0b1824" opacity="0.9"/><path d="M-14 44 L49 0 L112 44 Z" fill="#8dff72" opacity="0.42"/><circle cx="49" cy="72" r="18" fill="#8dff72" opacity="0.36"/><rect x="38" y="86" width="22" height="48" rx="10" fill="#fff4cc" opacity="0.48"/></g>
  <ellipse cx="514" cy="274" rx="212" ry="52" fill="#06101b" opacity="0.72"/>
  <path d="M304 284 Q514 70 724 284 Z" fill="#8dff72" opacity="0.36"/>
  <path d="M342 282 Q514 126 686 282" fill="none" stroke="#fff6d2" stroke-width="7" opacity="0.45"/>
  <rect x="364.0" y="254" width="18" height="96" rx="8" fill="#eaf8ff" opacity="0.42"/><rect x="370.0" y="266" width="6" height="72" rx="3" fill="#8dff72" opacity="0.55"/><rect x="439.0" y="254" width="18" height="113" rx="8" fill="#eaf8ff" opacity="0.42"/><rect x="445.0" y="266" width="6" height="89" rx="3" fill="#8dff72" opacity="0.55"/><rect x="514.0" y="254" width="18" height="121" rx="8" fill="#eaf8ff" opacity="0.42"/><rect x="520.0" y="266" width="6" height="97" rx="3" fill="#8dff72" opacity="0.55"/><rect x="589.0" y="254" width="18" height="104" rx="8" fill="#eaf8ff" opacity="0.42"/><rect x="595.0" y="266" width="6" height="80" rx="3" fill="#8dff72" opacity="0.55"/><rect x="664.0" y="254" width="18" height="96" rx="8" fill="#eaf8ff" opacity="0.42"/><rect x="670.0" y="266" width="6" height="72" rx="3" fill="#8dff72" opacity="0.55"/>
  <rect x="308" y="296" width="412" height="122" rx="32" fill="#0a1724" opacity="0.88"/>
  <circle cx="514" cy="323" r="86" fill="url(#heart-sanctuary-19)" filter="url(#glow-sanctuary-19)" opacity="0.95"/>
  <path d="M0 360 C132 338, 210 386, 350 354 S620 328, 960 366 L960 420 L0 420 Z" fill="#0f2330" opacity="0.82"/>
  <path d="M249 384 C402 326, 618 414, 778 356" fill="none" stroke="#e8ffe3" stroke-width="5" opacity="0.32"/>
  <text x="28" y="40" fill="#e8ffe3" font-family="monospace" font-size="18" letter-spacing="5" opacity="0.5">RF 19 MYCEL FOREST</text>
</svg>