<svg xmlns="http://www.w3.org/2000/svg" viewBox="0 0 960 420" role="img" aria-label="sanctuary-16 unique sanctuary art">
  <defs>
    <linearGradient id="sky-sanctuary-16" x1="0" y1="0" x2="1" y2="1"><stop offset="0" stop-color="#071326"/><stop offset="0.55" stop-color="#69511c"/><stop offset="1" stop-color="#05060d"/></linearGradient>
    <radialGradient id="heart-sanctuary-16" cx="50%" cy="50%" r="55%"><stop offset="0" stop-color="#fff8d0"/><stop offset="0.38" stop-color="#ffd85f" stop-opacity="0.78"/><stop offset="1" stop-color="#ffd85f" stop-opacity="0"/></radialGradient>
    <filter id="glow-sanctuary-16" x="-25%" y="-25%" width="150%" height="150%"><feGaussianBlur stdDeviation="6" result="b"/><feMerge><feMergeNode in="b"/><feMergeNode in="SourceGraphic"/></feMerge></filter>
  </defs>
  <rect width="960" height="420" fill="url(#sky-sanctuary-16)"/>
  <circle cx="77" cy="265" r="4" fill="#fff3bb" opacity="0.62"/><circle cx="174" cy="174" r="6" fill="#ffd85f" opacity="0.42"/><circle cx="271" cy="140" r="3" fill="#fff3bb" opacity="0.62"/><circle cx="368" cy="135" r="5" fill="#ffd85f" opacity="0.42"/><circle cx="465" cy="144" r="2" fill="#fff3bb" opacity="0.62"/><circle cx="562" cy="160" r="4" fill="#ffd85f" opacity="0.42"/><circle cx="659" cy="64" r="6" fill="#fff3bb" opacity="0.62"/><circle cx="756" cy="143" r="3" fill="#ffd85f" opacity="0.42"/><circle cx="853" cy="194" r="5" fill="#fff3bb" opacity="0.62"/><circle cx="50" cy="231" r="2" fill="#ffd85f" opacity="0.42"/><circle cx="147" cy="261" r="4" fill="#fff3bb" opacity="0.62"/><circle cx="244" cy="57" r="6" fill="#ffd85f" opacity="0.42"/><circle cx="341" cy="197" r="3" fill="#fff3bb" opacity="0.62"/><circle cx="438" cy="48" r="5" fill="#ffd85f" opacity="0.42"/><circle cx="535" cy="100" r="2" fill="#fff3bb" opacity="0.62"/><circle cx="632" cy="150" r="4" fill="#ffd85f" opacity="0.42"/><circle cx="729" cy="59" r="6" fill="#fff3bb" opacity="0.62"/><circle cx="826" cy="255" r="3" fill="#ffd85f" opacity="0.42"/>
  <path d="M0 294 C140 228, 260 280, 390 226 S700 266, 960 218 L960 420 L0 420 Z" fill="#07101b" opacity="0.5"/>
  <g transform="translate(143 224.84) scale(0.78)"><rect x="0" y="38" width="98" height="96" rx="18" fill="#0b1824" opacity="0.9"/><path d="M-14 44 L49 0 L112 44 Z" fill="#ffd85f" opacity="0.42"/><circle cx="49" cy="72" r="18" fill="#ffd85f" opacity="0.36"/><rect x="38" y="86" width="22" height="48" rx="10" fill="#fff4cc" opacity="0.48"/></g>
  <g transform="translate(730 227.04) scale(0.68)"><rect x="0" y="38" width="98" height="96" rx="18" fill="#0b1824" opacity="0.9"/><path d="M-14 44 L49 0 L112 44 Z" fill="#ffd85f" opacity="0.42"/><circle cx="49" cy="72" r="18" fill="#ffd85f" opacity="0.36"/><rect x="38" y="86" width="22" height="48" rx="10" fill="#fff4cc" opacity="0.48"/></g>
  <ellipse cx="447" cy="279" rx="212" ry="52" fill="#06101b" opacity="0.72"/>
  <path d="M237 289 Q447 75 657 289 Z" fill="#ffd85f" opacity="0.36"/>
  <path d="M275 287 Q447 131 619 287" fill="none" stroke="#fff6d2" stroke-width="7" opacity="0.45"/>
  <rect x="297.0" y="259" width="18" height="90" rx="8" fill="#eaf8ff" opacity="0.42"/><rect x="303.0" y="271" width="6" height="66" rx="3" fill="#ffd85f" opacity="0.55"/><rect x="357.0" y="259" width="18" height="110" rx="8" fill="#eaf8ff" opacity="0.42"/><rect x="363.0" y="271" width="6" height="86" rx="3" fill="#ffd85f" opacity="0.55"/><rect x="417.0" y="259" width="18" height="120" rx="8" fill="#eaf8ff" opacity="0.42"/><rect x="423.0" y="271" width="6" height="96" rx="3" fill="#ffd85f" opacity="0.55"/><rect x="477.0" y="259" width="18" height="125" rx="8" fill="#eaf8ff" opacity="0.42"/><rect x="483.0" y="271" width="6" height="101" rx="3" fill="#ffd85f" opacity="0.55"/><rect x="537.0" y="259" width="18" height="106" rx="8" fill="#eaf8ff" opacity="0.42"/><rect x="543.0" y="271" width="6" height="82" rx="3" fill="#ffd85f" opacity="0.55"/><rect x="597.0" y="259" width="18" height="118" rx="8" fill="#eaf8ff" opacity="0.42"/><rect x="603.0" y="271" width="6" height="94" rx="3" fill="#ffd85f" opacity="0.55"/>
  <rect x="241" y="301" width="412" height="122" rx="32" fill="#0a1724" opacity="0.88"/>
  <circle cx="447" cy="328" r="86" fill="url(#heart-sanctuary-16)" filter="url(#glow-sanctuary-16)" opacity="0.95"/>
  <path d="M0 360 C132 338, 210 386, 350 354 S620 328, 960 366 L960 420 L0 420 Z" fill="#0f2330" opacity="0.82"/>
  <path d="M182 384 C335 326, 551 414, 711 356" fill="none" stroke="#fff1ba" stroke-width="5" opacity="0.32"/>
  <text x="28" y="40" fill="#fff1ba" font-family="monospace" font-size="18" letter-spacing="5" opacity="0.5">RF 16 STONE WASTE</text>
</svg>