<svg xmlns="http://www.w3.org/2000/svg" viewBox="0 0 960 420" role="img" aria-label="sanctuary-41 unique sanctuary art">
  <defs>
    <linearGradient id="sky-sanctuary-41" x1="0" y1="0" x2="1" y2="1"><stop offset="0" stop-color="#071326"/><stop offset="0.55" stop-color="#194b63"/><stop offset="1" stop-color="#05060d"/></linearGradient>
    <radialGradient id="heart-sanctuary-41" cx="50%" cy="50%" r="55%"><stop offset="0" stop-color="#fff8d0"/><stop offset="0.38" stop-color="#ffdd8a" stop-opacity="0.78"/><stop offset="1" stop-color="#ffdd8a" stop-opacity="0"/></radialGradient>
    <filter id="glow-sanctuary-41" x="-25%" y="-25%" width="150%" height="150%"><feGaussianBlur stdDeviation="6" result="b"/><feMerge><feMergeNode in="b"/><feMergeNode in="SourceGraphic"/></feMerge></filter>
  </defs>
  <rect width="960" height="420" fill="url(#sky-sanctuary-41)"/>
  <circle cx="405" cy="93" r="2" fill="#fff3bb" opacity="0.62"/><circle cx="502" cy="88" r="4" fill="#ffdd8a" opacity="0.42"/><circle cx="599" cy="212" r="6" fill="#fff3bb" opacity="0.62"/><circle cx="696" cy="56" r="3" fill="#ffdd8a" opacity="0.42"/><circle cx="793" cy="219" r="5" fill="#fff3bb" opacity="0.62"/><circle cx="890" cy="197" r="2" fill="#ffdd8a" opacity="0.42"/><circle cx="87" cy="83" r="4" fill="#fff3bb" opacity="0.62"/><circle cx="184" cy="267" r="6" fill="#ffdd8a" opacity="0.42"/><circle cx="281" cy="256" r="3" fill="#fff3bb" opacity="0.62"/><circle cx="378" cy="262" r="5" fill="#ffdd8a" opacity="0.42"/><circle cx="475" cy="161" r="2" fill="#fff3bb" opacity="0.62"/><circle cx="572" cy="237" r="4" fill="#ffdd8a" opacity="0.42"/><circle cx="669" cy="57" r="6" fill="#fff3bb" opacity="0.62"/><circle cx="766" cy="208" r="3" fill="#ffdd8a" opacity="0.42"/><circle cx="863" cy="65" r="5" fill="#fff3bb" opacity="0.62"/><circle cx="60" cy="208" r="2" fill="#ffdd8a" opacity="0.42"/><circle cx="157" cy="203" r="4" fill="#fff3bb" opacity="0.62"/><circle cx="254" cy="97" r="6" fill="#ffdd8a" opacity="0.42"/>
  <path d="M0 294 C140 228, 260 280, 390 226 S700 266, 960 218 L960 420 L0 420 Z" fill="#07101b" opacity="0.5"/>
  <g transform="translate(151 224.84) scale(0.78)"><rect x="0" y="38" width="98" height="96" rx="18" fill="#0b1824" opacity="0.9"/><path d="M-14 44 L49 0 L112 44 Z" fill="#ffdd8a" opacity="0.42"/><circle cx="49" cy="72" r="18" fill="#ffdd8a" opacity="0.36"/><rect x="38" y="86" width="22" height="48" rx="10" fill="#fff4cc" opacity="0.48"/></g>
  <g transform="translate(655 227.04) scale(0.68)"><rect x="0" y="38" width="98" height="96" rx="18" fill="#0b1824" opacity="0.9"/><path d="M-14 44 L49 0 L112 44 Z" fill="#ffdd8a" opacity="0.42"/><circle cx="49" cy="72" r="18" fill="#ffdd8a" opacity="0.36"/><rect x="38" y="86" width="22" height="48" rx="10" fill="#fff4cc" opacity="0.48"/></g>
  <ellipse cx="335" cy="316" rx="212" ry="52" fill="#06101b" opacity="0.72"/>
  <path d="M125 326 Q335 112 545 326 Z" fill="#ffdd8a" opacity="0.36"/>
  <path d="M163 324 Q335 168 507 324" fill="none" stroke="#fff6d2" stroke-width="7" opacity="0.45"/>
  <rect x="185.0" y="296" width="18" height="94" rx="8" fill="#eaf8ff" opacity="0.42"/><rect x="191.0" y="308" width="6" height="70" rx="3" fill="#ffdd8a" opacity="0.55"/><rect x="235.0" y="296" width="18" height="91" rx="8" fill="#eaf8ff" opacity="0.42"/><rect x="241.0" y="308" width="6" height="67" rx="3" fill="#ffdd8a" opacity="0.55"/><rect x="285.0" y="296" width="18" height="89" rx="8" fill="#eaf8ff" opacity="0.42"/><rect x="291.0" y="308" width="6" height="65" rx="3" fill="#ffdd8a" opacity="0.55"/><rect x="335.0" y="296" width="18" height="88" rx="8" fill="#eaf8ff" opacity="0.42"/><rect x="341.0" y="308" width="6" height="64" rx="3" fill="#ffdd8a" opacity="0.55"/><rect x="385.0" y="296" width="18" height="109" rx="8" fill="#eaf8ff" opacity="0.42"/><rect x="391.0" y="308" width="6" height="85" rx="3" fill="#ffdd8a" opacity="0.55"/><rect x="435.0" y="296" width="18" height="98" rx="8" fill="#eaf8ff" opacity="0.42"/><rect x="441.0" y="308" width="6" height="74" rx="3" fill="#ffdd8a" opacity="0.55"/><rect x="485.0" y="296" width="18" height="114" rx="8" fill="#eaf8ff" opacity="0.42"/><rect x="491.0" y="308" width="6" height="90" rx="3" fill="#ffdd8a" opacity="0.55"/>
  <rect x="129" y="338" width="412" height="122" rx="32" fill="#0a1724" opacity="0.88"/>
  <circle cx="335" cy="365" r="86" fill="url(#heart-sanctuary-41)" filter="url(#glow-sanctuary-41)" opacity="0.95"/>
  <path d="M0 360 C132 338, 210 386, 350 354 S620 328, 960 366 L960 420 L0 420 Z" fill="#0f2330" opacity="0.82"/>
  <path d="M70 384 C223 326, 439 414, 599 356" fill="none" stroke="#fff4cf" stroke-width="5" opacity="0.32"/>
  <text x="28" y="40" fill="#fff4cf" font-family="monospace" font-size="18" letter-spacing="5" opacity="0.5">RF 41 SANCTUARY</text>
</svg>