<svg xmlns="http://www.w3.org/2000/svg" viewBox="0 0 960 420" role="img" aria-label="sanctuary-35 unique sanctuary art">
  <defs>
    <linearGradient id="sky-sanctuary-35" x1="0" y1="0" x2="1" y2="1"><stop offset="0" stop-color="#071326"/><stop offset="0.55" stop-color="#194b63"/><stop offset="1" stop-color="#05060d"/></linearGradient>
    <radialGradient id="heart-sanctuary-35" cx="50%" cy="50%" r="55%"><stop offset="0" stop-color="#fff8d0"/><stop offset="0.38" stop-color="#ffdd8a" stop-opacity="0.78"/><stop offset="1" stop-color="#ffdd8a" stop-opacity="0"/></radialGradient>
    <filter id="glow-sanctuary-35" x="-25%" y="-25%" width="150%" height="150%"><feGaussianBlur stdDeviation="6" result="b"/><feMerge><feMergeNode in="b"/><feMergeNode in="SourceGraphic"/></feMerge></filter>
  </defs>
  <rect width="960" height="420" fill="url(#sky-sanctuary-35)"/>
  <circle cx="314" cy="102" r="6" fill="#fff3bb" opacity="0.62"/><circle cx="411" cy="93" r="3" fill="#ffdd8a" opacity="0.42"/><circle cx="508" cy="100" r="5" fill="#fff3bb" opacity="0.62"/><circle cx="605" cy="230" r="2" fill="#ffdd8a" opacity="0.42"/><circle cx="702" cy="76" r="4" fill="#fff3bb" opacity="0.62"/><circle cx="799" cy="241" r="6" fill="#ffdd8a" opacity="0.42"/><circle cx="896" cy="105" r="3" fill="#fff3bb" opacity="0.62"/><circle cx="93" cy="48" r="5" fill="#ffdd8a" opacity="0.42"/><circle cx="190" cy="261" r="2" fill="#fff3bb" opacity="0.62"/><circle cx="287" cy="149" r="4" fill="#ffdd8a" opacity="0.42"/><circle cx="384" cy="105" r="6" fill="#fff3bb" opacity="0.62"/><circle cx="481" cy="209" r="3" fill="#ffdd8a" opacity="0.42"/><circle cx="578" cy="158" r="5" fill="#fff3bb" opacity="0.62"/><circle cx="675" cy="259" r="2" fill="#ffdd8a" opacity="0.42"/><circle cx="772" cy="91" r="4" fill="#fff3bb" opacity="0.62"/><circle cx="869" cy="217" r="6" fill="#ffdd8a" opacity="0.42"/><circle cx="66" cy="208" r="3" fill="#fff3bb" opacity="0.62"/><circle cx="163" cy="215" r="5" fill="#ffdd8a" opacity="0.42"/>
  <path d="M0 294 C140 228, 260 280, 390 226 S700 266, 960 218 L960 420 L0 420 Z" fill="#07101b" opacity="0.5"/>
  <g transform="translate(100 224.84) scale(0.78)"><rect x="0" y="38" width="98" height="96" rx="18" fill="#0b1824" opacity="0.9"/><path d="M-14 44 L49 0 L112 44 Z" fill="#ffdd8a" opacity="0.42"/><circle cx="49" cy="72" r="18" fill="#ffdd8a" opacity="0.36"/><rect x="38" y="86" width="22" height="48" rx="10" fill="#fff4cc" opacity="0.48"/></g>
  <g transform="translate(660 227.04) scale(0.68)"><rect x="0" y="38" width="98" height="96" rx="18" fill="#0b1824" opacity="0.9"/><path d="M-14 44 L49 0 L112 44 Z" fill="#ffdd8a" opacity="0.42"/><circle cx="49" cy="72" r="18" fill="#ffdd8a" opacity="0.36"/><rect x="38" y="86" width="22" height="48" rx="10" fill="#fff4cc" opacity="0.48"/></g>
  <ellipse cx="584" cy="314" rx="212" ry="52" fill="#06101b" opacity="0.72"/>
  <path d="M374 324 Q584 110 794 324 Z" fill="#ffdd8a" opacity="0.36"/>
  <path d="M412 322 Q584 166 756 322" fill="none" stroke="#fff6d2" stroke-width="7" opacity="0.45"/>
  <rect x="434.0" y="294" width="18" height="102" rx="8" fill="#eaf8ff" opacity="0.42"/><rect x="440.0" y="306" width="6" height="78" rx="3" fill="#ffdd8a" opacity="0.55"/><rect x="471.5" y="294" width="18" height="95" rx="8" fill="#eaf8ff" opacity="0.42"/><rect x="477.5" y="306" width="6" height="71" rx="3" fill="#ffdd8a" opacity="0.55"/><rect x="509.0" y="294" width="18" height="112" rx="8" fill="#eaf8ff" opacity="0.42"/><rect x="515.0" y="306" width="6" height="88" rx="3" fill="#ffdd8a" opacity="0.55"/><rect x="546.5" y="294" width="18" height="100" rx="8" fill="#eaf8ff" opacity="0.42"/><rect x="552.5" y="306" width="6" height="76" rx="3" fill="#ffdd8a" opacity="0.55"/><rect x="584.0" y="294" width="18" height="115" rx="8" fill="#eaf8ff" opacity="0.42"/><rect x="590.0" y="306" width="6" height="91" rx="3" fill="#ffdd8a" opacity="0.55"/><rect x="621.5" y="294" width="18" height="101" rx="8" fill="#eaf8ff" opacity="0.42"/><rect x="627.5" y="306" width="6" height="77" rx="3" fill="#ffdd8a" opacity="0.55"/><rect x="659.0" y="294" width="18" height="115" rx="8" fill="#eaf8ff" opacity="0.42"/><rect x="665.0" y="306" width="6" height="91" rx="3" fill="#ffdd8a" opacity="0.55"/><rect x="696.5" y="294" width="18" height="122" rx="8" fill="#eaf8ff" opacity="0.42"/><rect x="702.5" y="306" width="6" height="98" rx="3" fill="#ffdd8a" opacity="0.55"/><rect x="734.0" y="294" width="18" height="105" rx="8" fill="#eaf8ff" opacity="0.42"/><rect x="740.0" y="306" width="6" height="81" rx="3" fill="#ffdd8a" opacity="0.55"/>
  <rect x="378" y="336" width="412" height="122" rx="32" fill="#0a1724" opacity="0.88"/>
  <circle cx="584" cy="363" r="86" fill="url(#heart-sanctuary-35)" filter="url(#glow-sanctuary-35)" opacity="0.95"/>
  <path d="M0 360 C132 338, 210 386, 350 354 S620 328, 960 366 L960 420 L0 420 Z" fill="#0f2330" opacity="0.82"/>
  <path d="M319 384 C472 326, 688 414, 848 356" fill="none" stroke="#fff4cf" stroke-width="5" opacity="0.32"/>
  <text x="28" y="40" fill="#fff4cf" font-family="monospace" font-size="18" letter-spacing="5" opacity="0.5">RF 35 SANCTUARY</text>
</svg>