<svg xmlns="http://www.w3.org/2000/svg" viewBox="0 0 960 420" role="img" aria-label="sanctuary-29 unique sanctuary art">
  <defs>
    <linearGradient id="sky-sanctuary-29" x1="0" y1="0" x2="1" y2="1"><stop offset="0" stop-color="#071326"/><stop offset="0.55" stop-color="#194b63"/><stop offset="1" stop-color="#05060d"/></linearGradient>
    <radialGradient id="heart-sanctuary-29" cx="50%" cy="50%" r="55%"><stop offset="0" stop-color="#fff8d0"/><stop offset="0.38" stop-color="#ffdd8a" stop-opacity="0.78"/><stop offset="1" stop-color="#ffdd8a" stop-opacity="0"/></radialGradient>
    <filter id="glow-sanctuary-29" x="-25%" y="-25%" width="150%" height="150%"><feGaussianBlur stdDeviation="6" result="b"/><feMerge><feMergeNode in="b"/><feMergeNode in="SourceGraphic"/></feMerge></filter>
  </defs>
  <rect width="960" height="420" fill="url(#sky-sanctuary-29)"/>
  <circle cx="467" cy="125" r="4" fill="#fff3bb" opacity="0.62"/><circle cx="564" cy="219" r="6" fill="#ffdd8a" opacity="0.42"/><circle cx="661" cy="48" r="3" fill="#fff3bb" opacity="0.62"/><circle cx="758" cy="204" r="5" fill="#ffdd8a" opacity="0.42"/><circle cx="855" cy="63" r="2" fill="#fff3bb" opacity="0.62"/><circle cx="52" cy="119" r="4" fill="#ffdd8a" opacity="0.42"/><circle cx="149" cy="44" r="6" fill="#fff3bb" opacity="0.62"/><circle cx="246" cy="248" r="3" fill="#ffdd8a" opacity="0.42"/><circle cx="343" cy="246" r="5" fill="#fff3bb" opacity="0.62"/><circle cx="440" cy="142" r="2" fill="#ffdd8a" opacity="0.42"/><circle cx="537" cy="216" r="4" fill="#fff3bb" opacity="0.62"/><circle cx="634" cy="150" r="6" fill="#ffdd8a" opacity="0.42"/><circle cx="731" cy="243" r="3" fill="#fff3bb" opacity="0.62"/><circle cx="828" cy="186" r="5" fill="#ffdd8a" opacity="0.42"/><circle cx="925" cy="169" r="2" fill="#fff3bb" opacity="0.62"/><circle cx="122" cy="240" r="4" fill="#ffdd8a" opacity="0.42"/><circle cx="219" cy="104" r="6" fill="#fff3bb" opacity="0.62"/><circle cx="316" cy="163" r="3" fill="#ffdd8a" opacity="0.42"/>
  <path d="M0 294 C140 228, 260 280, 390 226 S700 266, 960 218 L960 420 L0 420 Z" fill="#07101b" opacity="0.5"/>
  <g transform="translate(133 224.84) scale(0.78)"><rect x="0" y="38" width="98" height="96" rx="18" fill="#0b1824" opacity="0.9"/><path d="M-14 44 L49 0 L112 44 Z" fill="#ffdd8a" opacity="0.42"/><circle cx="49" cy="72" r="18" fill="#ffdd8a" opacity="0.36"/><rect x="38" y="86" width="22" height="48" rx="10" fill="#fff4cc" opacity="0.48"/></g>
  <g transform="translate(719 227.04) scale(0.68)"><rect x="0" y="38" width="98" height="96" rx="18" fill="#0b1824" opacity="0.9"/><path d="M-14 44 L49 0 L112 44 Z" fill="#ffdd8a" opacity="0.42"/><circle cx="49" cy="72" r="18" fill="#ffdd8a" opacity="0.36"/><rect x="38" y="86" width="22" height="48" rx="10" fill="#fff4cc" opacity="0.48"/></g>
  <ellipse cx="537" cy="284" rx="212" ry="52" fill="#06101b" opacity="0.72"/>
  <path d="M327 294 Q537 80 747 294 Z" fill="#ffdd8a" opacity="0.36"/>
  <path d="M365 292 Q537 136 709 292" fill="none" stroke="#fff6d2" stroke-width="7" opacity="0.45"/>
  <rect x="387.0" y="264" width="18" height="110" rx="8" fill="#eaf8ff" opacity="0.42"/><rect x="393.0" y="276" width="6" height="86" rx="3" fill="#ffdd8a" opacity="0.55"/><rect x="437.0" y="264" width="18" height="99" rx="8" fill="#eaf8ff" opacity="0.42"/><rect x="443.0" y="276" width="6" height="75" rx="3" fill="#ffdd8a" opacity="0.55"/><rect x="487.0" y="264" width="18" height="93" rx="8" fill="#eaf8ff" opacity="0.42"/><rect x="493.0" y="276" width="6" height="69" rx="3" fill="#ffdd8a" opacity="0.55"/><rect x="537.0" y="264" width="18" height="90" rx="8" fill="#eaf8ff" opacity="0.42"/><rect x="543.0" y="276" width="6" height="66" rx="3" fill="#ffdd8a" opacity="0.55"/><rect x="587.0" y="264" width="18" height="110" rx="8" fill="#eaf8ff" opacity="0.42"/><rect x="593.0" y="276" width="6" height="86" rx="3" fill="#ffdd8a" opacity="0.55"/><rect x="637.0" y="264" width="18" height="99" rx="8" fill="#eaf8ff" opacity="0.42"/><rect x="643.0" y="276" width="6" height="75" rx="3" fill="#ffdd8a" opacity="0.55"/><rect x="687.0" y="264" width="18" height="114" rx="8" fill="#eaf8ff" opacity="0.42"/><rect x="693.0" y="276" width="6" height="90" rx="3" fill="#ffdd8a" opacity="0.55"/>
  <rect x="331" y="306" width="412" height="122" rx="32" fill="#0a1724" opacity="0.88"/>
  <circle cx="537" cy="333" r="86" fill="url(#heart-sanctuary-29)" filter="url(#glow-sanctuary-29)" opacity="0.95"/>
  <path d="M0 360 C132 338, 210 386, 350 354 S620 328, 960 366 L960 420 L0 420 Z" fill="#0f2330" opacity="0.82"/>
  <path d="M272 384 C425 326, 641 414, 801 356" fill="none" stroke="#fff4cf" stroke-width="5" opacity="0.32"/>
  <text x="28" y="40" fill="#fff4cf" font-family="monospace" font-size="18" letter-spacing="5" opacity="0.5">RF 29 SANCTUARY</text>
</svg>