<svg xmlns="http://www.w3.org/2000/svg" viewBox="0 0 960 420" role="img" aria-label="sanctuary-12 unique sanctuary art">
  <defs>
    <linearGradient id="sky-sanctuary-12" x1="0" y1="0" x2="1" y2="1"><stop offset="0" stop-color="#071326"/><stop offset="0.55" stop-color="#194b63"/><stop offset="1" stop-color="#05060d"/></linearGradient>
    <radialGradient id="heart-sanctuary-12" cx="50%" cy="50%" r="55%"><stop offset="0" stop-color="#fff8d0"/><stop offset="0.38" stop-color="#ffdd8a" stop-opacity="0.78"/><stop offset="1" stop-color="#ffdd8a" stop-opacity="0"/></radialGradient>
    <filter id="glow-sanctuary-12" x="-25%" y="-25%" width="150%" height="150%"><feGaussianBlur stdDeviation="6" result="b"/><feMerge><feMergeNode in="b"/><feMergeNode in="SourceGraphic"/></feMerge></filter>
  </defs>
  <rect width="960" height="420" fill="url(#sky-sanctuary-12)"/>
  <circle cx="253" cy="191" r="5" fill="#fff3bb" opacity="0.62"/><circle cx="350" cy="252" r="2" fill="#ffdd8a" opacity="0.42"/><circle cx="447" cy="179" r="4" fill="#fff3bb" opacity="0.62"/><circle cx="544" cy="154" r="6" fill="#ffdd8a" opacity="0.42"/><circle cx="641" cy="38" r="3" fill="#fff3bb" opacity="0.62"/><circle cx="738" cy="222" r="5" fill="#ffdd8a" opacity="0.42"/><circle cx="835" cy="95" r="2" fill="#fff3bb" opacity="0.62"/><circle cx="32" cy="43" r="4" fill="#ffdd8a" opacity="0.42"/><circle cx="129" cy="144" r="6" fill="#fff3bb" opacity="0.62"/><circle cx="226" cy="206" r="3" fill="#ffdd8a" opacity="0.42"/><circle cx="323" cy="248" r="5" fill="#fff3bb" opacity="0.62"/><circle cx="420" cy="166" r="2" fill="#ffdd8a" opacity="0.42"/><circle cx="517" cy="251" r="4" fill="#fff3bb" opacity="0.62"/><circle cx="614" cy="190" r="6" fill="#ffdd8a" opacity="0.42"/><circle cx="711" cy="56" r="3" fill="#fff3bb" opacity="0.62"/><circle cx="808" cy="76" r="5" fill="#ffdd8a" opacity="0.42"/><circle cx="905" cy="137" r="2" fill="#fff3bb" opacity="0.62"/><circle cx="102" cy="64" r="4" fill="#ffdd8a" opacity="0.42"/>
  <path d="M0 294 C140 228, 260 280, 390 226 S700 266, 960 218 L960 420 L0 420 Z" fill="#07101b" opacity="0.5"/>
  <g transform="translate(139 224.84) scale(0.78)"><rect x="0" y="38" width="98" height="96" rx="18" fill="#0b1824" opacity="0.9"/><path d="M-14 44 L49 0 L112 44 Z" fill="#ffdd8a" opacity="0.42"/><circle cx="49" cy="72" r="18" fill="#ffdd8a" opacity="0.36"/><rect x="38" y="86" width="22" height="48" rx="10" fill="#fff4cc" opacity="0.48"/></g>
  <g transform="translate(698 227.04) scale(0.68)"><rect x="0" y="38" width="98" height="96" rx="18" fill="#0b1824" opacity="0.9"/><path d="M-14 44 L49 0 L112 44 Z" fill="#ffdd8a" opacity="0.42"/><circle cx="49" cy="72" r="18" fill="#ffdd8a" opacity="0.36"/><rect x="38" y="86" width="22" height="48" rx="10" fill="#fff4cc" opacity="0.48"/></g>
  <ellipse cx="643" cy="295" rx="212" ry="52" fill="#06101b" opacity="0.72"/>
  <path d="M433 305 Q643 91 853 305 Z" fill="#ffdd8a" opacity="0.36"/>
  <path d="M471 303 Q643 147 815 303" fill="none" stroke="#fff6d2" stroke-width="7" opacity="0.45"/>
  <rect x="493.0" y="275" width="18" height="95" rx="8" fill="#eaf8ff" opacity="0.42"/><rect x="499.0" y="287" width="6" height="71" rx="3" fill="#ffdd8a" opacity="0.55"/><rect x="553.0" y="275" width="18" height="91" rx="8" fill="#eaf8ff" opacity="0.42"/><rect x="559.0" y="287" width="6" height="67" rx="3" fill="#ffdd8a" opacity="0.55"/><rect x="613.0" y="275" width="18" height="110" rx="8" fill="#eaf8ff" opacity="0.42"/><rect x="619.0" y="287" width="6" height="86" rx="3" fill="#ffdd8a" opacity="0.55"/><rect x="673.0" y="275" width="18" height="99" rx="8" fill="#eaf8ff" opacity="0.42"/><rect x="679.0" y="287" width="6" height="75" rx="3" fill="#ffdd8a" opacity="0.55"/><rect x="733.0" y="275" width="18" height="93" rx="8" fill="#eaf8ff" opacity="0.42"/><rect x="739.0" y="287" width="6" height="69" rx="3" fill="#ffdd8a" opacity="0.55"/><rect x="793.0" y="275" width="18" height="90" rx="8" fill="#eaf8ff" opacity="0.42"/><rect x="799.0" y="287" width="6" height="66" rx="3" fill="#ffdd8a" opacity="0.55"/>
  <rect x="437" y="317" width="412" height="122" rx="32" fill="#0a1724" opacity="0.88"/>
  <circle cx="643" cy="344" r="86" fill="url(#heart-sanctuary-12)" filter="url(#glow-sanctuary-12)" opacity="0.95"/>
  <path d="M0 360 C132 338, 210 386, 350 354 S620 328, 960 366 L960 420 L0 420 Z" fill="#0f2330" opacity="0.82"/>
  <path d="M378 384 C531 326, 747 414, 907 356" fill="none" stroke="#fff4cf" stroke-width="5" opacity="0.32"/>
  <text x="28" y="40" fill="#fff4cf" font-family="monospace" font-size="18" letter-spacing="5" opacity="0.5">RF 12 SANCTUARY</text>
</svg>