<svg xmlns="http://www.w3.org/2000/svg" viewBox="0 0 960 420" role="img" aria-label="sanctuary-8 unique sanctuary art">
  <defs>
    <linearGradient id="sky-sanctuary-8" x1="0" y1="0" x2="1" y2="1"><stop offset="0" stop-color="#071326"/><stop offset="0.55" stop-color="#194b63"/><stop offset="1" stop-color="#05060d"/></linearGradient>
    <radialGradient id="heart-sanctuary-8" cx="50%" cy="50%" r="55%"><stop offset="0" stop-color="#fff8d0"/><stop offset="0.38" stop-color="#ffdd8a" stop-opacity="0.78"/><stop offset="1" stop-color="#ffdd8a" stop-opacity="0"/></radialGradient>
    <filter id="glow-sanctuary-8" x="-25%" y="-25%" width="150%" height="150%"><feGaussianBlur stdDeviation="6" result="b"/><feMerge><feMergeNode in="b"/><feMergeNode in="SourceGraphic"/></feMerge></filter>
  </defs>
  <rect width="960" height="420" fill="url(#sky-sanctuary-8)"/>
  <circle cx="738" cy="246" r="5" fill="#fff3bb" opacity="0.62"/><circle cx="835" cy="165" r="2" fill="#ffdd8a" opacity="0.42"/><circle cx="32" cy="251" r="4" fill="#fff3bb" opacity="0.62"/><circle cx="129" cy="190" r="6" fill="#ffdd8a" opacity="0.42"/><circle cx="226" cy="171" r="3" fill="#fff3bb" opacity="0.62"/><circle cx="323" cy="173" r="5" fill="#ffdd8a" opacity="0.42"/><circle cx="420" cy="71" r="2" fill="#fff3bb" opacity="0.62"/><circle cx="517" cy="146" r="4" fill="#ffdd8a" opacity="0.42"/><circle cx="614" cy="80" r="6" fill="#fff3bb" opacity="0.62"/><circle cx="711" cy="174" r="3" fill="#ffdd8a" opacity="0.42"/><circle cx="808" cy="117" r="5" fill="#fff3bb" opacity="0.62"/><circle cx="905" cy="100" r="2" fill="#ffdd8a" opacity="0.42"/><circle cx="102" cy="218" r="4" fill="#fff3bb" opacity="0.62"/><circle cx="199" cy="59" r="6" fill="#ffdd8a" opacity="0.42"/><circle cx="296" cy="221" r="3" fill="#fff3bb" opacity="0.62"/><circle cx="393" cy="131" r="5" fill="#ffdd8a" opacity="0.42"/><circle cx="490" cy="50" r="2" fill="#fff3bb" opacity="0.62"/><circle cx="587" cy="136" r="4" fill="#ffdd8a" opacity="0.42"/>
  <path d="M0 294 C140 228, 260 280, 390 226 S700 266, 960 218 L960 420 L0 420 Z" fill="#07101b" opacity="0.5"/>
  <g transform="translate(104 224.84) scale(0.78)"><rect x="0" y="38" width="98" height="96" rx="18" fill="#0b1824" opacity="0.9"/><path d="M-14 44 L49 0 L112 44 Z" fill="#ffdd8a" opacity="0.42"/><circle cx="49" cy="72" r="18" fill="#ffdd8a" opacity="0.36"/><rect x="38" y="86" width="22" height="48" rx="10" fill="#fff4cc" opacity="0.48"/></g>
  <g transform="translate(703 227.04) scale(0.68)"><rect x="0" y="38" width="98" height="96" rx="18" fill="#0b1824" opacity="0.9"/><path d="M-14 44 L49 0 L112 44 Z" fill="#ffdd8a" opacity="0.42"/><circle cx="49" cy="72" r="18" fill="#ffdd8a" opacity="0.36"/><rect x="38" y="86" width="22" height="48" rx="10" fill="#fff4cc" opacity="0.48"/></g>
  <ellipse cx="368" cy="292" rx="212" ry="52" fill="#06101b" opacity="0.72"/>
  <path d="M158 302 Q368 88 578 302 Z" fill="#ffdd8a" opacity="0.36"/>
  <path d="M196 300 Q368 144 540 300" fill="none" stroke="#fff6d2" stroke-width="7" opacity="0.45"/>
  <rect x="218.0" y="272" width="18" height="103" rx="8" fill="#eaf8ff" opacity="0.42"/><rect x="224.0" y="284" width="6" height="79" rx="3" fill="#ffdd8a" opacity="0.55"/><rect x="255.5" y="272" width="18" height="95" rx="8" fill="#eaf8ff" opacity="0.42"/><rect x="261.5" y="284" width="6" height="71" rx="3" fill="#ffdd8a" opacity="0.55"/><rect x="293.0" y="272" width="18" height="91" rx="8" fill="#eaf8ff" opacity="0.42"/><rect x="299.0" y="284" width="6" height="67" rx="3" fill="#ffdd8a" opacity="0.55"/><rect x="330.5" y="272" width="18" height="110" rx="8" fill="#eaf8ff" opacity="0.42"/><rect x="336.5" y="284" width="6" height="86" rx="3" fill="#ffdd8a" opacity="0.55"/><rect x="368.0" y="272" width="18" height="99" rx="8" fill="#eaf8ff" opacity="0.42"/><rect x="374.0" y="284" width="6" height="75" rx="3" fill="#ffdd8a" opacity="0.55"/><rect x="405.5" y="272" width="18" height="93" rx="8" fill="#eaf8ff" opacity="0.42"/><rect x="411.5" y="284" width="6" height="69" rx="3" fill="#ffdd8a" opacity="0.55"/><rect x="443.0" y="272" width="18" height="90" rx="8" fill="#eaf8ff" opacity="0.42"/><rect x="449.0" y="284" width="6" height="66" rx="3" fill="#ffdd8a" opacity="0.55"/><rect x="480.5" y="272" width="18" height="89" rx="8" fill="#eaf8ff" opacity="0.42"/><rect x="486.5" y="284" width="6" height="65" rx="3" fill="#ffdd8a" opacity="0.55"/><rect x="518.0" y="272" width="18" height="109" rx="8" fill="#eaf8ff" opacity="0.42"/><rect x="524.0" y="284" width="6" height="85" rx="3" fill="#ffdd8a" opacity="0.55"/>
  <rect x="162" y="314" width="412" height="122" rx="32" fill="#0a1724" opacity="0.88"/>
  <circle cx="368" cy="341" r="86" fill="url(#heart-sanctuary-8)" filter="url(#glow-sanctuary-8)" opacity="0.95"/>
  <path d="M0 360 C132 338, 210 386, 350 354 S620 328, 960 366 L960 420 L0 420 Z" fill="#0f2330" opacity="0.82"/>
  <path d="M103 384 C256 326, 472 414, 632 356" fill="none" stroke="#fff4cf" stroke-width="5" opacity="0.32"/>
  <text x="28" y="40" fill="#fff4cf" font-family="monospace" font-size="18" letter-spacing="5" opacity="0.5">RF 08 SANCTUARY</text>
</svg>