<svg width="96" height="96" viewBox="0 0 96 96" fill="none" xmlns="http://www.w3.org/2000/svg">
  <rect width="96" height="96" rx="28" fill="#20172D"/>
  <circle cx="48" cy="38" r="18" fill="#FFD6BC"/>
  <path d="M24 83C26 66 36 58 48 58C60 58 70 66 72 83" fill="#A08CFF"/>
  <path d="M27 34C31 18 41 12 51 12C61 12 69 19 69 33C63 30 58 28 52 28C42 28 34 31 27 34Z" fill="#DBA4FF"/>
  <circle cx="41" cy="40" r="2.7" fill="#221838"/>
  <circle cx="55" cy="40" r="2.7" fill="#221838"/>
  <path d="M42 49C45 51 51 51 54 49" stroke="#B46E77" stroke-width="2.8" stroke-linecap="round"/>
</svg>
